G04 Layer_Color=8421504*
%FSLAX25Y25*%
%MOIN*%
G70*
G01*
G75*
%ADD10O,0.01600X0.10000*%
%ADD11R,0.01600X0.10000*%
%ADD12O,0.10000X0.01600*%
%ADD13R,0.10000X0.01600*%
%ADD14O,0.02756X0.06890*%
%ADD15R,0.59055X0.35433*%
%ADD16O,0.02500X0.10000*%
%ADD17R,0.02500X0.10000*%
%ADD18R,0.02362X0.07874*%
%ADD19O,0.02362X0.07874*%
%ADD20O,0.09449X0.02756*%
%ADD21R,0.06299X0.05906*%
%ADD22R,0.04921X0.05709*%
%ADD23R,0.05709X0.04921*%
%ADD24R,0.08268X0.03543*%
%ADD25R,0.08268X0.12598*%
%ADD26O,0.02756X0.09843*%
%ADD27R,0.02362X0.03543*%
%ADD28R,0.03543X0.02362*%
%ADD29R,0.06693X0.02362*%
%ADD30R,0.12205X0.09488*%
%ADD31O,0.02362X0.06693*%
%ADD32O,0.02362X0.09055*%
%ADD33R,0.06102X0.05118*%
%ADD34O,0.02362X0.08661*%
%ADD35O,0.07284X0.01772*%
%ADD36R,0.32283X0.14567*%
%ADD37R,0.06693X0.11417*%
%ADD38R,0.02500X0.03300*%
%ADD39R,0.05906X0.06299*%
%ADD40R,0.10236X0.04331*%
%ADD41R,0.06299X0.08661*%
%ADD42R,0.08661X0.06299*%
%ADD43R,0.13780X0.06299*%
%ADD44R,0.04528X0.05709*%
%ADD45R,0.06693X0.04331*%
%ADD46R,0.04331X0.06693*%
%ADD47R,0.05118X0.04331*%
%ADD48R,0.03150X0.08661*%
%ADD49R,0.14961X0.09449*%
D10*
X346061Y176438D02*
D03*
X343501D02*
D03*
X340941D02*
D03*
X338381D02*
D03*
X335821D02*
D03*
X333261D02*
D03*
X330701D02*
D03*
X328141D02*
D03*
X325581D02*
D03*
X323021D02*
D03*
X317901D02*
D03*
X315341D02*
D03*
X312781D02*
D03*
X310221D02*
D03*
X307661D02*
D03*
X305101D02*
D03*
X302541D02*
D03*
X299981D02*
D03*
X297421D02*
D03*
Y241678D02*
D03*
X299981D02*
D03*
X302541D02*
D03*
X305101D02*
D03*
X307661D02*
D03*
X310221D02*
D03*
X312781D02*
D03*
X315341D02*
D03*
X317901D02*
D03*
X320461D02*
D03*
X325581D02*
D03*
X328141D02*
D03*
X330701D02*
D03*
X333261D02*
D03*
X335821D02*
D03*
X338381D02*
D03*
X340941D02*
D03*
X343501D02*
D03*
X346061D02*
D03*
D11*
X320461Y176438D02*
D03*
X323021Y241678D02*
D03*
D12*
X289121Y184738D02*
D03*
Y187298D02*
D03*
Y189858D02*
D03*
Y192418D02*
D03*
Y194978D02*
D03*
Y197538D02*
D03*
Y200098D02*
D03*
Y202658D02*
D03*
Y205218D02*
D03*
Y207778D02*
D03*
Y212898D02*
D03*
Y215458D02*
D03*
Y218018D02*
D03*
Y220578D02*
D03*
Y223138D02*
D03*
Y225698D02*
D03*
Y228258D02*
D03*
Y230818D02*
D03*
Y233378D02*
D03*
X354361D02*
D03*
Y230818D02*
D03*
Y228258D02*
D03*
Y225698D02*
D03*
Y223138D02*
D03*
Y220578D02*
D03*
Y218018D02*
D03*
Y215458D02*
D03*
Y212898D02*
D03*
Y210338D02*
D03*
Y205218D02*
D03*
Y202658D02*
D03*
Y200098D02*
D03*
Y197538D02*
D03*
Y194978D02*
D03*
Y192418D02*
D03*
Y189858D02*
D03*
Y187298D02*
D03*
D13*
X289121Y210338D02*
D03*
X354361Y207778D02*
D03*
Y184738D02*
D03*
D14*
X86000Y240721D02*
D03*
X81000D02*
D03*
X76000D02*
D03*
X71000D02*
D03*
X66000D02*
D03*
X61000D02*
D03*
X56000D02*
D03*
X86000Y218280D02*
D03*
X81000D02*
D03*
X76000D02*
D03*
X71000D02*
D03*
X66000D02*
D03*
X61000D02*
D03*
X56000D02*
D03*
D15*
X503500Y207000D02*
D03*
D16*
X525500Y181415D02*
D03*
X520500D02*
D03*
X515500D02*
D03*
X510500D02*
D03*
X505500D02*
D03*
X500500D02*
D03*
X495500D02*
D03*
X490500D02*
D03*
X485500D02*
D03*
X480500D02*
D03*
Y233500D02*
D03*
X485500D02*
D03*
X490500D02*
D03*
X495500D02*
D03*
X500500D02*
D03*
X505500D02*
D03*
X510500D02*
D03*
X515500D02*
D03*
X520500D02*
D03*
D17*
X525500D02*
D03*
D18*
X191000Y241508D02*
D03*
D19*
X186000D02*
D03*
X181000D02*
D03*
X176000D02*
D03*
X171000D02*
D03*
X166000D02*
D03*
X161000D02*
D03*
X156000D02*
D03*
X151000D02*
D03*
X191000Y204500D02*
D03*
X186000D02*
D03*
X181000D02*
D03*
X176000D02*
D03*
X171000D02*
D03*
X166000D02*
D03*
X161000D02*
D03*
X156000D02*
D03*
X151000D02*
D03*
D20*
X70256Y57000D02*
D03*
Y52000D02*
D03*
Y47000D02*
D03*
Y42000D02*
D03*
X89744Y57000D02*
D03*
Y52000D02*
D03*
Y47000D02*
D03*
Y42000D02*
D03*
D21*
X16000Y358484D02*
D03*
Y350807D02*
D03*
X202500Y186339D02*
D03*
Y178661D02*
D03*
X453000Y55339D02*
D03*
Y47661D02*
D03*
X537000Y96260D02*
D03*
Y103937D02*
D03*
X470500Y84091D02*
D03*
Y91768D02*
D03*
X515000Y66339D02*
D03*
Y58661D02*
D03*
X502000Y150661D02*
D03*
Y158339D02*
D03*
X529000Y334661D02*
D03*
Y342339D02*
D03*
X458677Y360236D02*
D03*
Y367913D02*
D03*
X283000Y167661D02*
D03*
Y175339D02*
D03*
X263000Y265661D02*
D03*
Y273339D02*
D03*
X450000Y12661D02*
D03*
Y20339D02*
D03*
X330500Y279161D02*
D03*
Y286839D02*
D03*
X340500Y279161D02*
D03*
Y286839D02*
D03*
X16244Y85339D02*
D03*
Y77661D02*
D03*
X26744Y85339D02*
D03*
Y77661D02*
D03*
X49500Y289339D02*
D03*
Y281661D02*
D03*
X36500Y298839D02*
D03*
Y291161D02*
D03*
X43000Y309661D02*
D03*
Y317339D02*
D03*
X243000Y212161D02*
D03*
Y219839D02*
D03*
X38000Y260339D02*
D03*
Y252661D02*
D03*
X35000Y201839D02*
D03*
Y194161D02*
D03*
X33000Y237339D02*
D03*
Y229661D02*
D03*
X35000Y179839D02*
D03*
Y172161D02*
D03*
X505500Y264661D02*
D03*
Y272339D02*
D03*
D22*
X473071Y304552D02*
D03*
X481929D02*
D03*
X365429Y358000D02*
D03*
X356571D02*
D03*
X325492Y374740D02*
D03*
X316634D02*
D03*
X335134D02*
D03*
X343992D02*
D03*
X491429Y158500D02*
D03*
X482571D02*
D03*
X487929Y385500D02*
D03*
X479071D02*
D03*
X504071Y316000D02*
D03*
X512929D02*
D03*
X503571Y385500D02*
D03*
X512429D02*
D03*
X487929Y316000D02*
D03*
X479071D02*
D03*
X366071Y375000D02*
D03*
X374929D02*
D03*
X139571Y120500D02*
D03*
X148429D02*
D03*
X130571Y75500D02*
D03*
X139429D02*
D03*
X139429Y86000D02*
D03*
X130571D02*
D03*
X148429Y109000D02*
D03*
X139571D02*
D03*
X263929Y254500D02*
D03*
X255071D02*
D03*
X410071Y238500D02*
D03*
X418929D02*
D03*
X282929Y275500D02*
D03*
X274071D02*
D03*
X297429Y115500D02*
D03*
X288571D02*
D03*
X316429D02*
D03*
X307571D02*
D03*
X344429Y92500D02*
D03*
X335571D02*
D03*
X346932Y256738D02*
D03*
X355790D02*
D03*
X306429Y152500D02*
D03*
X297571D02*
D03*
X341429Y297000D02*
D03*
X332571D02*
D03*
X64929Y109500D02*
D03*
X56071D02*
D03*
X36071Y16000D02*
D03*
X44929D02*
D03*
X98429Y29250D02*
D03*
X89571D02*
D03*
X89815Y67500D02*
D03*
X98673D02*
D03*
X106929Y364646D02*
D03*
X98071D02*
D03*
X63429Y325500D02*
D03*
X54571D02*
D03*
X102071Y315500D02*
D03*
X110929D02*
D03*
X19571Y330500D02*
D03*
X28429D02*
D03*
X124929Y364646D02*
D03*
X116071D02*
D03*
X124929Y374646D02*
D03*
X116071D02*
D03*
X88929Y364500D02*
D03*
X80071D02*
D03*
X98071Y374646D02*
D03*
X106929D02*
D03*
X66429Y200500D02*
D03*
X57571D02*
D03*
X244429Y371000D02*
D03*
X235571D02*
D03*
X61071Y187000D02*
D03*
X69929D02*
D03*
X160071Y260508D02*
D03*
X168929D02*
D03*
X188429D02*
D03*
X179571D02*
D03*
D23*
X50000Y252071D02*
D03*
Y260929D02*
D03*
X303000Y354571D02*
D03*
Y363429D02*
D03*
X489000Y63500D02*
D03*
Y72358D02*
D03*
X502000Y88929D02*
D03*
Y80071D02*
D03*
X489000Y31358D02*
D03*
Y22500D02*
D03*
X503500Y120669D02*
D03*
Y129528D02*
D03*
X489000Y42500D02*
D03*
Y51358D02*
D03*
X502000Y108929D02*
D03*
Y100071D02*
D03*
X161000Y115429D02*
D03*
Y106571D02*
D03*
X461000Y284571D02*
D03*
Y293429D02*
D03*
X294000Y276071D02*
D03*
Y284929D02*
D03*
X327000Y101929D02*
D03*
Y93071D02*
D03*
X304500Y271429D02*
D03*
Y262571D02*
D03*
X16000Y67929D02*
D03*
Y59071D02*
D03*
X38000Y77071D02*
D03*
Y85929D02*
D03*
X122000Y315929D02*
D03*
Y307071D02*
D03*
X72000Y307575D02*
D03*
Y298716D02*
D03*
X61500Y288571D02*
D03*
Y297429D02*
D03*
X68500Y372929D02*
D03*
Y364071D02*
D03*
X362000Y283929D02*
D03*
Y275071D02*
D03*
X352000Y283929D02*
D03*
Y275071D02*
D03*
X45000Y229071D02*
D03*
Y237929D02*
D03*
X553500Y254071D02*
D03*
Y262929D02*
D03*
X465500Y255929D02*
D03*
Y247071D02*
D03*
D24*
X172153Y334055D02*
D03*
Y325000D02*
D03*
Y315945D02*
D03*
D25*
X194595Y325000D02*
D03*
D26*
X79500Y284500D02*
D03*
X84500D02*
D03*
X89500D02*
D03*
X94500D02*
D03*
X99500D02*
D03*
X104500D02*
D03*
X109500D02*
D03*
X79500Y303791D02*
D03*
X84500D02*
D03*
X89500D02*
D03*
X94500D02*
D03*
X99500D02*
D03*
X104500D02*
D03*
X109500D02*
D03*
D27*
X104374Y339886D02*
D03*
X101224D02*
D03*
X98075D02*
D03*
X94925D02*
D03*
X91776D02*
D03*
X88626D02*
D03*
Y332405D02*
D03*
X91776D02*
D03*
X94925D02*
D03*
X98075D02*
D03*
X101224D02*
D03*
X104374D02*
D03*
D28*
X88626Y336146D02*
D03*
X104374D02*
D03*
D29*
X118437Y71760D02*
D03*
Y79240D02*
D03*
X110563Y75500D02*
D03*
X118437Y90260D02*
D03*
Y97740D02*
D03*
X110563Y94000D02*
D03*
X324500Y357500D02*
D03*
Y364980D02*
D03*
X316626Y361240D02*
D03*
X344000Y357500D02*
D03*
Y364980D02*
D03*
X336126Y361240D02*
D03*
X395437Y252760D02*
D03*
Y260240D02*
D03*
X387563Y256500D02*
D03*
D30*
X472500Y51929D02*
D03*
X520405Y99598D02*
D03*
D31*
X480000Y61575D02*
D03*
X475000D02*
D03*
X470000D02*
D03*
X465000D02*
D03*
X480000Y42283D02*
D03*
X475000D02*
D03*
X470000D02*
D03*
X465000D02*
D03*
X512906Y89953D02*
D03*
X517906D02*
D03*
X522905D02*
D03*
X527906D02*
D03*
X512906Y109244D02*
D03*
X517906D02*
D03*
X522905D02*
D03*
X527906D02*
D03*
D32*
X518177Y369413D02*
D03*
X513177D02*
D03*
X508177D02*
D03*
X503177D02*
D03*
X498177D02*
D03*
X493177D02*
D03*
X488177D02*
D03*
X483177D02*
D03*
X478177D02*
D03*
X473177D02*
D03*
X518177Y333587D02*
D03*
X513177D02*
D03*
X508177D02*
D03*
X503177D02*
D03*
X498177D02*
D03*
X493177D02*
D03*
X488177D02*
D03*
X483177D02*
D03*
X478177D02*
D03*
X473177D02*
D03*
D33*
X408299Y265358D02*
D03*
X445701D02*
D03*
X408299Y247642D02*
D03*
X445701D02*
D03*
D34*
X209500Y105949D02*
D03*
X204500D02*
D03*
X199500D02*
D03*
X194500D02*
D03*
X189500D02*
D03*
X184500D02*
D03*
X179500D02*
D03*
X174500D02*
D03*
X209500Y87051D02*
D03*
X204500D02*
D03*
X199500D02*
D03*
X194500D02*
D03*
X189500D02*
D03*
X184500D02*
D03*
X179500D02*
D03*
X174500D02*
D03*
D35*
X43839Y128339D02*
D03*
Y125779D02*
D03*
Y123221D02*
D03*
Y120661D02*
D03*
X61161Y128339D02*
D03*
Y125779D02*
D03*
Y123221D02*
D03*
Y120661D02*
D03*
D36*
X429000Y55528D02*
D03*
Y30331D02*
D03*
X564500Y95500D02*
D03*
Y120697D02*
D03*
D37*
X456500Y94024D02*
D03*
Y80835D02*
D03*
X528500Y56906D02*
D03*
Y70095D02*
D03*
D38*
X579475Y244000D02*
D03*
X569525D02*
D03*
X441975Y238500D02*
D03*
X432025D02*
D03*
X554475Y244000D02*
D03*
X544525D02*
D03*
D39*
X147661Y361500D02*
D03*
X155339D02*
D03*
X147661Y350000D02*
D03*
X155339D02*
D03*
X520339Y158500D02*
D03*
X512661D02*
D03*
X530339Y247000D02*
D03*
X522661D02*
D03*
X147839Y132000D02*
D03*
X140161D02*
D03*
X298339Y297000D02*
D03*
X290661D02*
D03*
X159161Y288500D02*
D03*
X166839D02*
D03*
X218339Y64000D02*
D03*
X210661D02*
D03*
X374839Y156500D02*
D03*
X367161D02*
D03*
X395339Y270500D02*
D03*
X387661D02*
D03*
X315022Y297238D02*
D03*
X322700D02*
D03*
X373661Y204000D02*
D03*
X381339D02*
D03*
X360339Y295500D02*
D03*
X352661D02*
D03*
X523839Y265000D02*
D03*
X516161D02*
D03*
X338161Y38000D02*
D03*
X345839D02*
D03*
X393661D02*
D03*
X401339D02*
D03*
X366161D02*
D03*
X373839D02*
D03*
D40*
X469500Y22244D02*
D03*
Y11614D02*
D03*
X529500Y129283D02*
D03*
Y139913D02*
D03*
X482500Y94244D02*
D03*
Y83614D02*
D03*
X503000Y55783D02*
D03*
Y66413D02*
D03*
D41*
X152000Y313906D02*
D03*
Y302095D02*
D03*
X222000Y97405D02*
D03*
Y85594D02*
D03*
D42*
X145595Y335000D02*
D03*
X157405D02*
D03*
X163594Y130000D02*
D03*
X175406D02*
D03*
X199406D02*
D03*
X187594D02*
D03*
X222406Y129500D02*
D03*
X210595D02*
D03*
X190905Y182000D02*
D03*
X179095D02*
D03*
D43*
X538630Y284500D02*
D03*
X517370D02*
D03*
D44*
X199043Y167500D02*
D03*
X191957D02*
D03*
X320404Y261738D02*
D03*
X313318D02*
D03*
D45*
X332000Y267315D02*
D03*
Y256685D02*
D03*
D46*
X337685Y156500D02*
D03*
X348315D02*
D03*
D47*
X304361Y280738D02*
D03*
X313416D02*
D03*
Y287824D02*
D03*
X304361D02*
D03*
D48*
X124193Y109500D02*
D03*
X117500D02*
D03*
X124193Y125000D02*
D03*
X117500D02*
D03*
D49*
X290185Y40516D02*
D03*
X250815D02*
D03*
X290185Y16500D02*
D03*
X250815D02*
D03*
M02*
