G04 Layer_Color=8388736*
%FSLAX25Y25*%
%MOIN*%
G70*
G01*
G75*
%ADD97O,0.02400X0.10800*%
%ADD98R,0.02400X0.10800*%
%ADD99O,0.10800X0.02400*%
%ADD100R,0.10800X0.02400*%
%ADD101O,0.03556X0.07690*%
%ADD102R,0.59855X0.36233*%
%ADD103O,0.03300X0.10800*%
%ADD104R,0.03300X0.10800*%
%ADD105R,0.03162X0.08674*%
%ADD106O,0.03162X0.08674*%
%ADD107O,0.10249X0.03556*%
%ADD108R,0.07099X0.06706*%
%ADD109R,0.05721X0.06509*%
%ADD110R,0.06509X0.05721*%
%ADD111R,0.09068X0.04343*%
%ADD112R,0.09068X0.13398*%
%ADD113O,0.03556X0.10642*%
%ADD114R,0.03162X0.04343*%
%ADD115R,0.04343X0.03162*%
%ADD116R,0.07493X0.03162*%
%ADD117R,0.13005X0.10288*%
%ADD118O,0.03162X0.07493*%
%ADD119O,0.03162X0.09855*%
%ADD120R,0.06902X0.05918*%
%ADD121O,0.03162X0.09461*%
%ADD122O,0.08083X0.02572*%
%ADD123R,0.33083X0.15367*%
%ADD124R,0.07493X0.12217*%
%ADD125R,0.03300X0.04100*%
%ADD126R,0.06706X0.07099*%
%ADD127R,0.11036X0.05131*%
%ADD128R,0.07099X0.09461*%
%ADD129R,0.09461X0.07099*%
%ADD130R,0.14579X0.07099*%
%ADD131R,0.05328X0.06509*%
%ADD132R,0.07493X0.05131*%
%ADD133R,0.05131X0.07493*%
%ADD134R,0.05918X0.05131*%
%ADD135R,0.03950X0.09461*%
%ADD136R,0.15761X0.10249*%
%ADD137C,0.06706*%
%ADD138R,0.06706X0.06706*%
%ADD139C,0.07300*%
%ADD140R,0.07300X0.07300*%
%ADD141R,0.06706X0.06706*%
%ADD142C,0.30800*%
%ADD143R,0.07300X0.07300*%
%ADD144C,0.08300*%
%ADD145R,0.08300X0.08300*%
%ADD146C,0.19540*%
%ADD147C,0.10580*%
%ADD148C,0.09893*%
%ADD149C,0.05800*%
D97*
X346061Y176438D02*
D03*
X343501D02*
D03*
X340941D02*
D03*
X338381D02*
D03*
X335821D02*
D03*
X333261D02*
D03*
X330701D02*
D03*
X328141D02*
D03*
X325581D02*
D03*
X323021D02*
D03*
X317901D02*
D03*
X315341D02*
D03*
X312781D02*
D03*
X310221D02*
D03*
X307661D02*
D03*
X305101D02*
D03*
X302541D02*
D03*
X299981D02*
D03*
X297421D02*
D03*
Y241678D02*
D03*
X299981D02*
D03*
X302541D02*
D03*
X305101D02*
D03*
X307661D02*
D03*
X310221D02*
D03*
X312781D02*
D03*
X315341D02*
D03*
X317901D02*
D03*
X320461D02*
D03*
X325581D02*
D03*
X328141D02*
D03*
X330701D02*
D03*
X333261D02*
D03*
X335821D02*
D03*
X338381D02*
D03*
X340941D02*
D03*
X343501D02*
D03*
X346061D02*
D03*
D98*
X320461Y176438D02*
D03*
X323021Y241678D02*
D03*
D99*
X289121Y184738D02*
D03*
Y187298D02*
D03*
Y189858D02*
D03*
Y192418D02*
D03*
Y194978D02*
D03*
Y197538D02*
D03*
Y200098D02*
D03*
Y202658D02*
D03*
Y205218D02*
D03*
Y207778D02*
D03*
Y212898D02*
D03*
Y215458D02*
D03*
Y218018D02*
D03*
Y220578D02*
D03*
Y223138D02*
D03*
Y225698D02*
D03*
Y228258D02*
D03*
Y230818D02*
D03*
Y233378D02*
D03*
X354361D02*
D03*
Y230818D02*
D03*
Y228258D02*
D03*
Y225698D02*
D03*
Y223138D02*
D03*
Y220578D02*
D03*
Y218018D02*
D03*
Y215458D02*
D03*
Y212898D02*
D03*
Y210338D02*
D03*
Y205218D02*
D03*
Y202658D02*
D03*
Y200098D02*
D03*
Y197538D02*
D03*
Y194978D02*
D03*
Y192418D02*
D03*
Y189858D02*
D03*
Y187298D02*
D03*
D100*
X289121Y210338D02*
D03*
X354361Y207778D02*
D03*
Y184738D02*
D03*
D101*
X86000Y240721D02*
D03*
X81000D02*
D03*
X76000D02*
D03*
X71000D02*
D03*
X66000D02*
D03*
X61000D02*
D03*
X56000D02*
D03*
X86000Y218280D02*
D03*
X81000D02*
D03*
X76000D02*
D03*
X71000D02*
D03*
X66000D02*
D03*
X61000D02*
D03*
X56000D02*
D03*
D102*
X503500Y207000D02*
D03*
D103*
X525500Y181415D02*
D03*
X520500D02*
D03*
X515500D02*
D03*
X510500D02*
D03*
X505500D02*
D03*
X500500D02*
D03*
X495500D02*
D03*
X490500D02*
D03*
X485500D02*
D03*
X480500D02*
D03*
Y233500D02*
D03*
X485500D02*
D03*
X490500D02*
D03*
X495500D02*
D03*
X500500D02*
D03*
X505500D02*
D03*
X510500D02*
D03*
X515500D02*
D03*
X520500D02*
D03*
D104*
X525500D02*
D03*
D105*
X191000Y241508D02*
D03*
D106*
X186000D02*
D03*
X181000D02*
D03*
X176000D02*
D03*
X171000D02*
D03*
X166000D02*
D03*
X161000D02*
D03*
X156000D02*
D03*
X151000D02*
D03*
X191000Y204500D02*
D03*
X186000D02*
D03*
X181000D02*
D03*
X176000D02*
D03*
X171000D02*
D03*
X166000D02*
D03*
X161000D02*
D03*
X156000D02*
D03*
X151000D02*
D03*
D107*
X70256Y57000D02*
D03*
Y52000D02*
D03*
Y47000D02*
D03*
Y42000D02*
D03*
X89744Y57000D02*
D03*
Y52000D02*
D03*
Y47000D02*
D03*
Y42000D02*
D03*
D108*
X16000Y358484D02*
D03*
Y350807D02*
D03*
X202500Y186339D02*
D03*
Y178661D02*
D03*
X453000Y55339D02*
D03*
Y47661D02*
D03*
X537000Y96260D02*
D03*
Y103937D02*
D03*
X470500Y84091D02*
D03*
Y91768D02*
D03*
X515000Y66339D02*
D03*
Y58661D02*
D03*
X502000Y150661D02*
D03*
Y158339D02*
D03*
X529000Y334661D02*
D03*
Y342339D02*
D03*
X458677Y360236D02*
D03*
Y367913D02*
D03*
X283000Y167661D02*
D03*
Y175339D02*
D03*
X263000Y265661D02*
D03*
Y273339D02*
D03*
X450000Y12661D02*
D03*
Y20339D02*
D03*
X330500Y279161D02*
D03*
Y286839D02*
D03*
X340500Y279161D02*
D03*
Y286839D02*
D03*
X16244Y85339D02*
D03*
Y77661D02*
D03*
X26744Y85339D02*
D03*
Y77661D02*
D03*
X49500Y289339D02*
D03*
Y281661D02*
D03*
X36500Y298839D02*
D03*
Y291161D02*
D03*
X43000Y309661D02*
D03*
Y317339D02*
D03*
X243000Y212161D02*
D03*
Y219839D02*
D03*
X38000Y260339D02*
D03*
Y252661D02*
D03*
X35000Y201839D02*
D03*
Y194161D02*
D03*
X33000Y237339D02*
D03*
Y229661D02*
D03*
X35000Y179839D02*
D03*
Y172161D02*
D03*
X505500Y264661D02*
D03*
Y272339D02*
D03*
D109*
X473071Y304552D02*
D03*
X481929D02*
D03*
X365429Y358000D02*
D03*
X356571D02*
D03*
X325492Y374740D02*
D03*
X316634D02*
D03*
X335134D02*
D03*
X343992D02*
D03*
X491429Y158500D02*
D03*
X482571D02*
D03*
X487929Y385500D02*
D03*
X479071D02*
D03*
X504071Y316000D02*
D03*
X512929D02*
D03*
X503571Y385500D02*
D03*
X512429D02*
D03*
X487929Y316000D02*
D03*
X479071D02*
D03*
X366071Y375000D02*
D03*
X374929D02*
D03*
X139571Y120500D02*
D03*
X148429D02*
D03*
X130571Y75500D02*
D03*
X139429D02*
D03*
X139429Y86000D02*
D03*
X130571D02*
D03*
X148429Y109000D02*
D03*
X139571D02*
D03*
X263929Y254500D02*
D03*
X255071D02*
D03*
X410071Y238500D02*
D03*
X418929D02*
D03*
X282929Y275500D02*
D03*
X274071D02*
D03*
X297429Y115500D02*
D03*
X288571D02*
D03*
X316429D02*
D03*
X307571D02*
D03*
X344429Y92500D02*
D03*
X335571D02*
D03*
X346932Y256738D02*
D03*
X355790D02*
D03*
X306429Y152500D02*
D03*
X297571D02*
D03*
X341429Y297000D02*
D03*
X332571D02*
D03*
X64929Y109500D02*
D03*
X56071D02*
D03*
X36071Y16000D02*
D03*
X44929D02*
D03*
X98429Y29250D02*
D03*
X89571D02*
D03*
X89815Y67500D02*
D03*
X98673D02*
D03*
X106929Y364646D02*
D03*
X98071D02*
D03*
X63429Y325500D02*
D03*
X54571D02*
D03*
X102071Y315500D02*
D03*
X110929D02*
D03*
X19571Y330500D02*
D03*
X28429D02*
D03*
X124929Y364646D02*
D03*
X116071D02*
D03*
X124929Y374646D02*
D03*
X116071D02*
D03*
X88929Y364500D02*
D03*
X80071D02*
D03*
X98071Y374646D02*
D03*
X106929D02*
D03*
X66429Y200500D02*
D03*
X57571D02*
D03*
X244429Y371000D02*
D03*
X235571D02*
D03*
X61071Y187000D02*
D03*
X69929D02*
D03*
X160071Y260508D02*
D03*
X168929D02*
D03*
X188429D02*
D03*
X179571D02*
D03*
D110*
X50000Y252071D02*
D03*
Y260929D02*
D03*
X303000Y354571D02*
D03*
Y363429D02*
D03*
X489000Y63500D02*
D03*
Y72358D02*
D03*
X502000Y88929D02*
D03*
Y80071D02*
D03*
X489000Y31358D02*
D03*
Y22500D02*
D03*
X503500Y120669D02*
D03*
Y129528D02*
D03*
X489000Y42500D02*
D03*
Y51358D02*
D03*
X502000Y108929D02*
D03*
Y100071D02*
D03*
X161000Y115429D02*
D03*
Y106571D02*
D03*
X461000Y284571D02*
D03*
Y293429D02*
D03*
X294000Y276071D02*
D03*
Y284929D02*
D03*
X327000Y101929D02*
D03*
Y93071D02*
D03*
X304500Y271429D02*
D03*
Y262571D02*
D03*
X16000Y67929D02*
D03*
Y59071D02*
D03*
X38000Y77071D02*
D03*
Y85929D02*
D03*
X122000Y315929D02*
D03*
Y307071D02*
D03*
X72000Y307575D02*
D03*
Y298716D02*
D03*
X61500Y288571D02*
D03*
Y297429D02*
D03*
X68500Y372929D02*
D03*
Y364071D02*
D03*
X362000Y283929D02*
D03*
Y275071D02*
D03*
X352000Y283929D02*
D03*
Y275071D02*
D03*
X45000Y229071D02*
D03*
Y237929D02*
D03*
X553500Y254071D02*
D03*
Y262929D02*
D03*
X465500Y255929D02*
D03*
Y247071D02*
D03*
D111*
X172153Y334055D02*
D03*
Y325000D02*
D03*
Y315945D02*
D03*
D112*
X194595Y325000D02*
D03*
D113*
X79500Y284500D02*
D03*
X84500D02*
D03*
X89500D02*
D03*
X94500D02*
D03*
X99500D02*
D03*
X104500D02*
D03*
X109500D02*
D03*
X79500Y303791D02*
D03*
X84500D02*
D03*
X89500D02*
D03*
X94500D02*
D03*
X99500D02*
D03*
X104500D02*
D03*
X109500D02*
D03*
D114*
X104374Y339886D02*
D03*
X101224D02*
D03*
X98075D02*
D03*
X94925D02*
D03*
X91776D02*
D03*
X88626D02*
D03*
Y332405D02*
D03*
X91776D02*
D03*
X94925D02*
D03*
X98075D02*
D03*
X101224D02*
D03*
X104374D02*
D03*
D115*
X88626Y336146D02*
D03*
X104374D02*
D03*
D116*
X118437Y71760D02*
D03*
Y79240D02*
D03*
X110563Y75500D02*
D03*
X118437Y90260D02*
D03*
Y97740D02*
D03*
X110563Y94000D02*
D03*
X324500Y357500D02*
D03*
Y364980D02*
D03*
X316626Y361240D02*
D03*
X344000Y357500D02*
D03*
Y364980D02*
D03*
X336126Y361240D02*
D03*
X395437Y252760D02*
D03*
Y260240D02*
D03*
X387563Y256500D02*
D03*
D117*
X472500Y51929D02*
D03*
X520405Y99598D02*
D03*
D118*
X480000Y61575D02*
D03*
X475000D02*
D03*
X470000D02*
D03*
X465000D02*
D03*
X480000Y42283D02*
D03*
X475000D02*
D03*
X470000D02*
D03*
X465000D02*
D03*
X512906Y89953D02*
D03*
X517906D02*
D03*
X522905D02*
D03*
X527906D02*
D03*
X512906Y109244D02*
D03*
X517906D02*
D03*
X522905D02*
D03*
X527906D02*
D03*
D119*
X518177Y369413D02*
D03*
X513177D02*
D03*
X508177D02*
D03*
X503177D02*
D03*
X498177D02*
D03*
X493177D02*
D03*
X488177D02*
D03*
X483177D02*
D03*
X478177D02*
D03*
X473177D02*
D03*
X518177Y333587D02*
D03*
X513177D02*
D03*
X508177D02*
D03*
X503177D02*
D03*
X498177D02*
D03*
X493177D02*
D03*
X488177D02*
D03*
X483177D02*
D03*
X478177D02*
D03*
X473177D02*
D03*
D120*
X408299Y265358D02*
D03*
X445701D02*
D03*
X408299Y247642D02*
D03*
X445701D02*
D03*
D121*
X209500Y105949D02*
D03*
X204500D02*
D03*
X199500D02*
D03*
X194500D02*
D03*
X189500D02*
D03*
X184500D02*
D03*
X179500D02*
D03*
X174500D02*
D03*
X209500Y87051D02*
D03*
X204500D02*
D03*
X199500D02*
D03*
X194500D02*
D03*
X189500D02*
D03*
X184500D02*
D03*
X179500D02*
D03*
X174500D02*
D03*
D122*
X43839Y128339D02*
D03*
Y125779D02*
D03*
Y123221D02*
D03*
Y120661D02*
D03*
X61161Y128339D02*
D03*
Y125779D02*
D03*
Y123221D02*
D03*
Y120661D02*
D03*
D123*
X429000Y55528D02*
D03*
Y30331D02*
D03*
X564500Y95500D02*
D03*
Y120697D02*
D03*
D124*
X456500Y94024D02*
D03*
Y80835D02*
D03*
X528500Y56906D02*
D03*
Y70095D02*
D03*
D125*
X579475Y244000D02*
D03*
X569525D02*
D03*
X441975Y238500D02*
D03*
X432025D02*
D03*
X554475Y244000D02*
D03*
X544525D02*
D03*
D126*
X147661Y361500D02*
D03*
X155339D02*
D03*
X147661Y350000D02*
D03*
X155339D02*
D03*
X520339Y158500D02*
D03*
X512661D02*
D03*
X530339Y247000D02*
D03*
X522661D02*
D03*
X147839Y132000D02*
D03*
X140161D02*
D03*
X298339Y297000D02*
D03*
X290661D02*
D03*
X159161Y288500D02*
D03*
X166839D02*
D03*
X218339Y64000D02*
D03*
X210661D02*
D03*
X374839Y156500D02*
D03*
X367161D02*
D03*
X395339Y270500D02*
D03*
X387661D02*
D03*
X315022Y297238D02*
D03*
X322700D02*
D03*
X373661Y204000D02*
D03*
X381339D02*
D03*
X360339Y295500D02*
D03*
X352661D02*
D03*
X523839Y265000D02*
D03*
X516161D02*
D03*
X338161Y38000D02*
D03*
X345839D02*
D03*
X393661D02*
D03*
X401339D02*
D03*
X366161D02*
D03*
X373839D02*
D03*
D127*
X469500Y22244D02*
D03*
Y11614D02*
D03*
X529500Y129283D02*
D03*
Y139913D02*
D03*
X482500Y94244D02*
D03*
Y83614D02*
D03*
X503000Y55783D02*
D03*
Y66413D02*
D03*
D128*
X152000Y313906D02*
D03*
Y302095D02*
D03*
X222000Y97405D02*
D03*
Y85594D02*
D03*
D129*
X145595Y335000D02*
D03*
X157405D02*
D03*
X163594Y130000D02*
D03*
X175406D02*
D03*
X199406D02*
D03*
X187594D02*
D03*
X222406Y129500D02*
D03*
X210595D02*
D03*
X190905Y182000D02*
D03*
X179095D02*
D03*
D130*
X538630Y284500D02*
D03*
X517370D02*
D03*
D131*
X199043Y167500D02*
D03*
X191957D02*
D03*
X320404Y261738D02*
D03*
X313318D02*
D03*
D132*
X332000Y267315D02*
D03*
Y256685D02*
D03*
D133*
X337685Y156500D02*
D03*
X348315D02*
D03*
D134*
X304361Y280738D02*
D03*
X313416D02*
D03*
Y287824D02*
D03*
X304361D02*
D03*
D135*
X124193Y109500D02*
D03*
X117500D02*
D03*
X124193Y125000D02*
D03*
X117500D02*
D03*
D136*
X290185Y40516D02*
D03*
X250815D02*
D03*
X290185Y16500D02*
D03*
X250815D02*
D03*
D137*
X118000Y245500D02*
D03*
X128000D02*
D03*
X118000Y235500D02*
D03*
X128000D02*
D03*
X118000Y225500D02*
D03*
X128000D02*
D03*
X118000Y215500D02*
D03*
X128000D02*
D03*
X118000Y205500D02*
D03*
X292000Y92500D02*
D03*
Y102500D02*
D03*
X302000Y92500D02*
D03*
Y102500D02*
D03*
X312000Y92500D02*
D03*
X365000Y385500D02*
D03*
X355000D02*
D03*
X345000D02*
D03*
X335000D02*
D03*
X325000D02*
D03*
X315000D02*
D03*
X305000D02*
D03*
X295000D02*
D03*
X285000D02*
D03*
X275000D02*
D03*
X265000D02*
D03*
X255000D02*
D03*
X245000D02*
D03*
X235000D02*
D03*
X225000D02*
D03*
X383000Y344000D02*
D03*
X373000D02*
D03*
X363000D02*
D03*
X353000D02*
D03*
X343000D02*
D03*
X333000D02*
D03*
X323000D02*
D03*
X393000D02*
D03*
X15000Y15000D02*
D03*
Y25000D02*
D03*
Y35000D02*
D03*
Y320000D02*
D03*
Y310000D02*
D03*
Y300000D02*
D03*
Y290000D02*
D03*
Y109000D02*
D03*
Y119000D02*
D03*
Y129000D02*
D03*
X257000Y320500D02*
D03*
X267000D02*
D03*
X277000D02*
D03*
X287000D02*
D03*
X297000D02*
D03*
X307000D02*
D03*
X317000D02*
D03*
X297000Y142500D02*
D03*
X15000Y170500D02*
D03*
Y180500D02*
D03*
Y190500D02*
D03*
Y230500D02*
D03*
Y240500D02*
D03*
Y250500D02*
D03*
X343000Y320500D02*
D03*
X353000D02*
D03*
X363000D02*
D03*
X373000D02*
D03*
X383000D02*
D03*
X393000D02*
D03*
X403000D02*
D03*
X363000Y130500D02*
D03*
X373000D02*
D03*
X383000D02*
D03*
X393000D02*
D03*
X403000D02*
D03*
X333000D02*
D03*
X323000D02*
D03*
X313000D02*
D03*
X303000D02*
D03*
X293000D02*
D03*
X373000Y106500D02*
D03*
X383000D02*
D03*
X393000D02*
D03*
X403000D02*
D03*
X425000Y344000D02*
D03*
X435000D02*
D03*
X445000D02*
D03*
X455000D02*
D03*
D138*
X128000Y205500D02*
D03*
X15000Y45000D02*
D03*
Y280000D02*
D03*
Y139000D02*
D03*
Y200500D02*
D03*
Y260500D02*
D03*
D139*
X416000Y283000D02*
D03*
Y293000D02*
D03*
X426000Y283000D02*
D03*
Y293000D02*
D03*
X436000Y283000D02*
D03*
X393000Y15000D02*
D03*
X365000D02*
D03*
X337500D02*
D03*
X181500Y61500D02*
D03*
X171500D02*
D03*
X161500D02*
D03*
X83500Y15500D02*
D03*
X268000Y150500D02*
D03*
X309500Y15000D02*
D03*
X387000Y385500D02*
D03*
X275000Y254500D02*
D03*
X287000Y263500D02*
D03*
X161500Y96000D02*
D03*
X268000Y183000D02*
D03*
X585000Y270500D02*
D03*
Y200500D02*
D03*
D140*
X436000Y293000D02*
D03*
X403000Y15000D02*
D03*
X375000D02*
D03*
X347500D02*
D03*
X191500Y61500D02*
D03*
X73500Y15500D02*
D03*
X319500Y15000D02*
D03*
X397000Y385500D02*
D03*
D141*
X312000Y102500D02*
D03*
X375000Y385500D02*
D03*
X403000Y344000D02*
D03*
X247000Y320500D02*
D03*
X307000Y142500D02*
D03*
X333000Y320500D02*
D03*
X353000Y130500D02*
D03*
X283000D02*
D03*
X363000Y106500D02*
D03*
X415000Y344000D02*
D03*
D142*
X40000Y50000D02*
D03*
X50000Y350000D02*
D03*
X550000Y50000D02*
D03*
Y350000D02*
D03*
D143*
X268000Y160500D02*
D03*
X275000Y264500D02*
D03*
X287000Y253500D02*
D03*
X161500Y86000D02*
D03*
X268000Y173000D02*
D03*
X585000Y260500D02*
D03*
Y210500D02*
D03*
D144*
X150689Y46492D02*
D03*
X156142Y35311D02*
D03*
X161594Y46492D02*
D03*
X167047Y35311D02*
D03*
X172500Y46492D02*
D03*
X177953Y35311D02*
D03*
X183405Y46492D02*
D03*
X188858Y35311D02*
D03*
D145*
X194311Y46492D02*
D03*
D146*
X221693Y40902D02*
D03*
X123307D02*
D03*
D147*
X270500Y34216D02*
D03*
D148*
Y16500D02*
D03*
D149*
X472000Y52000D02*
D03*
X520405Y99598D02*
D03*
X477500Y282500D02*
D03*
X505500Y192500D02*
D03*
X504500Y221000D02*
D03*
X492500Y206000D02*
D03*
X517500D02*
D03*
X529500Y192500D02*
D03*
X529000Y220500D02*
D03*
X477500Y193000D02*
D03*
Y221000D02*
D03*
X561000Y182500D02*
D03*
Y231500D02*
D03*
X570000Y232500D02*
D03*
X376500Y295000D02*
D03*
X342500Y269000D02*
D03*
X251500Y65000D02*
D03*
X246000Y69500D02*
D03*
X530000Y360500D02*
D03*
X309500Y47500D02*
D03*
X508500Y301500D02*
D03*
X483000Y324500D02*
D03*
X508177Y324177D02*
D03*
X537500Y314500D02*
D03*
X457500Y22500D02*
D03*
X220000Y213000D02*
D03*
X222000Y221000D02*
D03*
X238500Y228000D02*
D03*
X259000Y192500D02*
D03*
X266000Y121000D02*
D03*
X265000Y127000D02*
D03*
X313500Y154500D02*
D03*
X316000Y143000D02*
D03*
X335500Y109000D02*
D03*
X265500Y134000D02*
D03*
X277000Y110500D02*
D03*
X265500Y140500D02*
D03*
X226500Y139000D02*
D03*
Y145000D02*
D03*
X357500Y156500D02*
D03*
X275500Y289000D02*
D03*
X281000Y298500D02*
D03*
Y292500D02*
D03*
X369500Y299500D02*
D03*
X145000Y96500D02*
D03*
X470000Y70500D02*
D03*
X32000Y368500D02*
D03*
X122000Y328000D02*
D03*
X353000Y91000D02*
D03*
X362500D02*
D03*
X17000Y338500D02*
D03*
X551500Y277500D02*
D03*
X458677Y377000D02*
D03*
X202500Y317500D02*
D03*
X358500Y163500D02*
D03*
X395000Y234500D02*
D03*
X391500Y240000D02*
D03*
X382500Y220500D02*
D03*
X402000Y232500D02*
D03*
X95000Y218500D02*
D03*
X240000Y187500D02*
D03*
X226000Y151000D02*
D03*
X222000Y75000D02*
D03*
X209500Y75500D02*
D03*
X389500Y160000D02*
D03*
X376000Y357000D02*
D03*
X79500Y202500D02*
D03*
X508000Y378000D02*
D03*
X75276Y334921D02*
D03*
X130500Y323000D02*
D03*
X62500Y308000D02*
D03*
X480677Y352252D02*
D03*
X510177Y351752D02*
D03*
X58429Y251571D02*
D03*
X483000Y378500D02*
D03*
X515500Y171000D02*
D03*
X430000Y311500D02*
D03*
X382500Y226500D02*
D03*
X376000Y230500D02*
D03*
X417000Y216000D02*
D03*
X358500Y174000D02*
D03*
X410000Y204500D02*
D03*
X425500Y200500D02*
D03*
X414500Y253000D02*
D03*
X424500Y217500D02*
D03*
X367453Y311453D02*
D03*
X465000Y160000D02*
D03*
X151000Y255008D02*
D03*
X90000Y319500D02*
D03*
X530000Y162500D02*
D03*
X503500Y138500D02*
D03*
X170000Y117500D02*
D03*
X388500Y197500D02*
D03*
X383000Y193500D02*
D03*
X204000Y154500D02*
D03*
X212500Y155500D02*
D03*
X164500Y182000D02*
D03*
X198500Y217500D02*
D03*
X208500Y227500D02*
D03*
X225500Y181000D02*
D03*
X192500Y195000D02*
D03*
X167000Y350000D02*
D03*
X237000Y202500D02*
D03*
X306500Y296500D02*
D03*
X556000Y196000D02*
D03*
Y220000D02*
D03*
X354000Y149000D02*
D03*
X96000Y83000D02*
D03*
X214000Y233500D02*
D03*
X120500Y136000D02*
D03*
X87000Y109500D02*
D03*
X571500Y380000D02*
D03*
X357500Y313000D02*
D03*
X485500Y244000D02*
D03*
Y173000D02*
D03*
X515000Y249500D02*
D03*
X563500Y258500D02*
D03*
X434000Y357000D02*
D03*
X425500Y258500D02*
D03*
X203500Y223000D02*
D03*
M02*
