M48
;Layer_Color=9474304
;FILE_FORMAT=2:4
INCH
;TYPE=PLATED
T1F00S00C0.0130
T2F00S00C0.0280
T3F00S00C0.0354
T4F00S00C0.0400
T5F00S00C0.0429
T6F00S00C0.0669
T7F00S00C0.0748
T8F00S00C0.1220
T9F00S00C0.1360
%
T01
X057014Y014957
X057486
Y015429
X057014
X061804Y019724
Y020196
X062277
Y019724
T02
X040950Y014750
X055750Y012250
X063000Y026250
X062950Y029250
X065600Y029600
X066100Y028250
X061550Y027100
X060550Y029250
X061750Y030600
X059250
X057750Y029300
X058550Y027300
X056500Y026000
X060350Y023850
X057000Y017050
X048950Y026000
X048850Y029750
X048300Y029350
X051000Y030450
X052550Y030050
X045850Y027400
Y026350
X045750Y025650
X045400Y024900
X041600Y024300
X041350Y025450
X036550Y024050
Y023400
X036500Y022700
X036600Y022100
X037700Y021050
X043550Y020900
X045300Y019100
X046250
X035150Y016500
X034600Y016950
X032200Y017500
X032650Y023900
Y024500
X032600Y025100
X031250Y025550
X032550Y028100
X034000Y028750
X033700Y030250
X035900Y029250
X029250Y029500
X026450Y028200
X030400Y025450
X027000Y021750
X024500Y019650
X019600Y018300
X018700Y020950
X022050Y023600
X017950Y030250
X030950Y017550
X011700Y043850
X013200Y046850
X017528Y043492
X019000Y041950
X016250Y040800
X015843Y035157
X019500Y031850
X025100Y035501
X030350Y032300
X030850Y032750
X029850Y031750
X030250Y041750
X026700Y045000
X023050Y042300
X022200Y042800
X031400Y033350
X032200Y032100
X032000Y031300
X033850Y032800
X037550Y038900
X038100Y039250
Y039850
X040650Y039650
X044250Y036900
X045750Y041300
X046745Y041145
X046950Y039950
X047650Y039500
X047600Y045700
X053400
X053000Y041150
X052550Y035850
X051450Y035300
X050200Y033250
X049500Y033450
X049150Y034000
X048250Y032650
Y032050
X047600Y033050
X051700Y031600
X052450Y031750
X057750Y032100
X060450
X061500Y034950
X058550Y034400
X057750Y038250
X058300Y042450
X060818Y042418
X060850Y040150
X061018Y045175
X058068Y045225
X063000Y046050
X063750Y041450
X065150Y037750
X066350Y035850
X066100Y033150
X067000Y033250
X065600Y032000
X062900Y032050
X067150Y048000
X060800Y047800
X058300Y047850
X055868Y047700
T03
X011500Y011500
Y012500
Y013500
Y014500
X047300Y020650
X048300
X049300
X050300
Y023050
X049300
X048300
X047300
X046300
X045300
X043300
X042300
X041300
X040300
X039300
X038300
X039700Y024250
X040700
X040200Y020250
X039200
Y019250
X040200
X041200
Y020250
X046300Y020650
X022750Y030501
X021750
X011500Y030050
Y029050
Y028050
Y027050
Y023900
Y022900
Y021900
Y020900
Y033050
Y034050
Y035050
Y036050
Y038000
Y039000
Y040000
Y041000
Y042000
X021750Y034501
Y033501
Y032501
Y031501
X022750
Y032501
Y033501
Y034501
X034700Y042050
X035700
X036700
X037700
X038700
X039700
X040700
X041700
X043300
X044300
X045300
X046300
Y044400
X045300
X044300
X043300
X042300
X047300
X048300
X049300
X050300
X051500
X052500
X053500
X054500
X055500
X050300Y042050
X049300
X048300
X047300
X047500Y048550
X046500
X045500
X044500
X043500
X042500
X041500
X040500
X039500
X038500
X037500
X036500
X035500
X034500
X033500
X032500
T04
X017350Y011550
X018350
X040950Y011500
X041950
X043750
X044750
X046500
X047500
X049300
X050300
X068500Y030050
Y031050
X036800Y028300
Y027300
Y026050
Y025050
X026150Y019600
Y018600
Y016150
X027150
X028150
X029150
X037500Y035450
Y036450
X038700Y036350
Y035350
X051600Y038300
Y039300
X052600
Y038300
X053600
Y039300
X068500Y037050
Y036050
X049700Y048550
X048700
T05
X025614Y013531
X026705
X027795
X028886
X029431Y014649
X028341
X027250
X026159
X025069
T06
X037050Y011650
T07
X037050Y013422
T08
X022331Y014090
X032169
T09
X014000Y015000
X065000
X015000Y045000
X065000
M30
