G04 Layer_Color=8388736*
%FSAX24Y24*%
%MOIN*%
G70*
G01*
G75*
%ADD97R,0.5986X0.3623*%
%ADD98O,0.0330X0.1080*%
%ADD99R,0.0330X0.1080*%
%ADD100O,0.0240X0.1080*%
%ADD101R,0.0240X0.1080*%
%ADD102O,0.1080X0.0240*%
%ADD103R,0.1080X0.0240*%
%ADD104R,0.0316X0.0867*%
%ADD105O,0.0316X0.0867*%
%ADD106O,0.1025X0.0356*%
%ADD107R,0.0710X0.0671*%
%ADD108R,0.0572X0.0651*%
%ADD109R,0.0651X0.0572*%
%ADD110R,0.0907X0.0434*%
%ADD111R,0.0907X0.1340*%
%ADD112O,0.0356X0.1064*%
%ADD113R,0.0316X0.0434*%
%ADD114R,0.0434X0.0316*%
%ADD115R,0.0749X0.0316*%
%ADD116R,0.1300X0.1029*%
%ADD117O,0.0316X0.0749*%
%ADD118O,0.0316X0.0986*%
%ADD119R,0.0690X0.0592*%
%ADD120O,0.0316X0.0946*%
%ADD121O,0.0808X0.0257*%
%ADD122R,0.3308X0.1537*%
%ADD123R,0.0749X0.1222*%
%ADD124R,0.0330X0.0410*%
%ADD125R,0.0671X0.0710*%
%ADD126R,0.1104X0.0513*%
%ADD127R,0.0710X0.0946*%
%ADD128R,0.0946X0.0710*%
%ADD129R,0.1458X0.0710*%
%ADD130R,0.0533X0.0651*%
%ADD131R,0.0749X0.0513*%
%ADD132R,0.0513X0.0749*%
%ADD133O,0.0356X0.0769*%
%ADD134R,0.0592X0.0513*%
%ADD135R,0.0395X0.0946*%
%ADD136R,0.1576X0.1025*%
%ADD137C,0.0730*%
%ADD138R,0.0730X0.0730*%
%ADD139C,0.0671*%
%ADD140R,0.0671X0.0671*%
%ADD141R,0.0671X0.0671*%
%ADD142C,0.3080*%
%ADD143R,0.0730X0.0730*%
%ADD144C,0.0830*%
%ADD145R,0.0830X0.0830*%
%ADD146C,0.1954*%
%ADD147C,0.0828*%
%ADD148C,0.0749*%
%ADD149C,0.0580*%
D97*
X060350Y030700D02*
D03*
D98*
X062550Y028141D02*
D03*
X062050D02*
D03*
X061550D02*
D03*
X061050D02*
D03*
X060550D02*
D03*
X060050D02*
D03*
X059550D02*
D03*
X059050D02*
D03*
X058550D02*
D03*
X058050D02*
D03*
Y033350D02*
D03*
X058550D02*
D03*
X059050D02*
D03*
X059550D02*
D03*
X060050D02*
D03*
X060550D02*
D03*
X061050D02*
D03*
X061550D02*
D03*
X062050D02*
D03*
D99*
X062550D02*
D03*
D100*
X044606Y027644D02*
D03*
X044350D02*
D03*
X044094D02*
D03*
X043838D02*
D03*
X043582D02*
D03*
X043326D02*
D03*
X043070D02*
D03*
X042814D02*
D03*
X042558D02*
D03*
X042302D02*
D03*
X041790D02*
D03*
X041534D02*
D03*
X041278D02*
D03*
X041022D02*
D03*
X040766D02*
D03*
X040510D02*
D03*
X040254D02*
D03*
X039998D02*
D03*
X039742D02*
D03*
Y034168D02*
D03*
X039998D02*
D03*
X040254D02*
D03*
X040510D02*
D03*
X040766D02*
D03*
X041022D02*
D03*
X041278D02*
D03*
X041534D02*
D03*
X041790D02*
D03*
X042046D02*
D03*
X042558D02*
D03*
X042814D02*
D03*
X043070D02*
D03*
X043326D02*
D03*
X043582D02*
D03*
X043838D02*
D03*
X044094D02*
D03*
X044350D02*
D03*
X044606D02*
D03*
D101*
X042046Y027644D02*
D03*
X042302Y034168D02*
D03*
D102*
X038912Y028474D02*
D03*
Y028730D02*
D03*
Y028986D02*
D03*
Y029242D02*
D03*
Y029498D02*
D03*
Y029754D02*
D03*
Y030010D02*
D03*
Y030266D02*
D03*
Y030522D02*
D03*
Y030778D02*
D03*
Y031290D02*
D03*
Y031546D02*
D03*
Y031802D02*
D03*
Y032058D02*
D03*
Y032314D02*
D03*
Y032570D02*
D03*
Y032826D02*
D03*
Y033082D02*
D03*
Y033338D02*
D03*
X045436D02*
D03*
Y033082D02*
D03*
Y032826D02*
D03*
Y032570D02*
D03*
Y032314D02*
D03*
Y032058D02*
D03*
Y031802D02*
D03*
Y031546D02*
D03*
Y031290D02*
D03*
Y031034D02*
D03*
Y030522D02*
D03*
Y030266D02*
D03*
Y030010D02*
D03*
Y029754D02*
D03*
Y029498D02*
D03*
Y029242D02*
D03*
Y028986D02*
D03*
Y028730D02*
D03*
D103*
X038912Y031034D02*
D03*
X045436Y030778D02*
D03*
Y028474D02*
D03*
D104*
X029100Y034151D02*
D03*
D105*
X028600D02*
D03*
X028100D02*
D03*
X027600D02*
D03*
X027100D02*
D03*
X026600D02*
D03*
X026100D02*
D03*
X025600D02*
D03*
X025100D02*
D03*
X029100Y030450D02*
D03*
X028600D02*
D03*
X028100D02*
D03*
X027600D02*
D03*
X027100D02*
D03*
X026600D02*
D03*
X026100D02*
D03*
X025600D02*
D03*
X025100D02*
D03*
D106*
X017026Y015700D02*
D03*
Y015200D02*
D03*
Y014700D02*
D03*
Y014200D02*
D03*
X018974Y015700D02*
D03*
Y015200D02*
D03*
Y014700D02*
D03*
Y014200D02*
D03*
D107*
X011600Y045848D02*
D03*
Y045081D02*
D03*
X030250Y028634D02*
D03*
Y027866D02*
D03*
X055300Y015534D02*
D03*
Y014766D02*
D03*
X063700Y019626D02*
D03*
Y020394D02*
D03*
X057050Y018409D02*
D03*
Y019177D02*
D03*
X061500Y016634D02*
D03*
Y015866D02*
D03*
X060200Y025066D02*
D03*
Y025834D02*
D03*
X062900Y043466D02*
D03*
Y044234D02*
D03*
X055868Y046024D02*
D03*
Y046791D02*
D03*
X038300Y026766D02*
D03*
Y027534D02*
D03*
X036300Y036566D02*
D03*
Y037334D02*
D03*
X055000Y011266D02*
D03*
Y012034D02*
D03*
X043050Y037916D02*
D03*
Y038684D02*
D03*
X044050Y037916D02*
D03*
Y038684D02*
D03*
X011624Y018534D02*
D03*
Y017766D02*
D03*
X012674Y018534D02*
D03*
Y017766D02*
D03*
X014950Y038934D02*
D03*
Y038166D02*
D03*
X013650Y039884D02*
D03*
Y039116D02*
D03*
X014300Y040966D02*
D03*
Y041734D02*
D03*
X034300Y031216D02*
D03*
Y031984D02*
D03*
X013800Y036034D02*
D03*
Y035266D02*
D03*
X013500Y030184D02*
D03*
Y029416D02*
D03*
X013300Y033734D02*
D03*
Y032966D02*
D03*
X013500Y027984D02*
D03*
Y027216D02*
D03*
X060550Y036466D02*
D03*
Y037234D02*
D03*
D108*
X057307Y040455D02*
D03*
X058193D02*
D03*
X046543Y045800D02*
D03*
X045657D02*
D03*
X042549Y047474D02*
D03*
X041663D02*
D03*
X043513D02*
D03*
X044399D02*
D03*
X059143Y025850D02*
D03*
X058257D02*
D03*
X058793Y048550D02*
D03*
X057907D02*
D03*
X060407Y041600D02*
D03*
X061293D02*
D03*
X060357Y048550D02*
D03*
X061243D02*
D03*
X058793Y041600D02*
D03*
X057907D02*
D03*
X046607Y047500D02*
D03*
X047493D02*
D03*
X023957Y022050D02*
D03*
X024843D02*
D03*
X023057Y017550D02*
D03*
X023943D02*
D03*
X023943Y018600D02*
D03*
X023057D02*
D03*
X024843Y020900D02*
D03*
X023957D02*
D03*
X036393Y035450D02*
D03*
X035507D02*
D03*
X051007Y033850D02*
D03*
X051893D02*
D03*
X038293Y037550D02*
D03*
X037407D02*
D03*
X039743Y021550D02*
D03*
X038857D02*
D03*
X041643D02*
D03*
X040757D02*
D03*
X044443Y019250D02*
D03*
X043557D02*
D03*
X044693Y035674D02*
D03*
X045579D02*
D03*
X040643Y025250D02*
D03*
X039757D02*
D03*
X044143Y039700D02*
D03*
X043257D02*
D03*
X016493Y020950D02*
D03*
X015607D02*
D03*
X013607Y011600D02*
D03*
X014493D02*
D03*
X019843Y012925D02*
D03*
X018957D02*
D03*
X018981Y016750D02*
D03*
X019867D02*
D03*
X020693Y046465D02*
D03*
X019807D02*
D03*
X016343Y042550D02*
D03*
X015457D02*
D03*
X020207Y041550D02*
D03*
X021093D02*
D03*
X011957Y043050D02*
D03*
X012843D02*
D03*
X022493Y046465D02*
D03*
X021607D02*
D03*
X022493Y047465D02*
D03*
X021607D02*
D03*
X018893Y046450D02*
D03*
X018007D02*
D03*
X019807Y047465D02*
D03*
X020693D02*
D03*
X016643Y030050D02*
D03*
X015757D02*
D03*
X034443Y047100D02*
D03*
X033557D02*
D03*
X016107Y028700D02*
D03*
X016993D02*
D03*
X026007Y036051D02*
D03*
X026893D02*
D03*
X028843D02*
D03*
X027957D02*
D03*
D109*
X015000Y035207D02*
D03*
Y036093D02*
D03*
X040300Y045457D02*
D03*
Y046343D02*
D03*
X058900Y016350D02*
D03*
Y017236D02*
D03*
X060200Y018893D02*
D03*
Y018007D02*
D03*
X058900Y013136D02*
D03*
Y012250D02*
D03*
X060350Y022067D02*
D03*
Y022953D02*
D03*
X058900Y014250D02*
D03*
Y015136D02*
D03*
X060200Y020893D02*
D03*
Y020007D02*
D03*
X026100Y021543D02*
D03*
Y020657D02*
D03*
X056100Y038457D02*
D03*
Y039343D02*
D03*
X039400Y037607D02*
D03*
Y038493D02*
D03*
X042700Y020193D02*
D03*
Y019307D02*
D03*
X040450Y037143D02*
D03*
Y036257D02*
D03*
X011600Y016793D02*
D03*
Y015907D02*
D03*
X013800Y017707D02*
D03*
Y018593D02*
D03*
X022200Y041593D02*
D03*
Y040707D02*
D03*
X017200Y040757D02*
D03*
Y039872D02*
D03*
X016150Y038857D02*
D03*
Y039743D02*
D03*
X016850Y047293D02*
D03*
Y046407D02*
D03*
X046200Y038393D02*
D03*
Y037507D02*
D03*
X045200Y038393D02*
D03*
Y037507D02*
D03*
X014500Y032907D02*
D03*
Y033793D02*
D03*
X065350Y035407D02*
D03*
Y036293D02*
D03*
X056550Y035593D02*
D03*
Y034707D02*
D03*
D110*
X027215Y043406D02*
D03*
Y042500D02*
D03*
Y041594D02*
D03*
D111*
X029459Y042500D02*
D03*
D112*
X017950Y038450D02*
D03*
X018450D02*
D03*
X018950D02*
D03*
X019450D02*
D03*
X019950D02*
D03*
X020450D02*
D03*
X020950D02*
D03*
X017950Y040379D02*
D03*
X018450D02*
D03*
X018950D02*
D03*
X019450D02*
D03*
X019950D02*
D03*
X020450D02*
D03*
X020950D02*
D03*
D113*
X020437Y043989D02*
D03*
X020122D02*
D03*
X019807D02*
D03*
X019493D02*
D03*
X019178D02*
D03*
X018863D02*
D03*
Y043241D02*
D03*
X019178D02*
D03*
X019493D02*
D03*
X019807D02*
D03*
X020122D02*
D03*
X020437D02*
D03*
D114*
X018863Y043615D02*
D03*
X020437D02*
D03*
D115*
X021844Y017176D02*
D03*
Y017924D02*
D03*
X021056Y017550D02*
D03*
X021844Y019026D02*
D03*
Y019774D02*
D03*
X021056Y019400D02*
D03*
X042450Y045750D02*
D03*
Y046498D02*
D03*
X041663Y046124D02*
D03*
X044400Y045750D02*
D03*
Y046498D02*
D03*
X043613Y046124D02*
D03*
X049544Y035276D02*
D03*
Y036024D02*
D03*
X048756Y035650D02*
D03*
D116*
X057250Y015193D02*
D03*
X062041Y019960D02*
D03*
D117*
X058000Y016157D02*
D03*
X057500D02*
D03*
X057000D02*
D03*
X056500D02*
D03*
X058000Y014228D02*
D03*
X057500D02*
D03*
X057000D02*
D03*
X056500D02*
D03*
X061291Y018995D02*
D03*
X061791D02*
D03*
X062291D02*
D03*
X062791D02*
D03*
X061291Y020924D02*
D03*
X061791D02*
D03*
X062291D02*
D03*
X062791D02*
D03*
D118*
X061818Y046941D02*
D03*
X061318D02*
D03*
X060818D02*
D03*
X060318D02*
D03*
X059818D02*
D03*
X059318D02*
D03*
X058818D02*
D03*
X058318D02*
D03*
X057818D02*
D03*
X057318D02*
D03*
X061818Y043359D02*
D03*
X061318D02*
D03*
X060818D02*
D03*
X060318D02*
D03*
X059818D02*
D03*
X059318D02*
D03*
X058818D02*
D03*
X058318D02*
D03*
X057818D02*
D03*
X057318D02*
D03*
D119*
X050830Y036536D02*
D03*
X054570D02*
D03*
X050830Y034764D02*
D03*
X054570D02*
D03*
D120*
X030950Y020595D02*
D03*
X030450D02*
D03*
X029950D02*
D03*
X029450D02*
D03*
X028950D02*
D03*
X028450D02*
D03*
X027950D02*
D03*
X027450D02*
D03*
X030950Y018705D02*
D03*
X030450D02*
D03*
X029950D02*
D03*
X029450D02*
D03*
X028950D02*
D03*
X028450D02*
D03*
X027950D02*
D03*
X027450D02*
D03*
D121*
X014384Y022834D02*
D03*
Y022578D02*
D03*
Y022322D02*
D03*
Y022066D02*
D03*
X016116Y022834D02*
D03*
Y022578D02*
D03*
Y022322D02*
D03*
Y022066D02*
D03*
D122*
X052900Y015553D02*
D03*
Y013033D02*
D03*
X066450Y019550D02*
D03*
Y022070D02*
D03*
D123*
X055650Y019402D02*
D03*
Y018083D02*
D03*
X062850Y015691D02*
D03*
Y017009D02*
D03*
D124*
X067947Y034400D02*
D03*
X066952D02*
D03*
X054197Y033850D02*
D03*
X053202D02*
D03*
X065447Y034400D02*
D03*
X064452D02*
D03*
D125*
X024766Y046150D02*
D03*
X025534D02*
D03*
X024766Y045000D02*
D03*
X025534D02*
D03*
X062034Y025850D02*
D03*
X061266D02*
D03*
X063034Y034700D02*
D03*
X062266D02*
D03*
X024784Y023200D02*
D03*
X024016D02*
D03*
X039834Y039700D02*
D03*
X039066D02*
D03*
X025916Y038850D02*
D03*
X026684D02*
D03*
X031834Y016400D02*
D03*
X031066D02*
D03*
X047484Y025650D02*
D03*
X046716D02*
D03*
X049534Y037050D02*
D03*
X048766D02*
D03*
X041502Y039724D02*
D03*
X042270D02*
D03*
X047366Y030400D02*
D03*
X048134D02*
D03*
X046034Y039550D02*
D03*
X045266D02*
D03*
X062384Y036500D02*
D03*
X061616D02*
D03*
X043816Y013800D02*
D03*
X044584D02*
D03*
X049366D02*
D03*
X050134D02*
D03*
X046616D02*
D03*
X047384D02*
D03*
D126*
X056950Y012224D02*
D03*
Y011161D02*
D03*
X062950Y022928D02*
D03*
Y023991D02*
D03*
X058250Y019424D02*
D03*
Y018361D02*
D03*
X060300Y015578D02*
D03*
Y016641D02*
D03*
D127*
X025200Y041391D02*
D03*
Y040209D02*
D03*
X032200Y019741D02*
D03*
Y018559D02*
D03*
D128*
X024559Y043500D02*
D03*
X025741D02*
D03*
X026359Y023000D02*
D03*
X027541D02*
D03*
X029941D02*
D03*
X028759D02*
D03*
X032241Y022950D02*
D03*
X031059D02*
D03*
X029091Y028200D02*
D03*
X027909D02*
D03*
D129*
X063863Y038450D02*
D03*
X061737D02*
D03*
D130*
X029904Y026750D02*
D03*
X029196D02*
D03*
X042040Y036174D02*
D03*
X041332D02*
D03*
D131*
X043200Y036731D02*
D03*
Y035668D02*
D03*
D132*
X043769Y025650D02*
D03*
X044831D02*
D03*
D133*
X015600Y031828D02*
D03*
X016100D02*
D03*
X016600D02*
D03*
X017100D02*
D03*
X017600D02*
D03*
X018100D02*
D03*
X018600D02*
D03*
X015600Y034072D02*
D03*
X016100D02*
D03*
X016600D02*
D03*
X017100D02*
D03*
X017600D02*
D03*
X018100D02*
D03*
X018600D02*
D03*
D134*
X040436Y038074D02*
D03*
X041342D02*
D03*
Y038782D02*
D03*
X040436D02*
D03*
D135*
X022419Y020950D02*
D03*
X021750D02*
D03*
X022419Y022500D02*
D03*
X021750D02*
D03*
D136*
X039018Y014052D02*
D03*
X035081D02*
D03*
X039018Y011650D02*
D03*
X035081D02*
D03*
D137*
X051600Y038300D02*
D03*
Y039300D02*
D03*
X052600Y038300D02*
D03*
Y039300D02*
D03*
X053600Y038300D02*
D03*
X049300Y011500D02*
D03*
X046500D02*
D03*
X043750D02*
D03*
X028150Y016150D02*
D03*
X027150D02*
D03*
X026150D02*
D03*
X018350Y011550D02*
D03*
X036800Y025050D02*
D03*
X040950Y011500D02*
D03*
X048700Y048550D02*
D03*
X037500Y035450D02*
D03*
X038700Y036350D02*
D03*
X026150Y019600D02*
D03*
X036800Y028300D02*
D03*
X068500Y037050D02*
D03*
Y030050D02*
D03*
D138*
X053600Y039300D02*
D03*
X050300Y011500D02*
D03*
X047500D02*
D03*
X044750D02*
D03*
X029150Y016150D02*
D03*
X017350Y011550D02*
D03*
X041950Y011500D02*
D03*
X049700Y048550D02*
D03*
D139*
X039200Y019250D02*
D03*
Y020250D02*
D03*
X040200Y019250D02*
D03*
Y020250D02*
D03*
X041200Y019250D02*
D03*
X046500Y048550D02*
D03*
X045500D02*
D03*
X044500D02*
D03*
X043500D02*
D03*
X042500D02*
D03*
X041500D02*
D03*
X040500D02*
D03*
X039500D02*
D03*
X038500D02*
D03*
X037500D02*
D03*
X036500D02*
D03*
X035500D02*
D03*
X034500D02*
D03*
X033500D02*
D03*
X032500D02*
D03*
X048300Y044400D02*
D03*
X047300D02*
D03*
X046300D02*
D03*
X045300D02*
D03*
X044300D02*
D03*
X043300D02*
D03*
X042300D02*
D03*
X049300D02*
D03*
X011500Y011500D02*
D03*
Y012500D02*
D03*
Y013500D02*
D03*
Y042000D02*
D03*
Y041000D02*
D03*
Y040000D02*
D03*
Y039000D02*
D03*
Y020900D02*
D03*
Y021900D02*
D03*
Y022900D02*
D03*
X035700Y042050D02*
D03*
X036700D02*
D03*
X037700D02*
D03*
X038700D02*
D03*
X039700D02*
D03*
X040700D02*
D03*
X041700D02*
D03*
X039700Y024250D02*
D03*
X011500Y027050D02*
D03*
Y028050D02*
D03*
Y029050D02*
D03*
Y033050D02*
D03*
Y034050D02*
D03*
Y035050D02*
D03*
X044300Y042050D02*
D03*
X045300D02*
D03*
X046300D02*
D03*
X047300D02*
D03*
X048300D02*
D03*
X049300D02*
D03*
X050300D02*
D03*
X046300Y023050D02*
D03*
X047300D02*
D03*
X048300D02*
D03*
X049300D02*
D03*
X050300D02*
D03*
X043300D02*
D03*
X042300D02*
D03*
X041300D02*
D03*
X040300D02*
D03*
X039300D02*
D03*
X021750Y030501D02*
D03*
X022750Y031501D02*
D03*
X021750D02*
D03*
X022750Y032501D02*
D03*
X021750D02*
D03*
X022750Y033501D02*
D03*
X021750D02*
D03*
X022750Y034501D02*
D03*
X021750D02*
D03*
X047300Y020650D02*
D03*
X048300D02*
D03*
X049300D02*
D03*
X050300D02*
D03*
X052500Y044400D02*
D03*
X053500D02*
D03*
X054500D02*
D03*
X055500D02*
D03*
D140*
X041200Y020250D02*
D03*
X047500Y048550D02*
D03*
X050300Y044400D02*
D03*
X034700Y042050D02*
D03*
X040700Y024250D02*
D03*
X043300Y042050D02*
D03*
X045300Y023050D02*
D03*
X038300D02*
D03*
X046300Y020650D02*
D03*
X051500Y044400D02*
D03*
D141*
X011500Y014500D02*
D03*
Y038000D02*
D03*
Y023900D02*
D03*
Y030050D02*
D03*
Y036050D02*
D03*
X022750Y030501D02*
D03*
D142*
X014000Y015000D02*
D03*
X015000Y045000D02*
D03*
X065000Y015000D02*
D03*
Y045000D02*
D03*
D143*
X036800Y026050D02*
D03*
X037500Y036450D02*
D03*
X038700Y035350D02*
D03*
X026150Y018600D02*
D03*
X036800Y027300D02*
D03*
X068500Y036050D02*
D03*
Y031050D02*
D03*
D144*
X025069Y014649D02*
D03*
X025614Y013531D02*
D03*
X026159Y014649D02*
D03*
X026705Y013531D02*
D03*
X027250Y014649D02*
D03*
X027795Y013531D02*
D03*
X028341Y014649D02*
D03*
X028886Y013531D02*
D03*
D145*
X029431Y014649D02*
D03*
D146*
X032169Y014090D02*
D03*
X022331D02*
D03*
D147*
X037050Y013422D02*
D03*
D148*
Y011650D02*
D03*
D149*
X057200Y015200D02*
D03*
X062041Y019960D02*
D03*
X057750Y038250D02*
D03*
X060550Y029250D02*
D03*
X060450Y032100D02*
D03*
X059250Y030600D02*
D03*
X061750D02*
D03*
X062950Y029250D02*
D03*
X062900Y032050D02*
D03*
X057750Y029300D02*
D03*
Y032100D02*
D03*
X066100Y028250D02*
D03*
Y033150D02*
D03*
X067000Y033250D02*
D03*
X047650Y039500D02*
D03*
X044250Y036900D02*
D03*
X035150Y016500D02*
D03*
X034600Y016950D02*
D03*
X063000Y046050D02*
D03*
X040950Y014750D02*
D03*
X060850Y040150D02*
D03*
X058300Y042450D02*
D03*
X060818Y042418D02*
D03*
X063750Y041450D02*
D03*
X055750Y012250D02*
D03*
X032000Y031300D02*
D03*
X032200Y032100D02*
D03*
X033850Y032800D02*
D03*
X035900Y029250D02*
D03*
X036600Y022100D02*
D03*
X036500Y022700D02*
D03*
X041350Y025450D02*
D03*
X041600Y024300D02*
D03*
X043550Y020900D02*
D03*
X036550Y023400D02*
D03*
X037700Y021050D02*
D03*
X036550Y024050D02*
D03*
X032650Y023900D02*
D03*
Y024500D02*
D03*
X045750Y025650D02*
D03*
X037550Y038900D02*
D03*
X038100Y039850D02*
D03*
Y039250D02*
D03*
X046950Y039950D02*
D03*
X024500Y019650D02*
D03*
X057000Y017050D02*
D03*
X013200Y046850D02*
D03*
X022200Y042800D02*
D03*
X045300Y019100D02*
D03*
X046250D02*
D03*
X011700Y043850D02*
D03*
X065150Y037750D02*
D03*
X055868Y047700D02*
D03*
X030250Y041750D02*
D03*
X045850Y026350D02*
D03*
X049500Y033450D02*
D03*
X049150Y034000D02*
D03*
X048250Y032050D02*
D03*
X050200Y033250D02*
D03*
X019500Y031850D02*
D03*
X034000Y028750D02*
D03*
X032600Y025100D02*
D03*
X032200Y017500D02*
D03*
X030950Y017550D02*
D03*
X048950Y026000D02*
D03*
X047600Y045700D02*
D03*
X017950Y030250D02*
D03*
X060800Y047800D02*
D03*
X017528Y043492D02*
D03*
X023050Y042300D02*
D03*
X016250Y040800D02*
D03*
X058068Y045225D02*
D03*
X061018Y045175D02*
D03*
X015843Y035157D02*
D03*
X058300Y047850D02*
D03*
X061550Y027100D02*
D03*
X053000Y041150D02*
D03*
X048250Y032650D02*
D03*
X047600Y033050D02*
D03*
X051700Y031600D02*
D03*
X045850Y027400D02*
D03*
X051000Y030450D02*
D03*
X052550Y030050D02*
D03*
X051450Y035300D02*
D03*
X052450Y031750D02*
D03*
X046745Y041145D02*
D03*
X056500Y026000D02*
D03*
X025100Y035501D02*
D03*
X019000Y041950D02*
D03*
X063000Y026250D02*
D03*
X060350Y023850D02*
D03*
X027000Y021750D02*
D03*
X048850Y029750D02*
D03*
X048300Y029350D02*
D03*
X030400Y025450D02*
D03*
X031250Y025550D02*
D03*
X026450Y028200D02*
D03*
X029850Y031750D02*
D03*
X030850Y032750D02*
D03*
X032550Y028100D02*
D03*
X029250Y029500D02*
D03*
X026700Y045000D02*
D03*
X033700Y030250D02*
D03*
X040650Y039650D02*
D03*
X065600Y029600D02*
D03*
Y032000D02*
D03*
X045400Y024900D02*
D03*
X019600Y018300D02*
D03*
X031400Y033350D02*
D03*
X022050Y023600D02*
D03*
X018700Y020950D02*
D03*
X067150Y048000D02*
D03*
X045750Y041300D02*
D03*
X058550Y034400D02*
D03*
Y027300D02*
D03*
X061500Y034950D02*
D03*
X066350Y035850D02*
D03*
X053400Y045700D02*
D03*
X052550Y035850D02*
D03*
X030350Y032300D02*
D03*
M02*
