G04 Layer_Color=16711935*
%FSAX24Y24*%
%MOIN*%
G70*
G01*
G75*
%ADD137C,0.0730*%
%ADD138R,0.0730X0.0730*%
%ADD139C,0.0671*%
%ADD140R,0.0671X0.0671*%
%ADD141R,0.0671X0.0671*%
%ADD142C,0.3080*%
%ADD143R,0.0730X0.0730*%
%ADD144C,0.0830*%
%ADD145R,0.0830X0.0830*%
%ADD146C,0.1954*%
%ADD147C,0.0828*%
%ADD148C,0.0749*%
%ADD149C,0.0580*%
D137*
X051600Y038300D02*
D03*
Y039300D02*
D03*
X052600Y038300D02*
D03*
Y039300D02*
D03*
X053600Y038300D02*
D03*
X049300Y011500D02*
D03*
X046500D02*
D03*
X043750D02*
D03*
X028150Y016150D02*
D03*
X027150D02*
D03*
X026150D02*
D03*
X018350Y011550D02*
D03*
X036800Y025050D02*
D03*
X040950Y011500D02*
D03*
X048700Y048550D02*
D03*
X037500Y035450D02*
D03*
X038700Y036350D02*
D03*
X026150Y019600D02*
D03*
X036800Y028300D02*
D03*
X068500Y037050D02*
D03*
Y030050D02*
D03*
D138*
X053600Y039300D02*
D03*
X050300Y011500D02*
D03*
X047500D02*
D03*
X044750D02*
D03*
X029150Y016150D02*
D03*
X017350Y011550D02*
D03*
X041950Y011500D02*
D03*
X049700Y048550D02*
D03*
D139*
X039200Y019250D02*
D03*
Y020250D02*
D03*
X040200Y019250D02*
D03*
Y020250D02*
D03*
X041200Y019250D02*
D03*
X046500Y048550D02*
D03*
X045500D02*
D03*
X044500D02*
D03*
X043500D02*
D03*
X042500D02*
D03*
X041500D02*
D03*
X040500D02*
D03*
X039500D02*
D03*
X038500D02*
D03*
X037500D02*
D03*
X036500D02*
D03*
X035500D02*
D03*
X034500D02*
D03*
X033500D02*
D03*
X032500D02*
D03*
X048300Y044400D02*
D03*
X047300D02*
D03*
X046300D02*
D03*
X045300D02*
D03*
X044300D02*
D03*
X043300D02*
D03*
X042300D02*
D03*
X049300D02*
D03*
X011500Y011500D02*
D03*
Y012500D02*
D03*
Y013500D02*
D03*
Y042000D02*
D03*
Y041000D02*
D03*
Y040000D02*
D03*
Y039000D02*
D03*
Y020900D02*
D03*
Y021900D02*
D03*
Y022900D02*
D03*
X035700Y042050D02*
D03*
X036700D02*
D03*
X037700D02*
D03*
X038700D02*
D03*
X039700D02*
D03*
X040700D02*
D03*
X041700D02*
D03*
X039700Y024250D02*
D03*
X011500Y027050D02*
D03*
Y028050D02*
D03*
Y029050D02*
D03*
Y033050D02*
D03*
Y034050D02*
D03*
Y035050D02*
D03*
X044300Y042050D02*
D03*
X045300D02*
D03*
X046300D02*
D03*
X047300D02*
D03*
X048300D02*
D03*
X049300D02*
D03*
X050300D02*
D03*
X046300Y023050D02*
D03*
X047300D02*
D03*
X048300D02*
D03*
X049300D02*
D03*
X050300D02*
D03*
X043300D02*
D03*
X042300D02*
D03*
X041300D02*
D03*
X040300D02*
D03*
X039300D02*
D03*
X021750Y030501D02*
D03*
X022750Y031501D02*
D03*
X021750D02*
D03*
X022750Y032501D02*
D03*
X021750D02*
D03*
X022750Y033501D02*
D03*
X021750D02*
D03*
X022750Y034501D02*
D03*
X021750D02*
D03*
X047300Y020650D02*
D03*
X048300D02*
D03*
X049300D02*
D03*
X050300D02*
D03*
X052500Y044400D02*
D03*
X053500D02*
D03*
X054500D02*
D03*
X055500D02*
D03*
D140*
X041200Y020250D02*
D03*
X047500Y048550D02*
D03*
X050300Y044400D02*
D03*
X034700Y042050D02*
D03*
X040700Y024250D02*
D03*
X043300Y042050D02*
D03*
X045300Y023050D02*
D03*
X038300D02*
D03*
X046300Y020650D02*
D03*
X051500Y044400D02*
D03*
D141*
X011500Y014500D02*
D03*
Y038000D02*
D03*
Y023900D02*
D03*
Y030050D02*
D03*
Y036050D02*
D03*
X022750Y030501D02*
D03*
D142*
X014000Y015000D02*
D03*
X015000Y045000D02*
D03*
X065000Y015000D02*
D03*
Y045000D02*
D03*
D143*
X036800Y026050D02*
D03*
X037500Y036450D02*
D03*
X038700Y035350D02*
D03*
X026150Y018600D02*
D03*
X036800Y027300D02*
D03*
X068500Y036050D02*
D03*
Y031050D02*
D03*
D144*
X025069Y014649D02*
D03*
X025614Y013531D02*
D03*
X026159Y014649D02*
D03*
X026705Y013531D02*
D03*
X027250Y014649D02*
D03*
X027795Y013531D02*
D03*
X028341Y014649D02*
D03*
X028886Y013531D02*
D03*
D145*
X029431Y014649D02*
D03*
D146*
X032169Y014090D02*
D03*
X022331D02*
D03*
D147*
X037050Y013422D02*
D03*
D148*
Y011650D02*
D03*
D149*
X057200Y015200D02*
D03*
X062041Y019960D02*
D03*
X057750Y038250D02*
D03*
X060550Y029250D02*
D03*
X060450Y032100D02*
D03*
X059250Y030600D02*
D03*
X061750D02*
D03*
X062950Y029250D02*
D03*
X062900Y032050D02*
D03*
X057750Y029300D02*
D03*
Y032100D02*
D03*
X066100Y028250D02*
D03*
Y033150D02*
D03*
X067000Y033250D02*
D03*
X047650Y039500D02*
D03*
X044250Y036900D02*
D03*
X035150Y016500D02*
D03*
X034600Y016950D02*
D03*
X063000Y046050D02*
D03*
X040950Y014750D02*
D03*
X060850Y040150D02*
D03*
X058300Y042450D02*
D03*
X060818Y042418D02*
D03*
X063750Y041450D02*
D03*
X055750Y012250D02*
D03*
X032000Y031300D02*
D03*
X032200Y032100D02*
D03*
X033850Y032800D02*
D03*
X035900Y029250D02*
D03*
X036600Y022100D02*
D03*
X036500Y022700D02*
D03*
X041350Y025450D02*
D03*
X041600Y024300D02*
D03*
X043550Y020900D02*
D03*
X036550Y023400D02*
D03*
X037700Y021050D02*
D03*
X036550Y024050D02*
D03*
X032650Y023900D02*
D03*
Y024500D02*
D03*
X045750Y025650D02*
D03*
X037550Y038900D02*
D03*
X038100Y039850D02*
D03*
Y039250D02*
D03*
X046950Y039950D02*
D03*
X024500Y019650D02*
D03*
X057000Y017050D02*
D03*
X013200Y046850D02*
D03*
X022200Y042800D02*
D03*
X045300Y019100D02*
D03*
X046250D02*
D03*
X011700Y043850D02*
D03*
X065150Y037750D02*
D03*
X055868Y047700D02*
D03*
X030250Y041750D02*
D03*
X045850Y026350D02*
D03*
X049500Y033450D02*
D03*
X049150Y034000D02*
D03*
X048250Y032050D02*
D03*
X050200Y033250D02*
D03*
X019500Y031850D02*
D03*
X034000Y028750D02*
D03*
X032600Y025100D02*
D03*
X032200Y017500D02*
D03*
X030950Y017550D02*
D03*
X048950Y026000D02*
D03*
X047600Y045700D02*
D03*
X017950Y030250D02*
D03*
X060800Y047800D02*
D03*
X017528Y043492D02*
D03*
X023050Y042300D02*
D03*
X016250Y040800D02*
D03*
X058068Y045225D02*
D03*
X061018Y045175D02*
D03*
X015843Y035157D02*
D03*
X058300Y047850D02*
D03*
X061550Y027100D02*
D03*
X053000Y041150D02*
D03*
X048250Y032650D02*
D03*
X047600Y033050D02*
D03*
X051700Y031600D02*
D03*
X045850Y027400D02*
D03*
X051000Y030450D02*
D03*
X052550Y030050D02*
D03*
X051450Y035300D02*
D03*
X052450Y031750D02*
D03*
X046745Y041145D02*
D03*
X056500Y026000D02*
D03*
X025100Y035501D02*
D03*
X019000Y041950D02*
D03*
X063000Y026250D02*
D03*
X060350Y023850D02*
D03*
X027000Y021750D02*
D03*
X048850Y029750D02*
D03*
X048300Y029350D02*
D03*
X030400Y025450D02*
D03*
X031250Y025550D02*
D03*
X026450Y028200D02*
D03*
X029850Y031750D02*
D03*
X030850Y032750D02*
D03*
X032550Y028100D02*
D03*
X029250Y029500D02*
D03*
X026700Y045000D02*
D03*
X033700Y030250D02*
D03*
X040650Y039650D02*
D03*
X065600Y029600D02*
D03*
Y032000D02*
D03*
X045400Y024900D02*
D03*
X019600Y018300D02*
D03*
X031400Y033350D02*
D03*
X022050Y023600D02*
D03*
X018700Y020950D02*
D03*
X067150Y048000D02*
D03*
X045750Y041300D02*
D03*
X058550Y034400D02*
D03*
Y027300D02*
D03*
X061500Y034950D02*
D03*
X066350Y035850D02*
D03*
X053400Y045700D02*
D03*
X052550Y035850D02*
D03*
X030350Y032300D02*
D03*
M02*
