G04 Layer_Color=16711935*
%FSAX24Y24*%
%MOIN*%
G70*
G01*
G75*
%ADD152C,0.0039*%
%ADD153R,0.1150X0.0244*%
D152*
X018610Y014340D02*
G03*
X018610Y014340I-000197J000000D01*
G01*
X021005Y039848D02*
G03*
X021005Y039848I-000197J000000D01*
G01*
X056817Y014758D02*
G03*
X056817Y014758I-000197J000000D01*
G01*
X062867Y020395D02*
G03*
X062867Y020395I-000197J000000D01*
G01*
X057599Y044028D02*
G03*
X057599Y044028I-000197J000000D01*
G01*
X031011Y020083D02*
G03*
X031011Y020083I-000197J000000D01*
G01*
X015703Y022194D02*
G03*
X015703Y022194I-000197J000000D01*
G01*
X015919Y032517D02*
G03*
X015919Y032517I-000197J000000D01*
G01*
X017232Y015915D02*
X018768D01*
X017232Y013985D02*
X018768D01*
X017232D02*
Y015915D01*
X018768Y013985D02*
Y015915D01*
X011315Y045898D02*
X011885D01*
X011315Y045031D02*
X011885D01*
Y045898D01*
X011315Y045031D02*
Y045898D01*
X057317Y040180D02*
Y040731D01*
X058183Y040180D02*
Y040731D01*
X057317D02*
X058183D01*
X057317Y040180D02*
X058183D01*
X014724Y035217D02*
X015276D01*
X014724Y036083D02*
X015276D01*
X014724Y035217D02*
Y036083D01*
X015276Y035217D02*
Y036083D01*
X027609Y041181D02*
Y043819D01*
X029066Y041181D02*
Y043819D01*
X027609D02*
X029066D01*
X027609Y041181D02*
X029066D01*
X017737Y038627D02*
Y040202D01*
X021163Y038627D02*
Y040202D01*
X017737Y038627D02*
X021163D01*
X017737Y040202D02*
X021163D01*
X021726Y016959D02*
Y018141D01*
X021174Y016959D02*
Y018141D01*
Y016959D02*
X021726D01*
X021174Y018141D02*
X021726D01*
Y018809D02*
Y019991D01*
X021174Y018809D02*
Y019991D01*
Y018809D02*
X021726D01*
X021174Y019991D02*
X021726D01*
X058234Y014404D02*
Y015982D01*
X056266Y014404D02*
Y015982D01*
X058234D01*
X056266Y014404D02*
X058234D01*
X061056Y019170D02*
Y020749D01*
X063025Y019170D02*
Y020749D01*
X061056Y019170D02*
X063025D01*
X061056Y020749D02*
X063025D01*
X062087Y043674D02*
Y046626D01*
X057048Y043674D02*
Y046626D01*
X062087D01*
X057048Y043674D02*
X062087D01*
X042332Y045533D02*
Y046715D01*
X041781Y045533D02*
Y046715D01*
Y045533D02*
X042332D01*
X041781Y046715D02*
X042332D01*
X044282Y045533D02*
Y046715D01*
X043731Y045533D02*
Y046715D01*
Y045533D02*
X044282D01*
X043731Y046715D02*
X044282D01*
X040024Y045467D02*
X040576D01*
X040024Y046333D02*
X040576D01*
X040024Y045467D02*
Y046333D01*
X040576Y045467D02*
Y046333D01*
X046533Y045524D02*
Y046076D01*
X045667Y045524D02*
Y046076D01*
Y045524D02*
X046533D01*
X045667Y046076D02*
X046533D01*
X058624Y016360D02*
X059176D01*
X058624Y017226D02*
X059176D01*
X058624Y016360D02*
Y017226D01*
X059176Y016360D02*
Y017226D01*
X059924Y018883D02*
X060476D01*
X059924Y018017D02*
X060476D01*
Y018883D01*
X059924Y018017D02*
Y018883D01*
X058624Y013126D02*
X059176D01*
X058624Y012260D02*
X059176D01*
Y013126D01*
X058624Y012260D02*
Y013126D01*
X060074Y022077D02*
X060626D01*
X060074Y022943D02*
X060626D01*
X060074Y022077D02*
Y022943D01*
X060626Y022077D02*
Y022943D01*
X058624Y014260D02*
X059176D01*
X058624Y015126D02*
X059176D01*
X058624Y014260D02*
Y015126D01*
X059176Y014260D02*
Y015126D01*
X059924Y020883D02*
X060476D01*
X059924Y020017D02*
X060476D01*
Y020883D01*
X059924Y020017D02*
Y020883D01*
X042539Y047198D02*
Y047750D01*
X041673Y047198D02*
Y047750D01*
Y047198D02*
X042539D01*
X041673Y047750D02*
X042539D01*
X043523Y047198D02*
Y047750D01*
X044389Y047198D02*
Y047750D01*
X043523D02*
X044389D01*
X043523Y047198D02*
X044389D01*
X059133Y025574D02*
Y026126D01*
X058267Y025574D02*
Y026126D01*
Y025574D02*
X059133D01*
X058267Y026126D02*
X059133D01*
X058783Y048274D02*
Y048826D01*
X057917Y048274D02*
Y048826D01*
Y048274D02*
X058783D01*
X057917Y048826D02*
X058783D01*
X060417Y041324D02*
Y041876D01*
X061283Y041324D02*
Y041876D01*
X060417D02*
X061283D01*
X060417Y041324D02*
X061283D01*
X060367Y048274D02*
Y048826D01*
X061233Y048274D02*
Y048826D01*
X060367D02*
X061233D01*
X060367Y048274D02*
X061233D01*
X058783Y041324D02*
Y041876D01*
X057917Y041324D02*
Y041876D01*
Y041324D02*
X058783D01*
X057917Y041876D02*
X058783D01*
X046617Y047224D02*
Y047776D01*
X047483Y047224D02*
Y047776D01*
X046617D02*
X047483D01*
X046617Y047224D02*
X047483D01*
X023967Y021774D02*
Y022326D01*
X024833Y021774D02*
Y022326D01*
X023967D02*
X024833D01*
X023967Y021774D02*
X024833D01*
X023067Y017274D02*
Y017826D01*
X023933Y017274D02*
Y017826D01*
X023067D02*
X023933D01*
X023067Y017274D02*
X023933D01*
X025824Y021533D02*
X026376D01*
X025824Y020667D02*
X026376D01*
Y021533D01*
X025824Y020667D02*
Y021533D01*
X023933Y018324D02*
Y018876D01*
X023067Y018324D02*
Y018876D01*
Y018324D02*
X023933D01*
X023067Y018876D02*
X023933D01*
X024833Y020624D02*
Y021176D01*
X023967Y020624D02*
Y021176D01*
Y020624D02*
X024833D01*
X023967Y021176D02*
X024833D01*
X036383Y035174D02*
Y035726D01*
X035517Y035174D02*
Y035726D01*
Y035174D02*
X036383D01*
X035517Y035726D02*
X036383D01*
X055824Y038467D02*
X056376D01*
X055824Y039333D02*
X056376D01*
X055824Y038467D02*
Y039333D01*
X056376Y038467D02*
Y039333D01*
X051017Y033574D02*
Y034126D01*
X051883Y033574D02*
Y034126D01*
X051017D02*
X051883D01*
X051017Y033574D02*
X051883D01*
X038283Y037274D02*
Y037826D01*
X037417Y037274D02*
Y037826D01*
Y037274D02*
X038283D01*
X037417Y037826D02*
X038283D01*
X039733Y021274D02*
Y021826D01*
X038867Y021274D02*
Y021826D01*
Y021274D02*
X039733D01*
X038867Y021826D02*
X039733D01*
X041633Y021274D02*
Y021826D01*
X040767Y021274D02*
Y021826D01*
Y021274D02*
X041633D01*
X040767Y021826D02*
X041633D01*
X039124Y037617D02*
X039676D01*
X039124Y038483D02*
X039676D01*
X039124Y037617D02*
Y038483D01*
X039676Y037617D02*
Y038483D01*
X042424Y020183D02*
X042976D01*
X042424Y019317D02*
X042976D01*
Y020183D01*
X042424Y019317D02*
Y020183D01*
X040174Y037133D02*
X040726D01*
X040174Y036267D02*
X040726D01*
Y037133D01*
X040174Y036267D02*
Y037133D01*
X044433Y018974D02*
Y019526D01*
X043567Y018974D02*
Y019526D01*
Y018974D02*
X044433D01*
X043567Y019526D02*
X044433D01*
X044703Y035398D02*
Y035949D01*
X045569Y035398D02*
Y035949D01*
X044703D02*
X045569D01*
X044703Y035398D02*
X045569D01*
X040633Y024974D02*
Y025526D01*
X039767Y024974D02*
Y025526D01*
Y024974D02*
X040633D01*
X039767Y025526D02*
X040633D01*
X044133Y039424D02*
Y039976D01*
X043267Y039424D02*
Y039976D01*
Y039424D02*
X044133D01*
X043267Y039976D02*
X044133D01*
X016483Y020674D02*
Y021226D01*
X015617Y020674D02*
Y021226D01*
Y020674D02*
X016483D01*
X015617Y021226D02*
X016483D01*
X011324Y016783D02*
X011876D01*
X011324Y015917D02*
X011876D01*
Y016783D01*
X011324Y015917D02*
Y016783D01*
X013524Y017717D02*
X014076D01*
X013524Y018583D02*
X014076D01*
X013524Y017717D02*
Y018583D01*
X014076Y017717D02*
Y018583D01*
X013617Y011324D02*
Y011876D01*
X014483Y011324D02*
Y011876D01*
X013617D02*
X014483D01*
X013617Y011324D02*
X014483D01*
X019833Y012649D02*
Y013201D01*
X018967Y012649D02*
Y013201D01*
Y012649D02*
X019833D01*
X018967Y013201D02*
X019833D01*
X018991Y016474D02*
Y017026D01*
X019857Y016474D02*
Y017026D01*
X018991D02*
X019857D01*
X018991Y016474D02*
X019857D01*
X021924Y041583D02*
X022476D01*
X021924Y040717D02*
X022476D01*
Y041583D01*
X021924Y040717D02*
Y041583D01*
X020683Y046189D02*
Y046740D01*
X019817Y046189D02*
Y046740D01*
Y046189D02*
X020683D01*
X019817Y046740D02*
X020683D01*
X016333Y042274D02*
Y042826D01*
X015467Y042274D02*
Y042826D01*
Y042274D02*
X016333D01*
X015467Y042826D02*
X016333D01*
X016924Y040748D02*
X017476D01*
X016924Y039881D02*
X017476D01*
Y040748D01*
X016924Y039881D02*
Y040748D01*
X020217Y041274D02*
Y041826D01*
X021083Y041274D02*
Y041826D01*
X020217D02*
X021083D01*
X020217Y041274D02*
X021083D01*
X011967Y042774D02*
Y043326D01*
X012833Y042774D02*
Y043326D01*
X011967D02*
X012833D01*
X011967Y042774D02*
X012833D01*
X015874Y038867D02*
Y039733D01*
X016426Y038867D02*
Y039733D01*
X015874Y038867D02*
X016426D01*
X015874Y039733D02*
X016426D01*
X022483Y046189D02*
Y046740D01*
X021617Y046189D02*
Y046740D01*
Y046189D02*
X022483D01*
X021617Y046740D02*
X022483D01*
Y047189D02*
Y047740D01*
X021617Y047189D02*
Y047740D01*
Y047189D02*
X022483D01*
X021617Y047740D02*
X022483D01*
X016574Y047283D02*
X017126D01*
X016574Y046417D02*
X017126D01*
Y047283D01*
X016574Y046417D02*
Y047283D01*
X018883Y046174D02*
Y046726D01*
X018017Y046174D02*
Y046726D01*
Y046174D02*
X018883D01*
X018017Y046726D02*
X018883D01*
X019817Y047189D02*
Y047740D01*
X020683Y047189D02*
Y047740D01*
X019817D02*
X020683D01*
X019817Y047189D02*
X020683D01*
X027231Y020437D02*
X031168D01*
X027231Y018863D02*
X031168D01*
Y020437D01*
X027231Y018863D02*
Y020437D01*
X014640Y023060D02*
X015860D01*
X014640Y021840D02*
X015860D01*
X014640D02*
Y023060D01*
X015860Y021840D02*
Y023060D01*
X051266Y015927D02*
X054534D01*
X051266Y012659D02*
X054534D01*
Y015927D01*
X051266Y012659D02*
Y015927D01*
X064816Y019176D02*
X068084D01*
X064816Y022444D02*
X068084D01*
X064816Y019176D02*
Y022444D01*
X068084Y019176D02*
Y022444D01*
X029965Y028683D02*
X030535D01*
X029965Y027817D02*
X030535D01*
Y028683D01*
X029965Y027817D02*
Y028683D01*
X049426Y035059D02*
Y036241D01*
X048874Y035059D02*
Y036241D01*
Y035059D02*
X049426D01*
X048874Y036241D02*
X049426D01*
X056225Y017837D02*
Y019648D01*
X055075Y017837D02*
Y019648D01*
X056225D01*
X055075Y017837D02*
X056225D01*
X062275Y015444D02*
Y017256D01*
X063425Y015444D02*
Y017256D01*
X062275Y015444D02*
X063425D01*
X062275Y017256D02*
X063425D01*
X024717Y045865D02*
Y046435D01*
X025583Y045865D02*
Y046435D01*
X024717D02*
X025583D01*
X024717Y045865D02*
X025583D01*
X024717Y044715D02*
Y045285D01*
X025583Y044715D02*
Y045285D01*
X024717D02*
X025583D01*
X024717Y044715D02*
X025583D01*
X057481Y011024D02*
Y012362D01*
X056418Y011024D02*
Y012362D01*
X057481D01*
X056418Y011024D02*
X057481D01*
X062418Y022791D02*
Y024129D01*
X063481Y022791D02*
Y024129D01*
X062418Y022791D02*
X063481D01*
X062418Y024129D02*
X063481D01*
X055015Y015583D02*
X055585D01*
X055015Y014717D02*
X055585D01*
Y015583D01*
X055015Y014717D02*
Y015583D01*
X063415Y019577D02*
X063985D01*
X063415Y020443D02*
X063985D01*
X063415Y019577D02*
Y020443D01*
X063985Y019577D02*
Y020443D01*
X056765Y018360D02*
X057335D01*
X056765Y019226D02*
X057335D01*
X056765Y018360D02*
Y019226D01*
X057335Y018360D02*
Y019226D01*
X061215Y016683D02*
X061785D01*
X061215Y015817D02*
X061785D01*
Y016683D01*
X061215Y015817D02*
Y016683D01*
X058781Y018224D02*
Y019562D01*
X057719Y018224D02*
Y019562D01*
X058781D01*
X057719Y018224D02*
X058781D01*
X059769Y015441D02*
Y016779D01*
X060831Y015441D02*
Y016779D01*
X059769Y015441D02*
X060831D01*
X059769Y016779D02*
X060831D01*
X062083Y025565D02*
Y026135D01*
X061217Y025565D02*
Y026135D01*
Y025565D02*
X062083D01*
X061217Y026135D02*
X062083D01*
X059915Y025017D02*
X060485D01*
X059915Y025883D02*
X060485D01*
X059915Y025017D02*
Y025883D01*
X060485Y025017D02*
Y025883D01*
X063083Y034415D02*
Y034985D01*
X062217Y034415D02*
Y034985D01*
Y034415D02*
X063083D01*
X062217Y034985D02*
X063083D01*
X062615Y043417D02*
X063185D01*
X062615Y044283D02*
X063185D01*
X062615Y043417D02*
Y044283D01*
X063185Y043417D02*
Y044283D01*
X055582Y045974D02*
X056153D01*
X055582Y046841D02*
X056153D01*
X055582Y045974D02*
Y046841D01*
X056153Y045974D02*
Y046841D01*
X024833Y022915D02*
Y023485D01*
X023967Y022915D02*
Y023485D01*
Y022915D02*
X024833D01*
X023967Y023485D02*
X024833D01*
X038015Y026717D02*
X038585D01*
X038015Y027583D02*
X038585D01*
X038015Y026717D02*
Y027583D01*
X038585Y026717D02*
Y027583D01*
X039883Y039415D02*
Y039985D01*
X039017Y039415D02*
Y039985D01*
Y039415D02*
X039883D01*
X039017Y039985D02*
X039883D01*
X025867Y038565D02*
Y039135D01*
X026733Y038565D02*
Y039135D01*
X025867D02*
X026733D01*
X025867Y038565D02*
X026733D01*
X036015Y036517D02*
X036585D01*
X036015Y037383D02*
X036585D01*
X036015Y036517D02*
Y037383D01*
X036585Y036517D02*
Y037383D01*
X031883Y016115D02*
Y016685D01*
X031017Y016115D02*
Y016685D01*
Y016115D02*
X031883D01*
X031017Y016685D02*
X031883D01*
X047533Y025365D02*
Y025935D01*
X046667Y025365D02*
Y025935D01*
Y025365D02*
X047533D01*
X046667Y025935D02*
X047533D01*
X054715Y011217D02*
X055285D01*
X054715Y012083D02*
X055285D01*
X054715Y011217D02*
Y012083D01*
X055285Y011217D02*
Y012083D01*
X049583Y036765D02*
Y037335D01*
X048717Y036765D02*
Y037335D01*
Y036765D02*
X049583D01*
X048717Y037335D02*
X049583D01*
X041453Y039438D02*
Y040009D01*
X042319Y039438D02*
Y040009D01*
X041453D02*
X042319D01*
X041453Y039438D02*
X042319D01*
X043554Y035531D02*
Y036869D01*
X042846Y035531D02*
Y036869D01*
X043554D01*
X042846Y035531D02*
X043554D01*
X043631Y025296D02*
Y026004D01*
X044969Y025296D02*
Y026004D01*
X043631D02*
X044969D01*
X043631Y025296D02*
X044969D01*
X047317Y030685D02*
X048183D01*
X047317Y030115D02*
X048183D01*
X047317D02*
Y030685D01*
X048183Y030115D02*
Y030685D01*
X046083Y039265D02*
Y039835D01*
X045217Y039265D02*
Y039835D01*
Y039265D02*
X046083D01*
X045217Y039835D02*
X046083D01*
X042765Y037867D02*
X043335D01*
X042765Y038733D02*
X043335D01*
X042765Y037867D02*
Y038733D01*
X043335Y037867D02*
Y038733D01*
X043765Y037867D02*
X044335D01*
X043765Y038733D02*
X044335D01*
X043765Y037867D02*
Y038733D01*
X044335Y037867D02*
Y038733D01*
X011339Y018583D02*
X011910D01*
X011339Y017717D02*
X011910D01*
Y018583D01*
X011339Y017717D02*
Y018583D01*
X012389D02*
X012960D01*
X012389Y017717D02*
X012960D01*
Y018583D01*
X012389Y017717D02*
Y018583D01*
X014665Y038983D02*
X015235D01*
X014665Y038117D02*
X015235D01*
Y038983D01*
X014665Y038117D02*
Y038983D01*
X013365Y039933D02*
X013935D01*
X013365Y039067D02*
X013935D01*
Y039933D01*
X013365Y039067D02*
Y039933D01*
X014015Y040917D02*
X014585D01*
X014015Y041783D02*
X014585D01*
X014015Y040917D02*
Y041783D01*
X014585Y040917D02*
Y041783D01*
X045924Y038383D02*
X046476D01*
X045924Y037517D02*
X046476D01*
Y038383D01*
X045924Y037517D02*
Y038383D01*
X044924D02*
X045476D01*
X044924Y037517D02*
X045476D01*
Y038383D01*
X044924Y037517D02*
Y038383D01*
X034015Y031167D02*
X034585D01*
X034015Y032033D02*
X034585D01*
X034015Y031167D02*
Y032033D01*
X034585Y031167D02*
Y032033D01*
X016633Y029774D02*
Y030326D01*
X015767Y029774D02*
Y030326D01*
Y029774D02*
X016633D01*
X015767Y030326D02*
X016633D01*
X014085Y035217D02*
Y036083D01*
X013515Y035217D02*
Y036083D01*
X014085D01*
X013515Y035217D02*
X014085D01*
X013785Y029367D02*
Y030233D01*
X013215Y029367D02*
Y030233D01*
X013785D01*
X013215Y029367D02*
X013785D01*
X013585Y032917D02*
Y033783D01*
X013015Y032917D02*
Y033783D01*
X013585D01*
X013015Y032917D02*
X013585D01*
X013785Y027167D02*
Y028033D01*
X013215Y027167D02*
Y028033D01*
X013785D01*
X013215Y027167D02*
X013785D01*
X034433Y046824D02*
Y047376D01*
X033567Y046824D02*
Y047376D01*
Y046824D02*
X034433D01*
X033567Y047376D02*
X034433D01*
X014224Y032917D02*
X014776D01*
X014224Y033783D02*
X014776D01*
X014224Y032917D02*
Y033783D01*
X014776Y032917D02*
Y033783D01*
X016117Y028424D02*
Y028976D01*
X016983Y028424D02*
Y028976D01*
X016117D02*
X016983D01*
X016117Y028424D02*
X016983D01*
X015368Y032163D02*
X018832D01*
X015368Y033737D02*
X018832D01*
X015368Y032163D02*
Y033737D01*
X018832Y032163D02*
Y033737D01*
X065074Y035417D02*
X065626D01*
X065074Y036283D02*
X065626D01*
X065074Y035417D02*
Y036283D01*
X065626Y035417D02*
Y036283D01*
X056274Y035583D02*
X056826D01*
X056274Y034717D02*
X056826D01*
Y035583D01*
X056274Y034717D02*
Y035583D01*
X062433Y036215D02*
Y036785D01*
X061567Y036215D02*
Y036785D01*
Y036215D02*
X062433D01*
X061567Y036785D02*
X062433D01*
X060265Y036417D02*
X060835D01*
X060265Y037283D02*
X060835D01*
X060265Y036417D02*
Y037283D01*
X060835Y036417D02*
Y037283D01*
X026017Y035775D02*
Y036326D01*
X026883Y035775D02*
Y036326D01*
X026017D02*
X026883D01*
X026017Y035775D02*
X026883D01*
X028833Y035775D02*
Y036326D01*
X027967Y035775D02*
Y036326D01*
Y035775D02*
X028833D01*
X027967Y036326D02*
X028833D01*
X043767Y014085D02*
X044633D01*
X043767Y013515D02*
X044633D01*
X043767D02*
Y014085D01*
X044633Y013515D02*
Y014085D01*
X049317D02*
X050183D01*
X049317Y013515D02*
X050183D01*
X049317D02*
Y014085D01*
X050183Y013515D02*
Y014085D01*
X046567D02*
X047433D01*
X046567Y013515D02*
X047433D01*
X046567D02*
Y014085D01*
X047433Y013515D02*
Y014085D01*
D153*
X055650Y017959D02*
D03*
X062850Y017134D02*
D03*
M02*
