G04 Layer_Color=32768*
%FSAX24Y24*%
%MOIN*%
G70*
G01*
G75*
%ADD152C,0.0039*%
%ADD154C,0.0020*%
D152*
X018000Y014753D02*
Y015147D01*
X017803Y014950D02*
X018197D01*
X011600Y045268D02*
Y045661D01*
X011403Y045465D02*
X011797D01*
X057553Y040455D02*
X057947D01*
X057750Y040258D02*
Y040652D01*
X015000Y035453D02*
Y035847D01*
X014803Y035650D02*
X015197D01*
X026763Y041142D02*
Y043858D01*
X029912Y041142D02*
Y043858D01*
X026763D02*
X029912D01*
X026763Y041142D02*
X029912D01*
X028141Y042500D02*
X028534D01*
X028337Y042303D02*
Y042697D01*
X019253Y039415D02*
X019647D01*
X019450Y039218D02*
Y039611D01*
X021253Y017550D02*
X021647D01*
X021450Y017353D02*
Y017747D01*
X021253Y019400D02*
X021647D01*
X021450Y019203D02*
Y019597D01*
X057053Y015193D02*
X057447D01*
X057250Y014996D02*
Y015390D01*
X061844Y019960D02*
X062237D01*
X062041Y019763D02*
Y020157D01*
X059371Y045150D02*
X059765D01*
X059568Y044953D02*
Y045347D01*
X062225Y042807D02*
Y047493D01*
X056910Y042807D02*
Y047493D01*
X062225D01*
X056910Y042807D02*
X062225D01*
X041859Y046124D02*
X042253D01*
X042056Y045927D02*
Y046321D01*
X043809Y046124D02*
X044203D01*
X044006Y045927D02*
Y046321D01*
X040300Y045703D02*
Y046097D01*
X040103Y045900D02*
X040497D01*
X045903Y045800D02*
X046297D01*
X046100Y045603D02*
Y045997D01*
X058900Y016596D02*
Y016990D01*
X058703Y016793D02*
X059097D01*
X060200Y018253D02*
Y018647D01*
X060003Y018450D02*
X060397D01*
X058900Y012496D02*
Y012890D01*
X058703Y012693D02*
X059097D01*
X060350Y022313D02*
Y022707D01*
X060153Y022510D02*
X060547D01*
X058900Y014496D02*
Y014890D01*
X058703Y014693D02*
X059097D01*
X060200Y020253D02*
Y020647D01*
X060003Y020450D02*
X060397D01*
X041909Y047474D02*
X042303D01*
X042106Y047277D02*
Y047671D01*
X043759Y047474D02*
X044153D01*
X043956Y047277D02*
Y047671D01*
X058503Y025850D02*
X058897D01*
X058700Y025653D02*
Y026047D01*
X058153Y048550D02*
X058547D01*
X058350Y048353D02*
Y048747D01*
X060653Y041600D02*
X061047D01*
X060850Y041403D02*
Y041797D01*
X060603Y048550D02*
X060997D01*
X060800Y048353D02*
Y048747D01*
X058153Y041600D02*
X058547D01*
X058350Y041403D02*
Y041797D01*
X046853Y047500D02*
X047247D01*
X047050Y047303D02*
Y047697D01*
X024203Y022050D02*
X024597D01*
X024400Y021853D02*
Y022247D01*
X023303Y017550D02*
X023697D01*
X023500Y017353D02*
Y017747D01*
X026100Y020903D02*
Y021297D01*
X025903Y021100D02*
X026297D01*
X023303Y018600D02*
X023697D01*
X023500Y018403D02*
Y018797D01*
X024203Y020900D02*
X024597D01*
X024400Y020703D02*
Y021097D01*
X035753Y035450D02*
X036147D01*
X035950Y035253D02*
Y035647D01*
X056100Y038703D02*
Y039097D01*
X055903Y038900D02*
X056297D01*
X051253Y033850D02*
X051647D01*
X051450Y033653D02*
Y034047D01*
X037653Y037550D02*
X038047D01*
X037850Y037353D02*
Y037747D01*
X039103Y021550D02*
X039497D01*
X039300Y021353D02*
Y021747D01*
X041003Y021550D02*
X041397D01*
X041200Y021353D02*
Y021747D01*
X039400Y037853D02*
Y038247D01*
X039203Y038050D02*
X039597D01*
X042700Y019553D02*
Y019947D01*
X042503Y019750D02*
X042897D01*
X040450Y036503D02*
Y036897D01*
X040253Y036700D02*
X040647D01*
X043803Y019250D02*
X044197D01*
X044000Y019053D02*
Y019447D01*
X044939Y035674D02*
X045333D01*
X045136Y035477D02*
Y035871D01*
X040003Y025250D02*
X040397D01*
X040200Y025053D02*
Y025447D01*
X043503Y039700D02*
X043897D01*
X043700Y039503D02*
Y039897D01*
X015853Y020950D02*
X016247D01*
X016050Y020753D02*
Y021147D01*
X011600Y016153D02*
Y016547D01*
X011403Y016350D02*
X011797D01*
X013800Y017953D02*
Y018347D01*
X013603Y018150D02*
X013997D01*
X013853Y011600D02*
X014247D01*
X014050Y011403D02*
Y011797D01*
X019203Y012925D02*
X019597D01*
X019400Y012728D02*
Y013122D01*
X019228Y016750D02*
X019621D01*
X019424Y016553D02*
Y016947D01*
X022200Y040953D02*
Y041347D01*
X022003Y041150D02*
X022397D01*
X020053Y046465D02*
X020447D01*
X020250Y046268D02*
Y046661D01*
X015703Y042550D02*
X016097D01*
X015900Y042353D02*
Y042747D01*
X017200Y040118D02*
Y040511D01*
X017003Y040315D02*
X017397D01*
X020453Y041550D02*
X020847D01*
X020650Y041353D02*
Y041747D01*
X012203Y043050D02*
X012597D01*
X012400Y042853D02*
Y043247D01*
X015953Y039300D02*
X016347D01*
X016150Y039103D02*
Y039497D01*
X021853Y046465D02*
X022247D01*
X022050Y046268D02*
Y046661D01*
X021853Y047465D02*
X022247D01*
X022050Y047268D02*
Y047661D01*
X016850Y046653D02*
Y047047D01*
X016653Y046850D02*
X017047D01*
X018253Y046450D02*
X018647D01*
X018450Y046253D02*
Y046647D01*
X020053Y047465D02*
X020447D01*
X020250Y047268D02*
Y047661D01*
X027133Y021126D02*
X031267D01*
X027133Y018174D02*
X031267D01*
Y021126D01*
X027133Y018174D02*
Y021126D01*
X029200Y019453D02*
Y019847D01*
X029003Y019650D02*
X029397D01*
X015250Y022253D02*
Y022647D01*
X015053Y022450D02*
X015447D01*
X052900Y014096D02*
Y014490D01*
X052703Y014293D02*
X053097D01*
X066450Y020613D02*
Y021007D01*
X066253Y020810D02*
X066647D01*
X030250Y028053D02*
Y028447D01*
X030053Y028250D02*
X030447D01*
X048953Y035650D02*
X049347D01*
X049150Y035453D02*
Y035847D01*
X055453Y018743D02*
X055847D01*
X055650Y018546D02*
Y018940D01*
X062653Y016350D02*
X063047D01*
X062850Y016153D02*
Y016547D01*
X024953Y046150D02*
X025347D01*
X025150Y045953D02*
Y046347D01*
X024953Y045000D02*
X025347D01*
X025150Y044803D02*
Y045197D01*
X056753Y011693D02*
X057147D01*
X056950Y011496D02*
Y011890D01*
X057501Y010906D02*
Y012480D01*
X056399Y010906D02*
Y012480D01*
X057501D01*
X056399Y010906D02*
X057501D01*
X062753Y023460D02*
X063147D01*
X062950Y023263D02*
Y023657D01*
X062399Y022672D02*
Y024247D01*
X063501Y022672D02*
Y024247D01*
X062399Y022672D02*
X063501D01*
X062399Y024247D02*
X063501D01*
X055300Y014953D02*
Y015347D01*
X055103Y015150D02*
X055497D01*
X063700Y019813D02*
Y020207D01*
X063503Y020010D02*
X063897D01*
X057050Y018596D02*
Y018990D01*
X056853Y018793D02*
X057247D01*
X061500Y016053D02*
Y016447D01*
X061303Y016250D02*
X061697D01*
X058053Y018893D02*
X058447D01*
X058250Y018696D02*
Y019090D01*
X058801Y018106D02*
Y019680D01*
X057699Y018106D02*
Y019680D01*
X058801D01*
X057699Y018106D02*
X058801D01*
X060103Y016110D02*
X060497D01*
X060300Y015913D02*
Y016307D01*
X059749Y015322D02*
Y016897D01*
X060851Y015322D02*
Y016897D01*
X059749Y015322D02*
X060851D01*
X059749Y016897D02*
X060851D01*
X061453Y025850D02*
X061847D01*
X061650Y025653D02*
Y026047D01*
X060200Y025253D02*
Y025647D01*
X060003Y025450D02*
X060397D01*
X062453Y034700D02*
X062847D01*
X062650Y034503D02*
Y034897D01*
X062900Y043653D02*
Y044047D01*
X062703Y043850D02*
X063097D01*
X055868Y046211D02*
Y046604D01*
X055671Y046407D02*
X056065D01*
X024203Y023200D02*
X024597D01*
X024400Y023003D02*
Y023397D01*
X038300Y026953D02*
Y027347D01*
X038103Y027150D02*
X038497D01*
X039253Y039700D02*
X039647D01*
X039450Y039503D02*
Y039897D01*
X026103Y038850D02*
X026497D01*
X026300Y038653D02*
Y039047D01*
X036300Y036753D02*
Y037147D01*
X036103Y036950D02*
X036497D01*
X031253Y016400D02*
X031647D01*
X031450Y016203D02*
Y016597D01*
X046903Y025650D02*
X047297D01*
X047100Y025453D02*
Y025847D01*
X055000Y011453D02*
Y011847D01*
X054803Y011650D02*
X055197D01*
X048953Y037050D02*
X049347D01*
X049150Y036853D02*
Y037247D01*
X041689Y039724D02*
X042083D01*
X041886Y039527D02*
Y039921D01*
X043003Y036200D02*
X043397D01*
X043200Y036003D02*
Y036397D01*
X043574Y035413D02*
Y036987D01*
X042826Y035413D02*
Y036987D01*
X043574D01*
X042826Y035413D02*
X043574D01*
X043513Y025276D02*
Y026024D01*
X045087Y025276D02*
Y026024D01*
X043513D02*
X045087D01*
X043513Y025276D02*
X045087D01*
X044103Y025650D02*
X044497D01*
X044300Y025453D02*
Y025847D01*
X047750Y030203D02*
Y030597D01*
X047553Y030400D02*
X047947D01*
X045453Y039550D02*
X045847D01*
X045650Y039353D02*
Y039747D01*
X043050Y038103D02*
Y038497D01*
X042853Y038300D02*
X043247D01*
X044050Y038103D02*
Y038497D01*
X043853Y038300D02*
X044247D01*
X011624Y017953D02*
Y018347D01*
X011428Y018150D02*
X011821D01*
X012674Y017953D02*
Y018347D01*
X012478Y018150D02*
X012871D01*
X014950Y038353D02*
Y038747D01*
X014753Y038550D02*
X015147D01*
X013650Y039303D02*
Y039697D01*
X013453Y039500D02*
X013847D01*
X014300Y041153D02*
Y041547D01*
X014103Y041350D02*
X014497D01*
X046200Y037753D02*
Y038147D01*
X046003Y037950D02*
X046397D01*
X045200Y037753D02*
Y038147D01*
X045003Y037950D02*
X045397D01*
X034300Y031403D02*
Y031797D01*
X034103Y031600D02*
X034497D01*
X016003Y030050D02*
X016397D01*
X016200Y029853D02*
Y030247D01*
X013603Y035650D02*
X013997D01*
X013800Y035453D02*
Y035847D01*
X013303Y029800D02*
X013697D01*
X013500Y029603D02*
Y029997D01*
X013103Y033350D02*
X013497D01*
X013300Y033153D02*
Y033547D01*
X013303Y027600D02*
X013697D01*
X013500Y027403D02*
Y027797D01*
X033803Y047100D02*
X034197D01*
X034000Y046903D02*
Y047297D01*
X014500Y033153D02*
Y033547D01*
X014303Y033350D02*
X014697D01*
X016353Y028700D02*
X016747D01*
X016550Y028503D02*
Y028897D01*
X017100Y032753D02*
Y033147D01*
X016903Y032950D02*
X017297D01*
X065350Y035653D02*
Y036047D01*
X065153Y035850D02*
X065547D01*
X056550Y034953D02*
Y035347D01*
X056353Y035150D02*
X056747D01*
X061803Y036500D02*
X062197D01*
X062000Y036303D02*
Y036697D01*
X060550Y036653D02*
Y037047D01*
X060353Y036850D02*
X060747D01*
X026253Y036051D02*
X026647D01*
X026450Y035854D02*
Y036248D01*
X028203Y036051D02*
X028597D01*
X028400Y035854D02*
Y036248D01*
X044200Y013603D02*
Y013997D01*
X044003Y013800D02*
X044397D01*
X049750Y013603D02*
Y013997D01*
X049553Y013800D02*
X049947D01*
X047000Y013603D02*
Y013997D01*
X046803Y013800D02*
X047197D01*
D154*
X016356Y016111D02*
X019644D01*
X016356Y013789D02*
X019644D01*
X016356D02*
Y016111D01*
X019644Y013789D02*
Y016111D01*
X011088Y046350D02*
X012112D01*
X011088Y044579D02*
X012112D01*
Y046350D01*
X011088Y044579D02*
Y046350D01*
X056864Y039963D02*
Y040947D01*
X058636Y039963D02*
Y040947D01*
X056864D02*
X058636D01*
X056864Y039963D02*
X058636D01*
X014508Y034764D02*
X015492D01*
X014508Y036536D02*
X015492D01*
X014508Y034764D02*
Y036536D01*
X015492Y034764D02*
Y036536D01*
X017521Y037761D02*
Y041068D01*
X021379Y037761D02*
Y041068D01*
X017521Y037761D02*
X021379D01*
X017521Y041068D02*
X021379D01*
X022375Y016763D02*
Y018337D01*
X020525Y016763D02*
Y018337D01*
Y016763D02*
X022375D01*
X020525Y018337D02*
X022375D01*
Y018613D02*
Y020187D01*
X020525Y018613D02*
Y020187D01*
Y018613D02*
X022375D01*
X020525Y020187D02*
X022375D01*
X058293Y013854D02*
Y016531D01*
X056207Y013854D02*
Y016531D01*
X058293D01*
X056207Y013854D02*
X058293D01*
X060997Y018621D02*
Y021298D01*
X063084Y018621D02*
Y021298D01*
X060997Y018621D02*
X063084D01*
X060997Y021298D02*
X063084D01*
X042981Y045337D02*
Y046911D01*
X041131Y045337D02*
Y046911D01*
Y045337D02*
X042981D01*
X041131Y046911D02*
X042981D01*
X044931Y045337D02*
Y046911D01*
X043081Y045337D02*
Y046911D01*
Y045337D02*
X044931D01*
X043081Y046911D02*
X044931D01*
X039808Y045014D02*
X040792D01*
X039808Y046786D02*
X040792D01*
X039808Y045014D02*
Y046786D01*
X040792Y045014D02*
Y046786D01*
X046986Y045308D02*
Y046292D01*
X045214Y045308D02*
Y046292D01*
Y045308D02*
X046986D01*
X045214Y046292D02*
X046986D01*
X058408Y015907D02*
X059392D01*
X058408Y017679D02*
X059392D01*
X058408Y015907D02*
Y017679D01*
X059392Y015907D02*
Y017679D01*
X059708Y019336D02*
X060692D01*
X059708Y017564D02*
X060692D01*
Y019336D01*
X059708Y017564D02*
Y019336D01*
X058408Y013579D02*
X059392D01*
X058408Y011807D02*
X059392D01*
Y013579D01*
X058408Y011807D02*
Y013579D01*
X059858Y021624D02*
X060842D01*
X059858Y023396D02*
X060842D01*
X059858Y021624D02*
Y023396D01*
X060842Y021624D02*
Y023396D01*
X058408Y013807D02*
X059392D01*
X058408Y015579D02*
X059392D01*
X058408Y013807D02*
Y015579D01*
X059392Y013807D02*
Y015579D01*
X059708Y021336D02*
X060692D01*
X059708Y019564D02*
X060692D01*
Y021336D01*
X059708Y019564D02*
Y021336D01*
X042992Y046982D02*
Y047966D01*
X041220Y046982D02*
Y047966D01*
Y046982D02*
X042992D01*
X041220Y047966D02*
X042992D01*
X043070Y046982D02*
Y047966D01*
X044842Y046982D02*
Y047966D01*
X043070D02*
X044842D01*
X043070Y046982D02*
X044842D01*
X059586Y025358D02*
Y026342D01*
X057814Y025358D02*
Y026342D01*
Y025358D02*
X059586D01*
X057814Y026342D02*
X059586D01*
X059236Y048058D02*
Y049042D01*
X057464Y048058D02*
Y049042D01*
Y048058D02*
X059236D01*
X057464Y049042D02*
X059236D01*
X059964Y041108D02*
Y042092D01*
X061736Y041108D02*
Y042092D01*
X059964D02*
X061736D01*
X059964Y041108D02*
X061736D01*
X059914Y048058D02*
Y049042D01*
X061686Y048058D02*
Y049042D01*
X059914D02*
X061686D01*
X059914Y048058D02*
X061686D01*
X059236Y041108D02*
Y042092D01*
X057464Y041108D02*
Y042092D01*
Y041108D02*
X059236D01*
X057464Y042092D02*
X059236D01*
X046164Y047008D02*
Y047992D01*
X047936Y047008D02*
Y047992D01*
X046164D02*
X047936D01*
X046164Y047008D02*
X047936D01*
X023514Y021558D02*
Y022542D01*
X025286Y021558D02*
Y022542D01*
X023514D02*
X025286D01*
X023514Y021558D02*
X025286D01*
X022614Y017058D02*
Y018042D01*
X024386Y017058D02*
Y018042D01*
X022614D02*
X024386D01*
X022614Y017058D02*
X024386D01*
X025608Y021986D02*
X026592D01*
X025608Y020214D02*
X026592D01*
Y021986D01*
X025608Y020214D02*
Y021986D01*
X024386Y018108D02*
Y019092D01*
X022614Y018108D02*
Y019092D01*
Y018108D02*
X024386D01*
X022614Y019092D02*
X024386D01*
X025286Y020408D02*
Y021392D01*
X023514Y020408D02*
Y021392D01*
Y020408D02*
X025286D01*
X023514Y021392D02*
X025286D01*
X036836Y034958D02*
Y035942D01*
X035064Y034958D02*
Y035942D01*
Y034958D02*
X036836D01*
X035064Y035942D02*
X036836D01*
X055608Y038014D02*
X056592D01*
X055608Y039786D02*
X056592D01*
X055608Y038014D02*
Y039786D01*
X056592Y038014D02*
Y039786D01*
X050564Y033358D02*
Y034342D01*
X052336Y033358D02*
Y034342D01*
X050564D02*
X052336D01*
X050564Y033358D02*
X052336D01*
X038736Y037058D02*
Y038042D01*
X036964Y037058D02*
Y038042D01*
Y037058D02*
X038736D01*
X036964Y038042D02*
X038736D01*
X040186Y021058D02*
Y022042D01*
X038414Y021058D02*
Y022042D01*
Y021058D02*
X040186D01*
X038414Y022042D02*
X040186D01*
X042086Y021058D02*
Y022042D01*
X040314Y021058D02*
Y022042D01*
Y021058D02*
X042086D01*
X040314Y022042D02*
X042086D01*
X038908Y037164D02*
X039892D01*
X038908Y038936D02*
X039892D01*
X038908Y037164D02*
Y038936D01*
X039892Y037164D02*
Y038936D01*
X042208Y020636D02*
X043192D01*
X042208Y018864D02*
X043192D01*
Y020636D01*
X042208Y018864D02*
Y020636D01*
X039958Y037586D02*
X040942D01*
X039958Y035814D02*
X040942D01*
Y037586D01*
X039958Y035814D02*
Y037586D01*
X044886Y018758D02*
Y019742D01*
X043114Y018758D02*
Y019742D01*
Y018758D02*
X044886D01*
X043114Y019742D02*
X044886D01*
X044250Y035182D02*
Y036166D01*
X046022Y035182D02*
Y036166D01*
X044250D02*
X046022D01*
X044250Y035182D02*
X046022D01*
X041086Y024758D02*
Y025742D01*
X039314Y024758D02*
Y025742D01*
Y024758D02*
X041086D01*
X039314Y025742D02*
X041086D01*
X044586Y039208D02*
Y040192D01*
X042814Y039208D02*
Y040192D01*
Y039208D02*
X044586D01*
X042814Y040192D02*
X044586D01*
X016936Y020458D02*
Y021442D01*
X015164Y020458D02*
Y021442D01*
Y020458D02*
X016936D01*
X015164Y021442D02*
X016936D01*
X011108Y017236D02*
X012092D01*
X011108Y015464D02*
X012092D01*
Y017236D01*
X011108Y015464D02*
Y017236D01*
X013308Y017264D02*
X014292D01*
X013308Y019036D02*
X014292D01*
X013308Y017264D02*
Y019036D01*
X014292Y017264D02*
Y019036D01*
X013164Y011108D02*
Y012092D01*
X014936Y011108D02*
Y012092D01*
X013164D02*
X014936D01*
X013164Y011108D02*
X014936D01*
X020286Y012433D02*
Y013417D01*
X018514Y012433D02*
Y013417D01*
Y012433D02*
X020286D01*
X018514Y013417D02*
X020286D01*
X018539Y016258D02*
Y017242D01*
X020310Y016258D02*
Y017242D01*
X018539D02*
X020310D01*
X018539Y016258D02*
X020310D01*
X021708Y042036D02*
X022692D01*
X021708Y040264D02*
X022692D01*
Y042036D01*
X021708Y040264D02*
Y042036D01*
X021136Y045972D02*
Y046957D01*
X019364Y045972D02*
Y046957D01*
Y045972D02*
X021136D01*
X019364Y046957D02*
X021136D01*
X016786Y042058D02*
Y043042D01*
X015014Y042058D02*
Y043042D01*
Y042058D02*
X016786D01*
X015014Y043042D02*
X016786D01*
X016708Y041200D02*
X017692D01*
X016708Y039429D02*
X017692D01*
Y041200D01*
X016708Y039429D02*
Y041200D01*
X019764Y041058D02*
Y042042D01*
X021536Y041058D02*
Y042042D01*
X019764D02*
X021536D01*
X019764Y041058D02*
X021536D01*
X011514Y042558D02*
Y043542D01*
X013286Y042558D02*
Y043542D01*
X011514D02*
X013286D01*
X011514Y042558D02*
X013286D01*
X015658Y038414D02*
Y040186D01*
X016642Y038414D02*
Y040186D01*
X015658Y038414D02*
X016642D01*
X015658Y040186D02*
X016642D01*
X022936Y045972D02*
Y046957D01*
X021164Y045972D02*
Y046957D01*
Y045972D02*
X022936D01*
X021164Y046957D02*
X022936D01*
Y046972D02*
Y047957D01*
X021164Y046972D02*
Y047957D01*
Y046972D02*
X022936D01*
X021164Y047957D02*
X022936D01*
X016358Y047736D02*
X017342D01*
X016358Y045964D02*
X017342D01*
Y047736D01*
X016358Y045964D02*
Y047736D01*
X019336Y045958D02*
Y046942D01*
X017564Y045958D02*
Y046942D01*
Y045958D02*
X019336D01*
X017564Y046942D02*
X019336D01*
X019364Y046972D02*
Y047957D01*
X021136Y046972D02*
Y047957D01*
X019364D02*
X021136D01*
X019364Y046972D02*
X021136D01*
X013823Y023257D02*
X016677D01*
X013823Y021643D02*
X016677D01*
X013823D02*
Y023257D01*
X016677Y021643D02*
Y023257D01*
X051069Y016468D02*
X054731D01*
X051069Y012118D02*
X054731D01*
Y016468D01*
X051069Y012118D02*
Y016468D01*
X064619Y018635D02*
X068281D01*
X064619Y022985D02*
X068281D01*
X064619Y018635D02*
Y022985D01*
X068281Y018635D02*
Y022985D01*
X029738Y029136D02*
X030762D01*
X029738Y027364D02*
X030762D01*
Y029136D01*
X029738Y027364D02*
Y029136D01*
X050075Y034863D02*
Y036437D01*
X048225Y034863D02*
Y036437D01*
Y034863D02*
X050075D01*
X048225Y036437D02*
X050075D01*
X056437Y017326D02*
Y020160D01*
X054863Y017326D02*
Y020160D01*
X056437D01*
X054863Y017326D02*
X056437D01*
X062063Y014933D02*
Y017767D01*
X063637Y014933D02*
Y017767D01*
X062063Y014933D02*
X063637D01*
X062063Y017767D02*
X063637D01*
X024264Y045638D02*
Y046662D01*
X026036Y045638D02*
Y046662D01*
X024264D02*
X026036D01*
X024264Y045638D02*
X026036D01*
X024264Y044488D02*
Y045512D01*
X026036Y044488D02*
Y045512D01*
X024264D02*
X026036D01*
X024264Y044488D02*
X026036D01*
X054788Y016036D02*
X055812D01*
X054788Y014264D02*
X055812D01*
Y016036D01*
X054788Y014264D02*
Y016036D01*
X063188Y019124D02*
X064212D01*
X063188Y020896D02*
X064212D01*
X063188Y019124D02*
Y020896D01*
X064212Y019124D02*
Y020896D01*
X056538Y017907D02*
X057562D01*
X056538Y019679D02*
X057562D01*
X056538Y017907D02*
Y019679D01*
X057562Y017907D02*
Y019679D01*
X060988Y017136D02*
X062012D01*
X060988Y015364D02*
X062012D01*
Y017136D01*
X060988Y015364D02*
Y017136D01*
X062536Y025338D02*
Y026362D01*
X060764Y025338D02*
Y026362D01*
Y025338D02*
X062536D01*
X060764Y026362D02*
X062536D01*
X059688Y024564D02*
X060712D01*
X059688Y026336D02*
X060712D01*
X059688Y024564D02*
Y026336D01*
X060712Y024564D02*
Y026336D01*
X063536Y034188D02*
Y035212D01*
X061764Y034188D02*
Y035212D01*
Y034188D02*
X063536D01*
X061764Y035212D02*
X063536D01*
X062388Y042964D02*
X063412D01*
X062388Y044736D02*
X063412D01*
X062388Y042964D02*
Y044736D01*
X063412Y042964D02*
Y044736D01*
X055356Y045522D02*
X056380D01*
X055356Y047293D02*
X056380D01*
X055356Y045522D02*
Y047293D01*
X056380Y045522D02*
Y047293D01*
X025286Y022688D02*
Y023712D01*
X023514Y022688D02*
Y023712D01*
Y022688D02*
X025286D01*
X023514Y023712D02*
X025286D01*
X037788Y026264D02*
X038812D01*
X037788Y028036D02*
X038812D01*
X037788Y026264D02*
Y028036D01*
X038812Y026264D02*
Y028036D01*
X040336Y039188D02*
Y040212D01*
X038564Y039188D02*
Y040212D01*
Y039188D02*
X040336D01*
X038564Y040212D02*
X040336D01*
X025414Y038338D02*
Y039362D01*
X027186Y038338D02*
Y039362D01*
X025414D02*
X027186D01*
X025414Y038338D02*
X027186D01*
X035788Y036064D02*
X036812D01*
X035788Y037836D02*
X036812D01*
X035788Y036064D02*
Y037836D01*
X036812Y036064D02*
Y037836D01*
X032336Y015888D02*
Y016912D01*
X030564Y015888D02*
Y016912D01*
Y015888D02*
X032336D01*
X030564Y016912D02*
X032336D01*
X047986Y025138D02*
Y026162D01*
X046214Y025138D02*
Y026162D01*
Y025138D02*
X047986D01*
X046214Y026162D02*
X047986D01*
X054488Y010764D02*
X055512D01*
X054488Y012536D02*
X055512D01*
X054488Y010764D02*
Y012536D01*
X055512Y010764D02*
Y012536D01*
X050036Y036538D02*
Y037562D01*
X048264Y036538D02*
Y037562D01*
Y036538D02*
X050036D01*
X048264Y037562D02*
X050036D01*
X041000Y039212D02*
Y040236D01*
X042772Y039212D02*
Y040236D01*
X041000D02*
X042772D01*
X041000Y039212D02*
X042772D01*
X046864Y030912D02*
X048636D01*
X046864Y029888D02*
X048636D01*
X046864D02*
Y030912D01*
X048636Y029888D02*
Y030912D01*
X046536Y039038D02*
Y040062D01*
X044764Y039038D02*
Y040062D01*
Y039038D02*
X046536D01*
X044764Y040062D02*
X046536D01*
X042538Y037414D02*
X043562D01*
X042538Y039186D02*
X043562D01*
X042538Y037414D02*
Y039186D01*
X043562Y037414D02*
Y039186D01*
X043538Y037414D02*
X044562D01*
X043538Y039186D02*
X044562D01*
X043538Y037414D02*
Y039186D01*
X044562Y037414D02*
Y039186D01*
X011113Y019036D02*
X012136D01*
X011113Y017264D02*
X012136D01*
Y019036D01*
X011113Y017264D02*
Y019036D01*
X012163D02*
X013186D01*
X012163Y017264D02*
X013186D01*
Y019036D01*
X012163Y017264D02*
Y019036D01*
X014438Y039436D02*
X015462D01*
X014438Y037664D02*
X015462D01*
Y039436D01*
X014438Y037664D02*
Y039436D01*
X013138Y040386D02*
X014162D01*
X013138Y038614D02*
X014162D01*
Y040386D01*
X013138Y038614D02*
Y040386D01*
X013788Y040464D02*
X014812D01*
X013788Y042236D02*
X014812D01*
X013788Y040464D02*
Y042236D01*
X014812Y040464D02*
Y042236D01*
X045708Y038836D02*
X046692D01*
X045708Y037064D02*
X046692D01*
Y038836D01*
X045708Y037064D02*
Y038836D01*
X044708D02*
X045692D01*
X044708Y037064D02*
X045692D01*
Y038836D01*
X044708Y037064D02*
Y038836D01*
X033788Y030714D02*
X034812D01*
X033788Y032486D02*
X034812D01*
X033788Y030714D02*
Y032486D01*
X034812Y030714D02*
Y032486D01*
X017086Y029558D02*
Y030542D01*
X015314Y029558D02*
Y030542D01*
Y029558D02*
X017086D01*
X015314Y030542D02*
X017086D01*
X014312Y034764D02*
Y036536D01*
X013288Y034764D02*
Y036536D01*
X014312D01*
X013288Y034764D02*
X014312D01*
X014012Y028914D02*
Y030686D01*
X012988Y028914D02*
Y030686D01*
X014012D01*
X012988Y028914D02*
X014012D01*
X013812Y032464D02*
Y034236D01*
X012788Y032464D02*
Y034236D01*
X013812D01*
X012788Y032464D02*
X013812D01*
X014012Y026714D02*
Y028486D01*
X012988Y026714D02*
Y028486D01*
X014012D01*
X012988Y026714D02*
X014012D01*
X034886Y046608D02*
Y047592D01*
X033114Y046608D02*
Y047592D01*
Y046608D02*
X034886D01*
X033114Y047592D02*
X034886D01*
X014008Y032464D02*
X014992D01*
X014008Y034236D02*
X014992D01*
X014008Y032464D02*
Y034236D01*
X014992Y032464D02*
Y034236D01*
X015664Y028208D02*
Y029192D01*
X017436Y028208D02*
Y029192D01*
X015664D02*
X017436D01*
X015664Y028208D02*
X017436D01*
X015171Y031296D02*
X019029D01*
X015171Y034604D02*
X019029D01*
X015171Y031296D02*
Y034604D01*
X019029Y031296D02*
Y034604D01*
X064858Y034964D02*
X065842D01*
X064858Y036736D02*
X065842D01*
X064858Y034964D02*
Y036736D01*
X065842Y034964D02*
Y036736D01*
X056058Y036036D02*
X057042D01*
X056058Y034264D02*
X057042D01*
Y036036D01*
X056058Y034264D02*
Y036036D01*
X062886Y035988D02*
Y037012D01*
X061114Y035988D02*
Y037012D01*
Y035988D02*
X062886D01*
X061114Y037012D02*
X062886D01*
X060038Y035964D02*
X061062D01*
X060038Y037736D02*
X061062D01*
X060038Y035964D02*
Y037736D01*
X061062Y035964D02*
Y037736D01*
X025564Y035559D02*
Y036543D01*
X027336Y035559D02*
Y036543D01*
X025564D02*
X027336D01*
X025564Y035559D02*
X027336D01*
X029286D02*
Y036543D01*
X027514Y035559D02*
Y036543D01*
Y035559D02*
X029286D01*
X027514Y036543D02*
X029286D01*
X043314Y014312D02*
X045086D01*
X043314Y013288D02*
X045086D01*
X043314D02*
Y014312D01*
X045086Y013288D02*
Y014312D01*
X048864D02*
X050636D01*
X048864Y013288D02*
X050636D01*
X048864D02*
Y014312D01*
X050636Y013288D02*
Y014312D01*
X046114D02*
X047886D01*
X046114Y013288D02*
X047886D01*
X046114D02*
Y014312D01*
X047886Y013288D02*
Y014312D01*
M02*
