G04 Layer_Color=128*
%FSAX24Y24*%
%MOIN*%
G70*
G01*
G75*
%ADD10C,0.0050*%
D10*
X051400Y038300D02*
X051800D01*
X051600Y038100D02*
Y038500D01*
X051400Y039300D02*
X051800D01*
X051600Y039100D02*
Y039500D01*
X052400Y038300D02*
X052800D01*
X052600Y038100D02*
Y038500D01*
X052400Y039300D02*
X052800D01*
X052600Y039100D02*
Y039500D01*
X053400Y038300D02*
X053800D01*
X053600Y038100D02*
Y038500D01*
X053400Y039300D02*
X053800D01*
X053600Y039100D02*
Y039500D01*
X039023Y019250D02*
X039377D01*
X039200Y019073D02*
Y019427D01*
X039023Y020250D02*
X039377D01*
X039200Y020073D02*
Y020427D01*
X040023Y019250D02*
X040377D01*
X040200Y019073D02*
Y019427D01*
X040023Y020250D02*
X040377D01*
X040200Y020073D02*
Y020427D01*
X041023Y019250D02*
X041377D01*
X041200Y019073D02*
Y019427D01*
X041023Y020250D02*
X041377D01*
X041200Y020073D02*
Y020427D01*
X049100Y011500D02*
X049500D01*
X049300Y011300D02*
Y011700D01*
X050100Y011500D02*
X050500D01*
X050300Y011300D02*
Y011700D01*
X046300Y011500D02*
X046700D01*
X046500Y011300D02*
Y011700D01*
X047300Y011500D02*
X047700D01*
X047500Y011300D02*
Y011700D01*
X044550Y011500D02*
X044950D01*
X044750Y011300D02*
Y011700D01*
X043550Y011500D02*
X043950D01*
X043750Y011300D02*
Y011700D01*
X047323Y048550D02*
X047677D01*
X047500Y048373D02*
Y048727D01*
X046323Y048550D02*
X046677D01*
X046500Y048373D02*
Y048727D01*
X045323Y048550D02*
X045677D01*
X045500Y048373D02*
Y048727D01*
X044323Y048550D02*
X044677D01*
X044500Y048373D02*
Y048727D01*
X043323Y048550D02*
X043677D01*
X043500Y048373D02*
Y048727D01*
X042323Y048550D02*
X042677D01*
X042500Y048373D02*
Y048727D01*
X041323Y048550D02*
X041677D01*
X041500Y048373D02*
Y048727D01*
X040323Y048550D02*
X040677D01*
X040500Y048373D02*
Y048727D01*
X039323Y048550D02*
X039677D01*
X039500Y048373D02*
Y048727D01*
X038323Y048550D02*
X038677D01*
X038500Y048373D02*
Y048727D01*
X037323Y048550D02*
X037677D01*
X037500Y048373D02*
Y048727D01*
X036323Y048550D02*
X036677D01*
X036500Y048373D02*
Y048727D01*
X035323Y048550D02*
X035677D01*
X035500Y048373D02*
Y048727D01*
X034323Y048550D02*
X034677D01*
X034500Y048373D02*
Y048727D01*
X033323Y048550D02*
X033677D01*
X033500Y048373D02*
Y048727D01*
X032323Y048550D02*
X032677D01*
X032500Y048373D02*
Y048727D01*
X028950Y016150D02*
X029350D01*
X029150Y015950D02*
Y016350D01*
X027950Y016150D02*
X028350D01*
X028150Y015950D02*
Y016350D01*
X026950Y016150D02*
X027350D01*
X027150Y015950D02*
Y016350D01*
X025950Y016150D02*
X026350D01*
X026150Y015950D02*
Y016350D01*
X050123Y044400D02*
X050477D01*
X050300Y044223D02*
Y044577D01*
X048123Y044400D02*
X048477D01*
X048300Y044223D02*
Y044577D01*
X047123Y044400D02*
X047477D01*
X047300Y044223D02*
Y044577D01*
X046123Y044400D02*
X046477D01*
X046300Y044223D02*
Y044577D01*
X045123Y044400D02*
X045477D01*
X045300Y044223D02*
Y044577D01*
X044123Y044400D02*
X044477D01*
X044300Y044223D02*
Y044577D01*
X043123Y044400D02*
X043477D01*
X043300Y044223D02*
Y044577D01*
X042123Y044400D02*
X042477D01*
X042300Y044223D02*
Y044577D01*
X049123Y044400D02*
X049477D01*
X049300Y044223D02*
Y044577D01*
X011323Y011500D02*
X011677D01*
X011500Y011323D02*
Y011677D01*
X011323Y012500D02*
X011677D01*
X011500Y012323D02*
Y012677D01*
X011323Y013500D02*
X011677D01*
X011500Y013323D02*
Y013677D01*
X011323Y014500D02*
X011677D01*
X011500Y014323D02*
Y014677D01*
X011323Y042000D02*
X011677D01*
X011500Y041823D02*
Y042177D01*
X011323Y041000D02*
X011677D01*
X011500Y040823D02*
Y041177D01*
X011323Y040000D02*
X011677D01*
X011500Y039823D02*
Y040177D01*
X011323Y039000D02*
X011677D01*
X011500Y038823D02*
Y039177D01*
X011323Y038000D02*
X011677D01*
X011500Y037823D02*
Y038177D01*
X011323Y020900D02*
X011677D01*
X011500Y020723D02*
Y021077D01*
X011323Y021900D02*
X011677D01*
X011500Y021723D02*
Y022077D01*
X011323Y022900D02*
X011677D01*
X011500Y022723D02*
Y023077D01*
X011323Y023900D02*
X011677D01*
X011500Y023723D02*
Y024077D01*
X017150Y011550D02*
X017550D01*
X017350Y011350D02*
Y011750D01*
X018150Y011550D02*
X018550D01*
X018350Y011350D02*
Y011750D01*
X013320Y015000D02*
X014680D01*
X014000Y014320D02*
Y015680D01*
X014320Y045000D02*
X015680D01*
X015000Y044320D02*
Y045680D01*
X064320Y015000D02*
X065680D01*
X065000Y014320D02*
Y015680D01*
X064320Y045000D02*
X065680D01*
X065000Y044320D02*
Y045680D01*
X034523Y042050D02*
X034877D01*
X034700Y041873D02*
Y042227D01*
X035523Y042050D02*
X035877D01*
X035700Y041873D02*
Y042227D01*
X036523Y042050D02*
X036877D01*
X036700Y041873D02*
Y042227D01*
X037523Y042050D02*
X037877D01*
X037700Y041873D02*
Y042227D01*
X038523Y042050D02*
X038877D01*
X038700Y041873D02*
Y042227D01*
X039523Y042050D02*
X039877D01*
X039700Y041873D02*
Y042227D01*
X040523Y042050D02*
X040877D01*
X040700Y041873D02*
Y042227D01*
X041523Y042050D02*
X041877D01*
X041700Y041873D02*
Y042227D01*
X036600Y026050D02*
X037000D01*
X036800Y025850D02*
Y026250D01*
X036600Y025050D02*
X037000D01*
X036800Y024850D02*
Y025250D01*
X041750Y011500D02*
X042150D01*
X041950Y011300D02*
Y011700D01*
X040750Y011500D02*
X041150D01*
X040950Y011300D02*
Y011700D01*
X049500Y048550D02*
X049900D01*
X049700Y048350D02*
Y048750D01*
X048500Y048550D02*
X048900D01*
X048700Y048350D02*
Y048750D01*
X024854Y014649D02*
X025283D01*
X025069Y014435D02*
Y014864D01*
X025400Y013531D02*
X025829D01*
X025614Y013317D02*
Y013746D01*
X025945Y014649D02*
X026374D01*
X026159Y014435D02*
Y014864D01*
X026490Y013531D02*
X026919D01*
X026705Y013317D02*
Y013746D01*
X027035Y014649D02*
X027465D01*
X027250Y014435D02*
Y014864D01*
X027581Y013531D02*
X028010D01*
X027795Y013317D02*
Y013746D01*
X028126Y014649D02*
X028555D01*
X028341Y014435D02*
Y014864D01*
X028671Y013531D02*
X029100D01*
X028886Y013317D02*
Y013746D01*
X029217Y014649D02*
X029646D01*
X029431Y014435D02*
Y014864D01*
X031559Y014090D02*
X032780D01*
X032169Y013480D02*
Y014700D01*
X021720Y014090D02*
X022941D01*
X022331Y013480D02*
Y014700D01*
X040523Y024250D02*
X040877D01*
X040700Y024073D02*
Y024427D01*
X039523Y024250D02*
X039877D01*
X039700Y024073D02*
Y024427D01*
X037300Y036450D02*
X037700D01*
X037500Y036250D02*
Y036650D01*
X037300Y035450D02*
X037700D01*
X037500Y035250D02*
Y035650D01*
X038500Y035350D02*
X038900D01*
X038700Y035150D02*
Y035550D01*
X038500Y036350D02*
X038900D01*
X038700Y036150D02*
Y036550D01*
X011323Y027050D02*
X011677D01*
X011500Y026873D02*
Y027227D01*
X011323Y028050D02*
X011677D01*
X011500Y027873D02*
Y028227D01*
X011323Y029050D02*
X011677D01*
X011500Y028873D02*
Y029227D01*
X011323Y030050D02*
X011677D01*
X011500Y029873D02*
Y030227D01*
X011323Y033050D02*
X011677D01*
X011500Y032873D02*
Y033227D01*
X011323Y034050D02*
X011677D01*
X011500Y033873D02*
Y034227D01*
X011323Y035050D02*
X011677D01*
X011500Y034873D02*
Y035227D01*
X011323Y036050D02*
X011677D01*
X011500Y035873D02*
Y036227D01*
X025950Y018600D02*
X026350D01*
X026150Y018400D02*
Y018800D01*
X025950Y019600D02*
X026350D01*
X026150Y019400D02*
Y019800D01*
X043123Y042050D02*
X043477D01*
X043300Y041873D02*
Y042227D01*
X044123Y042050D02*
X044477D01*
X044300Y041873D02*
Y042227D01*
X045123Y042050D02*
X045477D01*
X045300Y041873D02*
Y042227D01*
X046123Y042050D02*
X046477D01*
X046300Y041873D02*
Y042227D01*
X047123Y042050D02*
X047477D01*
X047300Y041873D02*
Y042227D01*
X048123Y042050D02*
X048477D01*
X048300Y041873D02*
Y042227D01*
X049123Y042050D02*
X049477D01*
X049300Y041873D02*
Y042227D01*
X050123Y042050D02*
X050477D01*
X050300Y041873D02*
Y042227D01*
X045123Y023050D02*
X045477D01*
X045300Y022873D02*
Y023227D01*
X046123Y023050D02*
X046477D01*
X046300Y022873D02*
Y023227D01*
X047123Y023050D02*
X047477D01*
X047300Y022873D02*
Y023227D01*
X048123Y023050D02*
X048477D01*
X048300Y022873D02*
Y023227D01*
X049123Y023050D02*
X049477D01*
X049300Y022873D02*
Y023227D01*
X050123Y023050D02*
X050477D01*
X050300Y022873D02*
Y023227D01*
X043123Y023050D02*
X043477D01*
X043300Y022873D02*
Y023227D01*
X042123Y023050D02*
X042477D01*
X042300Y022873D02*
Y023227D01*
X041123Y023050D02*
X041477D01*
X041300Y022873D02*
Y023227D01*
X040123Y023050D02*
X040477D01*
X040300Y022873D02*
Y023227D01*
X039123Y023050D02*
X039477D01*
X039300Y022873D02*
Y023227D01*
X038123Y023050D02*
X038477D01*
X038300Y022873D02*
Y023227D01*
X036600Y028300D02*
X037000D01*
X036800Y028100D02*
Y028500D01*
X036600Y027300D02*
X037000D01*
X036800Y027100D02*
Y027500D01*
X022573Y030501D02*
X022927D01*
X022750Y030324D02*
Y030678D01*
X021573Y030501D02*
X021927D01*
X021750Y030324D02*
Y030678D01*
X022573Y031501D02*
X022927D01*
X022750Y031324D02*
Y031678D01*
X021573Y031501D02*
X021927D01*
X021750Y031324D02*
Y031678D01*
X022573Y032501D02*
X022927D01*
X022750Y032324D02*
Y032678D01*
X021573Y032501D02*
X021927D01*
X021750Y032324D02*
Y032678D01*
X022573Y033501D02*
X022927D01*
X022750Y033324D02*
Y033678D01*
X021573Y033501D02*
X021927D01*
X021750Y033324D02*
Y033678D01*
X022573Y034501D02*
X022927D01*
X022750Y034324D02*
Y034678D01*
X021573Y034501D02*
X021927D01*
X021750Y034324D02*
Y034678D01*
X046123Y020650D02*
X046477D01*
X046300Y020473D02*
Y020827D01*
X047123Y020650D02*
X047477D01*
X047300Y020473D02*
Y020827D01*
X048123Y020650D02*
X048477D01*
X048300Y020473D02*
Y020827D01*
X049123Y020650D02*
X049477D01*
X049300Y020473D02*
Y020827D01*
X050123Y020650D02*
X050477D01*
X050300Y020473D02*
Y020827D01*
X051323Y044400D02*
X051677D01*
X051500Y044223D02*
Y044577D01*
X052323Y044400D02*
X052677D01*
X052500Y044223D02*
Y044577D01*
X053323Y044400D02*
X053677D01*
X053500Y044223D02*
Y044577D01*
X054323Y044400D02*
X054677D01*
X054500Y044223D02*
Y044577D01*
X055323Y044400D02*
X055677D01*
X055500Y044223D02*
Y044577D01*
X068300Y036050D02*
X068700D01*
X068500Y035850D02*
Y036250D01*
X068300Y037050D02*
X068700D01*
X068500Y036850D02*
Y037250D01*
X068300Y031050D02*
X068700D01*
X068500Y030850D02*
Y031250D01*
X068300Y030050D02*
X068700D01*
X068500Y029850D02*
Y030250D01*
X036676Y013422D02*
X037424D01*
X037050Y013048D02*
Y013796D01*
X036715Y011650D02*
X037385D01*
X037050Y011315D02*
Y011985D01*
X057060Y015200D02*
X057340D01*
X057200Y015060D02*
Y015340D01*
X061901Y019960D02*
X062181D01*
X062041Y019820D02*
Y020100D01*
X057610Y038250D02*
X057890D01*
X057750Y038110D02*
Y038390D01*
X060410Y029250D02*
X060690D01*
X060550Y029110D02*
Y029390D01*
X060310Y032100D02*
X060590D01*
X060450Y031960D02*
Y032240D01*
X059110Y030600D02*
X059390D01*
X059250Y030460D02*
Y030740D01*
X061610Y030600D02*
X061890D01*
X061750Y030460D02*
Y030740D01*
X062810Y029250D02*
X063090D01*
X062950Y029110D02*
Y029390D01*
X062760Y032050D02*
X063040D01*
X062900Y031910D02*
Y032190D01*
X057610Y029300D02*
X057890D01*
X057750Y029160D02*
Y029440D01*
X057610Y032100D02*
X057890D01*
X057750Y031960D02*
Y032240D01*
X065960Y028250D02*
X066240D01*
X066100Y028110D02*
Y028390D01*
X065960Y033150D02*
X066240D01*
X066100Y033010D02*
Y033290D01*
X066860Y033250D02*
X067140D01*
X067000Y033110D02*
Y033390D01*
X047510Y039500D02*
X047790D01*
X047650Y039360D02*
Y039640D01*
X044110Y036900D02*
X044390D01*
X044250Y036760D02*
Y037040D01*
X035010Y016500D02*
X035290D01*
X035150Y016360D02*
Y016640D01*
X034460Y016950D02*
X034740D01*
X034600Y016810D02*
Y017090D01*
X062860Y046050D02*
X063140D01*
X063000Y045910D02*
Y046190D01*
X040810Y014750D02*
X041090D01*
X040950Y014610D02*
Y014890D01*
X060710Y040150D02*
X060990D01*
X060850Y040010D02*
Y040290D01*
X058160Y042450D02*
X058440D01*
X058300Y042310D02*
Y042590D01*
X060678Y042418D02*
X060958D01*
X060818Y042278D02*
Y042558D01*
X063610Y041450D02*
X063890D01*
X063750Y041310D02*
Y041590D01*
X055610Y012250D02*
X055890D01*
X055750Y012110D02*
Y012390D01*
X031860Y031300D02*
X032140D01*
X032000Y031160D02*
Y031440D01*
X032060Y032100D02*
X032340D01*
X032200Y031960D02*
Y032240D01*
X033710Y032800D02*
X033990D01*
X033850Y032660D02*
Y032940D01*
X035760Y029250D02*
X036040D01*
X035900Y029110D02*
Y029390D01*
X036460Y022100D02*
X036740D01*
X036600Y021960D02*
Y022240D01*
X036360Y022700D02*
X036640D01*
X036500Y022560D02*
Y022840D01*
X041210Y025450D02*
X041490D01*
X041350Y025310D02*
Y025590D01*
X041460Y024300D02*
X041740D01*
X041600Y024160D02*
Y024440D01*
X043410Y020900D02*
X043690D01*
X043550Y020760D02*
Y021040D01*
X036410Y023400D02*
X036690D01*
X036550Y023260D02*
Y023540D01*
X037560Y021050D02*
X037840D01*
X037700Y020910D02*
Y021190D01*
X036410Y024050D02*
X036690D01*
X036550Y023910D02*
Y024190D01*
X032510Y023900D02*
X032790D01*
X032650Y023760D02*
Y024040D01*
X032510Y024500D02*
X032790D01*
X032650Y024360D02*
Y024640D01*
X045610Y025650D02*
X045890D01*
X045750Y025510D02*
Y025790D01*
X037410Y038900D02*
X037690D01*
X037550Y038760D02*
Y039040D01*
X037960Y039850D02*
X038240D01*
X038100Y039710D02*
Y039990D01*
X037960Y039250D02*
X038240D01*
X038100Y039110D02*
Y039390D01*
X046810Y039950D02*
X047090D01*
X046950Y039810D02*
Y040090D01*
X024360Y019650D02*
X024640D01*
X024500Y019510D02*
Y019790D01*
X056860Y017050D02*
X057140D01*
X057000Y016910D02*
Y017190D01*
X013060Y046850D02*
X013340D01*
X013200Y046710D02*
Y046990D01*
X022060Y042800D02*
X022340D01*
X022200Y042660D02*
Y042940D01*
X045160Y019100D02*
X045440D01*
X045300Y018960D02*
Y019240D01*
X046110Y019100D02*
X046390D01*
X046250Y018960D02*
Y019240D01*
X011560Y043850D02*
X011840D01*
X011700Y043710D02*
Y043990D01*
X065010Y037750D02*
X065290D01*
X065150Y037610D02*
Y037890D01*
X055728Y047700D02*
X056008D01*
X055868Y047560D02*
Y047840D01*
X030110Y041750D02*
X030390D01*
X030250Y041610D02*
Y041890D01*
X045710Y026350D02*
X045990D01*
X045850Y026210D02*
Y026490D01*
X049360Y033450D02*
X049640D01*
X049500Y033310D02*
Y033590D01*
X049010Y034000D02*
X049290D01*
X049150Y033860D02*
Y034140D01*
X048110Y032050D02*
X048390D01*
X048250Y031910D02*
Y032190D01*
X050060Y033250D02*
X050340D01*
X050200Y033110D02*
Y033390D01*
X019360Y031850D02*
X019640D01*
X019500Y031710D02*
Y031990D01*
X033860Y028750D02*
X034140D01*
X034000Y028610D02*
Y028890D01*
X032460Y025100D02*
X032740D01*
X032600Y024960D02*
Y025240D01*
X032060Y017500D02*
X032340D01*
X032200Y017360D02*
Y017640D01*
X030810Y017550D02*
X031090D01*
X030950Y017410D02*
Y017690D01*
X048810Y026000D02*
X049090D01*
X048950Y025860D02*
Y026140D01*
X047460Y045700D02*
X047740D01*
X047600Y045560D02*
Y045840D01*
X017810Y030250D02*
X018090D01*
X017950Y030110D02*
Y030390D01*
X060660Y047800D02*
X060940D01*
X060800Y047660D02*
Y047940D01*
X017388Y043492D02*
X017668D01*
X017528Y043352D02*
Y043632D01*
X022910Y042300D02*
X023190D01*
X023050Y042160D02*
Y042440D01*
X016110Y040800D02*
X016390D01*
X016250Y040660D02*
Y040940D01*
X057928Y045225D02*
X058208D01*
X058068Y045085D02*
Y045365D01*
X060878Y045175D02*
X061158D01*
X061018Y045035D02*
Y045315D01*
X015703Y035157D02*
X015983D01*
X015843Y035017D02*
Y035297D01*
X058160Y047850D02*
X058440D01*
X058300Y047710D02*
Y047990D01*
X061410Y027100D02*
X061690D01*
X061550Y026960D02*
Y027240D01*
X052860Y041150D02*
X053140D01*
X053000Y041010D02*
Y041290D01*
X048110Y032650D02*
X048390D01*
X048250Y032510D02*
Y032790D01*
X047460Y033050D02*
X047740D01*
X047600Y032910D02*
Y033190D01*
X051560Y031600D02*
X051840D01*
X051700Y031460D02*
Y031740D01*
X045710Y027400D02*
X045990D01*
X045850Y027260D02*
Y027540D01*
X050860Y030450D02*
X051140D01*
X051000Y030310D02*
Y030590D01*
X052410Y030050D02*
X052690D01*
X052550Y029910D02*
Y030190D01*
X051310Y035300D02*
X051590D01*
X051450Y035160D02*
Y035440D01*
X052310Y031750D02*
X052590D01*
X052450Y031610D02*
Y031890D01*
X046605Y041145D02*
X046885D01*
X046745Y041005D02*
Y041285D01*
X056360Y026000D02*
X056640D01*
X056500Y025860D02*
Y026140D01*
X024960Y035501D02*
X025240D01*
X025100Y035361D02*
Y035641D01*
X018860Y041950D02*
X019140D01*
X019000Y041810D02*
Y042090D01*
X062860Y026250D02*
X063140D01*
X063000Y026110D02*
Y026390D01*
X060210Y023850D02*
X060490D01*
X060350Y023710D02*
Y023990D01*
X026860Y021750D02*
X027140D01*
X027000Y021610D02*
Y021890D01*
X048710Y029750D02*
X048990D01*
X048850Y029610D02*
Y029890D01*
X048160Y029350D02*
X048440D01*
X048300Y029210D02*
Y029490D01*
X030260Y025450D02*
X030540D01*
X030400Y025310D02*
Y025590D01*
X031110Y025550D02*
X031390D01*
X031250Y025410D02*
Y025690D01*
X026310Y028200D02*
X026590D01*
X026450Y028060D02*
Y028340D01*
X029710Y031750D02*
X029990D01*
X029850Y031610D02*
Y031890D01*
X030710Y032750D02*
X030990D01*
X030850Y032610D02*
Y032890D01*
X032410Y028100D02*
X032690D01*
X032550Y027960D02*
Y028240D01*
X029110Y029500D02*
X029390D01*
X029250Y029360D02*
Y029640D01*
X026560Y045000D02*
X026840D01*
X026700Y044860D02*
Y045140D01*
X033560Y030250D02*
X033840D01*
X033700Y030110D02*
Y030390D01*
X040510Y039650D02*
X040790D01*
X040650Y039510D02*
Y039790D01*
X065460Y029600D02*
X065740D01*
X065600Y029460D02*
Y029740D01*
X065460Y032000D02*
X065740D01*
X065600Y031860D02*
Y032140D01*
X045260Y024900D02*
X045540D01*
X045400Y024760D02*
Y025040D01*
X019460Y018300D02*
X019740D01*
X019600Y018160D02*
Y018440D01*
X031260Y033350D02*
X031540D01*
X031400Y033210D02*
Y033490D01*
X021910Y023600D02*
X022190D01*
X022050Y023460D02*
Y023740D01*
X018560Y020950D02*
X018840D01*
X018700Y020810D02*
Y021090D01*
X067010Y048000D02*
X067290D01*
X067150Y047860D02*
Y048140D01*
X045610Y041300D02*
X045890D01*
X045750Y041160D02*
Y041440D01*
X058410Y034400D02*
X058690D01*
X058550Y034260D02*
Y034540D01*
X058410Y027300D02*
X058690D01*
X058550Y027160D02*
Y027440D01*
X061360Y034950D02*
X061640D01*
X061500Y034810D02*
Y035090D01*
X066210Y035850D02*
X066490D01*
X066350Y035710D02*
Y035990D01*
X053260Y045700D02*
X053540D01*
X053400Y045560D02*
Y045840D01*
X052410Y035850D02*
X052690D01*
X052550Y035710D02*
Y035990D01*
X030210Y032300D02*
X030490D01*
X030350Y032160D02*
Y032440D01*
M02*
