G04 Layer_Color=8421504*
%FSAX24Y24*%
%MOIN*%
G70*
G01*
G75*
%ADD11R,0.5906X0.3543*%
%ADD12O,0.0250X0.1000*%
%ADD13R,0.0250X0.1000*%
%ADD14O,0.0160X0.1000*%
%ADD15R,0.0160X0.1000*%
%ADD16O,0.1000X0.0160*%
%ADD17R,0.1000X0.0160*%
%ADD18R,0.0236X0.0787*%
%ADD19O,0.0236X0.0787*%
%ADD20O,0.0945X0.0276*%
%ADD21R,0.0630X0.0591*%
%ADD22R,0.0492X0.0571*%
%ADD23R,0.0571X0.0492*%
%ADD24R,0.0827X0.0354*%
%ADD25R,0.0827X0.1260*%
%ADD26O,0.0276X0.0984*%
%ADD27R,0.0236X0.0354*%
%ADD28R,0.0354X0.0236*%
%ADD29R,0.0669X0.0236*%
%ADD30R,0.1220X0.0949*%
%ADD31O,0.0236X0.0669*%
%ADD32O,0.0236X0.0906*%
%ADD33R,0.0610X0.0512*%
%ADD34O,0.0236X0.0866*%
%ADD35O,0.0728X0.0177*%
%ADD36R,0.3228X0.1457*%
%ADD37R,0.0669X0.1142*%
%ADD38R,0.0250X0.0330*%
%ADD39R,0.0591X0.0630*%
%ADD40R,0.1024X0.0433*%
%ADD41R,0.0630X0.0866*%
%ADD42R,0.0866X0.0630*%
%ADD43R,0.1378X0.0630*%
%ADD44R,0.0453X0.0571*%
%ADD45R,0.0669X0.0433*%
%ADD46R,0.0433X0.0669*%
%ADD47O,0.0276X0.0689*%
%ADD48R,0.0512X0.0433*%
%ADD49R,0.0315X0.0866*%
%ADD50R,0.1496X0.0945*%
D11*
X060350Y030700D02*
D03*
D12*
X062550Y028141D02*
D03*
X062050D02*
D03*
X061550D02*
D03*
X061050D02*
D03*
X060550D02*
D03*
X060050D02*
D03*
X059550D02*
D03*
X059050D02*
D03*
X058550D02*
D03*
X058050D02*
D03*
Y033350D02*
D03*
X058550D02*
D03*
X059050D02*
D03*
X059550D02*
D03*
X060050D02*
D03*
X060550D02*
D03*
X061050D02*
D03*
X061550D02*
D03*
X062050D02*
D03*
D13*
X062550D02*
D03*
D14*
X044606Y027644D02*
D03*
X044350D02*
D03*
X044094D02*
D03*
X043838D02*
D03*
X043582D02*
D03*
X043326D02*
D03*
X043070D02*
D03*
X042814D02*
D03*
X042558D02*
D03*
X042302D02*
D03*
X041790D02*
D03*
X041534D02*
D03*
X041278D02*
D03*
X041022D02*
D03*
X040766D02*
D03*
X040510D02*
D03*
X040254D02*
D03*
X039998D02*
D03*
X039742D02*
D03*
Y034168D02*
D03*
X039998D02*
D03*
X040254D02*
D03*
X040510D02*
D03*
X040766D02*
D03*
X041022D02*
D03*
X041278D02*
D03*
X041534D02*
D03*
X041790D02*
D03*
X042046D02*
D03*
X042558D02*
D03*
X042814D02*
D03*
X043070D02*
D03*
X043326D02*
D03*
X043582D02*
D03*
X043838D02*
D03*
X044094D02*
D03*
X044350D02*
D03*
X044606D02*
D03*
D15*
X042046Y027644D02*
D03*
X042302Y034168D02*
D03*
D16*
X038912Y028474D02*
D03*
Y028730D02*
D03*
Y028986D02*
D03*
Y029242D02*
D03*
Y029498D02*
D03*
Y029754D02*
D03*
Y030010D02*
D03*
Y030266D02*
D03*
Y030522D02*
D03*
Y030778D02*
D03*
Y031290D02*
D03*
Y031546D02*
D03*
Y031802D02*
D03*
Y032058D02*
D03*
Y032314D02*
D03*
Y032570D02*
D03*
Y032826D02*
D03*
Y033082D02*
D03*
Y033338D02*
D03*
X045436D02*
D03*
Y033082D02*
D03*
Y032826D02*
D03*
Y032570D02*
D03*
Y032314D02*
D03*
Y032058D02*
D03*
Y031802D02*
D03*
Y031546D02*
D03*
Y031290D02*
D03*
Y031034D02*
D03*
Y030522D02*
D03*
Y030266D02*
D03*
Y030010D02*
D03*
Y029754D02*
D03*
Y029498D02*
D03*
Y029242D02*
D03*
Y028986D02*
D03*
Y028730D02*
D03*
D17*
X038912Y031034D02*
D03*
X045436Y030778D02*
D03*
Y028474D02*
D03*
D18*
X029100Y034151D02*
D03*
D19*
X028600D02*
D03*
X028100D02*
D03*
X027600D02*
D03*
X027100D02*
D03*
X026600D02*
D03*
X026100D02*
D03*
X025600D02*
D03*
X025100D02*
D03*
X029100Y030450D02*
D03*
X028600D02*
D03*
X028100D02*
D03*
X027600D02*
D03*
X027100D02*
D03*
X026600D02*
D03*
X026100D02*
D03*
X025600D02*
D03*
X025100D02*
D03*
D20*
X017026Y015700D02*
D03*
Y015200D02*
D03*
Y014700D02*
D03*
Y014200D02*
D03*
X018974Y015700D02*
D03*
Y015200D02*
D03*
Y014700D02*
D03*
Y014200D02*
D03*
D21*
X011600Y045848D02*
D03*
Y045081D02*
D03*
X030250Y028634D02*
D03*
Y027866D02*
D03*
X055300Y015534D02*
D03*
Y014766D02*
D03*
X063700Y019626D02*
D03*
Y020394D02*
D03*
X057050Y018409D02*
D03*
Y019177D02*
D03*
X061500Y016634D02*
D03*
Y015866D02*
D03*
X060200Y025066D02*
D03*
Y025834D02*
D03*
X062900Y043466D02*
D03*
Y044234D02*
D03*
X055868Y046024D02*
D03*
Y046791D02*
D03*
X038300Y026766D02*
D03*
Y027534D02*
D03*
X036300Y036566D02*
D03*
Y037334D02*
D03*
X055000Y011266D02*
D03*
Y012034D02*
D03*
X043050Y037916D02*
D03*
Y038684D02*
D03*
X044050Y037916D02*
D03*
Y038684D02*
D03*
X011624Y018534D02*
D03*
Y017766D02*
D03*
X012674Y018534D02*
D03*
Y017766D02*
D03*
X014950Y038934D02*
D03*
Y038166D02*
D03*
X013650Y039884D02*
D03*
Y039116D02*
D03*
X014300Y040966D02*
D03*
Y041734D02*
D03*
X034300Y031216D02*
D03*
Y031984D02*
D03*
X013800Y036034D02*
D03*
Y035266D02*
D03*
X013500Y030184D02*
D03*
Y029416D02*
D03*
X013300Y033734D02*
D03*
Y032966D02*
D03*
X013500Y027984D02*
D03*
Y027216D02*
D03*
X060550Y036466D02*
D03*
Y037234D02*
D03*
D22*
X057307Y040455D02*
D03*
X058193D02*
D03*
X046543Y045800D02*
D03*
X045657D02*
D03*
X042549Y047474D02*
D03*
X041663D02*
D03*
X043513D02*
D03*
X044399D02*
D03*
X059143Y025850D02*
D03*
X058257D02*
D03*
X058793Y048550D02*
D03*
X057907D02*
D03*
X060407Y041600D02*
D03*
X061293D02*
D03*
X060357Y048550D02*
D03*
X061243D02*
D03*
X058793Y041600D02*
D03*
X057907D02*
D03*
X046607Y047500D02*
D03*
X047493D02*
D03*
X023957Y022050D02*
D03*
X024843D02*
D03*
X023057Y017550D02*
D03*
X023943D02*
D03*
X023943Y018600D02*
D03*
X023057D02*
D03*
X024843Y020900D02*
D03*
X023957D02*
D03*
X036393Y035450D02*
D03*
X035507D02*
D03*
X051007Y033850D02*
D03*
X051893D02*
D03*
X038293Y037550D02*
D03*
X037407D02*
D03*
X039743Y021550D02*
D03*
X038857D02*
D03*
X041643D02*
D03*
X040757D02*
D03*
X044443Y019250D02*
D03*
X043557D02*
D03*
X044693Y035674D02*
D03*
X045579D02*
D03*
X040643Y025250D02*
D03*
X039757D02*
D03*
X044143Y039700D02*
D03*
X043257D02*
D03*
X016493Y020950D02*
D03*
X015607D02*
D03*
X013607Y011600D02*
D03*
X014493D02*
D03*
X019843Y012925D02*
D03*
X018957D02*
D03*
X018981Y016750D02*
D03*
X019867D02*
D03*
X020693Y046465D02*
D03*
X019807D02*
D03*
X016343Y042550D02*
D03*
X015457D02*
D03*
X020207Y041550D02*
D03*
X021093D02*
D03*
X011957Y043050D02*
D03*
X012843D02*
D03*
X022493Y046465D02*
D03*
X021607D02*
D03*
X022493Y047465D02*
D03*
X021607D02*
D03*
X018893Y046450D02*
D03*
X018007D02*
D03*
X019807Y047465D02*
D03*
X020693D02*
D03*
X016643Y030050D02*
D03*
X015757D02*
D03*
X034443Y047100D02*
D03*
X033557D02*
D03*
X016107Y028700D02*
D03*
X016993D02*
D03*
X026007Y036051D02*
D03*
X026893D02*
D03*
X028843D02*
D03*
X027957D02*
D03*
D23*
X015000Y035207D02*
D03*
Y036093D02*
D03*
X040300Y045457D02*
D03*
Y046343D02*
D03*
X058900Y016350D02*
D03*
Y017236D02*
D03*
X060200Y018893D02*
D03*
Y018007D02*
D03*
X058900Y013136D02*
D03*
Y012250D02*
D03*
X060350Y022067D02*
D03*
Y022953D02*
D03*
X058900Y014250D02*
D03*
Y015136D02*
D03*
X060200Y020893D02*
D03*
Y020007D02*
D03*
X026100Y021543D02*
D03*
Y020657D02*
D03*
X056100Y038457D02*
D03*
Y039343D02*
D03*
X039400Y037607D02*
D03*
Y038493D02*
D03*
X042700Y020193D02*
D03*
Y019307D02*
D03*
X040450Y037143D02*
D03*
Y036257D02*
D03*
X011600Y016793D02*
D03*
Y015907D02*
D03*
X013800Y017707D02*
D03*
Y018593D02*
D03*
X022200Y041593D02*
D03*
Y040707D02*
D03*
X017200Y040757D02*
D03*
Y039872D02*
D03*
X016150Y038857D02*
D03*
Y039743D02*
D03*
X016850Y047293D02*
D03*
Y046407D02*
D03*
X046200Y038393D02*
D03*
Y037507D02*
D03*
X045200Y038393D02*
D03*
Y037507D02*
D03*
X014500Y032907D02*
D03*
Y033793D02*
D03*
X065350Y035407D02*
D03*
Y036293D02*
D03*
X056550Y035593D02*
D03*
Y034707D02*
D03*
D24*
X027215Y043406D02*
D03*
Y042500D02*
D03*
Y041594D02*
D03*
D25*
X029459Y042500D02*
D03*
D26*
X017950Y038450D02*
D03*
X018450D02*
D03*
X018950D02*
D03*
X019450D02*
D03*
X019950D02*
D03*
X020450D02*
D03*
X020950D02*
D03*
X017950Y040379D02*
D03*
X018450D02*
D03*
X018950D02*
D03*
X019450D02*
D03*
X019950D02*
D03*
X020450D02*
D03*
X020950D02*
D03*
D27*
X020437Y043989D02*
D03*
X020122D02*
D03*
X019807D02*
D03*
X019493D02*
D03*
X019178D02*
D03*
X018863D02*
D03*
Y043241D02*
D03*
X019178D02*
D03*
X019493D02*
D03*
X019807D02*
D03*
X020122D02*
D03*
X020437D02*
D03*
D28*
X018863Y043615D02*
D03*
X020437D02*
D03*
D29*
X021844Y017176D02*
D03*
Y017924D02*
D03*
X021056Y017550D02*
D03*
X021844Y019026D02*
D03*
Y019774D02*
D03*
X021056Y019400D02*
D03*
X042450Y045750D02*
D03*
Y046498D02*
D03*
X041663Y046124D02*
D03*
X044400Y045750D02*
D03*
Y046498D02*
D03*
X043613Y046124D02*
D03*
X049544Y035276D02*
D03*
Y036024D02*
D03*
X048756Y035650D02*
D03*
D30*
X057250Y015193D02*
D03*
X062041Y019960D02*
D03*
D31*
X058000Y016157D02*
D03*
X057500D02*
D03*
X057000D02*
D03*
X056500D02*
D03*
X058000Y014228D02*
D03*
X057500D02*
D03*
X057000D02*
D03*
X056500D02*
D03*
X061291Y018995D02*
D03*
X061791D02*
D03*
X062291D02*
D03*
X062791D02*
D03*
X061291Y020924D02*
D03*
X061791D02*
D03*
X062291D02*
D03*
X062791D02*
D03*
D32*
X061818Y046941D02*
D03*
X061318D02*
D03*
X060818D02*
D03*
X060318D02*
D03*
X059818D02*
D03*
X059318D02*
D03*
X058818D02*
D03*
X058318D02*
D03*
X057818D02*
D03*
X057318D02*
D03*
X061818Y043359D02*
D03*
X061318D02*
D03*
X060818D02*
D03*
X060318D02*
D03*
X059818D02*
D03*
X059318D02*
D03*
X058818D02*
D03*
X058318D02*
D03*
X057818D02*
D03*
X057318D02*
D03*
D33*
X050830Y036536D02*
D03*
X054570D02*
D03*
X050830Y034764D02*
D03*
X054570D02*
D03*
D34*
X030950Y020595D02*
D03*
X030450D02*
D03*
X029950D02*
D03*
X029450D02*
D03*
X028950D02*
D03*
X028450D02*
D03*
X027950D02*
D03*
X027450D02*
D03*
X030950Y018705D02*
D03*
X030450D02*
D03*
X029950D02*
D03*
X029450D02*
D03*
X028950D02*
D03*
X028450D02*
D03*
X027950D02*
D03*
X027450D02*
D03*
D35*
X014384Y022834D02*
D03*
Y022578D02*
D03*
Y022322D02*
D03*
Y022066D02*
D03*
X016116Y022834D02*
D03*
Y022578D02*
D03*
Y022322D02*
D03*
Y022066D02*
D03*
D36*
X052900Y015553D02*
D03*
Y013033D02*
D03*
X066450Y019550D02*
D03*
Y022070D02*
D03*
D37*
X055650Y019402D02*
D03*
Y018083D02*
D03*
X062850Y015691D02*
D03*
Y017009D02*
D03*
D38*
X067947Y034400D02*
D03*
X066952D02*
D03*
X054197Y033850D02*
D03*
X053202D02*
D03*
X065447Y034400D02*
D03*
X064452D02*
D03*
D39*
X024766Y046150D02*
D03*
X025534D02*
D03*
X024766Y045000D02*
D03*
X025534D02*
D03*
X062034Y025850D02*
D03*
X061266D02*
D03*
X063034Y034700D02*
D03*
X062266D02*
D03*
X024784Y023200D02*
D03*
X024016D02*
D03*
X039834Y039700D02*
D03*
X039066D02*
D03*
X025916Y038850D02*
D03*
X026684D02*
D03*
X031834Y016400D02*
D03*
X031066D02*
D03*
X047484Y025650D02*
D03*
X046716D02*
D03*
X049534Y037050D02*
D03*
X048766D02*
D03*
X041502Y039724D02*
D03*
X042270D02*
D03*
X047366Y030400D02*
D03*
X048134D02*
D03*
X046034Y039550D02*
D03*
X045266D02*
D03*
X062384Y036500D02*
D03*
X061616D02*
D03*
X043816Y013800D02*
D03*
X044584D02*
D03*
X049366D02*
D03*
X050134D02*
D03*
X046616D02*
D03*
X047384D02*
D03*
D40*
X056950Y012224D02*
D03*
Y011161D02*
D03*
X062950Y022928D02*
D03*
Y023991D02*
D03*
X058250Y019424D02*
D03*
Y018361D02*
D03*
X060300Y015578D02*
D03*
Y016641D02*
D03*
D41*
X025200Y041391D02*
D03*
Y040209D02*
D03*
X032200Y019741D02*
D03*
Y018559D02*
D03*
D42*
X024559Y043500D02*
D03*
X025741D02*
D03*
X026359Y023000D02*
D03*
X027541D02*
D03*
X029941D02*
D03*
X028759D02*
D03*
X032241Y022950D02*
D03*
X031059D02*
D03*
X029091Y028200D02*
D03*
X027909D02*
D03*
D43*
X063863Y038450D02*
D03*
X061737D02*
D03*
D44*
X029904Y026750D02*
D03*
X029196D02*
D03*
X042040Y036174D02*
D03*
X041332D02*
D03*
D45*
X043200Y036731D02*
D03*
Y035668D02*
D03*
D46*
X043769Y025650D02*
D03*
X044831D02*
D03*
D47*
X015600Y031828D02*
D03*
X016100D02*
D03*
X016600D02*
D03*
X017100D02*
D03*
X017600D02*
D03*
X018100D02*
D03*
X018600D02*
D03*
X015600Y034072D02*
D03*
X016100D02*
D03*
X016600D02*
D03*
X017100D02*
D03*
X017600D02*
D03*
X018100D02*
D03*
X018600D02*
D03*
D48*
X040436Y038074D02*
D03*
X041342D02*
D03*
Y038782D02*
D03*
X040436D02*
D03*
D49*
X022419Y020950D02*
D03*
X021750D02*
D03*
X022419Y022500D02*
D03*
X021750D02*
D03*
D50*
X039018Y014052D02*
D03*
X035081D02*
D03*
X039018Y011650D02*
D03*
X035081D02*
D03*
M02*
