G04 Layer_Color=16711935*
%FSAX24Y24*%
%MOIN*%
G70*
G01*
G75*
%ADD51C,0.0100*%
%ADD150C,0.1000*%
D51*
X039299Y033656D02*
Y033781D01*
X039424D01*
X044924D02*
X045049D01*
Y033656D02*
Y033781D01*
X039299Y028031D02*
Y028156D01*
Y028031D02*
X039424D01*
X044924D02*
Y028156D01*
X045799D01*
X040146Y028724D02*
X040021Y028662D01*
X039896Y028537D01*
Y028412D01*
X039959Y028349D01*
X040084D01*
X040146Y028412D01*
Y028474D01*
X040084Y028537D01*
X039896D01*
X040271Y028349D02*
X040396D01*
X040333D01*
Y028724D01*
X040271Y028662D01*
X039618Y032996D02*
X039993D01*
X039805Y033184D01*
Y032934D01*
X039618Y032809D02*
Y032684D01*
Y032746D01*
X039993D01*
X039930Y032809D01*
X044202Y033462D02*
X044452D01*
X044202Y033212D01*
Y033150D01*
X044264Y033087D01*
X044389D01*
X044452Y033150D01*
X044077Y033462D02*
X043952D01*
X044015D01*
Y033087D01*
X044077Y033150D01*
X044730Y028392D02*
Y028517D01*
Y028454D01*
X044355D01*
X044418Y028392D01*
D150*
X070000Y010000D02*
Y050000D01*
X010000Y010000D02*
Y050000D01*
X070000D01*
X010000Y010000D02*
X070000D01*
M02*
