G75*
%MOIN*%
%OFA0B0*%
%FSLAX24Y24*%
%IPPOS*%
%LPD*%
%AMOC8*
5,1,8,0,0,1.08239X$1,22.5*
%
%ADD10C,0.0020*%
%ADD11C,0.0600*%
%ADD12C,0.0594*%
%ADD13C,0.0160*%
D10*
X008168Y002631D02*
X008315Y002631D01*
X008168Y002778D01*
X008168Y002814D01*
X008205Y002851D01*
X008278Y002851D01*
X008315Y002814D01*
X008389Y002814D02*
X008389Y002668D01*
X008426Y002631D01*
X008536Y002631D01*
X008536Y002851D01*
X008426Y002851D01*
X008389Y002814D01*
X008831Y002778D02*
X008904Y002778D01*
X008868Y002814D02*
X008868Y002668D01*
X008831Y002631D01*
X008978Y002778D02*
X009015Y002778D01*
X009089Y002704D01*
X009089Y002631D02*
X009089Y002778D01*
X009163Y002741D02*
X009199Y002778D01*
X009273Y002778D01*
X009310Y002741D01*
X009310Y002668D01*
X009273Y002631D01*
X009199Y002631D01*
X009163Y002668D01*
X009163Y002741D01*
X009384Y002741D02*
X009420Y002704D01*
X009531Y002704D01*
X009531Y002631D02*
X009531Y002851D01*
X009420Y002851D01*
X009384Y002814D01*
X009384Y002741D01*
X008515Y001040D02*
X008625Y000930D01*
X008478Y000930D01*
X008515Y000820D02*
X008515Y001040D01*
X011549Y001040D02*
X011549Y001003D01*
X011696Y000857D01*
X011696Y000820D01*
X011696Y001040D02*
X011549Y001040D01*
X012651Y001003D02*
X012798Y000857D01*
X012762Y000820D01*
X012688Y000820D01*
X012651Y000857D01*
X012651Y001003D01*
X012688Y001040D01*
X012762Y001040D01*
X012798Y001003D01*
X012798Y000857D01*
X012709Y002592D02*
X012599Y002592D01*
X012563Y002628D01*
X012563Y002665D01*
X012599Y002702D01*
X012709Y002702D01*
X012599Y002702D02*
X012563Y002738D01*
X012563Y002775D01*
X012599Y002812D01*
X012709Y002812D01*
X012709Y002592D01*
X013004Y002592D02*
X013041Y002628D01*
X013041Y002775D01*
X013078Y002738D02*
X013004Y002738D01*
X013152Y002738D02*
X013188Y002738D01*
X013262Y002665D01*
X013262Y002592D02*
X013262Y002738D01*
X013336Y002702D02*
X013373Y002738D01*
X013446Y002738D01*
X013483Y002702D01*
X013483Y002628D01*
X013446Y002592D01*
X013373Y002592D01*
X013336Y002628D01*
X013336Y002702D01*
X013557Y002702D02*
X013594Y002665D01*
X013704Y002665D01*
X013704Y002592D02*
X013704Y002812D01*
X013594Y002812D01*
X013557Y002775D01*
X013557Y002702D01*
X018518Y001040D02*
X018518Y001003D01*
X018664Y000857D01*
X018664Y000820D01*
X018664Y001040D02*
X018518Y001040D01*
X018402Y011485D02*
X018328Y011485D01*
X018292Y011522D01*
X018292Y011596D01*
X018328Y011632D01*
X018402Y011632D01*
X018438Y011596D01*
X018438Y011522D01*
X018402Y011485D01*
X018513Y011596D02*
X018549Y011559D01*
X018659Y011559D01*
X018659Y011485D02*
X018659Y011706D01*
X018549Y011706D01*
X018513Y011669D01*
X018513Y011596D01*
X018217Y011632D02*
X018217Y011485D01*
X018217Y011559D02*
X018144Y011632D01*
X018107Y011632D01*
X018033Y011632D02*
X017960Y011632D01*
X017997Y011669D02*
X017997Y011522D01*
X017960Y011485D01*
X017665Y011522D02*
X017665Y011669D01*
X017628Y011706D01*
X017555Y011706D01*
X017518Y011669D01*
X017518Y011522D02*
X017555Y011485D01*
X017628Y011485D01*
X017665Y011522D01*
X018672Y013418D02*
X018746Y013418D01*
X018783Y013455D01*
X018636Y013602D01*
X018636Y013455D01*
X018672Y013418D01*
X018783Y013455D02*
X018783Y013602D01*
X018746Y013639D01*
X018672Y013639D01*
X018636Y013602D01*
X011775Y013678D02*
X011628Y013678D01*
X011628Y013641D01*
X011775Y013494D01*
X011775Y013458D01*
X010712Y013494D02*
X010565Y013641D01*
X010565Y013494D01*
X010602Y013458D01*
X010675Y013458D01*
X010712Y013494D01*
X010712Y013641D01*
X010675Y013678D01*
X010602Y013678D01*
X010565Y013641D01*
X010357Y011749D02*
X010247Y011749D01*
X010211Y011712D01*
X010211Y011639D01*
X010247Y011602D01*
X010357Y011602D01*
X010357Y011529D02*
X010357Y011749D01*
X010136Y011639D02*
X010136Y011565D01*
X010100Y011529D01*
X010026Y011529D01*
X009990Y011565D01*
X009990Y011639D01*
X010026Y011675D01*
X010100Y011675D01*
X010136Y011639D01*
X009915Y011675D02*
X009915Y011529D01*
X009915Y011602D02*
X009842Y011675D01*
X009805Y011675D01*
X009731Y011675D02*
X009658Y011675D01*
X009694Y011712D02*
X009694Y011565D01*
X009658Y011529D01*
X009363Y011529D02*
X009253Y011529D01*
X009216Y011565D01*
X009216Y011712D01*
X009253Y011749D01*
X009363Y011749D01*
X009363Y011529D01*
X007643Y013458D02*
X007680Y013494D01*
X007643Y013458D02*
X007570Y013458D01*
X007533Y013494D01*
X007533Y013531D01*
X007570Y013568D01*
X007607Y013568D01*
X007570Y013568D02*
X007533Y013605D01*
X007533Y013641D01*
X007570Y013678D01*
X007643Y013678D01*
X007680Y013641D01*
D11*
X008174Y012960D02*
X008174Y012360D01*
X007174Y012360D02*
X007174Y012960D01*
X009174Y012960D02*
X009174Y012360D01*
X010174Y012360D02*
X010174Y012960D01*
X011237Y012960D02*
X011237Y012360D01*
X012237Y012360D02*
X012237Y012960D01*
X013237Y012960D02*
X013237Y012360D01*
X014237Y012360D02*
X014237Y012960D01*
X015237Y012960D02*
X015237Y012360D01*
X016237Y012360D02*
X016237Y012960D01*
X017237Y012960D02*
X017237Y012360D01*
X018237Y012360D02*
X018237Y012960D01*
X004341Y012334D02*
X003741Y012334D01*
X001781Y012334D02*
X001181Y012334D01*
X001181Y010554D02*
X001781Y010554D01*
X003741Y010554D02*
X004341Y010554D01*
X006143Y001933D02*
X006143Y001333D01*
X007143Y001333D02*
X007143Y001933D01*
X009143Y001937D02*
X009143Y001337D01*
X010143Y001337D02*
X010143Y001937D01*
X011143Y001937D02*
X011143Y001337D01*
X012143Y001337D02*
X012143Y001937D01*
X013143Y001937D02*
X013143Y001337D01*
X014143Y001337D02*
X014143Y001937D01*
X015143Y001937D02*
X015143Y001337D01*
X016143Y001337D02*
X016143Y001937D01*
X017143Y001937D02*
X017143Y001337D01*
X018143Y001337D02*
X018143Y001937D01*
D12*
X018308Y005345D03*
X017308Y005345D03*
X017308Y006345D03*
X018308Y006345D03*
X018308Y007345D03*
X017308Y007345D03*
X017308Y008345D03*
X018308Y008345D03*
X018308Y009345D03*
X017308Y009345D03*
D13*
X000800Y010171D02*
X000800Y000500D01*
X008292Y000500D01*
X008270Y000508D01*
X008245Y000520D01*
X008223Y000534D01*
X008202Y000551D01*
X008183Y000570D01*
X008166Y000591D01*
X008152Y000613D01*
X006312Y000613D01*
X006312Y000818D01*
X006449Y000875D01*
X006601Y001027D01*
X006643Y001129D01*
X006685Y001027D01*
X006837Y000875D01*
X007035Y000793D01*
X007250Y000793D01*
X007449Y000875D01*
X007601Y001027D01*
X007683Y001225D01*
X007683Y002040D01*
X007601Y002239D01*
X007449Y002391D01*
X007250Y002473D01*
X007144Y002473D01*
X007144Y005008D01*
X007980Y005844D01*
X011730Y005844D01*
X011848Y005893D01*
X015761Y009806D01*
X015761Y008231D01*
X014438Y006908D01*
X014348Y006818D01*
X014299Y006700D01*
X014299Y002990D01*
X014348Y002873D01*
X014387Y002833D01*
X014477Y002743D01*
X014595Y002695D01*
X015353Y002695D01*
X015717Y002331D01*
X015717Y002274D01*
X015685Y002243D01*
X015643Y002141D01*
X015601Y002243D01*
X015449Y002394D01*
X015250Y002477D01*
X015035Y002477D01*
X014837Y002394D01*
X014685Y002243D01*
X014643Y002141D01*
X014601Y002243D01*
X014449Y002394D01*
X014250Y002477D01*
X014035Y002477D01*
X014032Y002475D01*
X014034Y002488D01*
X014034Y002915D01*
X014031Y002942D01*
X014025Y002968D01*
X014016Y002994D01*
X014004Y003018D01*
X013990Y003041D01*
X013973Y003062D01*
X013954Y003081D01*
X013933Y003098D01*
X013910Y003112D01*
X013886Y003124D01*
X013860Y003133D01*
X013834Y003139D01*
X013807Y003142D01*
X012664Y003142D01*
X012638Y003139D01*
X012611Y003133D01*
X012586Y003124D01*
X012562Y003112D01*
X012539Y003098D01*
X012518Y003081D01*
X012499Y003062D01*
X012482Y003041D01*
X012468Y003018D01*
X012456Y002994D01*
X012447Y002968D01*
X012441Y002942D01*
X012438Y002915D01*
X012438Y002488D01*
X012441Y002461D01*
X012447Y002435D01*
X012456Y002410D01*
X012468Y002385D01*
X012482Y002362D01*
X012486Y002357D01*
X012449Y002394D01*
X012250Y002477D01*
X012035Y002477D01*
X011837Y002394D01*
X011685Y002243D01*
X011643Y002141D01*
X011601Y002243D01*
X011449Y002394D01*
X011250Y002477D01*
X011035Y002477D01*
X010837Y002394D01*
X010685Y002243D01*
X010643Y002141D01*
X010601Y002243D01*
X010449Y002394D01*
X010250Y002477D01*
X010035Y002477D01*
X009837Y002394D01*
X009685Y002243D01*
X009643Y002141D01*
X009601Y002243D01*
X009542Y002301D01*
X009634Y002301D01*
X009661Y002304D01*
X009687Y002310D01*
X009713Y002319D01*
X009737Y002331D01*
X009760Y002345D01*
X009781Y002362D01*
X009800Y002381D01*
X009817Y002402D01*
X009831Y002425D01*
X009843Y002449D01*
X009852Y002474D01*
X009858Y002501D01*
X009861Y002527D01*
X009861Y002954D01*
X009858Y002981D01*
X009852Y003007D01*
X009843Y003033D01*
X009831Y003057D01*
X009817Y003080D01*
X009800Y003101D01*
X009781Y003120D01*
X009760Y003137D01*
X009737Y003151D01*
X009713Y003163D01*
X009687Y003172D01*
X009661Y003178D01*
X009634Y003181D01*
X008277Y003181D01*
X008250Y003178D01*
X008224Y003172D01*
X008198Y003163D01*
X008174Y003151D01*
X008151Y003137D01*
X008130Y003120D01*
X008111Y003101D01*
X008094Y003080D01*
X008080Y003057D01*
X008068Y003033D01*
X008059Y003007D01*
X008053Y002981D01*
X008050Y002954D01*
X008050Y002527D01*
X008053Y002501D01*
X008059Y002474D01*
X008068Y002449D01*
X008080Y002425D01*
X008094Y002402D01*
X008111Y002381D01*
X008130Y002362D01*
X008151Y002345D01*
X008174Y002331D01*
X008198Y002319D01*
X008224Y002310D01*
X008250Y002304D01*
X008277Y002301D01*
X008743Y002301D01*
X008685Y002243D01*
X008603Y002044D01*
X008603Y001370D01*
X008348Y001370D01*
X008321Y001367D01*
X008295Y001361D01*
X008270Y001352D01*
X008245Y001340D01*
X008223Y001326D01*
X008202Y001309D01*
X008183Y001290D01*
X008166Y001269D01*
X008151Y001246D01*
X008140Y001222D01*
X008131Y001196D01*
X008125Y001170D01*
X008122Y001143D01*
X008122Y000716D01*
X008125Y000690D01*
X008131Y000663D01*
X008140Y000638D01*
X008151Y000614D01*
X008152Y000613D01*
X006312Y000613D01*
X006312Y000883D01*
X006255Y000865D01*
X006181Y000853D01*
X006163Y000853D01*
X006163Y001613D01*
X006123Y001613D01*
X005663Y001613D01*
X005663Y001295D01*
X005675Y001220D01*
X005698Y001148D01*
X005732Y001081D01*
X005777Y001020D01*
X005830Y000967D01*
X005891Y000922D01*
X005959Y000888D01*
X006031Y000865D01*
X006105Y000853D01*
X006123Y000853D01*
X006123Y001613D01*
X006123Y001653D01*
X006123Y002413D01*
X006105Y002413D01*
X006031Y002401D01*
X005959Y002378D01*
X005891Y002343D01*
X005830Y002299D01*
X005777Y002245D01*
X005732Y002184D01*
X005698Y002117D01*
X005675Y002045D01*
X005663Y001971D01*
X005663Y001653D01*
X006123Y001653D01*
X006163Y001653D01*
X006163Y002413D01*
X006181Y002413D01*
X006255Y002401D01*
X006312Y002382D01*
X006312Y010175D01*
X004726Y010175D01*
X004647Y010096D01*
X004448Y010014D01*
X003634Y010014D01*
X003435Y010096D01*
X003283Y010248D01*
X003201Y010446D01*
X003201Y010661D01*
X003283Y010860D01*
X003435Y011012D01*
X003634Y011094D01*
X004448Y011094D01*
X004647Y011012D01*
X004799Y010860D01*
X004817Y010815D01*
X006312Y010815D01*
X006312Y013645D01*
X007177Y013645D01*
X007177Y013500D01*
X007067Y013500D01*
X006869Y013418D01*
X006717Y013266D01*
X006634Y013068D01*
X006634Y012253D01*
X006717Y012054D01*
X006869Y011903D01*
X007067Y011820D01*
X007282Y011820D01*
X007480Y011903D01*
X007632Y012054D01*
X007674Y012156D01*
X007717Y012054D01*
X007869Y011903D01*
X008067Y011820D01*
X008282Y011820D01*
X008480Y011903D01*
X008632Y012054D01*
X008674Y012156D01*
X008717Y012054D01*
X008869Y011903D01*
X009067Y011820D01*
X009070Y011820D01*
X009070Y011425D01*
X009073Y011398D01*
X009079Y011372D01*
X009088Y011347D01*
X009100Y011322D01*
X009114Y011299D01*
X009131Y011278D01*
X009150Y011259D01*
X009171Y011243D01*
X009194Y011228D01*
X009218Y011217D01*
X009244Y011208D01*
X009270Y011202D01*
X009297Y011199D01*
X010461Y011199D01*
X010488Y011202D01*
X010514Y011208D01*
X010539Y011217D01*
X010564Y011228D01*
X010586Y011243D01*
X010607Y011259D01*
X010627Y011278D01*
X010643Y011299D01*
X010658Y011322D01*
X010669Y011347D01*
X010678Y011372D01*
X010684Y011398D01*
X010687Y011425D01*
X010687Y011852D01*
X010684Y011879D01*
X010678Y011905D01*
X010669Y011931D01*
X010658Y011955D01*
X010643Y011978D01*
X010627Y011999D01*
X010607Y012018D01*
X010601Y012023D01*
X010632Y012054D01*
X010706Y012232D01*
X010780Y012054D01*
X010932Y011903D01*
X011130Y011820D01*
X011345Y011820D01*
X011543Y011903D01*
X011695Y012054D01*
X011737Y012156D01*
X011780Y012054D01*
X011932Y011903D01*
X012130Y011820D01*
X012345Y011820D01*
X012543Y011903D01*
X012695Y012054D01*
X012737Y012156D01*
X012780Y012054D01*
X012932Y011903D01*
X013130Y011820D01*
X013345Y011820D01*
X013543Y011903D01*
X013695Y012054D01*
X013737Y012156D01*
X013780Y012054D01*
X013932Y011903D01*
X014130Y011820D01*
X014345Y011820D01*
X014543Y011903D01*
X014695Y012054D01*
X014737Y012156D01*
X014780Y012054D01*
X014932Y011903D01*
X015130Y011820D01*
X015345Y011820D01*
X015543Y011903D01*
X015695Y012054D01*
X015737Y012156D01*
X015780Y012054D01*
X015932Y011903D01*
X016130Y011820D01*
X016345Y011820D01*
X016543Y011903D01*
X016695Y012054D01*
X016737Y012156D01*
X016780Y012054D01*
X016932Y011903D01*
X017130Y011820D01*
X017135Y011820D01*
X017134Y011809D01*
X017134Y011382D01*
X017137Y011355D01*
X017143Y011329D01*
X017152Y011303D01*
X017164Y011279D01*
X017178Y011256D01*
X017195Y011235D01*
X017214Y011216D01*
X017235Y011199D01*
X017258Y011185D01*
X017282Y011173D01*
X017307Y011164D01*
X017334Y011158D01*
X017360Y011155D01*
X018524Y011155D01*
X018551Y011158D01*
X018577Y011164D01*
X018603Y011173D01*
X018627Y011185D01*
X018650Y011199D01*
X018671Y011216D01*
X018690Y011235D01*
X018707Y011256D01*
X018721Y011279D01*
X018733Y011303D01*
X018742Y011329D01*
X018748Y011355D01*
X018751Y011382D01*
X018751Y011809D01*
X018748Y011836D01*
X018742Y011862D01*
X018733Y011887D01*
X018721Y011912D01*
X018707Y011935D01*
X018690Y011956D01*
X018671Y011975D01*
X018650Y011991D01*
X018639Y011998D01*
X018695Y012054D01*
X018777Y012253D01*
X018777Y013068D01*
X018769Y013088D01*
X018886Y013088D01*
X018913Y013091D01*
X018939Y013097D01*
X018965Y013106D01*
X018989Y013118D01*
X019012Y013132D01*
X019033Y013149D01*
X019052Y013168D01*
X019069Y013189D01*
X019083Y013212D01*
X019095Y013236D01*
X019104Y013262D01*
X019109Y013288D01*
X019113Y013315D01*
X019113Y013645D01*
X019501Y013645D01*
X019501Y009941D01*
X019458Y010046D01*
X018828Y010676D01*
X018738Y010766D01*
X018620Y010815D01*
X006312Y010815D01*
X006312Y013605D01*
X000800Y013605D01*
X000800Y012717D01*
X000875Y012792D01*
X001074Y012874D01*
X001888Y012874D01*
X002087Y012792D01*
X002239Y012640D01*
X002321Y012441D01*
X002321Y012226D01*
X002239Y012028D01*
X002087Y011876D01*
X001888Y011794D01*
X001074Y011794D01*
X000875Y011876D01*
X000800Y011951D01*
X000800Y010937D01*
X000875Y011012D01*
X001074Y011094D01*
X001888Y011094D01*
X002087Y011012D01*
X002239Y010860D01*
X002321Y010661D01*
X002321Y010446D01*
X002239Y010248D01*
X002087Y010096D01*
X001888Y010014D01*
X001074Y010014D01*
X000875Y010096D01*
X000800Y010171D01*
X000800Y010046D02*
X000995Y010046D01*
X000800Y009888D02*
X006312Y009888D01*
X014938Y009888D01*
X015096Y010046D02*
X006312Y010046D01*
X004527Y010046D01*
X004100Y010495D02*
X004041Y010554D01*
X004100Y010495D02*
X018556Y010495D01*
X019186Y009865D01*
X019186Y009314D01*
X018714Y008841D01*
X017848Y008841D01*
X017808Y008802D01*
X017808Y007660D01*
X017493Y007345D01*
X017308Y007345D01*
X017504Y006845D02*
X017612Y006890D01*
X017763Y007041D01*
X017843Y007234D01*
X017843Y007234D01*
X017866Y007162D01*
X017900Y007095D01*
X017945Y007035D01*
X017998Y006982D01*
X018058Y006938D01*
X018125Y006903D01*
X018197Y006880D01*
X018271Y006869D01*
X018290Y006869D01*
X018290Y007327D01*
X018327Y007327D01*
X018327Y007364D01*
X018785Y007364D01*
X018785Y007383D01*
X018773Y007457D01*
X018750Y007528D01*
X018716Y007595D01*
X018672Y007656D01*
X018619Y007709D01*
X018558Y007753D01*
X018491Y007787D01*
X018420Y007810D01*
X018346Y007822D01*
X018327Y007822D01*
X018327Y007364D01*
X018785Y007364D01*
X018785Y007383D01*
X018773Y007457D01*
X018750Y007528D01*
X018716Y007595D01*
X018672Y007656D01*
X018619Y007709D01*
X018558Y007753D01*
X018491Y007787D01*
X018420Y007810D01*
X018346Y007822D01*
X018327Y007822D01*
X018327Y007364D01*
X018327Y007327D01*
X018785Y007327D01*
X018785Y007308D01*
X018773Y007234D01*
X018750Y007162D01*
X018716Y007095D01*
X018672Y007035D01*
X019593Y007035D01*
X019673Y007035D02*
X018672Y007035D01*
X019501Y007035D01*
X019501Y007193D02*
X018760Y007193D01*
X019594Y007193D01*
X019674Y007193D02*
X018760Y007193D01*
X018750Y007162D02*
X018773Y007234D01*
X018785Y007308D01*
X018785Y007327D01*
X018327Y007327D01*
X018327Y006869D01*
X018346Y006869D01*
X018420Y006880D01*
X018491Y006903D01*
X018558Y006938D01*
X018619Y006982D01*
X018672Y007035D01*
X018716Y007095D01*
X018750Y007162D01*
X018773Y007234D01*
X018785Y007308D01*
X018785Y007327D01*
X018517Y007327D01*
X018517Y007364D01*
X018785Y007364D01*
X018785Y007383D01*
X018773Y007457D01*
X018750Y007528D01*
X018716Y007595D01*
X018672Y007656D01*
X018619Y007709D01*
X018558Y007753D01*
X018517Y007774D01*
X018517Y007916D01*
X018558Y007938D01*
X018619Y007982D01*
X018672Y008035D01*
X018716Y008095D01*
X018750Y008162D01*
X018773Y008234D01*
X018785Y008308D01*
X018785Y008327D01*
X018327Y008327D01*
X018327Y008364D01*
X018785Y008364D01*
X018785Y008383D01*
X018776Y008441D01*
X018793Y008441D01*
X018940Y008502D01*
X019413Y008975D01*
X019525Y009087D01*
X019586Y009234D01*
X019586Y009945D01*
X019525Y010092D01*
X018895Y010722D01*
X018783Y010834D01*
X018636Y010895D01*
X006352Y010895D01*
X006352Y013566D01*
X007016Y013566D01*
X006823Y013486D01*
X006649Y013312D01*
X006554Y013084D01*
X006554Y012237D01*
X006649Y012009D01*
X006823Y011835D01*
X007051Y011740D01*
X007298Y011740D01*
X007526Y011835D01*
X007674Y011984D01*
X007823Y011835D01*
X008051Y011740D01*
X008298Y011740D01*
X008526Y011835D01*
X008674Y011984D01*
X008823Y011835D01*
X008990Y011765D01*
X008990Y011423D01*
X008993Y011392D01*
X009000Y011361D01*
X009009Y011331D01*
X009021Y011302D01*
X009036Y011274D01*
X009053Y011248D01*
X009073Y011223D01*
X009095Y011201D01*
X009120Y011181D01*
X009146Y011164D01*
X009173Y011149D01*
X009202Y011137D01*
X009233Y011128D01*
X009263Y011122D01*
X009295Y011119D01*
X010463Y011119D01*
X010494Y011122D01*
X010525Y011128D01*
X010555Y011137D01*
X010584Y011149D01*
X010612Y011164D01*
X010638Y011181D01*
X010662Y011201D01*
X010685Y011223D01*
X010705Y011248D01*
X010722Y011274D01*
X010737Y011302D01*
X010749Y011331D01*
X010758Y011361D01*
X010764Y011392D01*
X010767Y011423D01*
X010767Y011854D01*
X010764Y011886D01*
X010758Y011916D01*
X010749Y011947D01*
X010737Y011976D01*
X010727Y011994D01*
X010886Y011835D01*
X011114Y011740D01*
X011361Y011740D01*
X011589Y011835D01*
X011737Y011984D01*
X011886Y011835D01*
X012114Y011740D01*
X012361Y011740D01*
X012589Y011835D01*
X012737Y011984D01*
X012886Y011835D01*
X013114Y011740D01*
X013361Y011740D01*
X013589Y011835D01*
X013737Y011984D01*
X013886Y011835D01*
X014114Y011740D01*
X014361Y011740D01*
X014589Y011835D01*
X014737Y011984D01*
X014886Y011835D01*
X015114Y011740D01*
X015361Y011740D01*
X015589Y011835D01*
X015737Y011984D01*
X015886Y011835D01*
X016114Y011740D01*
X016361Y011740D01*
X016589Y011835D01*
X016737Y011984D01*
X016886Y011835D01*
X017054Y011765D01*
X017054Y011380D01*
X017057Y011348D01*
X017063Y011318D01*
X017072Y011287D01*
X017084Y011258D01*
X017099Y011231D01*
X017117Y011205D01*
X017137Y011180D01*
X017159Y011158D01*
X017183Y011138D01*
X017209Y011121D01*
X017237Y011106D01*
X017266Y011094D01*
X017296Y011085D01*
X017327Y011079D01*
X017358Y011075D01*
X018527Y011075D01*
X018558Y011079D01*
X018589Y011085D01*
X018619Y011094D01*
X018648Y011106D01*
X018676Y011121D01*
X018702Y011138D01*
X018726Y011158D01*
X018748Y011180D01*
X018768Y011205D01*
X018786Y011231D01*
X018800Y011258D01*
X018813Y011287D01*
X018822Y011318D01*
X018828Y011348D01*
X018831Y011380D01*
X018831Y011811D01*
X018828Y011842D01*
X018822Y011873D01*
X018813Y011903D01*
X018800Y011932D01*
X018786Y011960D01*
X018768Y011986D01*
X018756Y012002D01*
X018763Y012009D01*
X018857Y012237D01*
X018857Y013008D01*
X018888Y013008D01*
X018920Y013011D01*
X018950Y013018D01*
X018980Y013027D01*
X019010Y013039D01*
X019037Y013054D01*
X019063Y013071D01*
X019088Y013091D01*
X019110Y013113D01*
X019130Y013137D01*
X019147Y013164D01*
X019162Y013191D01*
X019174Y013220D01*
X019183Y013250D01*
X019189Y013281D01*
X019193Y013313D01*
X019193Y013566D01*
X019612Y013566D01*
X019579Y002030D01*
X018763Y002030D01*
X018763Y002060D01*
X018669Y002288D01*
X018494Y002462D01*
X018266Y002557D01*
X018211Y002557D01*
X017359Y004729D01*
X017431Y004729D01*
X017658Y004822D01*
X017831Y004996D01*
X017885Y005126D01*
X017900Y005095D01*
X017945Y005035D01*
X017998Y004982D01*
X018058Y004938D01*
X018125Y004903D01*
X018197Y004880D01*
X018271Y004869D01*
X018290Y004869D01*
X018290Y005327D01*
X018327Y005327D01*
X018327Y005364D01*
X018785Y005364D01*
X018785Y005383D01*
X018773Y005457D01*
X018750Y005528D01*
X018716Y005595D01*
X018672Y005656D01*
X018619Y005709D01*
X018558Y005753D01*
X018491Y005787D01*
X018420Y005810D01*
X018346Y005822D01*
X018327Y005822D01*
X018327Y005364D01*
X018785Y005364D01*
X018785Y005383D01*
X018773Y005457D01*
X018750Y005528D01*
X018716Y005595D01*
X018672Y005656D01*
X018619Y005709D01*
X018558Y005753D01*
X018491Y005787D01*
X018420Y005810D01*
X018346Y005822D01*
X018327Y005822D01*
X018327Y005364D01*
X018327Y005327D01*
X018785Y005327D01*
X018785Y005308D01*
X018773Y005234D01*
X018750Y005162D01*
X018716Y005095D01*
X018672Y005035D01*
X018619Y004982D01*
X018558Y004938D01*
X018491Y004903D01*
X018420Y004880D01*
X018346Y004869D01*
X018327Y004869D01*
X018327Y005327D01*
X018785Y005327D01*
X018785Y005308D01*
X018773Y005234D01*
X018750Y005162D01*
X018716Y005095D01*
X018672Y005035D01*
X018619Y004982D01*
X018558Y004938D01*
X018491Y004903D01*
X018420Y004880D01*
X018346Y004869D01*
X018327Y004869D01*
X018327Y005327D01*
X018290Y005327D01*
X018290Y004869D01*
X018271Y004869D01*
X018197Y004880D01*
X018125Y004903D01*
X018058Y004938D01*
X017998Y004982D01*
X017945Y005035D01*
X017900Y005095D01*
X017866Y005162D01*
X017843Y005234D01*
X017843Y005234D01*
X017763Y005041D01*
X017808Y005150D01*
X017853Y005041D01*
X018004Y004890D01*
X018201Y004809D01*
X018415Y004809D01*
X018583Y004878D01*
X019664Y003797D01*
X019655Y000613D01*
X018964Y000613D01*
X018965Y000614D01*
X018976Y000638D01*
X018985Y000663D01*
X018991Y000690D01*
X018994Y000716D01*
X018994Y001143D01*
X018991Y001170D01*
X018985Y001196D01*
X018976Y001222D01*
X018965Y001246D01*
X018950Y001269D01*
X018934Y001290D01*
X018915Y001309D01*
X018894Y001326D01*
X018871Y001340D01*
X018846Y001352D01*
X018821Y001361D01*
X018795Y001367D01*
X018768Y001370D01*
X018683Y001370D01*
X018683Y002044D01*
X018601Y002243D01*
X018449Y002394D01*
X018250Y002477D01*
X018157Y002477D01*
X017241Y004809D01*
X017415Y004809D01*
X017612Y004890D01*
X017763Y005041D01*
X017612Y004890D01*
X017415Y004809D01*
X017241Y004809D01*
X018157Y002477D01*
X018250Y002477D01*
X018449Y002394D01*
X018601Y002243D01*
X018683Y002044D01*
X018683Y001991D01*
X019501Y001991D01*
X019501Y009238D01*
X019458Y009133D01*
X019367Y009043D01*
X018895Y008570D01*
X018777Y008521D01*
X018752Y008521D01*
X018773Y008457D01*
X018785Y008383D01*
X018785Y008364D01*
X018327Y008364D01*
X018327Y008327D01*
X018785Y008327D01*
X018785Y008308D01*
X018773Y008234D01*
X018750Y008162D01*
X018716Y008095D01*
X018672Y008035D01*
X018619Y007982D01*
X018558Y007938D01*
X018491Y007903D01*
X018420Y007880D01*
X018346Y007869D01*
X018327Y007869D01*
X018327Y008327D01*
X018290Y008327D01*
X018290Y007869D01*
X018271Y007869D01*
X018208Y007878D01*
X018208Y007812D01*
X018271Y007822D01*
X018290Y007822D01*
X018290Y007364D01*
X018327Y007364D01*
X018290Y007364D01*
X018290Y007822D01*
X018271Y007822D01*
X018197Y007810D01*
X018128Y007788D01*
X018128Y007902D01*
X018197Y007880D01*
X018271Y007869D01*
X018290Y007869D01*
X018290Y008327D01*
X018327Y008327D01*
X018327Y007869D01*
X018346Y007869D01*
X018420Y007880D01*
X018491Y007903D01*
X018558Y007938D01*
X018619Y007982D01*
X018672Y008035D01*
X018716Y008095D01*
X018750Y008162D01*
X018773Y008234D01*
X018785Y008308D01*
X018785Y008327D01*
X018517Y008327D01*
X018517Y008364D01*
X018785Y008364D01*
X018785Y008383D01*
X018773Y008457D01*
X018764Y008487D01*
X019677Y008487D01*
X019655Y000500D01*
X018824Y000500D01*
X018846Y000508D01*
X018871Y000520D01*
X018894Y000534D01*
X018915Y000551D01*
X018934Y000570D01*
X018950Y000591D01*
X018965Y000614D01*
X018976Y000638D01*
X018985Y000663D01*
X018991Y000690D01*
X018994Y000716D01*
X018994Y001143D01*
X018991Y001170D01*
X018985Y001196D01*
X018976Y001222D01*
X018965Y001246D01*
X018950Y001269D01*
X018934Y001290D01*
X018915Y001309D01*
X018894Y001326D01*
X018871Y001340D01*
X018846Y001352D01*
X018821Y001361D01*
X018795Y001367D01*
X018768Y001370D01*
X018683Y001370D01*
X018683Y002044D01*
X018601Y002243D01*
X018449Y002394D01*
X018250Y002477D01*
X018157Y002477D01*
X017730Y003565D01*
X017730Y004550D01*
X018517Y004550D01*
X018517Y004916D01*
X018558Y004938D01*
X018619Y004982D01*
X018672Y005035D01*
X018716Y005095D01*
X018750Y005162D01*
X018773Y005234D01*
X018785Y005308D01*
X018785Y005327D01*
X018517Y005327D01*
X018517Y005364D01*
X018785Y005364D01*
X018785Y005383D01*
X018773Y005457D01*
X018750Y005528D01*
X018716Y005595D01*
X018672Y005656D01*
X018619Y005709D01*
X018558Y005753D01*
X018517Y005774D01*
X018517Y005916D01*
X018558Y005938D01*
X018619Y005982D01*
X018672Y006035D01*
X018716Y006095D01*
X018750Y006162D01*
X018773Y006234D01*
X018785Y006308D01*
X018785Y006327D01*
X018327Y006327D01*
X018327Y006364D01*
X018785Y006364D01*
X018785Y006383D01*
X018773Y006457D01*
X018750Y006528D01*
X018716Y006595D01*
X018672Y006656D01*
X018619Y006709D01*
X018558Y006753D01*
X018491Y006787D01*
X018420Y006810D01*
X018346Y006822D01*
X018327Y006822D01*
X018327Y006364D01*
X018785Y006364D01*
X018785Y006383D01*
X018773Y006457D01*
X018750Y006528D01*
X018716Y006595D01*
X018672Y006656D01*
X018619Y006709D01*
X018558Y006753D01*
X018491Y006787D01*
X018420Y006810D01*
X018346Y006822D01*
X018327Y006822D01*
X018327Y006364D01*
X018327Y006327D01*
X018785Y006327D01*
X018785Y006308D01*
X018773Y006234D01*
X018750Y006162D01*
X018716Y006095D01*
X018672Y006035D01*
X018619Y005982D01*
X018558Y005938D01*
X018491Y005903D01*
X018420Y005880D01*
X018346Y005869D01*
X018327Y005869D01*
X018327Y006327D01*
X018290Y006327D01*
X018290Y005869D01*
X018271Y005869D01*
X018197Y005880D01*
X018125Y005903D01*
X018058Y005938D01*
X017998Y005982D01*
X017945Y006035D01*
X017900Y006095D01*
X017885Y006126D01*
X017831Y005996D01*
X017681Y005845D01*
X017831Y005695D01*
X017885Y005565D01*
X017900Y005595D01*
X017945Y005656D01*
X017998Y005709D01*
X018058Y005753D01*
X018125Y005787D01*
X018197Y005810D01*
X018271Y005822D01*
X018290Y005822D01*
X018290Y005364D01*
X018327Y005364D01*
X018290Y005364D01*
X018290Y005822D01*
X018271Y005822D01*
X018197Y005810D01*
X018125Y005787D01*
X018058Y005753D01*
X017998Y005709D01*
X017945Y005656D01*
X017900Y005595D01*
X017866Y005528D01*
X017843Y005457D01*
X017843Y005457D01*
X017763Y005649D01*
X017612Y005800D01*
X017504Y005845D01*
X017612Y005890D01*
X017763Y006041D01*
X017843Y006234D01*
X017843Y006234D01*
X017866Y006162D01*
X017900Y006095D01*
X017945Y006035D01*
X017998Y005982D01*
X018058Y005938D01*
X018125Y005903D01*
X018197Y005880D01*
X018271Y005869D01*
X018290Y005869D01*
X018290Y006327D01*
X018327Y006327D01*
X018327Y005869D01*
X018346Y005869D01*
X018420Y005880D01*
X018491Y005903D01*
X018558Y005938D01*
X018619Y005982D01*
X018672Y006035D01*
X018716Y006095D01*
X018750Y006162D01*
X018773Y006234D01*
X018785Y006308D01*
X018785Y006327D01*
X018517Y006327D01*
X018517Y006364D01*
X018785Y006364D01*
X018785Y006383D01*
X018773Y006457D01*
X018750Y006528D01*
X018716Y006595D01*
X018672Y006656D01*
X018619Y006709D01*
X018558Y006753D01*
X018517Y006774D01*
X018517Y006916D01*
X018558Y006938D01*
X018619Y006982D01*
X018672Y007035D01*
X018716Y007095D01*
X018750Y007162D01*
X018672Y007035D02*
X018619Y006982D01*
X018558Y006938D01*
X018491Y006903D01*
X018420Y006880D01*
X018346Y006869D01*
X018327Y006869D01*
X018327Y007327D01*
X018290Y007327D01*
X018290Y006869D01*
X018271Y006869D01*
X018197Y006880D01*
X018125Y006903D01*
X018058Y006938D01*
X017998Y006982D01*
X017945Y007035D01*
X017900Y007095D01*
X017885Y007126D01*
X017831Y006996D01*
X017681Y006845D01*
X017831Y006695D01*
X017885Y006565D01*
X017900Y006595D01*
X017945Y006656D01*
X017998Y006709D01*
X018058Y006753D01*
X018125Y006787D01*
X018197Y006810D01*
X018271Y006822D01*
X018290Y006822D01*
X018290Y006364D01*
X018327Y006364D01*
X018290Y006364D01*
X018290Y006822D01*
X018271Y006822D01*
X018197Y006810D01*
X018125Y006787D01*
X018058Y006753D01*
X017998Y006709D01*
X017945Y006656D01*
X017900Y006595D01*
X017866Y006528D01*
X017843Y006457D01*
X017843Y006457D01*
X017763Y006649D01*
X017612Y006800D01*
X017504Y006845D01*
X017579Y006876D02*
X018221Y006876D01*
X017712Y006876D01*
X017695Y006718D02*
X018010Y006718D01*
X017808Y006718D01*
X017801Y006559D02*
X017882Y006559D01*
X018290Y006559D02*
X018327Y006559D01*
X018290Y006559D01*
X018290Y006401D02*
X018327Y006401D01*
X018290Y006401D01*
X018308Y006345D02*
X018308Y007345D01*
X018308Y008345D01*
X018290Y008303D02*
X018327Y008303D01*
X018290Y008303D01*
X018290Y008144D02*
X018327Y008144D01*
X018290Y008144D01*
X018290Y007986D02*
X018327Y007986D01*
X018290Y007986D01*
X018208Y007827D02*
X019595Y007827D01*
X019675Y007827D02*
X018517Y007827D01*
X018623Y007986D02*
X019596Y007986D01*
X019676Y007986D02*
X018623Y007986D01*
X019501Y007986D01*
X019501Y008144D02*
X018741Y008144D01*
X019596Y008144D01*
X019676Y008144D02*
X018741Y008144D01*
X018784Y008303D02*
X019597Y008303D01*
X019677Y008303D02*
X018784Y008303D01*
X019501Y008303D01*
X019501Y008461D02*
X018772Y008461D01*
X019677Y008461D01*
X019597Y008461D02*
X018842Y008461D01*
X018945Y008620D02*
X019501Y008620D01*
X019598Y008620D02*
X019058Y008620D01*
X019103Y008778D02*
X019501Y008778D01*
X019501Y008841D02*
X019501Y010141D01*
X019501Y010205D02*
X019299Y010205D01*
X019412Y010205D02*
X019602Y010205D01*
X019603Y010363D02*
X019254Y010363D01*
X019140Y010363D02*
X019501Y010363D01*
X019501Y010522D02*
X018982Y010522D01*
X019095Y010522D02*
X019603Y010522D01*
X019603Y010680D02*
X018937Y010680D01*
X018823Y010680D02*
X019501Y010680D01*
X019501Y010839D02*
X006312Y010839D01*
X004807Y010839D01*
X004661Y010997D02*
X006312Y010997D01*
X019501Y010997D01*
X019604Y010997D02*
X006352Y010997D01*
X006352Y011156D02*
X009160Y011156D01*
X009105Y011314D02*
X006312Y011314D01*
X000800Y011314D01*
X000800Y011156D02*
X006312Y011156D01*
X017356Y011156D01*
X017161Y011156D02*
X010597Y011156D01*
X010653Y011314D02*
X017148Y011314D01*
X017064Y011314D02*
X010742Y011314D01*
X010767Y011473D02*
X017054Y011473D01*
X017134Y011473D02*
X010687Y011473D01*
X010687Y011631D02*
X017134Y011631D01*
X017054Y011631D02*
X010767Y011631D01*
X010767Y011790D02*
X010994Y011790D01*
X010687Y011790D02*
X017134Y011790D01*
X016994Y011790D02*
X016480Y011790D01*
X016589Y011948D02*
X016886Y011948D01*
X016773Y011948D02*
X016702Y011948D01*
X016717Y012107D02*
X016758Y012107D01*
X015994Y011790D02*
X015480Y011790D01*
X015589Y011948D02*
X015886Y011948D01*
X015773Y011948D02*
X015702Y011948D01*
X015717Y012107D02*
X015758Y012107D01*
X014994Y011790D02*
X014480Y011790D01*
X014589Y011948D02*
X014886Y011948D01*
X014773Y011948D02*
X014702Y011948D01*
X014717Y012107D02*
X014758Y012107D01*
X013994Y011790D02*
X013480Y011790D01*
X013589Y011948D02*
X013886Y011948D01*
X013773Y011948D02*
X013702Y011948D01*
X013717Y012107D02*
X013758Y012107D01*
X012994Y011790D02*
X012480Y011790D01*
X012589Y011948D02*
X012886Y011948D01*
X012773Y011948D02*
X012702Y011948D01*
X012717Y012107D02*
X012758Y012107D01*
X011994Y011790D02*
X011480Y011790D01*
X011589Y011948D02*
X011886Y011948D01*
X011773Y011948D02*
X011702Y011948D01*
X011717Y012107D02*
X011758Y012107D01*
X010886Y011948D02*
X010661Y011948D01*
X010748Y011948D02*
X010773Y011948D01*
X010758Y012107D02*
X010654Y012107D01*
X009070Y011790D02*
X006312Y011790D01*
X000800Y011790D01*
X000800Y011631D02*
X006312Y011631D01*
X009070Y011631D01*
X008990Y011631D02*
X006352Y011631D01*
X006352Y011473D02*
X008990Y011473D01*
X009070Y011473D02*
X006312Y011473D01*
X000800Y011473D01*
X000800Y010997D02*
X000861Y010997D01*
X002101Y010997D02*
X003421Y010997D01*
X003275Y010839D02*
X002247Y010839D01*
X002313Y010680D02*
X003209Y010680D01*
X003201Y010522D02*
X002321Y010522D01*
X002287Y010363D02*
X003235Y010363D01*
X003326Y010205D02*
X002196Y010205D01*
X001967Y010046D02*
X003555Y010046D01*
X003703Y011854D02*
X003629Y011866D01*
X003557Y011889D01*
X003489Y011923D01*
X003428Y011968D01*
X003375Y012021D01*
X003330Y012082D01*
X003296Y012150D01*
X003273Y012221D01*
X003261Y012296D01*
X003261Y012314D01*
X004021Y012314D01*
X004021Y012354D01*
X004021Y012814D01*
X003703Y012814D01*
X003629Y012802D01*
X003557Y012779D01*
X003489Y012744D01*
X003428Y012700D01*
X003375Y012646D01*
X003330Y012585D01*
X003296Y012518D01*
X003273Y012446D01*
X003261Y012372D01*
X003261Y012354D01*
X004021Y012354D01*
X004061Y012354D01*
X004061Y012814D01*
X004379Y012814D01*
X004453Y012802D01*
X004525Y012779D01*
X004593Y012744D01*
X004654Y012700D01*
X004707Y012646D01*
X004752Y012585D01*
X004786Y012518D01*
X004809Y012446D01*
X004821Y012372D01*
X004821Y012354D01*
X004061Y012354D01*
X004061Y012314D01*
X004821Y012314D01*
X004821Y012296D01*
X004809Y012221D01*
X004786Y012150D01*
X004752Y012082D01*
X004707Y012021D01*
X004654Y011968D01*
X004593Y011923D01*
X004525Y011889D01*
X004453Y011866D01*
X004379Y011854D01*
X004061Y011854D01*
X004061Y012314D01*
X004021Y012314D01*
X004021Y011854D01*
X003703Y011854D01*
X004021Y011948D02*
X004061Y011948D01*
X004061Y012107D02*
X004021Y012107D01*
X004021Y012265D02*
X004061Y012265D01*
X004061Y012424D02*
X004021Y012424D01*
X004021Y012582D02*
X004061Y012582D01*
X004061Y012741D02*
X004021Y012741D01*
X003485Y012741D02*
X002138Y012741D01*
X002263Y012582D02*
X003329Y012582D01*
X003269Y012424D02*
X002321Y012424D01*
X002321Y012265D02*
X003266Y012265D01*
X003318Y012107D02*
X002272Y012107D01*
X002159Y011948D02*
X003455Y011948D01*
X004627Y011948D02*
X006312Y011948D01*
X006823Y011948D01*
X006710Y011948D02*
X006352Y011948D01*
X006352Y012107D02*
X006608Y012107D01*
X006695Y012107D02*
X006312Y012107D01*
X004764Y012107D01*
X004816Y012265D02*
X006312Y012265D01*
X006634Y012265D01*
X006554Y012265D02*
X006352Y012265D01*
X006352Y012424D02*
X006554Y012424D01*
X006634Y012424D02*
X006312Y012424D01*
X004813Y012424D01*
X004753Y012582D02*
X006312Y012582D01*
X006634Y012582D01*
X006554Y012582D02*
X006352Y012582D01*
X006352Y012741D02*
X006554Y012741D01*
X006634Y012741D02*
X006312Y012741D01*
X004597Y012741D01*
X006312Y012899D02*
X006634Y012899D01*
X006554Y012899D02*
X006352Y012899D01*
X006312Y012899D02*
X000800Y012899D01*
X000800Y012741D02*
X000824Y012741D01*
X000800Y013058D02*
X006312Y013058D01*
X006634Y013058D01*
X006554Y013058D02*
X006352Y013058D01*
X006352Y013216D02*
X006609Y013216D01*
X006696Y013216D02*
X006312Y013216D01*
X000800Y013216D01*
X000800Y013375D02*
X006312Y013375D01*
X006825Y013375D01*
X006712Y013375D02*
X006352Y013375D01*
X006352Y013533D02*
X006938Y013533D01*
X007177Y013533D02*
X006312Y013533D01*
X000800Y013533D01*
X000800Y011948D02*
X000803Y011948D01*
X000800Y009729D02*
X006312Y009729D01*
X014779Y009729D01*
X014621Y009571D02*
X006312Y009571D01*
X000800Y009571D01*
X000800Y009412D02*
X006312Y009412D01*
X014462Y009412D01*
X014304Y009254D02*
X006312Y009254D01*
X000800Y009254D01*
X000800Y009095D02*
X006312Y009095D01*
X014145Y009095D01*
X013987Y008937D02*
X006312Y008937D01*
X000800Y008937D01*
X000800Y008778D02*
X006312Y008778D01*
X013828Y008778D01*
X013670Y008620D02*
X006312Y008620D01*
X000800Y008620D01*
X000800Y008461D02*
X006312Y008461D01*
X013511Y008461D01*
X013353Y008303D02*
X006312Y008303D01*
X000800Y008303D01*
X000800Y008144D02*
X006312Y008144D01*
X013194Y008144D01*
X013036Y007986D02*
X006312Y007986D01*
X000800Y007986D01*
X000800Y007827D02*
X006312Y007827D01*
X012877Y007827D01*
X012719Y007669D02*
X006312Y007669D01*
X000800Y007669D01*
X000800Y007510D02*
X006312Y007510D01*
X012560Y007510D01*
X012402Y007352D02*
X006312Y007352D01*
X000800Y007352D01*
X000800Y007193D02*
X006312Y007193D01*
X012243Y007193D01*
X012085Y007035D02*
X006312Y007035D01*
X000800Y007035D01*
X000800Y006876D02*
X006312Y006876D01*
X011926Y006876D01*
X011768Y006718D02*
X006312Y006718D01*
X000800Y006718D01*
X000800Y006559D02*
X006312Y006559D01*
X011609Y006559D01*
X011534Y006484D02*
X007784Y006484D01*
X007666Y006436D01*
X007576Y006346D01*
X006643Y005412D01*
X006553Y005322D01*
X006504Y005204D01*
X006504Y002335D01*
X006449Y002391D01*
X006312Y002447D01*
X006312Y010062D01*
X015112Y010062D01*
X011534Y006484D01*
X011667Y006164D02*
X015643Y010141D01*
X017513Y010141D01*
X018308Y009345D01*
X017308Y009345D02*
X017308Y009326D01*
X014619Y006637D01*
X014619Y003054D01*
X014659Y003015D01*
X015485Y003015D01*
X016037Y002463D01*
X016037Y001743D01*
X016143Y001637D01*
X016643Y002141D02*
X016601Y002243D01*
X016449Y002394D01*
X016357Y002433D01*
X016357Y002527D01*
X016308Y002645D01*
X016218Y002735D01*
X015761Y003192D01*
X015761Y005337D01*
X015952Y005337D01*
X015962Y005314D01*
X016052Y005224D01*
X016610Y004666D01*
X017536Y002308D01*
X017449Y002394D01*
X017250Y002477D01*
X017035Y002477D01*
X016837Y002394D01*
X016685Y002243D01*
X016643Y002141D01*
X016722Y002280D02*
X016563Y002280D01*
X016357Y002438D02*
X016943Y002438D01*
X017343Y002438D02*
X017484Y002438D01*
X017422Y002597D02*
X016328Y002597D01*
X016197Y002755D02*
X017360Y002755D01*
X017298Y002914D02*
X016039Y002914D01*
X015880Y003072D02*
X017235Y003072D01*
X017173Y003231D02*
X015761Y003231D01*
X015722Y003231D01*
X015761Y003192D02*
X015667Y003286D01*
X015549Y003335D01*
X014939Y003335D01*
X014939Y006504D01*
X015761Y007326D01*
X015761Y003192D01*
X015761Y003389D02*
X017111Y003389D01*
X017049Y003548D02*
X015761Y003548D01*
X014939Y003548D01*
X014939Y003389D02*
X015761Y003389D01*
X015761Y003706D02*
X016986Y003706D01*
X016924Y003865D02*
X015761Y003865D01*
X014939Y003865D01*
X014939Y004023D02*
X015761Y004023D01*
X016862Y004023D01*
X016800Y004182D02*
X015761Y004182D01*
X014939Y004182D01*
X014939Y004340D02*
X015761Y004340D01*
X016738Y004340D01*
X016675Y004499D02*
X015761Y004499D01*
X014939Y004499D01*
X014939Y004657D02*
X015761Y004657D01*
X016613Y004657D01*
X016460Y004816D02*
X015761Y004816D01*
X014939Y004816D01*
X014939Y004974D02*
X015761Y004974D01*
X016301Y004974D01*
X016143Y005133D02*
X015761Y005133D01*
X014939Y005133D01*
X014939Y005291D02*
X015761Y005291D01*
X015984Y005291D01*
X015761Y005450D02*
X014939Y005450D01*
X014939Y005608D02*
X015761Y005608D01*
X015761Y005767D02*
X014939Y005767D01*
X014939Y005925D02*
X015761Y005925D01*
X015761Y006084D02*
X014939Y006084D01*
X014939Y006242D02*
X015761Y006242D01*
X015761Y006401D02*
X014939Y006401D01*
X014995Y006559D02*
X015761Y006559D01*
X015761Y006718D02*
X015153Y006718D01*
X015312Y006876D02*
X015761Y006876D01*
X015761Y007035D02*
X015470Y007035D01*
X015629Y007193D02*
X015761Y007193D01*
X015199Y007669D02*
X013624Y007669D01*
X013465Y007510D02*
X015040Y007510D01*
X014882Y007352D02*
X013307Y007352D01*
X013148Y007193D02*
X014723Y007193D01*
X014565Y007035D02*
X012990Y007035D01*
X012831Y006876D02*
X014406Y006876D01*
X014307Y006718D02*
X012673Y006718D01*
X012514Y006559D02*
X014299Y006559D01*
X014299Y006401D02*
X012356Y006401D01*
X012197Y006242D02*
X014299Y006242D01*
X014299Y006084D02*
X012039Y006084D01*
X011880Y005925D02*
X014299Y005925D01*
X014299Y005767D02*
X007903Y005767D01*
X007744Y005608D02*
X014299Y005608D01*
X014299Y005450D02*
X007586Y005450D01*
X007427Y005291D02*
X014299Y005291D01*
X014299Y005133D02*
X007269Y005133D01*
X007144Y004974D02*
X014299Y004974D01*
X014299Y004816D02*
X007144Y004816D01*
X007144Y004657D02*
X014299Y004657D01*
X014299Y004499D02*
X007144Y004499D01*
X007144Y004340D02*
X014299Y004340D01*
X014299Y004182D02*
X007144Y004182D01*
X007144Y004023D02*
X014299Y004023D01*
X014299Y003865D02*
X007144Y003865D01*
X007144Y003706D02*
X014299Y003706D01*
X014299Y003548D02*
X007144Y003548D01*
X007144Y003389D02*
X014299Y003389D01*
X014299Y003231D02*
X007144Y003231D01*
X007144Y003072D02*
X008089Y003072D01*
X008050Y002914D02*
X007144Y002914D01*
X007144Y002755D02*
X008050Y002755D01*
X008050Y002597D02*
X007144Y002597D01*
X007333Y002438D02*
X008073Y002438D01*
X007559Y002280D02*
X008722Y002280D01*
X008635Y002121D02*
X007649Y002121D01*
X007683Y001963D02*
X008603Y001963D01*
X008603Y001804D02*
X007683Y001804D01*
X007683Y001646D02*
X008603Y001646D01*
X008603Y001487D02*
X007683Y001487D01*
X007683Y001329D02*
X008227Y001329D01*
X008125Y001170D02*
X007660Y001170D01*
X007586Y001012D02*
X008122Y001012D01*
X008122Y000853D02*
X007397Y000853D01*
X006889Y000853D02*
X006397Y000853D01*
X006312Y000853D02*
X006185Y000853D01*
X006163Y000853D02*
X006123Y000853D01*
X006101Y000853D02*
X000800Y000853D01*
X000800Y000695D02*
X006312Y000695D01*
X008124Y000695D01*
X008220Y000536D02*
X000800Y000536D01*
X000800Y001012D02*
X005785Y001012D01*
X005691Y001170D02*
X000800Y001170D01*
X000800Y001329D02*
X005663Y001329D01*
X005663Y001487D02*
X000800Y001487D01*
X000800Y001646D02*
X006123Y001646D01*
X006123Y001804D02*
X006163Y001804D01*
X006163Y001963D02*
X006123Y001963D01*
X006123Y002121D02*
X006163Y002121D01*
X006163Y002280D02*
X006123Y002280D01*
X006312Y002438D02*
X002856Y002438D01*
X002867Y002413D02*
X002804Y002566D01*
X002686Y002683D01*
X002533Y002747D01*
X002367Y002747D01*
X002214Y002683D01*
X002096Y002566D01*
X002033Y002413D01*
X002033Y002247D01*
X002096Y002093D01*
X002214Y001976D01*
X002367Y001912D01*
X002533Y001912D01*
X002686Y001976D01*
X002804Y002093D01*
X002867Y002247D01*
X002867Y002413D01*
X002867Y002280D02*
X005811Y002280D01*
X005700Y002121D02*
X002815Y002121D01*
X002655Y001963D02*
X005663Y001963D01*
X005663Y001804D02*
X000800Y001804D01*
X000800Y001963D02*
X002245Y001963D01*
X002085Y002121D02*
X000800Y002121D01*
X000800Y002280D02*
X002033Y002280D01*
X002044Y002438D02*
X000800Y002438D01*
X000800Y002597D02*
X002127Y002597D01*
X002773Y002597D02*
X006312Y002597D01*
X006504Y002597D01*
X006504Y002755D02*
X006312Y002755D01*
X000800Y002755D01*
X000800Y002914D02*
X006312Y002914D01*
X006504Y002914D01*
X006504Y003072D02*
X006312Y003072D01*
X000800Y003072D01*
X000800Y003231D02*
X006312Y003231D01*
X006504Y003231D01*
X006504Y003389D02*
X006312Y003389D01*
X000800Y003389D01*
X000800Y003548D02*
X006312Y003548D01*
X006504Y003548D01*
X006504Y003706D02*
X006312Y003706D01*
X002682Y003706D01*
X002686Y003708D02*
X002804Y003826D01*
X002867Y003979D01*
X002867Y004145D01*
X002804Y004298D01*
X002686Y004416D01*
X002533Y004479D01*
X002367Y004479D01*
X002214Y004416D01*
X002096Y004298D01*
X002033Y004145D01*
X002033Y003979D01*
X002096Y003826D01*
X002214Y003708D01*
X002367Y003645D01*
X002533Y003645D01*
X002686Y003708D01*
X002820Y003865D02*
X006312Y003865D01*
X006504Y003865D01*
X006504Y004023D02*
X006312Y004023D01*
X002867Y004023D01*
X002852Y004182D02*
X006312Y004182D01*
X006504Y004182D01*
X006504Y004340D02*
X006312Y004340D01*
X002761Y004340D01*
X002139Y004340D02*
X000800Y004340D01*
X000800Y004182D02*
X002048Y004182D01*
X002033Y004023D02*
X000800Y004023D01*
X000800Y003865D02*
X002080Y003865D01*
X002218Y003706D02*
X000800Y003706D01*
X000800Y004499D02*
X006312Y004499D01*
X006504Y004499D01*
X006504Y004657D02*
X006312Y004657D01*
X000800Y004657D01*
X000800Y004816D02*
X006312Y004816D01*
X006504Y004816D01*
X006504Y004974D02*
X006312Y004974D01*
X000800Y004974D01*
X000800Y005133D02*
X006312Y005133D01*
X006504Y005133D01*
X006540Y005291D02*
X006312Y005291D01*
X000800Y005291D01*
X000800Y005450D02*
X006312Y005450D01*
X006681Y005450D01*
X006839Y005608D02*
X006312Y005608D01*
X000800Y005608D01*
X000800Y005767D02*
X006312Y005767D01*
X006998Y005767D01*
X007156Y005925D02*
X006312Y005925D01*
X000800Y005925D01*
X000800Y006084D02*
X006312Y006084D01*
X007315Y006084D01*
X007473Y006242D02*
X006312Y006242D01*
X000800Y006242D01*
X000800Y006401D02*
X006312Y006401D01*
X007632Y006401D01*
X007848Y006164D02*
X011667Y006164D01*
X013782Y007827D02*
X015357Y007827D01*
X015516Y007986D02*
X013941Y007986D01*
X014099Y008144D02*
X015674Y008144D01*
X015761Y008303D02*
X014258Y008303D01*
X014416Y008461D02*
X015761Y008461D01*
X015761Y008620D02*
X014575Y008620D01*
X014733Y008778D02*
X015761Y008778D01*
X015761Y008937D02*
X014892Y008937D01*
X015050Y009095D02*
X015761Y009095D01*
X015761Y009254D02*
X015209Y009254D01*
X015367Y009412D02*
X015761Y009412D01*
X015761Y009571D02*
X015526Y009571D01*
X015684Y009729D02*
X015761Y009729D01*
X018128Y007827D02*
X019501Y007827D01*
X019501Y007669D02*
X018659Y007669D01*
X019595Y007669D01*
X019675Y007669D02*
X018659Y007669D01*
X018756Y007510D02*
X019594Y007510D01*
X019674Y007510D02*
X018756Y007510D01*
X019501Y007510D01*
X019501Y007352D02*
X018327Y007352D01*
X019594Y007352D01*
X019674Y007352D02*
X018517Y007352D01*
X018327Y007510D02*
X018290Y007510D01*
X018327Y007510D01*
X018327Y007669D02*
X018290Y007669D01*
X018327Y007669D01*
X018327Y007193D02*
X018290Y007193D01*
X018327Y007193D01*
X018327Y007035D02*
X018290Y007035D01*
X018327Y007035D01*
X018327Y006876D02*
X018290Y006876D01*
X018327Y006876D01*
X018396Y006876D02*
X019593Y006876D01*
X019673Y006876D02*
X018517Y006876D01*
X018396Y006876D02*
X019501Y006876D01*
X019501Y006718D02*
X018607Y006718D01*
X019592Y006718D01*
X019672Y006718D02*
X018607Y006718D01*
X018734Y006559D02*
X019592Y006559D01*
X019672Y006559D02*
X018734Y006559D01*
X019501Y006559D01*
X019501Y006401D02*
X018782Y006401D01*
X019591Y006401D01*
X019671Y006401D02*
X018782Y006401D01*
X018775Y006242D02*
X019591Y006242D01*
X019671Y006242D02*
X018775Y006242D01*
X019501Y006242D01*
X019501Y006084D02*
X018708Y006084D01*
X019590Y006084D01*
X019670Y006084D02*
X018708Y006084D01*
X018534Y005925D02*
X019590Y005925D01*
X019670Y005925D02*
X018534Y005925D01*
X019501Y005925D01*
X019501Y005767D02*
X018531Y005767D01*
X019589Y005767D01*
X019669Y005767D02*
X018531Y005767D01*
X018327Y005767D02*
X018290Y005767D01*
X018327Y005767D01*
X018327Y005925D02*
X018290Y005925D01*
X018327Y005925D01*
X018327Y006084D02*
X018290Y006084D01*
X018327Y006084D01*
X018327Y006242D02*
X018290Y006242D01*
X018327Y006242D01*
X018308Y006345D02*
X018308Y005345D01*
X018290Y005291D02*
X018327Y005291D01*
X018290Y005291D01*
X018290Y005133D02*
X018327Y005133D01*
X018290Y005133D01*
X018290Y004974D02*
X018327Y004974D01*
X018290Y004974D01*
X018184Y004816D02*
X017433Y004816D01*
X019501Y004816D01*
X019587Y004816D02*
X017642Y004816D01*
X017697Y004974D02*
X017920Y004974D01*
X018008Y004974D02*
X017810Y004974D01*
X017697Y004974D02*
X018008Y004974D01*
X017881Y005133D02*
X017801Y005133D01*
X017815Y005133D01*
X018290Y005450D02*
X018327Y005450D01*
X018290Y005450D01*
X018290Y005608D02*
X018327Y005608D01*
X018290Y005608D01*
X018085Y005767D02*
X017759Y005767D01*
X017646Y005767D02*
X018085Y005767D01*
X018082Y005925D02*
X017761Y005925D01*
X017648Y005925D02*
X018082Y005925D01*
X017909Y006084D02*
X017868Y006084D01*
X017909Y006084D02*
X017781Y006084D01*
X017780Y005608D02*
X017910Y005608D01*
X017867Y005608D01*
X018707Y005608D02*
X019589Y005608D01*
X019669Y005608D02*
X018707Y005608D01*
X019501Y005608D01*
X019501Y005450D02*
X018775Y005450D01*
X019589Y005450D01*
X019669Y005450D02*
X018775Y005450D01*
X018783Y005291D02*
X019588Y005291D01*
X019668Y005291D02*
X018783Y005291D01*
X019501Y005291D01*
X019501Y005133D02*
X018735Y005133D01*
X019588Y005133D01*
X019668Y005133D02*
X018735Y005133D01*
X018609Y004974D02*
X019587Y004974D01*
X019667Y004974D02*
X018609Y004974D01*
X019501Y004974D01*
X019667Y004816D02*
X018517Y004816D01*
X018433Y004816D02*
X018645Y004816D01*
X018517Y004657D02*
X019666Y004657D01*
X019586Y004657D02*
X017387Y004657D01*
X017301Y004657D02*
X019501Y004657D01*
X019501Y004499D02*
X017363Y004499D01*
X018962Y004499D01*
X019120Y004340D02*
X017425Y004340D01*
X019501Y004340D01*
X019585Y004340D02*
X017511Y004340D01*
X017487Y004182D02*
X019279Y004182D01*
X019501Y004182D02*
X017487Y004182D01*
X017573Y004182D02*
X019585Y004182D01*
X019665Y004182D02*
X017730Y004182D01*
X017730Y004340D02*
X019665Y004340D01*
X019666Y004499D02*
X017730Y004499D01*
X017449Y004499D02*
X019586Y004499D01*
X019585Y004023D02*
X017636Y004023D01*
X017550Y004023D02*
X019501Y004023D01*
X019437Y004023D02*
X017550Y004023D01*
X017612Y003865D02*
X019596Y003865D01*
X019584Y003865D02*
X017698Y003865D01*
X017730Y003865D02*
X019664Y003865D01*
X019665Y004023D02*
X017730Y004023D01*
X017612Y003865D02*
X019501Y003865D01*
X019501Y003706D02*
X017674Y003706D01*
X019664Y003706D01*
X017730Y003706D01*
X017760Y003706D02*
X019584Y003706D01*
X019583Y003548D02*
X017822Y003548D01*
X017736Y003548D02*
X019663Y003548D01*
X017736Y003548D01*
X019501Y003548D01*
X019501Y003389D02*
X017799Y003389D01*
X019663Y003389D01*
X017799Y003389D01*
X017884Y003389D02*
X019583Y003389D01*
X019582Y003231D02*
X017947Y003231D01*
X017861Y003231D02*
X019501Y003231D01*
X019501Y003072D02*
X017923Y003072D01*
X019662Y003072D01*
X017923Y003072D01*
X018009Y003072D02*
X019582Y003072D01*
X019581Y002914D02*
X018071Y002914D01*
X017985Y002914D02*
X019661Y002914D01*
X017985Y002914D01*
X019501Y002914D01*
X019501Y002755D02*
X018047Y002755D01*
X019661Y002755D01*
X018047Y002755D01*
X018133Y002755D02*
X019581Y002755D01*
X019580Y002597D02*
X018196Y002597D01*
X018110Y002597D02*
X019660Y002597D01*
X018110Y002597D01*
X019501Y002597D01*
X019501Y002438D02*
X018343Y002438D01*
X019660Y002438D01*
X018343Y002438D01*
X018518Y002438D02*
X019580Y002438D01*
X019580Y002280D02*
X018672Y002280D01*
X018563Y002280D02*
X019660Y002280D01*
X018563Y002280D01*
X019501Y002280D01*
X019501Y002121D02*
X018651Y002121D01*
X019659Y002121D01*
X018651Y002121D01*
X018737Y002121D02*
X019579Y002121D01*
X019659Y001963D02*
X018683Y001963D01*
X019659Y001963D01*
X019658Y001804D02*
X018683Y001804D01*
X019658Y001804D01*
X019658Y001646D02*
X018683Y001646D01*
X019658Y001646D01*
X019657Y001487D02*
X018683Y001487D01*
X019657Y001487D01*
X019657Y001329D02*
X018889Y001329D01*
X019657Y001329D01*
X019656Y001170D02*
X018991Y001170D01*
X019656Y001170D01*
X019656Y001012D02*
X018994Y001012D01*
X019656Y001012D01*
X019656Y000853D02*
X018994Y000853D01*
X019656Y000853D01*
X019655Y000695D02*
X018992Y000695D01*
X019655Y000695D01*
X019655Y000536D02*
X018897Y000536D01*
X018191Y000613D02*
X015761Y000613D01*
X015761Y000955D01*
X015837Y000879D01*
X016035Y000797D01*
X016250Y000797D01*
X016449Y000879D01*
X016601Y001031D01*
X016643Y001133D01*
X016685Y001031D01*
X016837Y000879D01*
X017035Y000797D01*
X017250Y000797D01*
X017449Y000879D01*
X017601Y001031D01*
X017643Y001133D01*
X017685Y001031D01*
X017837Y000879D01*
X018035Y000797D01*
X018161Y000797D01*
X018161Y000716D01*
X018164Y000690D01*
X018170Y000663D01*
X018179Y000638D01*
X018191Y000614D01*
X018191Y000613D01*
X018164Y000695D02*
X015761Y000695D01*
X013126Y000695D01*
X013125Y000690D02*
X013128Y000716D01*
X013128Y000797D01*
X013250Y000797D01*
X013449Y000879D01*
X013601Y001031D01*
X013643Y001133D01*
X013685Y001031D01*
X013837Y000879D01*
X014035Y000797D01*
X014250Y000797D01*
X014449Y000879D01*
X014601Y001031D01*
X014643Y001133D01*
X014685Y001031D01*
X014837Y000879D01*
X015035Y000797D01*
X015250Y000797D01*
X015449Y000879D01*
X015601Y001031D01*
X015643Y001133D01*
X015685Y001031D01*
X015761Y000955D01*
X015761Y000613D01*
X013098Y000613D01*
X013099Y000614D01*
X013110Y000638D01*
X013119Y000663D01*
X013125Y000690D01*
X013387Y000853D02*
X013899Y000853D01*
X013704Y001012D02*
X013582Y001012D01*
X014387Y000853D02*
X014899Y000853D01*
X014704Y001012D02*
X014582Y001012D01*
X015387Y000853D02*
X015761Y000853D01*
X015899Y000853D01*
X015704Y001012D02*
X015582Y001012D01*
X016387Y000853D02*
X016899Y000853D01*
X016704Y001012D02*
X016582Y001012D01*
X017387Y000853D02*
X017899Y000853D01*
X017704Y001012D02*
X017582Y001012D01*
X018143Y001637D02*
X016883Y004845D01*
X016233Y005495D01*
X016233Y005889D01*
X016667Y006322D01*
X017285Y006322D01*
X017308Y006345D01*
X017757Y007035D02*
X017944Y007035D01*
X017847Y007035D01*
X017856Y007193D02*
X017826Y007193D01*
X018290Y006718D02*
X018327Y006718D01*
X018290Y006718D01*
X019216Y008778D02*
X019598Y008778D01*
X019598Y008937D02*
X019375Y008937D01*
X019262Y008937D02*
X019501Y008937D01*
X019501Y009095D02*
X019420Y009095D01*
X019529Y009095D02*
X019599Y009095D01*
X019586Y009254D02*
X019599Y009254D01*
X019586Y009412D02*
X019600Y009412D01*
X019586Y009571D02*
X019600Y009571D01*
X019586Y009729D02*
X019601Y009729D01*
X019586Y009888D02*
X019601Y009888D01*
X019602Y010046D02*
X019544Y010046D01*
X019501Y010046D02*
X019457Y010046D01*
X019604Y010839D02*
X018771Y010839D01*
X018723Y011156D02*
X019605Y011156D01*
X019501Y011156D02*
X018528Y011156D01*
X018737Y011314D02*
X019501Y011314D01*
X019605Y011314D02*
X018821Y011314D01*
X018831Y011473D02*
X019606Y011473D01*
X019501Y011473D02*
X018751Y011473D01*
X018751Y011631D02*
X019501Y011631D01*
X019606Y011631D02*
X018831Y011631D01*
X018831Y011790D02*
X019607Y011790D01*
X019501Y011790D02*
X018751Y011790D01*
X018792Y011948D02*
X019607Y011948D01*
X019501Y011948D02*
X018696Y011948D01*
X018717Y012107D02*
X019501Y012107D01*
X019608Y012107D02*
X018804Y012107D01*
X018777Y012265D02*
X019501Y012265D01*
X019608Y012265D02*
X018857Y012265D01*
X018857Y012424D02*
X019608Y012424D01*
X019501Y012424D02*
X018777Y012424D01*
X018777Y012582D02*
X019501Y012582D01*
X019609Y012582D02*
X018857Y012582D01*
X018857Y012741D02*
X019609Y012741D01*
X019501Y012741D02*
X018777Y012741D01*
X018777Y012899D02*
X019501Y012899D01*
X019610Y012899D02*
X018857Y012899D01*
X018777Y013058D02*
X019501Y013058D01*
X019610Y013058D02*
X019044Y013058D01*
X019085Y013216D02*
X019501Y013216D01*
X019611Y013216D02*
X019173Y013216D01*
X019193Y013375D02*
X019611Y013375D01*
X019501Y013375D02*
X019113Y013375D01*
X019113Y013533D02*
X019501Y013533D01*
X019612Y013533D02*
X019193Y013533D01*
X009015Y011314D02*
X006352Y011314D01*
X006352Y011790D02*
X006931Y011790D01*
X007417Y011790D02*
X007931Y011790D01*
X007823Y011948D02*
X007526Y011948D01*
X007639Y011948D02*
X007710Y011948D01*
X007695Y012107D02*
X007654Y012107D01*
X008417Y011790D02*
X008931Y011790D01*
X008823Y011948D02*
X008526Y011948D01*
X008639Y011948D02*
X008710Y011948D01*
X008695Y012107D02*
X008654Y012107D01*
X007848Y006164D02*
X006824Y005141D01*
X006824Y001629D01*
X007143Y001633D01*
X006700Y001012D02*
X006586Y001012D01*
X006163Y001012D02*
X006123Y001012D01*
X006123Y001170D02*
X006163Y001170D01*
X006163Y001329D02*
X006123Y001329D01*
X006123Y001487D02*
X006163Y001487D01*
X006333Y002438D02*
X006504Y002438D01*
X008955Y000830D02*
X009035Y000797D01*
X009250Y000797D01*
X009449Y000879D01*
X009601Y001031D01*
X009643Y001133D01*
X009685Y001031D01*
X009837Y000879D01*
X010035Y000797D01*
X010250Y000797D01*
X010449Y000879D01*
X010601Y001031D01*
X010643Y001133D01*
X010685Y001031D01*
X010837Y000879D01*
X011035Y000797D01*
X011193Y000797D01*
X011193Y000716D01*
X011196Y000690D01*
X011202Y000663D01*
X011211Y000638D01*
X011222Y000614D01*
X011223Y000613D01*
X008925Y000613D01*
X008925Y000614D01*
X008937Y000638D01*
X008946Y000663D01*
X008952Y000690D01*
X008955Y000716D01*
X008955Y000830D01*
X008953Y000695D02*
X011195Y000695D01*
X010899Y000853D02*
X010387Y000853D01*
X010582Y001012D02*
X010704Y001012D01*
X009899Y000853D02*
X009387Y000853D01*
X009582Y001012D02*
X009704Y001012D01*
X009722Y002280D02*
X009563Y002280D01*
X009838Y002438D02*
X009943Y002438D01*
X009861Y002597D02*
X012438Y002597D01*
X012438Y002755D02*
X009861Y002755D01*
X009861Y002914D02*
X012438Y002914D01*
X012509Y003072D02*
X009821Y003072D01*
X010343Y002438D02*
X010943Y002438D01*
X010722Y002280D02*
X010563Y002280D01*
X011343Y002438D02*
X011943Y002438D01*
X011722Y002280D02*
X011563Y002280D01*
X012343Y002438D02*
X012446Y002438D01*
X012533Y002310D02*
X012539Y002306D01*
X012562Y002291D01*
X012586Y002279D01*
X012611Y002271D01*
X012638Y002265D01*
X012664Y002262D01*
X012704Y002262D01*
X012685Y002243D01*
X012643Y002141D01*
X012601Y002243D01*
X012533Y002310D01*
X012563Y002280D02*
X012585Y002280D01*
X013582Y002262D02*
X013704Y002262D01*
X013685Y002243D01*
X013643Y002141D01*
X013601Y002243D01*
X013582Y002262D01*
X014034Y002597D02*
X015451Y002597D01*
X015343Y002438D02*
X015609Y002438D01*
X015563Y002280D02*
X015717Y002280D01*
X014943Y002438D02*
X014343Y002438D01*
X014563Y002280D02*
X014722Y002280D01*
X014465Y002755D02*
X014034Y002755D01*
X014034Y002914D02*
X014331Y002914D01*
X014299Y003072D02*
X013962Y003072D01*
X014939Y003706D02*
X015761Y003706D01*
X017301Y004657D02*
X018803Y004657D01*
X019662Y003231D02*
X017861Y003231D01*
X019662Y003231D01*
X012295Y000815D02*
X012295Y000716D01*
X012298Y000690D01*
X012304Y000663D01*
X012313Y000638D01*
X012325Y000614D01*
X012325Y000613D01*
X011996Y000613D01*
X011996Y000614D01*
X012008Y000638D01*
X012017Y000663D01*
X012023Y000690D01*
X012026Y000716D01*
X012026Y000801D01*
X012035Y000797D01*
X012250Y000797D01*
X012295Y000815D01*
X012297Y000695D02*
X012023Y000695D01*
M02*
