G75*
%MOIN*%
%OFA0B0*%
%FSLAX24Y24*%
%IPPOS*%
%LPD*%
%AMOC8*
5,1,8,0,0,1.08239X$1,22.5*
%
%ADD10C,0.0160*%
%ADD11C,0.0050*%
%ADD12C,0.0100*%
%ADD13R,0.0760X0.2100*%
%ADD14C,0.0600*%
%ADD15R,0.0984X0.0787*%
%ADD16R,0.1299X0.0787*%
%ADD17R,0.1220X0.0197*%
%ADD18C,0.0000*%
%ADD19R,0.0472X0.0394*%
%ADD20R,0.0394X0.0472*%
%ADD21R,0.0591X0.1024*%
%ADD22R,0.0512X0.0630*%
%ADD23C,0.0594*%
%ADD24R,0.0500X0.0220*%
%ADD25R,0.0220X0.0500*%
D10*
X000328Y000180D02*
X019974Y000180D01*
X020013Y014038D01*
X000407Y013999D01*
X000328Y000180D01*
X001269Y001444D02*
X001269Y004948D01*
X001269Y007900D01*
X001363Y007995D01*
X002111Y007995D02*
X002111Y007373D01*
X002336Y007149D01*
X002643Y007149D01*
X003119Y007625D01*
X004458Y007625D02*
X004458Y005853D01*
X004737Y005574D01*
X004737Y003605D01*
X006588Y003605D01*
X006651Y003542D01*
X006651Y003089D01*
X006651Y002952D01*
X007139Y002463D01*
X007139Y001637D01*
X007143Y001633D01*
X006143Y001633D02*
X006143Y002278D01*
X005840Y002582D01*
X005840Y003066D01*
X005863Y003089D01*
X004737Y003054D02*
X004580Y002897D01*
X003647Y002897D01*
X003631Y002881D01*
X003631Y002566D02*
X003592Y002526D01*
X003592Y001444D01*
X001269Y001444D01*
X003592Y001444D02*
X005954Y001444D01*
X006143Y001633D01*
X007844Y002861D02*
X006627Y004078D01*
X005289Y004078D01*
X005092Y004274D01*
X005092Y009314D01*
X006981Y011125D01*
X007296Y011086D01*
X009226Y009196D01*
X009541Y008960D01*
X009541Y007739D01*
X009977Y007739D01*
X009977Y007424D02*
X009304Y007424D01*
X009186Y007542D01*
X009186Y007975D01*
X008674Y008487D01*
X008714Y009235D01*
X007336Y010574D01*
X006981Y010574D01*
X005564Y009274D01*
X005564Y008251D01*
X005879Y007936D01*
X006115Y007936D01*
X006096Y007916D01*
X006096Y005680D01*
X006096Y007877D01*
X006115Y007897D01*
X006147Y007975D02*
X006147Y005731D01*
X006096Y005680D01*
X006113Y004910D02*
X006096Y004893D01*
X006113Y004910D02*
X007493Y004910D01*
X009037Y004910D01*
X009977Y005849D01*
X009977Y006164D02*
X009937Y006204D01*
X008714Y006204D01*
X008714Y007739D01*
X007769Y008684D01*
X007493Y008710D01*
X007716Y008763D01*
X006147Y008763D01*
X004993Y010711D02*
X004041Y010554D01*
X004993Y010711D02*
X005919Y011637D01*
X005919Y012975D01*
X006509Y013566D01*
X010643Y013566D01*
X010722Y013408D01*
X010722Y012109D01*
X010485Y011873D01*
X010485Y011597D01*
X011509Y010574D01*
X011509Y008642D01*
X011273Y008487D02*
X011194Y008408D01*
X011194Y008642D01*
X011273Y008487D02*
X011273Y009708D01*
X009541Y011440D01*
X009541Y011912D01*
X010174Y012546D01*
X010174Y012660D01*
X009174Y012660D02*
X009147Y012948D01*
X009147Y012621D01*
X008517Y011991D01*
X008517Y011676D01*
X010879Y009314D01*
X010879Y008642D01*
X010564Y008642D02*
X010564Y008960D01*
X007887Y011637D01*
X007887Y012688D01*
X008174Y012660D01*
X007174Y012660D02*
X007174Y011837D01*
X009934Y009078D01*
X009934Y008096D01*
X009977Y008054D01*
X009977Y007424D02*
X010840Y007424D01*
X011155Y007109D01*
X013357Y007109D01*
X014147Y007109D01*
X015485Y008448D01*
X015604Y008448D01*
X016470Y008448D01*
X016824Y008802D01*
X017572Y008802D01*
X017926Y008448D01*
X018206Y008448D01*
X018308Y008345D01*
X018793Y008172D02*
X018478Y007857D01*
X016903Y007857D01*
X016391Y007345D01*
X016155Y007345D01*
X015997Y007188D01*
X015131Y007188D01*
X014422Y006479D01*
X013357Y006479D01*
X013317Y006204D02*
X013357Y006164D01*
X013396Y006125D01*
X014462Y006125D01*
X015131Y006834D01*
X017808Y006834D01*
X017808Y006873D01*
X017808Y006834D02*
X017808Y004511D01*
X018163Y004156D01*
X018635Y004156D01*
X019068Y004589D01*
X019068Y008881D01*
X018604Y009345D01*
X018308Y009345D01*
X017808Y008999D02*
X017808Y010652D01*
X019422Y012267D01*
X019501Y013054D01*
X019344Y013684D01*
X012611Y013684D01*
X012218Y013290D01*
X012218Y012798D01*
X012237Y012660D01*
X012237Y012444D01*
X012730Y012188D02*
X012375Y011794D01*
X011509Y011794D01*
X011312Y011991D01*
X011312Y012586D01*
X011237Y012660D01*
X012730Y012188D02*
X012730Y013211D01*
X012966Y013408D01*
X019068Y013408D01*
X019186Y013290D01*
X019186Y012463D01*
X018438Y011794D01*
X018478Y011834D01*
X017848Y011243D01*
X017060Y011243D01*
X014777Y008960D01*
X014777Y008251D01*
X013950Y007424D01*
X013357Y007424D01*
X013357Y007739D02*
X013832Y007739D01*
X014029Y007936D01*
X014029Y008211D01*
X013714Y008526D01*
X013714Y008920D01*
X014383Y009589D01*
X014777Y009589D01*
X016745Y011558D01*
X017375Y011558D01*
X018237Y012420D01*
X018237Y012660D01*
X017237Y012660D02*
X017237Y012601D01*
X014816Y010180D01*
X014422Y010180D01*
X013359Y009117D01*
X013359Y008057D01*
X013357Y008054D01*
X012769Y008642D02*
X012769Y009432D01*
X014226Y010889D01*
X014698Y010889D01*
X016237Y012428D01*
X016237Y012660D01*
X015289Y012885D02*
X015289Y012188D01*
X014541Y011440D01*
X014186Y011440D01*
X012454Y009708D01*
X012454Y008642D01*
X012139Y008642D02*
X012139Y010219D01*
X013793Y011873D01*
X014147Y011873D01*
X014304Y012030D01*
X014304Y012869D01*
X014237Y012660D01*
X013241Y012664D02*
X013237Y012660D01*
X013241Y012664D02*
X013044Y011755D01*
X011824Y010534D01*
X011824Y008642D01*
X010016Y007070D02*
X009977Y007109D01*
X010016Y007070D02*
X010485Y007070D01*
X010525Y007030D01*
X010525Y006715D01*
X010289Y006479D01*
X009977Y006479D01*
X012021Y006479D01*
X012296Y006204D01*
X013317Y006204D01*
X013357Y005849D02*
X014856Y005849D01*
X015170Y006164D01*
X017127Y006164D01*
X017308Y006345D01*
X017001Y005652D02*
X017308Y005345D01*
X017143Y005180D01*
X017143Y001637D01*
X016352Y001845D02*
X016143Y001637D01*
X016352Y001845D02*
X016352Y003881D01*
X015840Y004393D01*
X013005Y004393D01*
X012454Y004944D01*
X012454Y005262D01*
X012769Y005262D02*
X015095Y005262D01*
X015485Y005652D01*
X017001Y005652D01*
X015143Y003554D02*
X014777Y003920D01*
X013005Y003920D01*
X012257Y004668D01*
X012257Y004708D01*
X012139Y004826D01*
X012139Y005262D01*
X011824Y005262D02*
X011824Y004708D01*
X013084Y003448D01*
X013674Y003448D01*
X014143Y002979D01*
X014143Y001637D01*
X015143Y001637D02*
X015143Y003554D01*
X013143Y002995D02*
X011509Y004629D01*
X011509Y005262D01*
X011194Y005262D02*
X011194Y004314D01*
X012143Y003365D01*
X012143Y001637D01*
X013143Y001637D02*
X013143Y002995D01*
X011143Y003814D02*
X011143Y001637D01*
X010143Y001637D02*
X010143Y004840D01*
X010564Y005262D01*
X010879Y005262D02*
X010879Y004078D01*
X011143Y003814D01*
X009143Y001637D02*
X007844Y002861D01*
X004737Y003054D02*
X004737Y003605D01*
X003592Y004948D02*
X001269Y004948D01*
X009186Y006912D02*
X009304Y006794D01*
X009977Y006794D01*
X009186Y006912D02*
X009186Y007306D01*
X009304Y007424D01*
X013357Y006794D02*
X014304Y006794D01*
X015170Y007660D01*
X015604Y007660D01*
X017808Y008999D02*
X018005Y008802D01*
X018674Y008802D01*
X018793Y008684D01*
X018793Y008172D01*
X015237Y012660D02*
X015289Y012885D01*
D11*
X004386Y013169D02*
X004295Y013079D01*
X004115Y013079D01*
X004025Y013169D01*
X004025Y013259D01*
X004115Y013350D01*
X004295Y013350D01*
X004386Y013259D01*
X004386Y013169D01*
X004295Y013350D02*
X004386Y013440D01*
X004386Y013530D01*
X004295Y013620D01*
X004115Y013620D01*
X004025Y013530D01*
X004025Y013440D01*
X004115Y013350D01*
X003842Y013350D02*
X003842Y013079D01*
X003571Y013079D01*
X003481Y013169D01*
X003571Y013259D01*
X003842Y013259D01*
X003842Y013350D02*
X003752Y013440D01*
X003571Y013440D01*
X003298Y013440D02*
X003027Y013440D01*
X002937Y013350D01*
X002937Y013169D01*
X003027Y013079D01*
X003298Y013079D01*
X003298Y012989D02*
X003298Y013440D01*
X003298Y012989D02*
X003208Y012899D01*
X003118Y012899D01*
X002664Y013079D02*
X002484Y013079D01*
X002394Y013169D01*
X002394Y013350D01*
X002484Y013440D01*
X002664Y013440D01*
X002754Y013350D01*
X002754Y013259D01*
X002394Y013259D01*
X002210Y013350D02*
X002120Y013440D01*
X002030Y013350D01*
X002030Y013079D01*
X001850Y013079D02*
X001850Y013440D01*
X001940Y013440D01*
X002030Y013350D01*
X002210Y013350D02*
X002210Y013079D01*
X001668Y013079D02*
X001577Y013169D01*
X001577Y013530D01*
X001487Y013440D02*
X001668Y013440D01*
X001304Y013440D02*
X001304Y013079D01*
X001304Y013350D02*
X000944Y013350D01*
X000944Y013440D02*
X001124Y013620D01*
X001304Y013440D01*
X000944Y013440D02*
X000944Y013079D01*
D12*
X006627Y013999D02*
X006706Y013999D01*
D13*
X007493Y008710D03*
X007493Y004910D03*
D14*
X007143Y001933D02*
X007143Y001333D01*
X006143Y001333D02*
X006143Y001933D01*
X009143Y001937D02*
X009143Y001337D01*
X010143Y001337D02*
X010143Y001937D01*
X011143Y001937D02*
X011143Y001337D01*
X012143Y001337D02*
X012143Y001937D01*
X013143Y001937D02*
X013143Y001337D01*
X014143Y001337D02*
X014143Y001937D01*
X015143Y001937D02*
X015143Y001337D01*
X016143Y001337D02*
X016143Y001937D01*
X017143Y001937D02*
X017143Y001337D01*
X018143Y001337D02*
X018143Y001937D01*
X004341Y010554D02*
X003741Y010554D01*
X001781Y010554D02*
X001181Y010554D01*
X001181Y012334D02*
X001781Y012334D01*
X003741Y012334D02*
X004341Y012334D01*
X007174Y012360D02*
X007174Y012960D01*
X008174Y012960D02*
X008174Y012360D01*
X009174Y012360D02*
X009174Y012960D01*
X010174Y012960D02*
X010174Y012360D01*
X011237Y012360D02*
X011237Y012960D01*
X012237Y012960D02*
X012237Y012360D01*
X013237Y012360D02*
X013237Y012960D01*
X014237Y012960D02*
X014237Y012360D01*
X015237Y012360D02*
X015237Y012960D01*
X016237Y012960D02*
X016237Y012360D01*
X017237Y012360D02*
X017237Y012960D01*
X018237Y012960D02*
X018237Y012360D01*
D15*
X001269Y004948D03*
X001269Y001444D03*
D16*
X003592Y001444D03*
X003592Y004948D03*
D17*
X003631Y003826D03*
X003631Y003511D03*
X003631Y003196D03*
X003631Y002881D03*
X003631Y002566D03*
D18*
X002273Y002330D02*
X002275Y002356D01*
X002281Y002382D01*
X002291Y002407D01*
X002304Y002430D01*
X002320Y002450D01*
X002340Y002468D01*
X002362Y002483D01*
X002385Y002495D01*
X002411Y002503D01*
X002437Y002507D01*
X002463Y002507D01*
X002489Y002503D01*
X002515Y002495D01*
X002539Y002483D01*
X002560Y002468D01*
X002580Y002450D01*
X002596Y002430D01*
X002609Y002407D01*
X002619Y002382D01*
X002625Y002356D01*
X002627Y002330D01*
X002625Y002304D01*
X002619Y002278D01*
X002609Y002253D01*
X002596Y002230D01*
X002580Y002210D01*
X002560Y002192D01*
X002538Y002177D01*
X002515Y002165D01*
X002489Y002157D01*
X002463Y002153D01*
X002437Y002153D01*
X002411Y002157D01*
X002385Y002165D01*
X002361Y002177D01*
X002340Y002192D01*
X002320Y002210D01*
X002304Y002230D01*
X002291Y002253D01*
X002281Y002278D01*
X002275Y002304D01*
X002273Y002330D01*
X002273Y004062D02*
X002275Y004088D01*
X002281Y004114D01*
X002291Y004139D01*
X002304Y004162D01*
X002320Y004182D01*
X002340Y004200D01*
X002362Y004215D01*
X002385Y004227D01*
X002411Y004235D01*
X002437Y004239D01*
X002463Y004239D01*
X002489Y004235D01*
X002515Y004227D01*
X002539Y004215D01*
X002560Y004200D01*
X002580Y004182D01*
X002596Y004162D01*
X002609Y004139D01*
X002619Y004114D01*
X002625Y004088D01*
X002627Y004062D01*
X002625Y004036D01*
X002619Y004010D01*
X002609Y003985D01*
X002596Y003962D01*
X002580Y003942D01*
X002560Y003924D01*
X002538Y003909D01*
X002515Y003897D01*
X002489Y003889D01*
X002463Y003885D01*
X002437Y003885D01*
X002411Y003889D01*
X002385Y003897D01*
X002361Y003909D01*
X002340Y003924D01*
X002320Y003942D01*
X002304Y003962D01*
X002291Y003985D01*
X002281Y004010D01*
X002275Y004036D01*
X002273Y004062D01*
D19*
X006096Y004893D03*
X006096Y005680D03*
X006147Y007975D03*
X006147Y008763D03*
X015604Y008448D03*
X015604Y007660D03*
D20*
X006651Y003089D03*
X005863Y003089D03*
D21*
X004458Y007625D03*
X003119Y007625D03*
D22*
X002111Y007995D03*
X001363Y007995D03*
D23*
X017308Y008345D03*
X018308Y008345D03*
X018308Y007345D03*
X017308Y007345D03*
X017308Y006345D03*
X018308Y006345D03*
X018308Y005345D03*
X017308Y005345D03*
X017308Y009345D03*
X018308Y009345D03*
D24*
X013357Y008054D03*
X013357Y007739D03*
X013357Y007424D03*
X013357Y007109D03*
X013357Y006794D03*
X013357Y006479D03*
X013357Y006164D03*
X013357Y005849D03*
X009977Y005849D03*
X009977Y006164D03*
X009977Y006479D03*
X009977Y006794D03*
X009977Y007109D03*
X009977Y007424D03*
X009977Y007739D03*
X009977Y008054D03*
D25*
X010564Y008642D03*
X010879Y008642D03*
X011194Y008642D03*
X011509Y008642D03*
X011824Y008642D03*
X012139Y008642D03*
X012454Y008642D03*
X012769Y008642D03*
X012769Y005262D03*
X012454Y005262D03*
X012139Y005262D03*
X011824Y005262D03*
X011509Y005262D03*
X011194Y005262D03*
X010879Y005262D03*
X010564Y005262D03*
M02*
