%
M48
M72
T01C0.0354
T02C0.0394
T03C0.0400
%
T01
X2450Y2330
X2450Y4062
T02
X17308Y5345
X18308Y5345
X18308Y6345
X17308Y6345
X17308Y7345
X18308Y7345
X18308Y8345
X17308Y8345
X17308Y9345
X18308Y9345
T03
X18237Y12660
X17237Y12660
X16237Y12660
X15237Y12660
X14237Y12660
X13237Y12660
X12237Y12660
X11237Y12660
X10174Y12660
X9174Y12660
X8174Y12660
X7174Y12660
X4041Y12334
X4041Y10554
X1481Y10554
X1481Y12334
X6143Y1633
X7143Y1633
X9143Y1637
X10143Y1637
X11143Y1637
X12143Y1637
X13143Y1637
X14143Y1637
X15143Y1637
X16143Y1637
X17143Y1637
X18143Y1637
M30
