G75*
%MOIN*%
%OFA0B0*%
%FSLAX24Y24*%
%IPPOS*%
%LPD*%
%AMOC8*
5,1,8,0,0,1.08239X$1,22.5*
%
%ADD10R,0.0840X0.2180*%
%ADD11C,0.0680*%
%ADD12R,0.1064X0.0867*%
%ADD13R,0.1379X0.0867*%
%ADD14R,0.1300X0.0277*%
%ADD15C,0.0434*%
%ADD16R,0.0552X0.0474*%
%ADD17R,0.0474X0.0552*%
%ADD18R,0.0669X0.1102*%
%ADD19R,0.0592X0.0710*%
%ADD20C,0.0674*%
%ADD21R,0.0580X0.0300*%
%ADD22R,0.0300X0.0580*%
D10*
X007493Y004910D03*
X007493Y008710D03*
D11*
X004341Y010554D02*
X003741Y010554D01*
X001781Y010554D02*
X001181Y010554D01*
X001181Y012334D02*
X001781Y012334D01*
X003741Y012334D02*
X004341Y012334D01*
X007174Y012360D02*
X007174Y012960D01*
X008174Y012960D02*
X008174Y012360D01*
X009174Y012360D02*
X009174Y012960D01*
X010174Y012960D02*
X010174Y012360D01*
X011237Y012360D02*
X011237Y012960D01*
X012237Y012960D02*
X012237Y012360D01*
X013237Y012360D02*
X013237Y012960D01*
X014237Y012960D02*
X014237Y012360D01*
X015237Y012360D02*
X015237Y012960D01*
X016237Y012960D02*
X016237Y012360D01*
X017237Y012360D02*
X017237Y012960D01*
X018237Y012960D02*
X018237Y012360D01*
X018143Y001937D02*
X018143Y001337D01*
X017143Y001337D02*
X017143Y001937D01*
X016143Y001937D02*
X016143Y001337D01*
X015143Y001337D02*
X015143Y001937D01*
X014143Y001937D02*
X014143Y001337D01*
X013143Y001337D02*
X013143Y001937D01*
X012143Y001937D02*
X012143Y001337D01*
X011143Y001337D02*
X011143Y001937D01*
X010143Y001937D02*
X010143Y001337D01*
X009143Y001337D02*
X009143Y001937D01*
X007143Y001933D02*
X007143Y001333D01*
X006143Y001333D02*
X006143Y001933D01*
D12*
X001269Y001444D03*
X001269Y004948D03*
D13*
X003592Y004948D03*
X003592Y001444D03*
D14*
X003631Y002566D03*
X003631Y002881D03*
X003631Y003196D03*
X003631Y003511D03*
X003631Y003826D03*
D15*
X002450Y004062D03*
X002450Y002330D03*
D16*
X006096Y004893D03*
X006096Y005680D03*
X006147Y007975D03*
X006147Y008763D03*
X015604Y008448D03*
X015604Y007660D03*
D17*
X006651Y003089D03*
X005863Y003089D03*
D18*
X004379Y007625D03*
X003198Y007625D03*
D19*
X002111Y007995D03*
X001363Y007995D03*
D20*
X017308Y008345D03*
X018308Y008345D03*
X018308Y007345D03*
X017308Y007345D03*
X017308Y006345D03*
X018308Y006345D03*
X018308Y005345D03*
X017308Y005345D03*
X017308Y009345D03*
X018308Y009345D03*
D21*
X013357Y008054D03*
X013357Y007739D03*
X013357Y007424D03*
X013357Y007109D03*
X013357Y006794D03*
X013357Y006479D03*
X013357Y006164D03*
X013357Y005849D03*
X009977Y005849D03*
X009977Y006164D03*
X009977Y006479D03*
X009977Y006794D03*
X009977Y007109D03*
X009977Y007424D03*
X009977Y007739D03*
X009977Y008054D03*
D22*
X010564Y008642D03*
X010879Y008642D03*
X011194Y008642D03*
X011509Y008642D03*
X011824Y008642D03*
X012139Y008642D03*
X012454Y008642D03*
X012769Y008642D03*
X012769Y005262D03*
X012454Y005262D03*
X012139Y005262D03*
X011824Y005262D03*
X011509Y005262D03*
X011194Y005262D03*
X010879Y005262D03*
X010564Y005262D03*
M02*
