G75*
%MOIN*%
%OFA0B0*%
%FSLAX24Y24*%
%IPPOS*%
%LPD*%
%AMOC8*
5,1,8,0,0,1.08239X$1,22.5*
%
%ADD10C,0.0050*%
%ADD11R,0.0760X0.2100*%
%ADD12C,0.0600*%
%ADD13R,0.0984X0.0787*%
%ADD14R,0.1299X0.0787*%
%ADD15R,0.1220X0.0197*%
%ADD16R,0.0472X0.0394*%
%ADD17R,0.0394X0.0472*%
%ADD18R,0.0591X0.1024*%
%ADD19R,0.0512X0.0630*%
%ADD20C,0.0594*%
%ADD21R,0.0500X0.0220*%
%ADD22R,0.0220X0.0500*%
%ADD23C,0.0160*%
D10*
X017167Y012899D02*
X017077Y012989D01*
X017077Y013440D01*
X017347Y013440D01*
X017438Y013350D01*
X017438Y013169D01*
X017347Y013079D01*
X017077Y013079D01*
X017167Y012899D02*
X017257Y012899D01*
X016894Y013169D02*
X016804Y013259D01*
X016533Y013259D01*
X016533Y013350D02*
X016533Y013079D01*
X016804Y013079D01*
X016894Y013169D01*
X016623Y013440D02*
X016533Y013350D01*
X016623Y013440D02*
X016804Y013440D01*
X016350Y013440D02*
X016350Y013530D01*
X016260Y013620D01*
X016080Y013620D01*
X015989Y013530D01*
X015989Y013440D01*
X016080Y013350D01*
X016260Y013350D01*
X016350Y013440D01*
X016260Y013350D02*
X016350Y013259D01*
X016350Y013169D01*
X016260Y013079D01*
X016080Y013079D01*
X015989Y013169D01*
X015989Y013259D01*
X016080Y013350D01*
X017621Y013350D02*
X017621Y013259D01*
X017981Y013259D01*
X017981Y013169D02*
X017981Y013350D01*
X017891Y013440D01*
X017711Y013440D01*
X017621Y013350D01*
X017711Y013079D02*
X017891Y013079D01*
X017981Y013169D01*
X018164Y013079D02*
X018164Y013350D01*
X018255Y013440D01*
X018345Y013350D01*
X018345Y013079D01*
X018525Y013079D02*
X018525Y013440D01*
X018435Y013440D01*
X018345Y013350D01*
X018707Y013440D02*
X018888Y013440D01*
X018797Y013530D02*
X018797Y013169D01*
X018707Y013079D01*
X019071Y013079D02*
X019071Y013440D01*
X019251Y013620D01*
X019431Y013440D01*
X019431Y013079D01*
X019431Y013350D02*
X019071Y013350D01*
D11*
X012882Y008710D03*
X012882Y004910D03*
D12*
X002232Y001937D02*
X002232Y001337D01*
X003232Y001337D02*
X003232Y001937D01*
X004232Y001937D02*
X004232Y001337D01*
X005232Y001337D02*
X005232Y001937D01*
X006232Y001937D02*
X006232Y001337D01*
X007232Y001337D02*
X007232Y001937D01*
X008232Y001937D02*
X008232Y001337D01*
X009232Y001337D02*
X009232Y001937D01*
X010232Y001937D02*
X010232Y001337D01*
X011232Y001337D02*
X011232Y001937D01*
X013232Y001933D02*
X013232Y001333D01*
X014232Y001333D02*
X014232Y001933D01*
X016034Y010554D02*
X016634Y010554D01*
X018594Y010554D02*
X019194Y010554D01*
X019194Y012334D02*
X018594Y012334D01*
X016634Y012334D02*
X016034Y012334D01*
X013201Y012360D02*
X013201Y012960D01*
X012201Y012960D02*
X012201Y012360D01*
X011201Y012360D02*
X011201Y012960D01*
X010201Y012960D02*
X010201Y012360D01*
X009138Y012360D02*
X009138Y012960D01*
X008138Y012960D02*
X008138Y012360D01*
X007138Y012360D02*
X007138Y012960D01*
X006138Y012960D02*
X006138Y012360D01*
X005138Y012360D02*
X005138Y012960D01*
X004138Y012960D02*
X004138Y012360D01*
X003138Y012360D02*
X003138Y012960D01*
X002138Y012960D02*
X002138Y012360D01*
D13*
X019106Y004948D03*
X019106Y001444D03*
D14*
X016783Y001444D03*
X016783Y004948D03*
D15*
X016744Y003826D03*
X016744Y003511D03*
X016744Y003196D03*
X016744Y002881D03*
X016744Y002566D03*
D16*
X014279Y004893D03*
X014279Y005680D03*
X014228Y007975D03*
X014228Y008763D03*
X004771Y008448D03*
X004771Y007660D03*
D17*
X013724Y003089D03*
X014512Y003089D03*
D18*
X015917Y007625D03*
X017256Y007625D03*
D19*
X018264Y007995D03*
X019012Y007995D03*
D20*
X003067Y008345D03*
X002067Y008345D03*
X002067Y007345D03*
X003067Y007345D03*
X003067Y006345D03*
X002067Y006345D03*
X002067Y005345D03*
X003067Y005345D03*
X003067Y009345D03*
X002067Y009345D03*
D21*
X007018Y008054D03*
X007018Y007739D03*
X007018Y007424D03*
X007018Y007109D03*
X007018Y006794D03*
X007018Y006479D03*
X007018Y006164D03*
X007018Y005849D03*
X010398Y005849D03*
X010398Y006164D03*
X010398Y006479D03*
X010398Y006794D03*
X010398Y007109D03*
X010398Y007424D03*
X010398Y007739D03*
X010398Y008054D03*
D22*
X009811Y008642D03*
X009496Y008642D03*
X009181Y008642D03*
X008866Y008642D03*
X008551Y008642D03*
X008236Y008642D03*
X007921Y008642D03*
X007606Y008642D03*
X007606Y005262D03*
X007921Y005262D03*
X008236Y005262D03*
X008551Y005262D03*
X008866Y005262D03*
X009181Y005262D03*
X009496Y005262D03*
X009811Y005262D03*
D23*
X010232Y004840D01*
X010232Y001637D01*
X009232Y001637D02*
X009232Y003814D01*
X009496Y004078D01*
X009496Y005262D01*
X009181Y005262D02*
X009181Y004314D01*
X008232Y003365D01*
X008232Y001637D01*
X007232Y001637D02*
X007232Y002995D01*
X008866Y004629D01*
X008866Y005262D01*
X008551Y005262D02*
X008551Y004708D01*
X007291Y003448D01*
X006701Y003448D01*
X006232Y002979D01*
X006232Y001637D01*
X005232Y001637D02*
X005232Y003554D01*
X005598Y003920D01*
X007370Y003920D01*
X008118Y004668D01*
X008118Y004708D01*
X008236Y004826D01*
X008236Y005262D01*
X007921Y005262D02*
X007921Y004944D01*
X007370Y004393D01*
X004535Y004393D01*
X004023Y003881D01*
X004023Y001845D01*
X004232Y001637D01*
X003232Y001637D02*
X003232Y005180D01*
X003067Y005345D01*
X003374Y005652D01*
X004890Y005652D01*
X005280Y005262D01*
X007606Y005262D01*
X007018Y005849D02*
X005519Y005849D01*
X005204Y006164D01*
X003248Y006164D01*
X003067Y006345D01*
X002567Y006834D02*
X005244Y006834D01*
X005913Y006125D01*
X006979Y006125D01*
X007018Y006164D01*
X007058Y006204D01*
X008078Y006204D01*
X008354Y006479D01*
X010398Y006479D01*
X010086Y006479D01*
X009850Y006715D01*
X009850Y007030D01*
X009890Y007070D01*
X010359Y007070D01*
X010398Y007109D01*
X010398Y006794D02*
X011071Y006794D01*
X011189Y006912D01*
X011189Y007306D01*
X011071Y007424D01*
X011189Y007542D01*
X011189Y007975D01*
X011701Y008487D01*
X011661Y009235D01*
X013039Y010574D01*
X013393Y010574D01*
X014811Y009274D01*
X014811Y008251D01*
X014496Y007936D01*
X014260Y007936D01*
X014279Y007916D01*
X014279Y005680D01*
X014279Y007877D01*
X014260Y007897D01*
X014228Y007975D02*
X014228Y005731D01*
X014279Y005680D01*
X014262Y004910D02*
X014279Y004893D01*
X014262Y004910D02*
X012882Y004910D01*
X011338Y004910D01*
X010398Y005849D01*
X010398Y006164D02*
X010438Y006204D01*
X011661Y006204D01*
X011661Y007739D01*
X012606Y008684D01*
X012882Y008710D01*
X012659Y008763D01*
X014228Y008763D01*
X015283Y009314D02*
X013393Y011125D01*
X013078Y011086D01*
X011149Y009196D01*
X010834Y008960D01*
X010834Y007739D01*
X010398Y007739D01*
X010398Y007424D02*
X011071Y007424D01*
X010398Y007424D02*
X009535Y007424D01*
X009220Y007109D01*
X007018Y007109D01*
X006228Y007109D01*
X004890Y008448D01*
X004771Y008448D01*
X003905Y008448D01*
X003551Y008802D01*
X002803Y008802D01*
X002449Y008448D01*
X002169Y008448D01*
X002067Y008345D01*
X001582Y008172D02*
X001897Y007857D01*
X003472Y007857D01*
X003984Y007345D01*
X004220Y007345D01*
X004378Y007188D01*
X005244Y007188D01*
X005952Y006479D01*
X007018Y006479D01*
X007018Y006794D02*
X006071Y006794D01*
X005204Y007660D01*
X004771Y007660D01*
X005598Y008251D02*
X005598Y008960D01*
X003315Y011243D01*
X002527Y011243D01*
X001897Y011834D01*
X001937Y011794D01*
X001189Y012463D01*
X001189Y013290D01*
X001307Y013408D01*
X007409Y013408D01*
X007645Y013211D01*
X007645Y012188D01*
X008000Y011794D01*
X008866Y011794D01*
X009063Y011991D01*
X009063Y012586D01*
X009138Y012660D01*
X009653Y012109D02*
X009653Y013408D01*
X009732Y013566D01*
X013866Y013566D01*
X014456Y012975D01*
X014456Y011637D01*
X015382Y010711D01*
X016334Y010554D01*
X015283Y009314D02*
X015283Y004274D01*
X015086Y004078D01*
X013748Y004078D01*
X012531Y002861D01*
X011232Y001637D01*
X013232Y001633D02*
X013236Y001637D01*
X013236Y002463D01*
X013724Y002952D01*
X013724Y003089D01*
X013724Y003542D01*
X013787Y003605D01*
X015638Y003605D01*
X015638Y003054D01*
X015795Y002897D01*
X016728Y002897D01*
X016744Y002881D01*
X016744Y002566D02*
X016783Y002526D01*
X016783Y001444D01*
X019106Y001444D01*
X019106Y004948D01*
X019106Y007900D01*
X019012Y007995D01*
X018264Y007995D02*
X018264Y007373D01*
X018039Y007149D01*
X017732Y007149D01*
X017256Y007625D01*
X015917Y007625D02*
X015917Y005853D01*
X015638Y005574D01*
X015638Y003605D01*
X014535Y003066D02*
X014512Y003089D01*
X014535Y003066D02*
X014535Y002582D01*
X014232Y002278D01*
X014232Y001633D01*
X014421Y001444D01*
X016783Y001444D01*
X016783Y004948D02*
X019106Y004948D01*
X013201Y011837D02*
X010441Y009078D01*
X010441Y008096D01*
X010398Y008054D01*
X009811Y008642D02*
X009811Y008960D01*
X012488Y011637D01*
X012488Y012688D01*
X012201Y012660D01*
X011858Y011991D02*
X011228Y012621D01*
X011228Y012948D01*
X011201Y012660D01*
X010834Y011912D02*
X010201Y012546D01*
X010201Y012660D01*
X009653Y012109D02*
X009890Y011873D01*
X009890Y011597D01*
X008866Y010574D01*
X008866Y008642D01*
X009102Y008487D02*
X009181Y008408D01*
X009181Y008642D01*
X009102Y008487D02*
X009102Y009708D01*
X010834Y011440D01*
X010834Y011912D01*
X011858Y011991D02*
X011858Y011676D01*
X009496Y009314D01*
X009496Y008642D01*
X008551Y008642D02*
X008551Y010534D01*
X007330Y011755D01*
X007134Y012664D01*
X007138Y012660D01*
X008138Y012660D02*
X008138Y012444D01*
X008138Y012660D02*
X008157Y012798D01*
X008157Y013290D01*
X007764Y013684D01*
X001031Y013684D01*
X000874Y013054D01*
X000952Y012267D01*
X002567Y010652D01*
X002567Y008999D01*
X002370Y008802D01*
X001701Y008802D01*
X001582Y008684D01*
X001582Y008172D01*
X001307Y008881D02*
X001307Y004589D01*
X001740Y004156D01*
X002212Y004156D01*
X002567Y004511D01*
X002567Y006834D01*
X002567Y006873D01*
X001307Y008881D02*
X001771Y009345D01*
X002067Y009345D01*
X003000Y011558D02*
X003630Y011558D01*
X005598Y009589D01*
X005992Y009589D01*
X006661Y008920D01*
X006661Y008526D01*
X006346Y008211D01*
X006346Y007936D01*
X006543Y007739D01*
X007018Y007739D01*
X007018Y007424D02*
X006425Y007424D01*
X005598Y008251D01*
X007015Y008057D02*
X007018Y008054D01*
X007015Y008057D02*
X007015Y009117D01*
X005952Y010180D01*
X005559Y010180D01*
X003138Y012601D01*
X003138Y012660D01*
X004138Y012660D02*
X004138Y012428D01*
X005677Y010889D01*
X006149Y010889D01*
X007606Y009432D01*
X007606Y008642D01*
X007921Y008642D02*
X007921Y009708D01*
X006189Y011440D01*
X005834Y011440D01*
X005086Y012188D01*
X005086Y012885D01*
X005138Y012660D01*
X006071Y012869D02*
X006138Y012660D01*
X006071Y012869D02*
X006071Y012030D01*
X006228Y011873D01*
X006582Y011873D01*
X008236Y010219D01*
X008236Y008642D01*
X013201Y011837D02*
X013201Y012660D01*
X003000Y011558D02*
X002138Y012420D01*
X002138Y012660D01*
M02*
