G75*
%MOIN*%
%OFA0B0*%
%FSLAX24Y24*%
%IPPOS*%
%LPD*%
%AMOC8*
5,1,8,0,0,1.08239X$1,22.5*
%
%ADD10C,0.0020*%
%ADD11C,0.0060*%
%ADD12C,0.0040*%
%ADD13R,0.0197X0.0197*%
%ADD14R,0.0295X0.0089*%
%ADD15C,0.0080*%
D10*
X006693Y005460D02*
X006693Y008160D01*
X006993Y008160D02*
X006993Y005460D01*
X006994Y005422D01*
X006999Y005385D01*
X007006Y005348D01*
X007015Y005312D01*
X007028Y005276D01*
X007043Y005242D01*
X007943Y004799D02*
X007988Y004831D01*
X008030Y004867D01*
X008070Y004906D01*
X008107Y004948D01*
X008141Y004991D01*
X008172Y005038D01*
X008200Y005086D01*
X008224Y005136D01*
X008245Y005187D01*
X008262Y005240D01*
X008276Y005294D01*
X008285Y005349D01*
X008291Y005404D01*
X008293Y005460D01*
X008293Y008160D01*
X007993Y008160D02*
X007993Y005460D01*
X007992Y005422D01*
X007987Y005385D01*
X007980Y005348D01*
X007971Y005312D01*
X007958Y005276D01*
X007943Y005242D01*
X007043Y004799D02*
X006998Y004831D01*
X006956Y004867D01*
X006916Y004906D01*
X006879Y004947D01*
X006845Y004991D01*
X006814Y005038D01*
X006786Y005086D01*
X006762Y005136D01*
X006741Y005187D01*
X006724Y005240D01*
X006710Y005294D01*
X006701Y005349D01*
X006695Y005404D01*
X006693Y005460D01*
X007493Y006410D02*
X007493Y006560D01*
X007493Y007060D02*
X007493Y007210D01*
X008293Y008160D02*
X008291Y008216D01*
X008285Y008271D01*
X008276Y008326D01*
X008262Y008380D01*
X008245Y008433D01*
X008224Y008484D01*
X008200Y008534D01*
X008172Y008582D01*
X008141Y008629D01*
X008107Y008673D01*
X008070Y008714D01*
X008030Y008753D01*
X007988Y008789D01*
X007943Y008821D01*
X007043Y008821D02*
X006998Y008789D01*
X006956Y008753D01*
X006916Y008714D01*
X006879Y008672D01*
X006845Y008629D01*
X006814Y008582D01*
X006786Y008534D01*
X006762Y008484D01*
X006741Y008433D01*
X006724Y008380D01*
X006710Y008326D01*
X006701Y008271D01*
X006695Y008216D01*
X006693Y008160D01*
X006993Y008160D02*
X006994Y008198D01*
X006999Y008235D01*
X007006Y008272D01*
X007015Y008308D01*
X007028Y008344D01*
X007043Y008378D01*
X007943Y008378D02*
X007958Y008344D01*
X007971Y008308D01*
X007980Y008272D01*
X007987Y008235D01*
X007992Y008198D01*
X007993Y008160D01*
X003261Y010244D02*
X003261Y010344D01*
X002261Y010344D01*
X002261Y010244D01*
X002311Y012544D02*
X002311Y012644D01*
X002311Y012544D02*
X003261Y012544D01*
X003261Y012644D01*
D11*
X002311Y012644D01*
X001911Y012644D01*
X001561Y011844D02*
X001561Y011744D01*
X001461Y011744D01*
X001461Y011144D01*
X001561Y011144D01*
X001561Y011044D01*
X001911Y010244D02*
X002261Y010244D01*
X003261Y010244D01*
X003611Y010244D01*
X003961Y011044D02*
X003961Y011144D01*
X004061Y011144D01*
X004061Y011744D01*
X003961Y011744D01*
X003961Y011844D01*
X003611Y012644D02*
X003261Y012644D01*
X002661Y011444D02*
X002663Y011464D01*
X002669Y011482D01*
X002678Y011500D01*
X002690Y011515D01*
X002705Y011527D01*
X002723Y011536D01*
X002741Y011542D01*
X002761Y011544D01*
X002781Y011542D01*
X002799Y011536D01*
X002817Y011527D01*
X002832Y011515D01*
X002844Y011500D01*
X002853Y011482D01*
X002859Y011464D01*
X002861Y011444D01*
X002859Y011424D01*
X002853Y011406D01*
X002844Y011388D01*
X002832Y011373D01*
X002817Y011361D01*
X002799Y011352D01*
X002781Y011346D01*
X002761Y011344D01*
X002741Y011346D01*
X002723Y011352D01*
X002705Y011361D01*
X002690Y011373D01*
X002678Y011388D01*
X002669Y011406D01*
X002663Y011424D01*
X002661Y011444D01*
X002061Y011444D02*
X002063Y011496D01*
X002069Y011548D01*
X002079Y011600D01*
X002092Y011650D01*
X002109Y011700D01*
X002130Y011748D01*
X002155Y011794D01*
X002183Y011838D01*
X002214Y011880D01*
X002248Y011920D01*
X002285Y011957D01*
X002325Y011991D01*
X002367Y012022D01*
X002411Y012050D01*
X002457Y012075D01*
X002505Y012096D01*
X002555Y012113D01*
X002605Y012126D01*
X002657Y012136D01*
X002709Y012142D01*
X002761Y012144D01*
X002813Y012142D01*
X002865Y012136D01*
X002917Y012126D01*
X002967Y012113D01*
X003017Y012096D01*
X003065Y012075D01*
X003111Y012050D01*
X003155Y012022D01*
X003197Y011991D01*
X003237Y011957D01*
X003274Y011920D01*
X003308Y011880D01*
X003339Y011838D01*
X003367Y011794D01*
X003392Y011748D01*
X003413Y011700D01*
X003430Y011650D01*
X003443Y011600D01*
X003453Y011548D01*
X003459Y011496D01*
X003461Y011444D01*
X003459Y011392D01*
X003453Y011340D01*
X003443Y011288D01*
X003430Y011238D01*
X003413Y011188D01*
X003392Y011140D01*
X003367Y011094D01*
X003339Y011050D01*
X003308Y011008D01*
X003274Y010968D01*
X003237Y010931D01*
X003197Y010897D01*
X003155Y010866D01*
X003111Y010838D01*
X003065Y010813D01*
X003017Y010792D01*
X002967Y010775D01*
X002917Y010762D01*
X002865Y010752D01*
X002813Y010746D01*
X002761Y010744D01*
X002709Y010746D01*
X002657Y010752D01*
X002605Y010762D01*
X002555Y010775D01*
X002505Y010792D01*
X002457Y010813D01*
X002411Y010838D01*
X002367Y010866D01*
X002325Y010897D01*
X002285Y010931D01*
X002248Y010968D01*
X002214Y011008D01*
X002183Y011050D01*
X002155Y011094D01*
X002130Y011140D01*
X002109Y011188D01*
X002092Y011238D01*
X002079Y011288D01*
X002069Y011340D01*
X002063Y011392D01*
X002061Y011444D01*
X006674Y012410D02*
X006674Y012910D01*
X006924Y013160D01*
X007424Y013160D01*
X007674Y012910D01*
X007924Y013160D01*
X008424Y013160D01*
X008674Y012910D01*
X008924Y013160D01*
X009424Y013160D01*
X009674Y012910D01*
X009924Y013160D01*
X010424Y013160D01*
X010674Y012910D01*
X010674Y012410D01*
X010424Y012160D01*
X009924Y012160D01*
X009674Y012410D01*
X009424Y012160D01*
X008924Y012160D01*
X008674Y012410D01*
X008674Y012910D01*
X008674Y012410D02*
X008424Y012160D01*
X007924Y012160D01*
X007674Y012410D01*
X007424Y012160D01*
X006924Y012160D01*
X006674Y012410D01*
X007674Y012410D02*
X007674Y012910D01*
X009674Y012910D02*
X009674Y012410D01*
X010737Y012410D02*
X010737Y012910D01*
X010987Y013160D01*
X011487Y013160D01*
X011737Y012910D01*
X011987Y013160D01*
X012487Y013160D01*
X012737Y012910D01*
X012987Y013160D01*
X013487Y013160D01*
X013737Y012910D01*
X013987Y013160D01*
X014487Y013160D01*
X014737Y012910D01*
X014987Y013160D01*
X015487Y013160D01*
X015737Y012910D01*
X015987Y013160D01*
X016487Y013160D01*
X016737Y012910D01*
X016987Y013160D01*
X017487Y013160D01*
X017737Y012910D01*
X017987Y013160D01*
X018487Y013160D01*
X018737Y012910D01*
X018737Y012410D01*
X018487Y012160D01*
X017987Y012160D01*
X017737Y012410D01*
X017487Y012160D01*
X016987Y012160D01*
X016737Y012410D01*
X016737Y012910D01*
X016737Y012410D02*
X016487Y012160D01*
X015987Y012160D01*
X015737Y012410D01*
X015487Y012160D01*
X014987Y012160D01*
X014737Y012410D01*
X014487Y012160D01*
X013987Y012160D01*
X013737Y012410D01*
X013737Y012910D01*
X013737Y012410D02*
X013487Y012160D01*
X012987Y012160D01*
X012737Y012410D01*
X012487Y012160D01*
X011987Y012160D01*
X011737Y012410D01*
X011487Y012160D01*
X010987Y012160D01*
X010737Y012410D01*
X011737Y012410D02*
X011737Y012910D01*
X012737Y012910D02*
X012737Y012410D01*
X014737Y012410D02*
X014737Y012910D01*
X015737Y012910D02*
X015737Y012410D01*
X017737Y012410D02*
X017737Y012910D01*
X013046Y008332D02*
X010426Y008332D01*
X010287Y008192D01*
X010287Y005572D01*
X013046Y005572D01*
X013046Y008332D01*
X010446Y008032D02*
X010448Y008055D01*
X010454Y008078D01*
X010463Y008099D01*
X010476Y008119D01*
X010492Y008136D01*
X010510Y008150D01*
X010530Y008161D01*
X010552Y008169D01*
X010575Y008173D01*
X010599Y008173D01*
X010622Y008169D01*
X010644Y008161D01*
X010664Y008150D01*
X010682Y008136D01*
X010698Y008119D01*
X010711Y008099D01*
X010720Y008078D01*
X010726Y008055D01*
X010728Y008032D01*
X010726Y008009D01*
X010720Y007986D01*
X010711Y007965D01*
X010698Y007945D01*
X010682Y007928D01*
X010664Y007914D01*
X010644Y007903D01*
X010622Y007895D01*
X010599Y007891D01*
X010575Y007891D01*
X010552Y007895D01*
X010530Y007903D01*
X010510Y007914D01*
X010492Y007928D01*
X010476Y007945D01*
X010463Y007965D01*
X010454Y007986D01*
X010448Y008009D01*
X010446Y008032D01*
X008443Y008960D02*
X008443Y004660D01*
X008441Y004643D01*
X008437Y004626D01*
X008430Y004610D01*
X008420Y004596D01*
X008407Y004583D01*
X008393Y004573D01*
X008377Y004566D01*
X008360Y004562D01*
X008343Y004560D01*
X007943Y004560D01*
X007043Y004560D02*
X006643Y004560D01*
X006626Y004562D01*
X006609Y004566D01*
X006593Y004573D01*
X006579Y004583D01*
X006566Y004596D01*
X006556Y004610D01*
X006549Y004626D01*
X006545Y004643D01*
X006543Y004660D01*
X006543Y008960D01*
X006545Y008977D01*
X006549Y008994D01*
X006556Y009010D01*
X006566Y009024D01*
X006579Y009037D01*
X006593Y009047D01*
X006609Y009054D01*
X006626Y009058D01*
X006643Y009060D01*
X007043Y009060D01*
X007943Y009060D02*
X008343Y009060D01*
X008360Y009058D01*
X008377Y009054D01*
X008393Y009047D01*
X008407Y009037D01*
X008420Y009024D01*
X008430Y009010D01*
X008437Y008994D01*
X008441Y008977D01*
X008443Y008960D01*
X007743Y007060D02*
X007493Y007060D01*
X007243Y007060D01*
X007243Y006910D02*
X007243Y006710D01*
X007743Y006710D01*
X007743Y006910D01*
X007243Y006910D01*
X007243Y006560D02*
X007493Y006560D01*
X007743Y006560D01*
X007393Y002133D02*
X006893Y002133D01*
X006643Y001883D01*
X006643Y001383D01*
X006893Y001133D01*
X007393Y001133D01*
X007643Y001383D01*
X007643Y001883D01*
X007393Y002133D01*
X006643Y001883D02*
X006393Y002133D01*
X005893Y002133D01*
X005643Y001883D01*
X005643Y001383D01*
X005893Y001133D01*
X006393Y001133D01*
X006643Y001383D01*
X008643Y001387D02*
X008893Y001137D01*
X009393Y001137D01*
X009643Y001387D01*
X009893Y001137D01*
X010393Y001137D01*
X010643Y001387D01*
X010643Y001887D01*
X010393Y002137D01*
X009893Y002137D01*
X009643Y001887D01*
X009643Y001387D01*
X009643Y001887D02*
X009393Y002137D01*
X008893Y002137D01*
X008643Y001887D01*
X008643Y001387D01*
X010643Y001387D02*
X010893Y001137D01*
X011393Y001137D01*
X011643Y001387D01*
X011893Y001137D01*
X012393Y001137D01*
X012643Y001387D01*
X012643Y001887D01*
X012393Y002137D01*
X011893Y002137D01*
X011643Y001887D01*
X011643Y001387D01*
X011643Y001887D02*
X011393Y002137D01*
X010893Y002137D01*
X010643Y001887D01*
X012643Y001887D02*
X012643Y001387D01*
X012893Y001137D01*
X013393Y001137D01*
X013643Y001387D01*
X013893Y001137D01*
X014393Y001137D01*
X014643Y001387D01*
X014643Y001887D01*
X014393Y002137D01*
X013893Y002137D01*
X013643Y001887D01*
X013643Y001387D01*
X013643Y001887D02*
X013393Y002137D01*
X012893Y002137D01*
X012643Y001887D01*
X014643Y001887D02*
X014893Y002137D01*
X015393Y002137D01*
X015643Y001887D01*
X015893Y002137D01*
X016393Y002137D01*
X016643Y001887D01*
X016893Y002137D01*
X017393Y002137D01*
X017643Y001887D01*
X017893Y002137D01*
X018393Y002137D01*
X018643Y001887D01*
X018643Y001387D01*
X018393Y001137D01*
X017893Y001137D01*
X017643Y001387D01*
X017393Y001137D01*
X016893Y001137D01*
X016643Y001387D01*
X016393Y001137D01*
X015893Y001137D01*
X015643Y001387D01*
X015393Y001137D01*
X014893Y001137D01*
X014643Y001387D01*
X015643Y001387D02*
X015643Y001887D01*
X016643Y001887D02*
X016643Y001387D01*
X017643Y001387D02*
X017643Y001887D01*
D12*
X000120Y001683D02*
X000120Y001683D01*
X000712Y001683D01*
X000651Y002113D02*
X001735Y002031D01*
X001735Y002113D01*
X000794Y002215D01*
X000794Y002419D01*
X001735Y002521D01*
X001735Y002603D01*
X000651Y002501D01*
X000632Y002497D01*
X000613Y002491D01*
X000596Y002481D01*
X000580Y002469D01*
X000567Y002454D01*
X000556Y002437D01*
X000549Y002419D01*
X000549Y002194D02*
X000556Y002176D01*
X000567Y002159D01*
X000580Y002144D01*
X000596Y002132D01*
X000613Y002122D01*
X000632Y002116D01*
X000651Y002112D01*
X000550Y002195D02*
X000541Y002232D01*
X000535Y002269D01*
X000533Y002307D01*
X000535Y002345D01*
X000541Y002382D01*
X000550Y002419D01*
X000651Y002705D02*
X002246Y002787D01*
X002264Y002790D01*
X002281Y002797D01*
X002296Y002806D01*
X002309Y002819D01*
X002318Y002834D01*
X002325Y002851D01*
X002328Y002869D01*
X002327Y002869D02*
X002327Y003523D01*
X002328Y003523D02*
X002325Y003541D01*
X002318Y003558D01*
X002309Y003573D01*
X002296Y003586D01*
X002281Y003595D01*
X002264Y003602D01*
X002246Y003605D01*
X000651Y003686D01*
X000651Y003687D02*
X000635Y003685D01*
X000620Y003681D01*
X000605Y003673D01*
X000593Y003663D01*
X000583Y003651D01*
X000575Y003636D01*
X000571Y003621D01*
X000569Y003605D01*
X000570Y003605D02*
X000570Y003604D01*
X000569Y003604D02*
X000571Y003588D01*
X000575Y003573D01*
X000583Y003558D01*
X000593Y003546D01*
X000605Y003536D01*
X000620Y003528D01*
X000635Y003524D01*
X000651Y003522D01*
X000651Y003523D02*
X002000Y003441D01*
X002000Y002951D01*
X000651Y002869D01*
X000635Y002867D01*
X000620Y002863D01*
X000605Y002855D01*
X000593Y002845D01*
X000583Y002833D01*
X000575Y002818D01*
X000571Y002803D01*
X000569Y002787D01*
X000571Y002771D01*
X000575Y002756D01*
X000583Y002741D01*
X000593Y002729D01*
X000605Y002719D01*
X000620Y002711D01*
X000635Y002707D01*
X000651Y002705D01*
X000651Y003891D02*
X001735Y003788D01*
X001735Y003870D01*
X000794Y003972D01*
X000794Y004177D01*
X001735Y004279D01*
X001735Y004361D01*
X000651Y004279D01*
X000632Y004275D01*
X000613Y004269D01*
X000596Y004259D01*
X000580Y004247D01*
X000567Y004232D01*
X000556Y004215D01*
X000549Y004197D01*
X000549Y003972D02*
X000556Y003954D01*
X000567Y003937D01*
X000580Y003922D01*
X000596Y003910D01*
X000613Y003900D01*
X000632Y003894D01*
X000651Y003890D01*
X000550Y003973D02*
X000541Y004010D01*
X000535Y004047D01*
X000533Y004085D01*
X000535Y004123D01*
X000541Y004160D01*
X000550Y004197D01*
X000712Y004708D02*
X000120Y004708D01*
X000120Y001683D01*
X001827Y001683D02*
X002736Y001683D01*
X002736Y001684D02*
X002720Y001682D01*
X002705Y001678D01*
X002690Y001670D01*
X002678Y001660D01*
X002668Y001648D01*
X002660Y001633D01*
X002656Y001618D01*
X002654Y001602D01*
X002654Y001540D01*
X003656Y002010D02*
X003799Y002010D01*
X003819Y002010D02*
X003819Y002399D01*
X003799Y002399D02*
X003063Y002399D01*
X002859Y002480D02*
X002859Y003911D01*
X002857Y003927D01*
X002853Y003942D01*
X002845Y003957D01*
X002835Y003969D01*
X002823Y003979D01*
X002808Y003987D01*
X002793Y003991D01*
X002777Y003993D01*
X002777Y003993D01*
X002757Y003991D01*
X002738Y003985D01*
X002720Y003976D01*
X002705Y003963D01*
X002692Y003948D01*
X002683Y003930D01*
X002677Y003911D01*
X002675Y003891D01*
X002675Y002501D01*
X002677Y002481D01*
X002683Y002462D01*
X002692Y002444D01*
X002705Y002429D01*
X002720Y002416D01*
X002738Y002407D01*
X002757Y002401D01*
X002777Y002399D01*
X002777Y002398D02*
X002793Y002400D01*
X002808Y002404D01*
X002823Y002412D01*
X002835Y002422D01*
X002845Y002434D01*
X002853Y002449D01*
X002857Y002464D01*
X002859Y002480D01*
X003063Y003993D02*
X003799Y003993D01*
X003819Y003993D02*
X003819Y004381D01*
X003799Y004381D02*
X003656Y004381D01*
X002736Y004708D02*
X001827Y004708D01*
X002654Y004790D02*
X002654Y004851D01*
X002654Y004790D02*
X002656Y004774D01*
X002660Y004759D01*
X002668Y004744D01*
X002678Y004732D01*
X002690Y004722D01*
X002705Y004714D01*
X002720Y004710D01*
X002736Y004708D01*
D13*
X003789Y007625D03*
D14*
X004310Y007049D03*
D15*
X016155Y006604D02*
X016155Y005590D01*
X016273Y005590D01*
X016273Y005008D01*
X016155Y005008D01*
X016155Y003408D01*
X019462Y003408D01*
X019462Y011282D01*
X016155Y011282D01*
X016155Y008087D01*
X016155Y006604D01*
X016765Y006604D01*
X016765Y008087D01*
X016155Y008087D01*
X016519Y008087D02*
X016519Y010839D01*
X019098Y010839D01*
X019098Y003851D01*
X016519Y003851D01*
X016519Y006604D01*
M02*
