G75*
%MOIN*%
%OFA0B0*%
%FSLAX24Y24*%
%IPPOS*%
%LPD*%
%AMOC8*
5,1,8,0,0,1.08239X$1,22.5*
%
%ADD10R,0.0760X0.2100*%
%ADD11R,0.0984X0.0787*%
%ADD12R,0.1299X0.0787*%
%ADD13R,0.1220X0.0197*%
%ADD14R,0.0472X0.0394*%
%ADD15R,0.0394X0.0472*%
%ADD16R,0.0591X0.1024*%
%ADD17R,0.0512X0.0630*%
%ADD18R,0.0500X0.0220*%
%ADD19R,0.0220X0.0500*%
D10*
X007493Y004910D03*
X007493Y008710D03*
D11*
X001269Y001444D03*
X001269Y004948D03*
D12*
X003592Y004948D03*
X003592Y001444D03*
D13*
X003631Y002566D03*
X003631Y002881D03*
X003631Y003196D03*
X003631Y003511D03*
X003631Y003826D03*
D14*
X006096Y004893D03*
X006096Y005680D03*
X006147Y007975D03*
X006147Y008763D03*
X015604Y008448D03*
X015604Y007660D03*
D15*
X006651Y003089D03*
X005863Y003089D03*
D16*
X004379Y007625D03*
X003198Y007625D03*
D17*
X002111Y007995D03*
X001363Y007995D03*
D18*
X009977Y008054D03*
X009977Y007739D03*
X009977Y007424D03*
X009977Y007109D03*
X009977Y006794D03*
X009977Y006479D03*
X009977Y006164D03*
X009977Y005849D03*
X013357Y005849D03*
X013357Y006164D03*
X013357Y006479D03*
X013357Y006794D03*
X013357Y007109D03*
X013357Y007424D03*
X013357Y007739D03*
X013357Y008054D03*
D19*
X012769Y008642D03*
X012454Y008642D03*
X012139Y008642D03*
X011824Y008642D03*
X011509Y008642D03*
X011194Y008642D03*
X010879Y008642D03*
X010564Y008642D03*
X010564Y005262D03*
X010879Y005262D03*
X011194Y005262D03*
X011509Y005262D03*
X011824Y005262D03*
X012139Y005262D03*
X012454Y005262D03*
X012769Y005262D03*
M02*
