G04 Layer_Color=2752767*
%FSLAX25Y25*%
%MOIN*%
G70*
G01*
G75*
%ADD51C,0.01000*%
%ADD52C,0.01500*%
%ADD150C,0.00333*%
%ADD151C,0.01600*%
D51*
X561267Y631750D02*
Y637748D01*
X564266D01*
X565266Y636748D01*
Y634749D01*
X564266Y633749D01*
X561267D01*
X563266D02*
X565266Y631750D01*
X568265D02*
X570264D01*
X571264Y632750D01*
Y634749D01*
X570264Y635749D01*
X568265D01*
X567265Y634749D01*
Y632750D01*
X568265Y631750D01*
X573263Y635749D02*
Y632750D01*
X574263Y631750D01*
X577262D01*
Y635749D01*
X579261Y631750D02*
Y635749D01*
X582260D01*
X583260Y634749D01*
Y631750D01*
X589258Y637748D02*
Y631750D01*
X586259D01*
X585259Y632750D01*
Y634749D01*
X586259Y635749D01*
X589258D01*
X561267Y616750D02*
Y622748D01*
X564266D01*
X565266Y621748D01*
Y619749D01*
X564266Y618749D01*
X561267D01*
X563266D02*
X565266Y616750D01*
X568265D02*
X570264D01*
X571264Y617750D01*
Y619749D01*
X570264Y620749D01*
X568265D01*
X567265Y619749D01*
Y617750D01*
X568265Y616750D01*
X573263Y620749D02*
Y617750D01*
X574263Y616750D01*
X577262D01*
Y620749D01*
X579261Y616750D02*
Y620749D01*
X582260D01*
X583260Y619749D01*
Y616750D01*
X589258Y622748D02*
Y616750D01*
X586259D01*
X585259Y617750D01*
Y619749D01*
X586259Y620749D01*
X589258D01*
X561267Y601750D02*
Y607748D01*
X564266D01*
X565266Y606748D01*
Y604749D01*
X564266Y603749D01*
X561267D01*
X563266D02*
X565266Y601750D01*
X568265D02*
X570264D01*
X571264Y602750D01*
Y604749D01*
X570264Y605749D01*
X568265D01*
X567265Y604749D01*
Y602750D01*
X568265Y601750D01*
X573263Y605749D02*
Y602750D01*
X574263Y601750D01*
X577262D01*
Y605749D01*
X579261Y601750D02*
Y605749D01*
X582260D01*
X583260Y604749D01*
Y601750D01*
X589258Y607748D02*
Y601750D01*
X586259D01*
X585259Y602750D01*
Y604749D01*
X586259Y605749D01*
X589258D01*
X561267Y586750D02*
Y592748D01*
X564266D01*
X565266Y591748D01*
Y589749D01*
X564266Y588749D01*
X561267D01*
X563266D02*
X565266Y586750D01*
X568265D02*
X570264D01*
X571264Y587750D01*
Y589749D01*
X570264Y590749D01*
X568265D01*
X567265Y589749D01*
Y587750D01*
X568265Y586750D01*
X573263Y590749D02*
Y587750D01*
X574263Y586750D01*
X577262D01*
Y590749D01*
X579261Y586750D02*
Y590749D01*
X582260D01*
X583260Y589749D01*
Y586750D01*
X589258Y592748D02*
Y586750D01*
X586259D01*
X585259Y587750D01*
Y589749D01*
X586259Y590749D01*
X589258D01*
X561267Y571750D02*
Y577748D01*
X564266D01*
X565266Y576748D01*
Y574749D01*
X564266Y573749D01*
X561267D01*
X563266D02*
X565266Y571750D01*
X568265D02*
X570264D01*
X571264Y572750D01*
Y574749D01*
X570264Y575749D01*
X568265D01*
X567265Y574749D01*
Y572750D01*
X568265Y571750D01*
X573263Y575749D02*
Y572750D01*
X574263Y571750D01*
X577262D01*
Y575749D01*
X579261Y571750D02*
Y575749D01*
X582260D01*
X583260Y574749D01*
Y571750D01*
X589258Y577748D02*
Y571750D01*
X586259D01*
X585259Y572750D01*
Y574749D01*
X586259Y575749D01*
X589258D01*
X561267Y556750D02*
Y562748D01*
X564266D01*
X565266Y561748D01*
Y559749D01*
X564266Y558749D01*
X561267D01*
X563266D02*
X565266Y556750D01*
X568265D02*
X570264D01*
X571264Y557750D01*
Y559749D01*
X570264Y560749D01*
X568265D01*
X567265Y559749D01*
Y557750D01*
X568265Y556750D01*
X573263Y560749D02*
Y557750D01*
X574263Y556750D01*
X577262D01*
Y560749D01*
X579261Y556750D02*
Y560749D01*
X582260D01*
X583260Y559749D01*
Y556750D01*
X589258Y562748D02*
Y556750D01*
X586259D01*
X585259Y557750D01*
Y559749D01*
X586259Y560749D01*
X589258D01*
X561267Y541750D02*
Y547748D01*
X564266D01*
X565266Y546748D01*
Y544749D01*
X564266Y543749D01*
X561267D01*
X563266D02*
X565266Y541750D01*
X568265D02*
X570264D01*
X571264Y542750D01*
Y544749D01*
X570264Y545749D01*
X568265D01*
X567265Y544749D01*
Y542750D01*
X568265Y541750D01*
X573263Y545749D02*
Y542750D01*
X574263Y541750D01*
X577262D01*
Y545749D01*
X579261Y541750D02*
Y545749D01*
X582260D01*
X583260Y544749D01*
Y541750D01*
X589258Y547748D02*
Y541750D01*
X586259D01*
X585259Y542750D01*
Y544749D01*
X586259Y545749D01*
X589258D01*
X561267Y526750D02*
Y532748D01*
X564266D01*
X565266Y531748D01*
Y529749D01*
X564266Y528749D01*
X561267D01*
X563266D02*
X565266Y526750D01*
X568265D02*
X570264D01*
X571264Y527750D01*
Y529749D01*
X570264Y530749D01*
X568265D01*
X567265Y529749D01*
Y527750D01*
X568265Y526750D01*
X573263Y530749D02*
Y527750D01*
X574263Y526750D01*
X577262D01*
Y530749D01*
X579261Y526750D02*
Y530749D01*
X582260D01*
X583260Y529749D01*
Y526750D01*
X589258Y532748D02*
Y526750D01*
X586259D01*
X585259Y527750D01*
Y529749D01*
X586259Y530749D01*
X589258D01*
X510679Y631750D02*
Y637748D01*
X513678D01*
X514678Y636748D01*
Y634749D01*
X513678Y633749D01*
X510679D01*
X516677Y637748D02*
X520676D01*
X518677D01*
Y631750D01*
X522676Y637748D02*
Y631750D01*
Y634749D01*
X526674D01*
Y637748D01*
Y631750D01*
X510679Y616750D02*
Y622748D01*
X513678D01*
X514678Y621748D01*
Y619749D01*
X513678Y618749D01*
X510679D01*
X516677Y622748D02*
X520676D01*
X518677D01*
Y616750D01*
X522676Y622748D02*
Y616750D01*
Y619749D01*
X526674D01*
Y622748D01*
Y616750D01*
X510679Y601750D02*
Y607748D01*
X513678D01*
X514678Y606748D01*
Y604749D01*
X513678Y603749D01*
X510679D01*
X516677Y607748D02*
X520676D01*
X518677D01*
Y601750D01*
X522676Y607748D02*
Y601750D01*
Y604749D01*
X526674D01*
Y607748D01*
Y601750D01*
X510679Y586750D02*
Y592748D01*
X513678D01*
X514678Y591748D01*
Y589749D01*
X513678Y588749D01*
X510679D01*
X516677Y592748D02*
X520676D01*
X518677D01*
Y586750D01*
X522676Y592748D02*
Y586750D01*
Y589749D01*
X526674D01*
Y592748D01*
Y586750D01*
X510679Y571750D02*
Y577748D01*
X513678D01*
X514678Y576748D01*
Y574749D01*
X513678Y573749D01*
X510679D01*
X516677Y577748D02*
X520676D01*
X518677D01*
Y571750D01*
X522676Y577748D02*
Y571750D01*
Y574749D01*
X526674D01*
Y577748D01*
Y571750D01*
X510679Y556750D02*
Y562748D01*
X513678D01*
X514678Y561748D01*
Y559749D01*
X513678Y558749D01*
X510679D01*
X516677Y562748D02*
X520676D01*
X518677D01*
Y556750D01*
X522676Y562748D02*
Y556750D01*
Y559749D01*
X526674D01*
Y562748D01*
Y556750D01*
X510679Y541750D02*
Y547748D01*
X513678D01*
X514678Y546748D01*
Y544749D01*
X513678Y543749D01*
X510679D01*
X516677Y547748D02*
X520676D01*
X518677D01*
Y541750D01*
X522676Y547748D02*
Y541750D01*
Y544749D01*
X526674D01*
Y547748D01*
Y541750D01*
X510679Y526750D02*
Y532748D01*
X513678D01*
X514678Y531748D01*
Y529749D01*
X513678Y528749D01*
X510679D01*
X516677Y532748D02*
X520676D01*
X518677D01*
Y526750D01*
X522676Y532748D02*
Y526750D01*
Y529749D01*
X526674D01*
Y532748D01*
Y526750D01*
X380118Y637748D02*
X378118Y636748D01*
X376119Y634749D01*
Y632750D01*
X377119Y631750D01*
X379118D01*
X380118Y632750D01*
Y633749D01*
X379118Y634749D01*
X376119D01*
X386116Y637748D02*
X384116Y636748D01*
X382117Y634749D01*
Y632750D01*
X383117Y631750D01*
X385116D01*
X386116Y632750D01*
Y633749D01*
X385116Y634749D01*
X382117D01*
X388115Y631750D02*
Y632750D01*
X389115D01*
Y631750D01*
X388115D01*
X393113Y632750D02*
X394113Y631750D01*
X396112D01*
X397112Y632750D01*
Y636748D01*
X396112Y637748D01*
X394113D01*
X393113Y636748D01*
Y635749D01*
X394113Y634749D01*
X397112D01*
X399112Y636748D02*
X400111Y637748D01*
X402110D01*
X403110Y636748D01*
Y635749D01*
X402110Y634749D01*
X401111D01*
X402110D01*
X403110Y633749D01*
Y632750D01*
X402110Y631750D01*
X400111D01*
X399112Y632750D01*
X405110Y631750D02*
Y635749D01*
X406109D01*
X407109Y634749D01*
Y631750D01*
Y634749D01*
X408109Y635749D01*
X409108Y634749D01*
Y631750D01*
X411108D02*
X413107D01*
X412107D01*
Y635749D01*
X411108D01*
X416106Y631750D02*
X418105D01*
X417106D01*
Y637748D01*
X416106D01*
X429102Y631750D02*
X427102Y633749D01*
Y635749D01*
X429102Y637748D01*
X432101Y631750D02*
X434100D01*
X433101D01*
Y637748D01*
X432101Y636748D01*
X437099Y631750D02*
Y632750D01*
X438099D01*
Y631750D01*
X437099D01*
X442098Y637748D02*
X446096D01*
Y636748D01*
X442098Y632750D01*
Y631750D01*
X448096Y636748D02*
X449095Y637748D01*
X451095D01*
X452094Y636748D01*
Y632750D01*
X451095Y631750D01*
X449095D01*
X448096Y632750D01*
Y636748D01*
X454094D02*
X455093Y637748D01*
X457093D01*
X458092Y636748D01*
Y632750D01*
X457093Y631750D01*
X455093D01*
X454094Y632750D01*
Y636748D01*
X460092Y631750D02*
Y635749D01*
X461091D01*
X462091Y634749D01*
Y631750D01*
Y634749D01*
X463091Y635749D01*
X464090Y634749D01*
Y631750D01*
X466090D02*
Y635749D01*
X467090D01*
X468089Y634749D01*
Y631750D01*
Y634749D01*
X469089Y635749D01*
X470088Y634749D01*
Y631750D01*
X472088D02*
X474087Y633749D01*
Y635749D01*
X472088Y637748D01*
X376119Y622748D02*
X380118D01*
Y621748D01*
X376119Y617750D01*
Y616750D01*
X385116D02*
Y622748D01*
X382117Y619749D01*
X386116D01*
X388115Y616750D02*
Y617750D01*
X389115D01*
Y616750D01*
X388115D01*
X393113Y621748D02*
X394113Y622748D01*
X396112D01*
X397112Y621748D01*
Y620749D01*
X396112Y619749D01*
X397112Y618749D01*
Y617750D01*
X396112Y616750D01*
X394113D01*
X393113Y617750D01*
Y618749D01*
X394113Y619749D01*
X393113Y620749D01*
Y621748D01*
X394113Y619749D02*
X396112D01*
X399112Y621748D02*
X400111Y622748D01*
X402110D01*
X403110Y621748D01*
Y617750D01*
X402110Y616750D01*
X400111D01*
X399112Y617750D01*
Y621748D01*
X405110Y616750D02*
Y620749D01*
X406109D01*
X407109Y619749D01*
Y616750D01*
Y619749D01*
X408109Y620749D01*
X409108Y619749D01*
Y616750D01*
X411108D02*
X413107D01*
X412107D01*
Y620749D01*
X411108D01*
X416106Y616750D02*
X418105D01*
X417106D01*
Y622748D01*
X416106D01*
X429102Y616750D02*
X427102Y618749D01*
Y620749D01*
X429102Y622748D01*
X432101Y616750D02*
X434100D01*
X433101D01*
Y622748D01*
X432101Y621748D01*
X437099Y616750D02*
Y617750D01*
X438099D01*
Y616750D01*
X437099D01*
X442098Y617750D02*
X443097Y616750D01*
X445097D01*
X446096Y617750D01*
Y621748D01*
X445097Y622748D01*
X443097D01*
X442098Y621748D01*
Y620749D01*
X443097Y619749D01*
X446096D01*
X448096Y621748D02*
X449095Y622748D01*
X451095D01*
X452094Y621748D01*
Y617750D01*
X451095Y616750D01*
X449095D01*
X448096Y617750D01*
Y621748D01*
X454094D02*
X455093Y622748D01*
X457093D01*
X458092Y621748D01*
Y617750D01*
X457093Y616750D01*
X455093D01*
X454094Y617750D01*
Y621748D01*
X460092Y616750D02*
Y620749D01*
X461091D01*
X462091Y619749D01*
Y616750D01*
Y619749D01*
X463091Y620749D01*
X464090Y619749D01*
Y616750D01*
X466090D02*
Y620749D01*
X467090D01*
X468089Y619749D01*
Y616750D01*
Y619749D01*
X469089Y620749D01*
X470088Y619749D01*
Y616750D01*
X472088D02*
X474087Y618749D01*
Y620749D01*
X472088Y622748D01*
X376119Y601750D02*
X378118D01*
X377119D01*
Y607748D01*
X376119Y606748D01*
X385116Y601750D02*
X381117D01*
X385116Y605749D01*
Y606748D01*
X384116Y607748D01*
X382117D01*
X381117Y606748D01*
X391114Y601750D02*
X387115D01*
X391114Y605749D01*
Y606748D01*
X390114Y607748D01*
X388115D01*
X387115Y606748D01*
X393113Y601750D02*
Y602750D01*
X394113D01*
Y601750D01*
X393113D01*
X398112Y606748D02*
X399112Y607748D01*
X401111D01*
X402110Y606748D01*
Y602750D01*
X401111Y601750D01*
X399112D01*
X398112Y602750D01*
Y606748D01*
X408109Y607748D02*
X404110D01*
Y604749D01*
X406109Y605749D01*
X407109D01*
X408109Y604749D01*
Y602750D01*
X407109Y601750D01*
X405110D01*
X404110Y602750D01*
X410108Y601750D02*
Y605749D01*
X411108D01*
X412107Y604749D01*
Y601750D01*
Y604749D01*
X413107Y605749D01*
X414107Y604749D01*
Y601750D01*
X416106D02*
X418105D01*
X417106D01*
Y605749D01*
X416106D01*
X421104Y601750D02*
X423104D01*
X422104D01*
Y607748D01*
X421104D01*
X434100Y601750D02*
X432101Y603749D01*
Y605749D01*
X434100Y607748D01*
X437099Y606748D02*
X438099Y607748D01*
X440098D01*
X441098Y606748D01*
Y605749D01*
X440098Y604749D01*
X439099D01*
X440098D01*
X441098Y603749D01*
Y602750D01*
X440098Y601750D01*
X438099D01*
X437099Y602750D01*
X443097Y601750D02*
Y602750D01*
X444097D01*
Y601750D01*
X443097D01*
X448096D02*
X450095D01*
X449095D01*
Y607748D01*
X448096Y606748D01*
X453094D02*
X454094Y607748D01*
X456093D01*
X457093Y606748D01*
Y602750D01*
X456093Y601750D01*
X454094D01*
X453094Y602750D01*
Y606748D01*
X459092D02*
X460092Y607748D01*
X462091D01*
X463091Y606748D01*
Y602750D01*
X462091Y601750D01*
X460092D01*
X459092Y602750D01*
Y606748D01*
X465090Y601750D02*
Y605749D01*
X466090D01*
X467090Y604749D01*
Y601750D01*
Y604749D01*
X468089Y605749D01*
X469089Y604749D01*
Y601750D01*
X471088D02*
Y605749D01*
X472088D01*
X473088Y604749D01*
Y601750D01*
Y604749D01*
X474087Y605749D01*
X475087Y604749D01*
Y601750D01*
X477086D02*
X479086Y603749D01*
Y605749D01*
X477086Y607748D01*
X376119Y586750D02*
X378118D01*
X377119D01*
Y592748D01*
X376119Y591748D01*
X381117D02*
X382117Y592748D01*
X384116D01*
X385116Y591748D01*
Y590749D01*
X384116Y589749D01*
X383117D01*
X384116D01*
X385116Y588749D01*
Y587750D01*
X384116Y586750D01*
X382117D01*
X381117Y587750D01*
X391114Y592748D02*
X389115Y591748D01*
X387115Y589749D01*
Y587750D01*
X388115Y586750D01*
X390114D01*
X391114Y587750D01*
Y588749D01*
X390114Y589749D01*
X387115D01*
X393113Y586750D02*
Y587750D01*
X394113D01*
Y586750D01*
X393113D01*
X398112Y591748D02*
X399112Y592748D01*
X401111D01*
X402110Y591748D01*
Y587750D01*
X401111Y586750D01*
X399112D01*
X398112Y587750D01*
Y591748D01*
X404110D02*
X405110Y592748D01*
X407109D01*
X408109Y591748D01*
Y587750D01*
X407109Y586750D01*
X405110D01*
X404110Y587750D01*
Y591748D01*
X410108Y586750D02*
Y590749D01*
X411108D01*
X412107Y589749D01*
Y586750D01*
Y589749D01*
X413107Y590749D01*
X414107Y589749D01*
Y586750D01*
X416106D02*
X418105D01*
X417106D01*
Y590749D01*
X416106D01*
X421104Y586750D02*
X423104D01*
X422104D01*
Y592748D01*
X421104D01*
X434100Y586750D02*
X432101Y588749D01*
Y590749D01*
X434100Y592748D01*
X437099Y591748D02*
X438099Y592748D01*
X440098D01*
X441098Y591748D01*
Y590749D01*
X440098Y589749D01*
X439099D01*
X440098D01*
X441098Y588749D01*
Y587750D01*
X440098Y586750D01*
X438099D01*
X437099Y587750D01*
X443097Y586750D02*
Y587750D01*
X444097D01*
Y586750D01*
X443097D01*
X451095D02*
Y592748D01*
X448096Y589749D01*
X452094D01*
X458092Y592748D02*
X454094D01*
Y589749D01*
X456093Y590749D01*
X457093D01*
X458092Y589749D01*
Y587750D01*
X457093Y586750D01*
X455093D01*
X454094Y587750D01*
X463091Y586750D02*
Y592748D01*
X460092Y589749D01*
X464090D01*
X466090Y586750D02*
Y590749D01*
X467090D01*
X468089Y589749D01*
Y586750D01*
Y589749D01*
X469089Y590749D01*
X470088Y589749D01*
Y586750D01*
X472088D02*
Y590749D01*
X473088D01*
X474087Y589749D01*
Y586750D01*
Y589749D01*
X475087Y590749D01*
X476087Y589749D01*
Y586750D01*
X478086D02*
X480085Y588749D01*
Y590749D01*
X478086Y592748D01*
X379118Y571750D02*
Y577748D01*
X376119Y574749D01*
X380118D01*
X386116Y571750D02*
X382117D01*
X386116Y575749D01*
Y576748D01*
X385116Y577748D01*
X383117D01*
X382117Y576748D01*
X388115Y571750D02*
Y572750D01*
X389115D01*
Y571750D01*
X388115D01*
X393113Y572750D02*
X394113Y571750D01*
X396112D01*
X397112Y572750D01*
Y576748D01*
X396112Y577748D01*
X394113D01*
X393113Y576748D01*
Y575749D01*
X394113Y574749D01*
X397112D01*
X399112Y571750D02*
X401111D01*
X400111D01*
Y577748D01*
X399112Y576748D01*
X404110Y571750D02*
Y575749D01*
X405110D01*
X406109Y574749D01*
Y571750D01*
Y574749D01*
X407109Y575749D01*
X408109Y574749D01*
Y571750D01*
X410108D02*
X412107D01*
X411108D01*
Y575749D01*
X410108D01*
X415106Y571750D02*
X417106D01*
X416106D01*
Y577748D01*
X415106D01*
X428102Y571750D02*
X426103Y573749D01*
Y575749D01*
X428102Y577748D01*
X431101Y571750D02*
X433101D01*
X432101D01*
Y577748D01*
X431101Y576748D01*
X436099Y571750D02*
Y572750D01*
X437099D01*
Y571750D01*
X436099D01*
X441098Y576748D02*
X442098Y577748D01*
X444097D01*
X445097Y576748D01*
Y572750D01*
X444097Y571750D01*
X442098D01*
X441098Y572750D01*
Y576748D01*
X447096Y572750D02*
X448096Y571750D01*
X450095D01*
X451095Y572750D01*
Y576748D01*
X450095Y577748D01*
X448096D01*
X447096Y576748D01*
Y575749D01*
X448096Y574749D01*
X451095D01*
X453094Y576748D02*
X454094Y577748D01*
X456093D01*
X457093Y576748D01*
Y572750D01*
X456093Y571750D01*
X454094D01*
X453094Y572750D01*
Y576748D01*
X459092Y571750D02*
Y575749D01*
X460092D01*
X461091Y574749D01*
Y571750D01*
Y574749D01*
X462091Y575749D01*
X463091Y574749D01*
Y571750D01*
X465090D02*
Y575749D01*
X466090D01*
X467090Y574749D01*
Y571750D01*
Y574749D01*
X468089Y575749D01*
X469089Y574749D01*
Y571750D01*
X471088D02*
X473088Y573749D01*
Y575749D01*
X471088Y577748D01*
X379118Y556750D02*
Y562748D01*
X376119Y559749D01*
X380118D01*
X382117Y561748D02*
X383117Y562748D01*
X385116D01*
X386116Y561748D01*
Y557750D01*
X385116Y556750D01*
X383117D01*
X382117Y557750D01*
Y561748D01*
X388115Y556750D02*
Y557750D01*
X389115D01*
Y556750D01*
X388115D01*
X393113Y561748D02*
X394113Y562748D01*
X396112D01*
X397112Y561748D01*
Y557750D01*
X396112Y556750D01*
X394113D01*
X393113Y557750D01*
Y561748D01*
X399112D02*
X400111Y562748D01*
X402110D01*
X403110Y561748D01*
Y557750D01*
X402110Y556750D01*
X400111D01*
X399112Y557750D01*
Y561748D01*
X405110Y556750D02*
Y560749D01*
X406109D01*
X407109Y559749D01*
Y556750D01*
Y559749D01*
X408109Y560749D01*
X409108Y559749D01*
Y556750D01*
X411108D02*
X413107D01*
X412107D01*
Y560749D01*
X411108D01*
X416106Y556750D02*
X418105D01*
X417106D01*
Y562748D01*
X416106D01*
X429102Y556750D02*
X427102Y558749D01*
Y560749D01*
X429102Y562748D01*
X432101Y556750D02*
X434100D01*
X433101D01*
Y562748D01*
X432101Y561748D01*
X437099Y556750D02*
Y557750D01*
X438099D01*
Y556750D01*
X437099D01*
X442098Y561748D02*
X443097Y562748D01*
X445097D01*
X446096Y561748D01*
Y557750D01*
X445097Y556750D01*
X443097D01*
X442098Y557750D01*
Y561748D01*
X448096Y556750D02*
X450095D01*
X449095D01*
Y562748D01*
X448096Y561748D01*
X457093Y562748D02*
X455093Y561748D01*
X453094Y559749D01*
Y557750D01*
X454094Y556750D01*
X456093D01*
X457093Y557750D01*
Y558749D01*
X456093Y559749D01*
X453094D01*
X459092Y556750D02*
Y560749D01*
X460092D01*
X461091Y559749D01*
Y556750D01*
Y559749D01*
X462091Y560749D01*
X463091Y559749D01*
Y556750D01*
X465090D02*
Y560749D01*
X466090D01*
X467090Y559749D01*
Y556750D01*
Y559749D01*
X468089Y560749D01*
X469089Y559749D01*
Y556750D01*
X471088D02*
X473088Y558749D01*
Y560749D01*
X471088Y562748D01*
X376119Y546748D02*
X377119Y547748D01*
X379118D01*
X380118Y546748D01*
Y545749D01*
X379118Y544749D01*
X378118D01*
X379118D01*
X380118Y543749D01*
Y542750D01*
X379118Y541750D01*
X377119D01*
X376119Y542750D01*
X386116Y547748D02*
X382117D01*
Y544749D01*
X384116Y545749D01*
X385116D01*
X386116Y544749D01*
Y542750D01*
X385116Y541750D01*
X383117D01*
X382117Y542750D01*
X388115Y541750D02*
Y542750D01*
X389115D01*
Y541750D01*
X388115D01*
X396112D02*
Y547748D01*
X393113Y544749D01*
X397112D01*
X399112Y546748D02*
X400111Y547748D01*
X402110D01*
X403110Y546748D01*
Y545749D01*
X402110Y544749D01*
X401111D01*
X402110D01*
X403110Y543749D01*
Y542750D01*
X402110Y541750D01*
X400111D01*
X399112Y542750D01*
X405110Y541750D02*
Y545749D01*
X406109D01*
X407109Y544749D01*
Y541750D01*
Y544749D01*
X408109Y545749D01*
X409108Y544749D01*
Y541750D01*
X411108D02*
X413107D01*
X412107D01*
Y545749D01*
X411108D01*
X416106Y541750D02*
X418105D01*
X417106D01*
Y547748D01*
X416106D01*
X429102Y541750D02*
X427102Y543749D01*
Y545749D01*
X429102Y547748D01*
X432101Y546748D02*
X433101Y547748D01*
X435100D01*
X436099Y546748D01*
Y542750D01*
X435100Y541750D01*
X433101D01*
X432101Y542750D01*
Y546748D01*
X438099Y541750D02*
Y542750D01*
X439099D01*
Y541750D01*
X438099D01*
X443097Y542750D02*
X444097Y541750D01*
X446096D01*
X447096Y542750D01*
Y546748D01*
X446096Y547748D01*
X444097D01*
X443097Y546748D01*
Y545749D01*
X444097Y544749D01*
X447096D01*
X449095Y546748D02*
X450095Y547748D01*
X452094D01*
X453094Y546748D01*
Y542750D01*
X452094Y541750D01*
X450095D01*
X449095Y542750D01*
Y546748D01*
X455093D02*
X456093Y547748D01*
X458092D01*
X459092Y546748D01*
Y542750D01*
X458092Y541750D01*
X456093D01*
X455093Y542750D01*
Y546748D01*
X461091Y541750D02*
Y545749D01*
X462091D01*
X463091Y544749D01*
Y541750D01*
Y544749D01*
X464090Y545749D01*
X465090Y544749D01*
Y541750D01*
X467090D02*
Y545749D01*
X468089D01*
X469089Y544749D01*
Y541750D01*
Y544749D01*
X470088Y545749D01*
X471088Y544749D01*
Y541750D01*
X473088D02*
X475087Y543749D01*
Y545749D01*
X473088Y547748D01*
X380118Y526750D02*
X376119D01*
X380118Y530749D01*
Y531748D01*
X379118Y532748D01*
X377119D01*
X376119Y531748D01*
X382117D02*
X383117Y532748D01*
X385116D01*
X386116Y531748D01*
Y530749D01*
X385116Y529749D01*
X386116Y528749D01*
Y527750D01*
X385116Y526750D01*
X383117D01*
X382117Y527750D01*
Y528749D01*
X383117Y529749D01*
X382117Y530749D01*
Y531748D01*
X383117Y529749D02*
X385116D01*
X388115Y526750D02*
Y527750D01*
X389115D01*
Y526750D01*
X388115D01*
X393113Y531748D02*
X394113Y532748D01*
X396112D01*
X397112Y531748D01*
Y527750D01*
X396112Y526750D01*
X394113D01*
X393113Y527750D01*
Y531748D01*
X399112D02*
X400111Y532748D01*
X402110D01*
X403110Y531748D01*
Y527750D01*
X402110Y526750D01*
X400111D01*
X399112Y527750D01*
Y531748D01*
X405110Y526750D02*
Y530749D01*
X406109D01*
X407109Y529749D01*
Y526750D01*
Y529749D01*
X408109Y530749D01*
X409108Y529749D01*
Y526750D01*
X411108D02*
X413107D01*
X412107D01*
Y530749D01*
X411108D01*
X416106Y526750D02*
X418105D01*
X417106D01*
Y532748D01*
X416106D01*
X429102Y526750D02*
X427102Y528749D01*
Y530749D01*
X429102Y532748D01*
X432101Y531748D02*
X433101Y532748D01*
X435100D01*
X436099Y531748D01*
Y527750D01*
X435100Y526750D01*
X433101D01*
X432101Y527750D01*
Y531748D01*
X438099Y526750D02*
Y527750D01*
X439099D01*
Y526750D01*
X438099D01*
X443097Y532748D02*
X447096D01*
Y531748D01*
X443097Y527750D01*
Y526750D01*
X449095D02*
X451095D01*
X450095D01*
Y532748D01*
X449095Y531748D01*
X454094Y526750D02*
X456093D01*
X455093D01*
Y532748D01*
X454094Y531748D01*
X459092Y526750D02*
Y530749D01*
X460092D01*
X461091Y529749D01*
Y526750D01*
Y529749D01*
X462091Y530749D01*
X463091Y529749D01*
Y526750D01*
X465090D02*
Y530749D01*
X466090D01*
X467090Y529749D01*
Y526750D01*
Y529749D01*
X468089Y530749D01*
X469089Y529749D01*
Y526750D01*
X471088D02*
X473088Y528749D01*
Y530749D01*
X471088Y532748D01*
X310336Y511750D02*
X306338D01*
X310336Y515749D01*
Y516748D01*
X309337Y517748D01*
X307337D01*
X306338Y516748D01*
X312336Y517748D02*
X316334D01*
Y516748D01*
X312336Y512750D01*
Y511750D01*
X322332Y517748D02*
X318334D01*
Y514749D01*
X320333Y515749D01*
X321333D01*
X322332Y514749D01*
Y512750D01*
X321333Y511750D01*
X319333D01*
X318334Y512750D01*
X330330Y517748D02*
X334329D01*
X332329D01*
Y511750D01*
X337328D02*
X339327D01*
X340327Y512750D01*
Y514749D01*
X339327Y515749D01*
X337328D01*
X336328Y514749D01*
Y512750D01*
X337328Y511750D01*
X343326Y516748D02*
Y515749D01*
X342326D01*
X344325D01*
X343326D01*
Y512750D01*
X344325Y511750D01*
X348324Y515749D02*
X350323D01*
X351323Y514749D01*
Y511750D01*
X348324D01*
X347324Y512750D01*
X348324Y513749D01*
X351323D01*
X353322Y511750D02*
X355322D01*
X354322D01*
Y517748D01*
X353322D01*
X306338Y631750D02*
X308337D01*
X307337D01*
Y637748D01*
X306338Y636748D01*
Y616750D02*
X308337D01*
X307337D01*
Y622748D01*
X306338Y621748D01*
X310336Y601750D02*
X306338D01*
X310336Y605749D01*
Y606748D01*
X309337Y607748D01*
X307337D01*
X306338Y606748D01*
X309337Y586750D02*
Y592748D01*
X306338Y589749D01*
X310336D01*
X306338Y572750D02*
X307337Y571750D01*
X309337D01*
X310336Y572750D01*
Y576748D01*
X309337Y577748D01*
X307337D01*
X306338Y576748D01*
Y575749D01*
X307337Y574749D01*
X310336D01*
X306338Y561748D02*
X307337Y562748D01*
X309337D01*
X310336Y561748D01*
Y560749D01*
X309337Y559749D01*
X308337D01*
X309337D01*
X310336Y558749D01*
Y557750D01*
X309337Y556750D01*
X307337D01*
X306338Y557750D01*
X316334Y562748D02*
X314335Y561748D01*
X312336Y559749D01*
Y557750D01*
X313335Y556750D01*
X315335D01*
X316334Y557750D01*
Y558749D01*
X315335Y559749D01*
X312336D01*
X306338Y541750D02*
X308337D01*
X307337D01*
Y547748D01*
X306338Y546748D01*
X311336D02*
X312336Y547748D01*
X314335D01*
X315335Y546748D01*
Y542750D01*
X314335Y541750D01*
X312336D01*
X311336Y542750D01*
Y546748D01*
X321333Y541750D02*
X317334D01*
X321333Y545749D01*
Y546748D01*
X320333Y547748D01*
X318334D01*
X317334Y546748D01*
X306338Y526750D02*
X308337D01*
X307337D01*
Y532748D01*
X306338Y531748D01*
X315335Y526750D02*
X311336D01*
X315335Y530749D01*
Y531748D01*
X314335Y532748D01*
X312336D01*
X311336Y531748D01*
X317334D02*
X318334Y532748D01*
X320333D01*
X321333Y531748D01*
Y527750D01*
X320333Y526750D01*
X318334D01*
X317334Y527750D01*
Y531748D01*
D52*
X246750Y642250D02*
X634647D01*
X246750Y522250D02*
X634647D01*
X246750Y507250D02*
X634647D01*
Y657250D01*
X246750D02*
X634647D01*
X246750Y507250D02*
Y657250D01*
X556767Y507250D02*
Y657250D01*
X506179Y507250D02*
Y657250D01*
X371619Y507250D02*
Y657250D01*
X301838Y507250D02*
Y657250D01*
D150*
X257562Y634250D02*
G03*
X257562Y634250I-1500J0D01*
G01*
X258562D02*
G03*
X258562Y634250I-2500J0D01*
G01*
Y544250D02*
G03*
X258562Y544250I-2500J0D01*
G01*
X271500Y16500D02*
G03*
X271500Y16500I-1000J0D01*
G01*
X272167D02*
G03*
X272167Y16500I-1667J0D01*
G01*
X456667Y344000D02*
G03*
X456667Y344000I-1667J0D01*
G01*
X446667D02*
G03*
X446667Y344000I-1667J0D01*
G01*
X436667D02*
G03*
X436667Y344000I-1667J0D01*
G01*
X426667D02*
G03*
X426667Y344000I-1667J0D01*
G01*
X416667D02*
G03*
X416667Y344000I-1667J0D01*
G01*
X404667Y106500D02*
G03*
X404667Y106500I-1667J0D01*
G01*
X394667D02*
G03*
X394667Y106500I-1667J0D01*
G01*
X384667D02*
G03*
X384667Y106500I-1667J0D01*
G01*
X374667D02*
G03*
X374667Y106500I-1667J0D01*
G01*
X364667D02*
G03*
X364667Y106500I-1667J0D01*
G01*
X119167Y245008D02*
G03*
X119167Y245008I-1667J0D01*
G01*
X129167D02*
G03*
X129167Y245008I-1667J0D01*
G01*
X119167Y235008D02*
G03*
X119167Y235008I-1667J0D01*
G01*
X129167D02*
G03*
X129167Y235008I-1667J0D01*
G01*
X119167Y225008D02*
G03*
X119167Y225008I-1667J0D01*
G01*
X129167D02*
G03*
X129167Y225008I-1667J0D01*
G01*
X119167Y215008D02*
G03*
X119167Y215008I-1667J0D01*
G01*
X129167D02*
G03*
X129167Y215008I-1667J0D01*
G01*
X119167Y205008D02*
G03*
X119167Y205008I-1667J0D01*
G01*
X129167D02*
G03*
X129167Y205008I-1667J0D01*
G01*
X284667Y130500D02*
G03*
X284667Y130500I-1667J0D01*
G01*
X294667D02*
G03*
X294667Y130500I-1667J0D01*
G01*
X304667D02*
G03*
X304667Y130500I-1667J0D01*
G01*
X314667D02*
G03*
X314667Y130500I-1667J0D01*
G01*
X324667D02*
G03*
X324667Y130500I-1667J0D01*
G01*
X334667D02*
G03*
X334667Y130500I-1667J0D01*
G01*
X404667D02*
G03*
X404667Y130500I-1667J0D01*
G01*
X394667D02*
G03*
X394667Y130500I-1667J0D01*
G01*
X384667D02*
G03*
X384667Y130500I-1667J0D01*
G01*
X374667D02*
G03*
X374667Y130500I-1667J0D01*
G01*
X364667D02*
G03*
X364667Y130500I-1667J0D01*
G01*
X354667D02*
G03*
X354667Y130500I-1667J0D01*
G01*
X404667Y320500D02*
G03*
X404667Y320500I-1667J0D01*
G01*
X394667D02*
G03*
X394667Y320500I-1667J0D01*
G01*
X384667D02*
G03*
X384667Y320500I-1667J0D01*
G01*
X374667D02*
G03*
X374667Y320500I-1667J0D01*
G01*
X364667D02*
G03*
X364667Y320500I-1667J0D01*
G01*
X354667D02*
G03*
X354667Y320500I-1667J0D01*
G01*
X344667D02*
G03*
X344667Y320500I-1667J0D01*
G01*
X334667D02*
G03*
X334667Y320500I-1667J0D01*
G01*
X16667Y260500D02*
G03*
X16667Y260500I-1667J0D01*
G01*
Y250500D02*
G03*
X16667Y250500I-1667J0D01*
G01*
Y240500D02*
G03*
X16667Y240500I-1667J0D01*
G01*
Y230500D02*
G03*
X16667Y230500I-1667J0D01*
G01*
Y200500D02*
G03*
X16667Y200500I-1667J0D01*
G01*
Y190500D02*
G03*
X16667Y190500I-1667J0D01*
G01*
Y180500D02*
G03*
X16667Y180500I-1667J0D01*
G01*
Y170500D02*
G03*
X16667Y170500I-1667J0D01*
G01*
X298667Y142500D02*
G03*
X298667Y142500I-1667J0D01*
G01*
X308667D02*
G03*
X308667Y142500I-1667J0D01*
G01*
X318667Y320500D02*
G03*
X318667Y320500I-1667J0D01*
G01*
X308667D02*
G03*
X308667Y320500I-1667J0D01*
G01*
X298667D02*
G03*
X298667Y320500I-1667J0D01*
G01*
X288667D02*
G03*
X288667Y320500I-1667J0D01*
G01*
X278667D02*
G03*
X278667Y320500I-1667J0D01*
G01*
X268667D02*
G03*
X268667Y320500I-1667J0D01*
G01*
X258667D02*
G03*
X258667Y320500I-1667J0D01*
G01*
X248667D02*
G03*
X248667Y320500I-1667J0D01*
G01*
X16667Y139000D02*
G03*
X16667Y139000I-1667J0D01*
G01*
Y129000D02*
G03*
X16667Y129000I-1667J0D01*
G01*
Y119000D02*
G03*
X16667Y119000I-1667J0D01*
G01*
Y109000D02*
G03*
X16667Y109000I-1667J0D01*
G01*
Y280000D02*
G03*
X16667Y280000I-1667J0D01*
G01*
Y290000D02*
G03*
X16667Y290000I-1667J0D01*
G01*
Y300000D02*
G03*
X16667Y300000I-1667J0D01*
G01*
Y310000D02*
G03*
X16667Y310000I-1667J0D01*
G01*
Y320000D02*
G03*
X16667Y320000I-1667J0D01*
G01*
Y45000D02*
G03*
X16667Y45000I-1667J0D01*
G01*
Y35000D02*
G03*
X16667Y35000I-1667J0D01*
G01*
Y25000D02*
G03*
X16667Y25000I-1667J0D01*
G01*
Y15000D02*
G03*
X16667Y15000I-1667J0D01*
G01*
X394667Y344000D02*
G03*
X394667Y344000I-1667J0D01*
G01*
X324667D02*
G03*
X324667Y344000I-1667J0D01*
G01*
X334667D02*
G03*
X334667Y344000I-1667J0D01*
G01*
X344667D02*
G03*
X344667Y344000I-1667J0D01*
G01*
X354667D02*
G03*
X354667Y344000I-1667J0D01*
G01*
X364667D02*
G03*
X364667Y344000I-1667J0D01*
G01*
X374667D02*
G03*
X374667Y344000I-1667J0D01*
G01*
X384667D02*
G03*
X384667Y344000I-1667J0D01*
G01*
X404667D02*
G03*
X404667Y344000I-1667J0D01*
G01*
X226667Y385500D02*
G03*
X226667Y385500I-1667J0D01*
G01*
X236667D02*
G03*
X236667Y385500I-1667J0D01*
G01*
X246667D02*
G03*
X246667Y385500I-1667J0D01*
G01*
X256667D02*
G03*
X256667Y385500I-1667J0D01*
G01*
X266667D02*
G03*
X266667Y385500I-1667J0D01*
G01*
X276667D02*
G03*
X276667Y385500I-1667J0D01*
G01*
X286667D02*
G03*
X286667Y385500I-1667J0D01*
G01*
X296667D02*
G03*
X296667Y385500I-1667J0D01*
G01*
X306667D02*
G03*
X306667Y385500I-1667J0D01*
G01*
X316667D02*
G03*
X316667Y385500I-1667J0D01*
G01*
X326667D02*
G03*
X326667Y385500I-1667J0D01*
G01*
X336667D02*
G03*
X336667Y385500I-1667J0D01*
G01*
X346667D02*
G03*
X346667Y385500I-1667J0D01*
G01*
X356667D02*
G03*
X356667Y385500I-1667J0D01*
G01*
X366667D02*
G03*
X366667Y385500I-1667J0D01*
G01*
X376667D02*
G03*
X376667Y385500I-1667J0D01*
G01*
X313667Y102500D02*
G03*
X313667Y102500I-1667J0D01*
G01*
Y92500D02*
G03*
X313667Y92500I-1667J0D01*
G01*
X303667Y102500D02*
G03*
X303667Y102500I-1667J0D01*
G01*
Y92500D02*
G03*
X303667Y92500I-1667J0D01*
G01*
X293667Y102500D02*
G03*
X293667Y102500I-1667J0D01*
G01*
Y92500D02*
G03*
X293667Y92500I-1667J0D01*
G01*
X256063Y617750D02*
X257562Y620750D01*
X254562D02*
X257562D01*
X254562D02*
X256063Y617750D01*
Y616750D02*
X258562Y621750D01*
X253562D02*
X258562D01*
X253562D02*
X256063Y616750D01*
X253562Y601750D02*
X256063Y603000D01*
X258562Y601750D01*
X257312Y604250D02*
X258562Y601750D01*
X257312Y604250D02*
X258562Y606750D01*
X256063Y605500D02*
X258562Y606750D01*
X253562D02*
X256063Y605500D01*
X253562Y606750D02*
X254813Y604250D01*
X253562Y601750D02*
X254813Y604250D01*
X253562Y588000D02*
X254813D01*
X253562D02*
Y590500D01*
X254813D01*
Y591750D01*
X257312D01*
Y590500D02*
Y591750D01*
Y590500D02*
X258562D01*
Y588000D02*
Y590500D01*
X257312Y588000D02*
X258562D01*
X257312Y586750D02*
Y588000D01*
X254813Y586750D02*
X257312D01*
X254813D02*
Y588000D01*
Y573000D02*
X256063Y571750D01*
X253562Y573000D02*
X254813D01*
X253562D02*
X254813Y574250D01*
X253562Y575500D02*
X254813Y574250D01*
X253562Y575500D02*
X254813D01*
X256063Y576750D01*
X257312Y575500D01*
X258562D01*
X257312Y574250D02*
X258562Y575500D01*
X257312Y574250D02*
X258562Y573000D01*
X257312D02*
X258562D01*
X256063Y571750D02*
X257312Y573000D01*
X256063Y556750D02*
X258562Y561750D01*
X253562D02*
X258562D01*
X253562D02*
X256063Y556750D01*
X253562Y526750D02*
Y528000D01*
X254813Y529250D01*
X253562Y530500D02*
X254813Y529250D01*
X253562Y530500D02*
Y531750D01*
X254813D01*
X256063Y530500D01*
X257312Y531750D01*
X258562D01*
Y530500D02*
Y531750D01*
X257312Y529250D02*
X258562Y530500D01*
X257312Y529250D02*
X258562Y528000D01*
Y526750D02*
Y528000D01*
X257312Y526750D02*
X258562D01*
X256063Y528000D02*
X257312Y526750D01*
X254813D02*
X256063Y528000D01*
X253562Y526750D02*
X254813D01*
X201833Y221333D02*
Y222167D01*
X202667Y223000D01*
X201833Y223833D02*
X202667Y223000D01*
X201833Y223833D02*
Y224667D01*
X202667D01*
X203500Y223833D01*
X204333Y224667D01*
X205167D01*
Y223833D02*
Y224667D01*
X204333Y223000D02*
X205167Y223833D01*
X204333Y223000D02*
X205167Y222167D01*
Y221333D02*
Y222167D01*
X204333Y221333D02*
X205167D01*
X203500Y222167D02*
X204333Y221333D01*
X202667D02*
X203500Y222167D01*
X201833Y221333D02*
X202667D01*
X423833Y256833D02*
Y257667D01*
X424667Y258500D01*
X423833Y259333D02*
X424667Y258500D01*
X423833Y259333D02*
Y260167D01*
X424667D01*
X425500Y259333D01*
X426333Y260167D01*
X427167D01*
Y259333D02*
Y260167D01*
X426333Y258500D02*
X427167Y259333D01*
X426333Y258500D02*
X427167Y257667D01*
Y256833D02*
Y257667D01*
X426333Y256833D02*
X427167D01*
X425500Y257667D02*
X426333Y256833D01*
X424667D02*
X425500Y257667D01*
X423833Y256833D02*
X424667D01*
X432333Y355333D02*
Y356167D01*
X433167Y357000D01*
X432333Y357833D02*
X433167Y357000D01*
X432333Y357833D02*
Y358667D01*
X433167D01*
X434000Y357833D01*
X434833Y358667D01*
X435667D01*
Y357833D02*
Y358667D01*
X434833Y357000D02*
X435667Y357833D01*
X434833Y357000D02*
X435667Y356167D01*
Y355333D02*
Y356167D01*
X434833Y355333D02*
X435667D01*
X434000Y356167D02*
X434833Y355333D01*
X433167D02*
X434000Y356167D01*
X432333Y355333D02*
X433167D01*
X561833Y256833D02*
Y257667D01*
X562667Y258500D01*
X561833Y259333D02*
X562667Y258500D01*
X561833Y259333D02*
Y260167D01*
X562667D01*
X563500Y259333D01*
X564333Y260167D01*
X565167D01*
Y259333D02*
Y260167D01*
X564333Y258500D02*
X565167Y259333D01*
X564333Y258500D02*
X565167Y257667D01*
Y256833D02*
Y257667D01*
X564333Y256833D02*
X565167D01*
X563500Y257667D02*
X564333Y256833D01*
X562667D02*
X563500Y257667D01*
X561833Y256833D02*
X562667D01*
X513333Y247833D02*
Y248667D01*
X514167Y249500D01*
X513333Y250333D02*
X514167Y249500D01*
X513333Y250333D02*
Y251167D01*
X514167D01*
X515000Y250333D01*
X515833Y251167D01*
X516667D01*
Y250333D02*
Y251167D01*
X515833Y249500D02*
X516667Y250333D01*
X515833Y249500D02*
X516667Y248667D01*
Y247833D02*
Y248667D01*
X515833Y247833D02*
X516667D01*
X515000Y248667D02*
X515833Y247833D01*
X514167D02*
X515000Y248667D01*
X513333Y247833D02*
X514167D01*
X483833Y171333D02*
Y172167D01*
X484667Y173000D01*
X483833Y173833D02*
X484667Y173000D01*
X483833Y173833D02*
Y174667D01*
X484667D01*
X485500Y173833D01*
X486333Y174667D01*
X487167D01*
Y173833D02*
Y174667D01*
X486333Y173000D02*
X487167Y173833D01*
X486333Y173000D02*
X487167Y172167D01*
Y171333D02*
Y172167D01*
X486333Y171333D02*
X487167D01*
X485500Y172167D02*
X486333Y171333D01*
X484667D02*
X485500Y172167D01*
X483833Y171333D02*
X484667D01*
X483833Y242333D02*
Y243167D01*
X484667Y244000D01*
X483833Y244833D02*
X484667Y244000D01*
X483833Y244833D02*
Y245667D01*
X484667D01*
X485500Y244833D01*
X486333Y245667D01*
X487167D01*
Y244833D02*
Y245667D01*
X486333Y244000D02*
X487167Y244833D01*
X486333Y244000D02*
X487167Y243167D01*
Y242333D02*
Y243167D01*
X486333Y242333D02*
X487167D01*
X485500Y243167D02*
X486333Y242333D01*
X484667D02*
X485500Y243167D01*
X483833Y242333D02*
X484667D01*
X355833Y311333D02*
Y312167D01*
X356667Y313000D01*
X355833Y313833D02*
X356667Y313000D01*
X355833Y313833D02*
Y314667D01*
X356667D01*
X357500Y313833D01*
X358333Y314667D01*
X359167D01*
Y313833D02*
Y314667D01*
X358333Y313000D02*
X359167Y313833D01*
X358333Y313000D02*
X359167Y312167D01*
Y311333D02*
Y312167D01*
X358333Y311333D02*
X359167D01*
X357500Y312167D02*
X358333Y311333D01*
X356667D02*
X357500Y312167D01*
X355833Y311333D02*
X356667D01*
X569833Y378333D02*
Y379167D01*
X570667Y380000D01*
X569833Y380833D02*
X570667Y380000D01*
X569833Y380833D02*
Y381667D01*
X570667D01*
X571500Y380833D01*
X572333Y381667D01*
X573167D01*
Y380833D02*
Y381667D01*
X572333Y380000D02*
X573167Y380833D01*
X572333Y380000D02*
X573167Y379167D01*
Y378333D02*
Y379167D01*
X572333Y378333D02*
X573167D01*
X571500Y379167D02*
X572333Y378333D01*
X570667D02*
X571500Y379167D01*
X569833Y378333D02*
X570667D01*
X85333Y107833D02*
Y108667D01*
X86167Y109500D01*
X85333Y110333D02*
X86167Y109500D01*
X85333Y110333D02*
Y111167D01*
X86167D01*
X87000Y110333D01*
X87833Y111167D01*
X88667D01*
Y110333D02*
Y111167D01*
X87833Y109500D02*
X88667Y110333D01*
X87833Y109500D02*
X88667Y108667D01*
Y107833D02*
Y108667D01*
X87833Y107833D02*
X88667D01*
X87000Y108667D02*
X87833Y107833D01*
X86167D02*
X87000Y108667D01*
X85333Y107833D02*
X86167D01*
X118833Y134333D02*
Y135167D01*
X119667Y136000D01*
X118833Y136833D02*
X119667Y136000D01*
X118833Y136833D02*
Y137667D01*
X119667D01*
X120500Y136833D01*
X121333Y137667D01*
X122167D01*
Y136833D02*
Y137667D01*
X121333Y136000D02*
X122167Y136833D01*
X121333Y136000D02*
X122167Y135167D01*
Y134333D02*
Y135167D01*
X121333Y134333D02*
X122167D01*
X120500Y135167D02*
X121333Y134333D01*
X119667D02*
X120500Y135167D01*
X118833Y134333D02*
X119667D01*
X212333Y231833D02*
Y232667D01*
X213167Y233500D01*
X212333Y234333D02*
X213167Y233500D01*
X212333Y234333D02*
Y235167D01*
X213167D01*
X214000Y234333D01*
X214833Y235167D01*
X215667D01*
Y234333D02*
Y235167D01*
X214833Y233500D02*
X215667Y234333D01*
X214833Y233500D02*
X215667Y232667D01*
Y231833D02*
Y232667D01*
X214833Y231833D02*
X215667D01*
X214000Y232667D02*
X214833Y231833D01*
X213167D02*
X214000Y232667D01*
X212333Y231833D02*
X213167D01*
X94333Y81333D02*
Y82167D01*
X95167Y83000D01*
X94333Y83833D02*
X95167Y83000D01*
X94333Y83833D02*
Y84667D01*
X95167D01*
X96000Y83833D01*
X96833Y84667D01*
X97667D01*
Y83833D02*
Y84667D01*
X96833Y83000D02*
X97667Y83833D01*
X96833Y83000D02*
X97667Y82167D01*
Y81333D02*
Y82167D01*
X96833Y81333D02*
X97667D01*
X96000Y82167D02*
X96833Y81333D01*
X95167D02*
X96000Y82167D01*
X94333Y81333D02*
X95167D01*
X352333Y147333D02*
Y148167D01*
X353167Y149000D01*
X352333Y149833D02*
X353167Y149000D01*
X352333Y149833D02*
Y150667D01*
X353167D01*
X354000Y149833D01*
X354833Y150667D01*
X355667D01*
Y149833D02*
Y150667D01*
X354833Y149000D02*
X355667Y149833D01*
X354833Y149000D02*
X355667Y148167D01*
Y147333D02*
Y148167D01*
X354833Y147333D02*
X355667D01*
X354000Y148167D02*
X354833Y147333D01*
X353167D02*
X354000Y148167D01*
X352333Y147333D02*
X353167D01*
X554333Y218333D02*
Y219167D01*
X555167Y220000D01*
X554333Y220833D02*
X555167Y220000D01*
X554333Y220833D02*
Y221667D01*
X555167D01*
X556000Y220833D01*
X556833Y221667D01*
X557667D01*
Y220833D02*
Y221667D01*
X556833Y220000D02*
X557667Y220833D01*
X556833Y220000D02*
X557667Y219167D01*
Y218333D02*
Y219167D01*
X556833Y218333D02*
X557667D01*
X556000Y219167D02*
X556833Y218333D01*
X555167D02*
X556000Y219167D01*
X554333Y218333D02*
X555167D01*
X554333Y194333D02*
Y195167D01*
X555167Y196000D01*
X554333Y196833D02*
X555167Y196000D01*
X554333Y196833D02*
Y197667D01*
X555167D01*
X556000Y196833D01*
X556833Y197667D01*
X557667D01*
Y196833D02*
Y197667D01*
X556833Y196000D02*
X557667Y196833D01*
X556833Y196000D02*
X557667Y195167D01*
Y194333D02*
Y195167D01*
X556833Y194333D02*
X557667D01*
X556000Y195167D02*
X556833Y194333D01*
X555167D02*
X556000Y195167D01*
X554333Y194333D02*
X555167D01*
X304833Y294833D02*
Y295667D01*
X305667Y296500D01*
X304833Y297333D02*
X305667Y296500D01*
X304833Y297333D02*
Y298167D01*
X305667D01*
X306500Y297333D01*
X307333Y298167D01*
X308167D01*
Y297333D02*
Y298167D01*
X307333Y296500D02*
X308167Y297333D01*
X307333Y296500D02*
X308167Y295667D01*
Y294833D02*
Y295667D01*
X307333Y294833D02*
X308167D01*
X306500Y295667D02*
X307333Y294833D01*
X305667D02*
X306500Y295667D01*
X304833Y294833D02*
X305667D01*
X235333Y200833D02*
Y201667D01*
X236167Y202500D01*
X235333Y203333D02*
X236167Y202500D01*
X235333Y203333D02*
Y204167D01*
X236167D01*
X237000Y203333D01*
X237833Y204167D01*
X238667D01*
Y203333D02*
Y204167D01*
X237833Y202500D02*
X238667Y203333D01*
X237833Y202500D02*
X238667Y201667D01*
Y200833D02*
Y201667D01*
X237833Y200833D02*
X238667D01*
X237000Y201667D02*
X237833Y200833D01*
X236167D02*
X237000Y201667D01*
X235333Y200833D02*
X236167D01*
X165333Y348333D02*
Y349167D01*
X166167Y350000D01*
X165333Y350833D02*
X166167Y350000D01*
X165333Y350833D02*
Y351667D01*
X166167D01*
X167000Y350833D01*
X167833Y351667D01*
X168667D01*
Y350833D02*
Y351667D01*
X167833Y350000D02*
X168667Y350833D01*
X167833Y350000D02*
X168667Y349167D01*
Y348333D02*
Y349167D01*
X167833Y348333D02*
X168667D01*
X167000Y349167D02*
X167833Y348333D01*
X166167D02*
X167000Y349167D01*
X165333Y348333D02*
X166167D01*
X190833Y193333D02*
Y194167D01*
X191667Y195000D01*
X190833Y195833D02*
X191667Y195000D01*
X190833Y195833D02*
Y196667D01*
X191667D01*
X192500Y195833D01*
X193333Y196667D01*
X194167D01*
Y195833D02*
Y196667D01*
X193333Y195000D02*
X194167Y195833D01*
X193333Y195000D02*
X194167Y194167D01*
Y193333D02*
Y194167D01*
X193333Y193333D02*
X194167D01*
X192500Y194167D02*
X193333Y193333D01*
X191667D02*
X192500Y194167D01*
X190833Y193333D02*
X191667D01*
X223833Y179333D02*
Y180167D01*
X224667Y181000D01*
X223833Y181833D02*
X224667Y181000D01*
X223833Y181833D02*
Y182667D01*
X224667D01*
X225500Y181833D01*
X226333Y182667D01*
X227167D01*
Y181833D02*
Y182667D01*
X226333Y181000D02*
X227167Y181833D01*
X226333Y181000D02*
X227167Y180167D01*
Y179333D02*
Y180167D01*
X226333Y179333D02*
X227167D01*
X225500Y180167D02*
X226333Y179333D01*
X224667D02*
X225500Y180167D01*
X223833Y179333D02*
X224667D01*
X206833Y225833D02*
Y226667D01*
X207667Y227500D01*
X206833Y228333D02*
X207667Y227500D01*
X206833Y228333D02*
Y229167D01*
X207667D01*
X208500Y228333D01*
X209333Y229167D01*
X210167D01*
Y228333D02*
Y229167D01*
X209333Y227500D02*
X210167Y228333D01*
X209333Y227500D02*
X210167Y226667D01*
Y225833D02*
Y226667D01*
X209333Y225833D02*
X210167D01*
X208500Y226667D02*
X209333Y225833D01*
X207667D02*
X208500Y226667D01*
X206833Y225833D02*
X207667D01*
X196833Y215833D02*
Y216667D01*
X197667Y217500D01*
X196833Y218333D02*
X197667Y217500D01*
X196833Y218333D02*
Y219167D01*
X197667D01*
X198500Y218333D01*
X199333Y219167D01*
X200167D01*
Y218333D02*
Y219167D01*
X199333Y217500D02*
X200167Y218333D01*
X199333Y217500D02*
X200167Y216667D01*
Y215833D02*
Y216667D01*
X199333Y215833D02*
X200167D01*
X198500Y216667D02*
X199333Y215833D01*
X197667D02*
X198500Y216667D01*
X196833Y215833D02*
X197667D01*
X162833Y180333D02*
Y181167D01*
X163667Y182000D01*
X162833Y182833D02*
X163667Y182000D01*
X162833Y182833D02*
Y183667D01*
X163667D01*
X164500Y182833D01*
X165333Y183667D01*
X166167D01*
Y182833D02*
Y183667D01*
X165333Y182000D02*
X166167Y182833D01*
X165333Y182000D02*
X166167Y181167D01*
Y180333D02*
Y181167D01*
X165333Y180333D02*
X166167D01*
X164500Y181167D02*
X165333Y180333D01*
X163667D02*
X164500Y181167D01*
X162833Y180333D02*
X163667D01*
X210833Y153833D02*
Y154667D01*
X211667Y155500D01*
X210833Y156333D02*
X211667Y155500D01*
X210833Y156333D02*
Y157167D01*
X211667D01*
X212500Y156333D01*
X213333Y157167D01*
X214167D01*
Y156333D02*
Y157167D01*
X213333Y155500D02*
X214167Y156333D01*
X213333Y155500D02*
X214167Y154667D01*
Y153833D02*
Y154667D01*
X213333Y153833D02*
X214167D01*
X212500Y154667D02*
X213333Y153833D01*
X211667D02*
X212500Y154667D01*
X210833Y153833D02*
X211667D01*
X202333Y152833D02*
Y153667D01*
X203167Y154500D01*
X202333Y155333D02*
X203167Y154500D01*
X202333Y155333D02*
Y156167D01*
X203167D01*
X204000Y155333D01*
X204833Y156167D01*
X205667D01*
Y155333D02*
Y156167D01*
X204833Y154500D02*
X205667Y155333D01*
X204833Y154500D02*
X205667Y153667D01*
Y152833D02*
Y153667D01*
X204833Y152833D02*
X205667D01*
X204000Y153667D02*
X204833Y152833D01*
X203167D02*
X204000Y153667D01*
X202333Y152833D02*
X203167D01*
X381333Y191833D02*
Y192667D01*
X382167Y193500D01*
X381333Y194333D02*
X382167Y193500D01*
X381333Y194333D02*
Y195167D01*
X382167D01*
X383000Y194333D01*
X383833Y195167D01*
X384667D01*
Y194333D02*
Y195167D01*
X383833Y193500D02*
X384667Y194333D01*
X383833Y193500D02*
X384667Y192667D01*
Y191833D02*
Y192667D01*
X383833Y191833D02*
X384667D01*
X383000Y192667D02*
X383833Y191833D01*
X382167D02*
X383000Y192667D01*
X381333Y191833D02*
X382167D01*
X386833Y195833D02*
Y196667D01*
X387667Y197500D01*
X386833Y198333D02*
X387667Y197500D01*
X386833Y198333D02*
Y199167D01*
X387667D01*
X388500Y198333D01*
X389333Y199167D01*
X390167D01*
Y198333D02*
Y199167D01*
X389333Y197500D02*
X390167Y198333D01*
X389333Y197500D02*
X390167Y196667D01*
Y195833D02*
Y196667D01*
X389333Y195833D02*
X390167D01*
X388500Y196667D02*
X389333Y195833D01*
X387667D02*
X388500Y196667D01*
X386833Y195833D02*
X387667D01*
X168333Y115833D02*
Y116667D01*
X169167Y117500D01*
X168333Y118333D02*
X169167Y117500D01*
X168333Y118333D02*
Y119167D01*
X169167D01*
X170000Y118333D01*
X170833Y119167D01*
X171667D01*
Y118333D02*
Y119167D01*
X170833Y117500D02*
X171667Y118333D01*
X170833Y117500D02*
X171667Y116667D01*
Y115833D02*
Y116667D01*
X170833Y115833D02*
X171667D01*
X170000Y116667D02*
X170833Y115833D01*
X169167D02*
X170000Y116667D01*
X168333Y115833D02*
X169167D01*
X501833Y136833D02*
Y137667D01*
X502667Y138500D01*
X501833Y139333D02*
X502667Y138500D01*
X501833Y139333D02*
Y140167D01*
X502667D01*
X503500Y139333D01*
X504333Y140167D01*
X505167D01*
Y139333D02*
Y140167D01*
X504333Y138500D02*
X505167Y139333D01*
X504333Y138500D02*
X505167Y137667D01*
Y136833D02*
Y137667D01*
X504333Y136833D02*
X505167D01*
X503500Y137667D02*
X504333Y136833D01*
X502667D02*
X503500Y137667D01*
X501833Y136833D02*
X502667D01*
X528333Y160833D02*
Y161667D01*
X529167Y162500D01*
X528333Y163333D02*
X529167Y162500D01*
X528333Y163333D02*
Y164167D01*
X529167D01*
X530000Y163333D01*
X530833Y164167D01*
X531667D01*
Y163333D02*
Y164167D01*
X530833Y162500D02*
X531667Y163333D01*
X530833Y162500D02*
X531667Y161667D01*
Y160833D02*
Y161667D01*
X530833Y160833D02*
X531667D01*
X530000Y161667D02*
X530833Y160833D01*
X529167D02*
X530000Y161667D01*
X528333Y160833D02*
X529167D01*
X88333Y317833D02*
Y318667D01*
X89167Y319500D01*
X88333Y320333D02*
X89167Y319500D01*
X88333Y320333D02*
Y321167D01*
X89167D01*
X90000Y320333D01*
X90833Y321167D01*
X91667D01*
Y320333D02*
Y321167D01*
X90833Y319500D02*
X91667Y320333D01*
X90833Y319500D02*
X91667Y318667D01*
Y317833D02*
Y318667D01*
X90833Y317833D02*
X91667D01*
X90000Y318667D02*
X90833Y317833D01*
X89167D02*
X90000Y318667D01*
X88333Y317833D02*
X89167D01*
X149333Y253341D02*
Y254174D01*
X150167Y255008D01*
X149333Y255841D02*
X150167Y255008D01*
X149333Y255841D02*
Y256675D01*
X150167D01*
X151000Y255841D01*
X151833Y256675D01*
X152667D01*
Y255841D02*
Y256675D01*
X151833Y255008D02*
X152667Y255841D01*
X151833Y255008D02*
X152667Y254174D01*
Y253341D02*
Y254174D01*
X151833Y253341D02*
X152667D01*
X151000Y254174D02*
X151833Y253341D01*
X150167D02*
X151000Y254174D01*
X149333Y253341D02*
X150167D01*
X463333Y158333D02*
Y159167D01*
X464167Y160000D01*
X463333Y160833D02*
X464167Y160000D01*
X463333Y160833D02*
Y161667D01*
X464167D01*
X465000Y160833D01*
X465833Y161667D01*
X466667D01*
Y160833D02*
Y161667D01*
X465833Y160000D02*
X466667Y160833D01*
X465833Y160000D02*
X466667Y159167D01*
Y158333D02*
Y159167D01*
X465833Y158333D02*
X466667D01*
X465000Y159167D02*
X465833Y158333D01*
X464167D02*
X465000Y159167D01*
X463333Y158333D02*
X464167D01*
X365786Y309786D02*
Y310619D01*
X366619Y311453D01*
X365786Y312286D02*
X366619Y311453D01*
X365786Y312286D02*
Y313119D01*
X366619D01*
X367453Y312286D01*
X368286Y313119D01*
X369119D01*
Y312286D02*
Y313119D01*
X368286Y311453D02*
X369119Y312286D01*
X368286Y311453D02*
X369119Y310619D01*
Y309786D02*
Y310619D01*
X368286Y309786D02*
X369119D01*
X367453Y310619D02*
X368286Y309786D01*
X366619D02*
X367453Y310619D01*
X365786Y309786D02*
X366619D01*
X422833Y215833D02*
Y216667D01*
X423667Y217500D01*
X422833Y218333D02*
X423667Y217500D01*
X422833Y218333D02*
Y219167D01*
X423667D01*
X424500Y218333D01*
X425333Y219167D01*
X426167D01*
Y218333D02*
Y219167D01*
X425333Y217500D02*
X426167Y218333D01*
X425333Y217500D02*
X426167Y216667D01*
Y215833D02*
Y216667D01*
X425333Y215833D02*
X426167D01*
X424500Y216667D02*
X425333Y215833D01*
X423667D02*
X424500Y216667D01*
X422833Y215833D02*
X423667D01*
X412833Y251333D02*
Y252167D01*
X413667Y253000D01*
X412833Y253833D02*
X413667Y253000D01*
X412833Y253833D02*
Y254667D01*
X413667D01*
X414500Y253833D01*
X415333Y254667D01*
X416167D01*
Y253833D02*
Y254667D01*
X415333Y253000D02*
X416167Y253833D01*
X415333Y253000D02*
X416167Y252167D01*
Y251333D02*
Y252167D01*
X415333Y251333D02*
X416167D01*
X414500Y252167D02*
X415333Y251333D01*
X413667D02*
X414500Y252167D01*
X412833Y251333D02*
X413667D01*
X423833Y198833D02*
Y199667D01*
X424667Y200500D01*
X423833Y201333D02*
X424667Y200500D01*
X423833Y201333D02*
Y202167D01*
X424667D01*
X425500Y201333D01*
X426333Y202167D01*
X427167D01*
Y201333D02*
Y202167D01*
X426333Y200500D02*
X427167Y201333D01*
X426333Y200500D02*
X427167Y199667D01*
Y198833D02*
Y199667D01*
X426333Y198833D02*
X427167D01*
X425500Y199667D02*
X426333Y198833D01*
X424667D02*
X425500Y199667D01*
X423833Y198833D02*
X424667D01*
X408333Y202833D02*
Y203667D01*
X409167Y204500D01*
X408333Y205333D02*
X409167Y204500D01*
X408333Y205333D02*
Y206167D01*
X409167D01*
X410000Y205333D01*
X410833Y206167D01*
X411667D01*
Y205333D02*
Y206167D01*
X410833Y204500D02*
X411667Y205333D01*
X410833Y204500D02*
X411667Y203667D01*
Y202833D02*
Y203667D01*
X410833Y202833D02*
X411667D01*
X410000Y203667D02*
X410833Y202833D01*
X409167D02*
X410000Y203667D01*
X408333Y202833D02*
X409167D01*
X356833Y172333D02*
Y173167D01*
X357667Y174000D01*
X356833Y174833D02*
X357667Y174000D01*
X356833Y174833D02*
Y175667D01*
X357667D01*
X358500Y174833D01*
X359333Y175667D01*
X360167D01*
Y174833D02*
Y175667D01*
X359333Y174000D02*
X360167Y174833D01*
X359333Y174000D02*
X360167Y173167D01*
Y172333D02*
Y173167D01*
X359333Y172333D02*
X360167D01*
X358500Y173167D02*
X359333Y172333D01*
X357667D02*
X358500Y173167D01*
X356833Y172333D02*
X357667D01*
X415333Y214333D02*
Y215167D01*
X416167Y216000D01*
X415333Y216833D02*
X416167Y216000D01*
X415333Y216833D02*
Y217667D01*
X416167D01*
X417000Y216833D01*
X417833Y217667D01*
X418667D01*
Y216833D02*
Y217667D01*
X417833Y216000D02*
X418667Y216833D01*
X417833Y216000D02*
X418667Y215167D01*
Y214333D02*
Y215167D01*
X417833Y214333D02*
X418667D01*
X417000Y215167D02*
X417833Y214333D01*
X416167D02*
X417000Y215167D01*
X415333Y214333D02*
X416167D01*
X374333Y228833D02*
Y229667D01*
X375167Y230500D01*
X374333Y231333D02*
X375167Y230500D01*
X374333Y231333D02*
Y232167D01*
X375167D01*
X376000Y231333D01*
X376833Y232167D01*
X377667D01*
Y231333D02*
Y232167D01*
X376833Y230500D02*
X377667Y231333D01*
X376833Y230500D02*
X377667Y229667D01*
Y228833D02*
Y229667D01*
X376833Y228833D02*
X377667D01*
X376000Y229667D02*
X376833Y228833D01*
X375167D02*
X376000Y229667D01*
X374333Y228833D02*
X375167D01*
X380833Y224833D02*
Y225667D01*
X381667Y226500D01*
X380833Y227333D02*
X381667Y226500D01*
X380833Y227333D02*
Y228167D01*
X381667D01*
X382500Y227333D01*
X383333Y228167D01*
X384167D01*
Y227333D02*
Y228167D01*
X383333Y226500D02*
X384167Y227333D01*
X383333Y226500D02*
X384167Y225667D01*
Y224833D02*
Y225667D01*
X383333Y224833D02*
X384167D01*
X382500Y225667D02*
X383333Y224833D01*
X381667D02*
X382500Y225667D01*
X380833Y224833D02*
X381667D01*
X428333Y309833D02*
Y310667D01*
X429167Y311500D01*
X428333Y312333D02*
X429167Y311500D01*
X428333Y312333D02*
Y313167D01*
X429167D01*
X430000Y312333D01*
X430833Y313167D01*
X431667D01*
Y312333D02*
Y313167D01*
X430833Y311500D02*
X431667Y312333D01*
X430833Y311500D02*
X431667Y310667D01*
Y309833D02*
Y310667D01*
X430833Y309833D02*
X431667D01*
X430000Y310667D02*
X430833Y309833D01*
X429167D02*
X430000Y310667D01*
X428333Y309833D02*
X429167D01*
X513833Y169333D02*
Y170167D01*
X514667Y171000D01*
X513833Y171833D02*
X514667Y171000D01*
X513833Y171833D02*
Y172667D01*
X514667D01*
X515500Y171833D01*
X516333Y172667D01*
X517167D01*
Y171833D02*
Y172667D01*
X516333Y171000D02*
X517167Y171833D01*
X516333Y171000D02*
X517167Y170167D01*
Y169333D02*
Y170167D01*
X516333Y169333D02*
X517167D01*
X515500Y170167D02*
X516333Y169333D01*
X514667D02*
X515500Y170167D01*
X513833Y169333D02*
X514667D01*
X481333Y376833D02*
Y377667D01*
X482167Y378500D01*
X481333Y379333D02*
X482167Y378500D01*
X481333Y379333D02*
Y380167D01*
X482167D01*
X483000Y379333D01*
X483833Y380167D01*
X484667D01*
Y379333D02*
Y380167D01*
X483833Y378500D02*
X484667Y379333D01*
X483833Y378500D02*
X484667Y377667D01*
Y376833D02*
Y377667D01*
X483833Y376833D02*
X484667D01*
X483000Y377667D02*
X483833Y376833D01*
X482167D02*
X483000Y377667D01*
X481333Y376833D02*
X482167D01*
X56762Y249904D02*
Y250738D01*
X57596Y251571D01*
X56762Y252404D02*
X57596Y251571D01*
X56762Y252404D02*
Y253238D01*
X57596D01*
X58429Y252404D01*
X59263Y253238D01*
X60096D01*
Y252404D02*
Y253238D01*
X59263Y251571D02*
X60096Y252404D01*
X59263Y251571D02*
X60096Y250738D01*
Y249904D02*
Y250738D01*
X59263Y249904D02*
X60096D01*
X58429Y250738D02*
X59263Y249904D01*
X57596D02*
X58429Y250738D01*
X56762Y249904D02*
X57596D01*
X508510Y350085D02*
Y350919D01*
X509344Y351752D01*
X508510Y352585D02*
X509344Y351752D01*
X508510Y352585D02*
Y353419D01*
X509344D01*
X510177Y352585D01*
X511011Y353419D01*
X511844D01*
Y352585D02*
Y353419D01*
X511011Y351752D02*
X511844Y352585D01*
X511011Y351752D02*
X511844Y350919D01*
Y350085D02*
Y350919D01*
X511011Y350085D02*
X511844D01*
X510177Y350919D02*
X511011Y350085D01*
X509344D02*
X510177Y350919D01*
X508510Y350085D02*
X509344D01*
X479010Y350585D02*
Y351419D01*
X479844Y352252D01*
X479010Y353085D02*
X479844Y352252D01*
X479010Y353085D02*
Y353919D01*
X479844D01*
X480677Y353085D01*
X481510Y353919D01*
X482344D01*
Y353085D02*
Y353919D01*
X481510Y352252D02*
X482344Y353085D01*
X481510Y352252D02*
X482344Y351419D01*
Y350585D02*
Y351419D01*
X481510Y350585D02*
X482344D01*
X480677Y351419D02*
X481510Y350585D01*
X479844D02*
X480677Y351419D01*
X479010Y350585D02*
X479844D01*
X60833Y306333D02*
Y307167D01*
X61667Y308000D01*
X60833Y308833D02*
X61667Y308000D01*
X60833Y308833D02*
Y309667D01*
X61667D01*
X62500Y308833D01*
X63333Y309667D01*
X64167D01*
Y308833D02*
Y309667D01*
X63333Y308000D02*
X64167Y308833D01*
X63333Y308000D02*
X64167Y307167D01*
Y306333D02*
Y307167D01*
X63333Y306333D02*
X64167D01*
X62500Y307167D02*
X63333Y306333D01*
X61667D02*
X62500Y307167D01*
X60833Y306333D02*
X61667D01*
X128833Y321333D02*
Y322167D01*
X129667Y323000D01*
X128833Y323833D02*
X129667Y323000D01*
X128833Y323833D02*
Y324667D01*
X129667D01*
X130500Y323833D01*
X131333Y324667D01*
X132167D01*
Y323833D02*
Y324667D01*
X131333Y323000D02*
X132167Y323833D01*
X131333Y323000D02*
X132167Y322167D01*
Y321333D02*
Y322167D01*
X131333Y321333D02*
X132167D01*
X130500Y322167D02*
X131333Y321333D01*
X129667D02*
X130500Y322167D01*
X128833Y321333D02*
X129667D01*
X73609Y333255D02*
Y334088D01*
X74442Y334921D01*
X73609Y335755D02*
X74442Y334921D01*
X73609Y335755D02*
Y336588D01*
X74442D01*
X75276Y335755D01*
X76109Y336588D01*
X76942D01*
Y335755D02*
Y336588D01*
X76109Y334921D02*
X76942Y335755D01*
X76109Y334921D02*
X76942Y334088D01*
Y333255D02*
Y334088D01*
X76109Y333255D02*
X76942D01*
X75276Y334088D02*
X76109Y333255D01*
X74442D02*
X75276Y334088D01*
X73609Y333255D02*
X74442D01*
X506333Y376333D02*
Y377167D01*
X507167Y378000D01*
X506333Y378833D02*
X507167Y378000D01*
X506333Y378833D02*
Y379667D01*
X507167D01*
X508000Y378833D01*
X508833Y379667D01*
X509667D01*
Y378833D02*
Y379667D01*
X508833Y378000D02*
X509667Y378833D01*
X508833Y378000D02*
X509667Y377167D01*
Y376333D02*
Y377167D01*
X508833Y376333D02*
X509667D01*
X508000Y377167D02*
X508833Y376333D01*
X507167D02*
X508000Y377167D01*
X506333Y376333D02*
X507167D01*
X77833Y200833D02*
Y201667D01*
X78667Y202500D01*
X77833Y203333D02*
X78667Y202500D01*
X77833Y203333D02*
Y204167D01*
X78667D01*
X79500Y203333D01*
X80333Y204167D01*
X81167D01*
Y203333D02*
Y204167D01*
X80333Y202500D02*
X81167Y203333D01*
X80333Y202500D02*
X81167Y201667D01*
Y200833D02*
Y201667D01*
X80333Y200833D02*
X81167D01*
X79500Y201667D02*
X80333Y200833D01*
X78667D02*
X79500Y201667D01*
X77833Y200833D02*
X78667D01*
X374333Y355333D02*
Y356167D01*
X375167Y357000D01*
X374333Y357833D02*
X375167Y357000D01*
X374333Y357833D02*
Y358667D01*
X375167D01*
X376000Y357833D01*
X376833Y358667D01*
X377667D01*
Y357833D02*
Y358667D01*
X376833Y357000D02*
X377667Y357833D01*
X376833Y357000D02*
X377667Y356167D01*
Y355333D02*
Y356167D01*
X376833Y355333D02*
X377667D01*
X376000Y356167D02*
X376833Y355333D01*
X375167D02*
X376000Y356167D01*
X374333Y355333D02*
X375167D01*
X387833Y158333D02*
Y159167D01*
X388667Y160000D01*
X387833Y160833D02*
X388667Y160000D01*
X387833Y160833D02*
Y161667D01*
X388667D01*
X389500Y160833D01*
X390333Y161667D01*
X391167D01*
Y160833D02*
Y161667D01*
X390333Y160000D02*
X391167Y160833D01*
X390333Y160000D02*
X391167Y159167D01*
Y158333D02*
Y159167D01*
X390333Y158333D02*
X391167D01*
X389500Y159167D02*
X390333Y158333D01*
X388667D02*
X389500Y159167D01*
X387833Y158333D02*
X388667D01*
X207833Y73833D02*
Y74667D01*
X208667Y75500D01*
X207833Y76333D02*
X208667Y75500D01*
X207833Y76333D02*
Y77167D01*
X208667D01*
X209500Y76333D01*
X210333Y77167D01*
X211167D01*
Y76333D02*
Y77167D01*
X210333Y75500D02*
X211167Y76333D01*
X210333Y75500D02*
X211167Y74667D01*
Y73833D02*
Y74667D01*
X210333Y73833D02*
X211167D01*
X209500Y74667D02*
X210333Y73833D01*
X208667D02*
X209500Y74667D01*
X207833Y73833D02*
X208667D01*
X220333Y73333D02*
Y74167D01*
X221167Y75000D01*
X220333Y75833D02*
X221167Y75000D01*
X220333Y75833D02*
Y76667D01*
X221167D01*
X222000Y75833D01*
X222833Y76667D01*
X223667D01*
Y75833D02*
Y76667D01*
X222833Y75000D02*
X223667Y75833D01*
X222833Y75000D02*
X223667Y74167D01*
Y73333D02*
Y74167D01*
X222833Y73333D02*
X223667D01*
X222000Y74167D02*
X222833Y73333D01*
X221167D02*
X222000Y74167D01*
X220333Y73333D02*
X221167D01*
X224333Y149333D02*
Y150167D01*
X225167Y151000D01*
X224333Y151833D02*
X225167Y151000D01*
X224333Y151833D02*
Y152667D01*
X225167D01*
X226000Y151833D01*
X226833Y152667D01*
X227667D01*
Y151833D02*
Y152667D01*
X226833Y151000D02*
X227667Y151833D01*
X226833Y151000D02*
X227667Y150167D01*
Y149333D02*
Y150167D01*
X226833Y149333D02*
X227667D01*
X226000Y150167D02*
X226833Y149333D01*
X225167D02*
X226000Y150167D01*
X224333Y149333D02*
X225167D01*
X238333Y185833D02*
Y186667D01*
X239167Y187500D01*
X238333Y188333D02*
X239167Y187500D01*
X238333Y188333D02*
Y189167D01*
X239167D01*
X240000Y188333D01*
X240833Y189167D01*
X241667D01*
Y188333D02*
Y189167D01*
X240833Y187500D02*
X241667Y188333D01*
X240833Y187500D02*
X241667Y186667D01*
Y185833D02*
Y186667D01*
X240833Y185833D02*
X241667D01*
X240000Y186667D02*
X240833Y185833D01*
X239167D02*
X240000Y186667D01*
X238333Y185833D02*
X239167D01*
X93333Y216833D02*
Y217667D01*
X94167Y218500D01*
X93333Y219333D02*
X94167Y218500D01*
X93333Y219333D02*
Y220167D01*
X94167D01*
X95000Y219333D01*
X95833Y220167D01*
X96667D01*
Y219333D02*
Y220167D01*
X95833Y218500D02*
X96667Y219333D01*
X95833Y218500D02*
X96667Y217667D01*
Y216833D02*
Y217667D01*
X95833Y216833D02*
X96667D01*
X95000Y217667D02*
X95833Y216833D01*
X94167D02*
X95000Y217667D01*
X93333Y216833D02*
X94167D01*
X400333Y230833D02*
Y231667D01*
X401167Y232500D01*
X400333Y233333D02*
X401167Y232500D01*
X400333Y233333D02*
Y234167D01*
X401167D01*
X402000Y233333D01*
X402833Y234167D01*
X403667D01*
Y233333D02*
Y234167D01*
X402833Y232500D02*
X403667Y233333D01*
X402833Y232500D02*
X403667Y231667D01*
Y230833D02*
Y231667D01*
X402833Y230833D02*
X403667D01*
X402000Y231667D02*
X402833Y230833D01*
X401167D02*
X402000Y231667D01*
X400333Y230833D02*
X401167D01*
X380833Y218833D02*
Y219667D01*
X381667Y220500D01*
X380833Y221333D02*
X381667Y220500D01*
X380833Y221333D02*
Y222167D01*
X381667D01*
X382500Y221333D01*
X383333Y222167D01*
X384167D01*
Y221333D02*
Y222167D01*
X383333Y220500D02*
X384167Y221333D01*
X383333Y220500D02*
X384167Y219667D01*
Y218833D02*
Y219667D01*
X383333Y218833D02*
X384167D01*
X382500Y219667D02*
X383333Y218833D01*
X381667D02*
X382500Y219667D01*
X380833Y218833D02*
X381667D01*
X389833Y238333D02*
Y239167D01*
X390667Y240000D01*
X389833Y240833D02*
X390667Y240000D01*
X389833Y240833D02*
Y241667D01*
X390667D01*
X391500Y240833D01*
X392333Y241667D01*
X393167D01*
Y240833D02*
Y241667D01*
X392333Y240000D02*
X393167Y240833D01*
X392333Y240000D02*
X393167Y239167D01*
Y238333D02*
Y239167D01*
X392333Y238333D02*
X393167D01*
X391500Y239167D02*
X392333Y238333D01*
X390667D02*
X391500Y239167D01*
X389833Y238333D02*
X390667D01*
X393333Y232833D02*
Y233667D01*
X394167Y234500D01*
X393333Y235333D02*
X394167Y234500D01*
X393333Y235333D02*
Y236167D01*
X394167D01*
X395000Y235333D01*
X395833Y236167D01*
X396667D01*
Y235333D02*
Y236167D01*
X395833Y234500D02*
X396667Y235333D01*
X395833Y234500D02*
X396667Y233667D01*
Y232833D02*
Y233667D01*
X395833Y232833D02*
X396667D01*
X395000Y233667D02*
X395833Y232833D01*
X394167D02*
X395000Y233667D01*
X393333Y232833D02*
X394167D01*
X356833Y161833D02*
Y162667D01*
X357667Y163500D01*
X356833Y164333D02*
X357667Y163500D01*
X356833Y164333D02*
Y165167D01*
X357667D01*
X358500Y164333D01*
X359333Y165167D01*
X360167D01*
Y164333D02*
Y165167D01*
X359333Y163500D02*
X360167Y164333D01*
X359333Y163500D02*
X360167Y162667D01*
Y161833D02*
Y162667D01*
X359333Y161833D02*
X360167D01*
X358500Y162667D02*
X359333Y161833D01*
X357667D02*
X358500Y162667D01*
X356833Y161833D02*
X357667D01*
X200833Y315833D02*
Y316667D01*
X201667Y317500D01*
X200833Y318333D02*
X201667Y317500D01*
X200833Y318333D02*
Y319167D01*
X201667D01*
X202500Y318333D01*
X203333Y319167D01*
X204167D01*
Y318333D02*
Y319167D01*
X203333Y317500D02*
X204167Y318333D01*
X203333Y317500D02*
X204167Y316667D01*
Y315833D02*
Y316667D01*
X203333Y315833D02*
X204167D01*
X202500Y316667D02*
X203333Y315833D01*
X201667D02*
X202500Y316667D01*
X200833Y315833D02*
X201667D01*
X457011Y375333D02*
Y376167D01*
X457844Y377000D01*
X457011Y377833D02*
X457844Y377000D01*
X457011Y377833D02*
Y378667D01*
X457844D01*
X458677Y377833D01*
X459511Y378667D01*
X460344D01*
Y377833D02*
Y378667D01*
X459511Y377000D02*
X460344Y377833D01*
X459511Y377000D02*
X460344Y376167D01*
Y375333D02*
Y376167D01*
X459511Y375333D02*
X460344D01*
X458677Y376167D02*
X459511Y375333D01*
X457844D02*
X458677Y376167D01*
X457011Y375333D02*
X457844D01*
X549833Y275833D02*
Y276667D01*
X550667Y277500D01*
X549833Y278333D02*
X550667Y277500D01*
X549833Y278333D02*
Y279167D01*
X550667D01*
X551500Y278333D01*
X552333Y279167D01*
X553167D01*
Y278333D02*
Y279167D01*
X552333Y277500D02*
X553167Y278333D01*
X552333Y277500D02*
X553167Y276667D01*
Y275833D02*
Y276667D01*
X552333Y275833D02*
X553167D01*
X551500Y276667D02*
X552333Y275833D01*
X550667D02*
X551500Y276667D01*
X549833Y275833D02*
X550667D01*
X15333Y336833D02*
Y337667D01*
X16167Y338500D01*
X15333Y339333D02*
X16167Y338500D01*
X15333Y339333D02*
Y340167D01*
X16167D01*
X17000Y339333D01*
X17833Y340167D01*
X18667D01*
Y339333D02*
Y340167D01*
X17833Y338500D02*
X18667Y339333D01*
X17833Y338500D02*
X18667Y337667D01*
Y336833D02*
Y337667D01*
X17833Y336833D02*
X18667D01*
X17000Y337667D02*
X17833Y336833D01*
X16167D02*
X17000Y337667D01*
X15333Y336833D02*
X16167D01*
X360833Y89333D02*
Y90167D01*
X361667Y91000D01*
X360833Y91833D02*
X361667Y91000D01*
X360833Y91833D02*
Y92667D01*
X361667D01*
X362500Y91833D01*
X363333Y92667D01*
X364167D01*
Y91833D02*
Y92667D01*
X363333Y91000D02*
X364167Y91833D01*
X363333Y91000D02*
X364167Y90167D01*
Y89333D02*
Y90167D01*
X363333Y89333D02*
X364167D01*
X362500Y90167D02*
X363333Y89333D01*
X361667D02*
X362500Y90167D01*
X360833Y89333D02*
X361667D01*
X351333D02*
Y90167D01*
X352167Y91000D01*
X351333Y91833D02*
X352167Y91000D01*
X351333Y91833D02*
Y92667D01*
X352167D01*
X353000Y91833D01*
X353833Y92667D01*
X354667D01*
Y91833D02*
Y92667D01*
X353833Y91000D02*
X354667Y91833D01*
X353833Y91000D02*
X354667Y90167D01*
Y89333D02*
Y90167D01*
X353833Y89333D02*
X354667D01*
X353000Y90167D02*
X353833Y89333D01*
X352167D02*
X353000Y90167D01*
X351333Y89333D02*
X352167D01*
X120333Y326333D02*
Y327167D01*
X121167Y328000D01*
X120333Y328833D02*
X121167Y328000D01*
X120333Y328833D02*
Y329667D01*
X121167D01*
X122000Y328833D01*
X122833Y329667D01*
X123667D01*
Y328833D02*
Y329667D01*
X122833Y328000D02*
X123667Y328833D01*
X122833Y328000D02*
X123667Y327167D01*
Y326333D02*
Y327167D01*
X122833Y326333D02*
X123667D01*
X122000Y327167D02*
X122833Y326333D01*
X121167D02*
X122000Y327167D01*
X120333Y326333D02*
X121167D01*
X30333Y366833D02*
Y367667D01*
X31167Y368500D01*
X30333Y369333D02*
X31167Y368500D01*
X30333Y369333D02*
Y370167D01*
X31167D01*
X32000Y369333D01*
X32833Y370167D01*
X33667D01*
Y369333D02*
Y370167D01*
X32833Y368500D02*
X33667Y369333D01*
X32833Y368500D02*
X33667Y367667D01*
Y366833D02*
Y367667D01*
X32833Y366833D02*
X33667D01*
X32000Y367667D02*
X32833Y366833D01*
X31167D02*
X32000Y367667D01*
X30333Y366833D02*
X31167D01*
X468333Y68833D02*
Y69667D01*
X469167Y70500D01*
X468333Y71333D02*
X469167Y70500D01*
X468333Y71333D02*
Y72167D01*
X469167D01*
X470000Y71333D01*
X470833Y72167D01*
X471667D01*
Y71333D02*
Y72167D01*
X470833Y70500D02*
X471667Y71333D01*
X470833Y70500D02*
X471667Y69667D01*
Y68833D02*
Y69667D01*
X470833Y68833D02*
X471667D01*
X470000Y69667D02*
X470833Y68833D01*
X469167D02*
X470000Y69667D01*
X468333Y68833D02*
X469167D01*
X143333Y94833D02*
Y95667D01*
X144167Y96500D01*
X143333Y97333D02*
X144167Y96500D01*
X143333Y97333D02*
Y98167D01*
X144167D01*
X145000Y97333D01*
X145833Y98167D01*
X146667D01*
Y97333D02*
Y98167D01*
X145833Y96500D02*
X146667Y97333D01*
X145833Y96500D02*
X146667Y95667D01*
Y94833D02*
Y95667D01*
X145833Y94833D02*
X146667D01*
X145000Y95667D02*
X145833Y94833D01*
X144167D02*
X145000Y95667D01*
X143333Y94833D02*
X144167D01*
X367833Y297833D02*
Y298667D01*
X368667Y299500D01*
X367833Y300333D02*
X368667Y299500D01*
X367833Y300333D02*
Y301167D01*
X368667D01*
X369500Y300333D01*
X370333Y301167D01*
X371167D01*
Y300333D02*
Y301167D01*
X370333Y299500D02*
X371167Y300333D01*
X370333Y299500D02*
X371167Y298667D01*
Y297833D02*
Y298667D01*
X370333Y297833D02*
X371167D01*
X369500Y298667D02*
X370333Y297833D01*
X368667D02*
X369500Y298667D01*
X367833Y297833D02*
X368667D01*
X279333Y290833D02*
Y291667D01*
X280167Y292500D01*
X279333Y293333D02*
X280167Y292500D01*
X279333Y293333D02*
Y294167D01*
X280167D01*
X281000Y293333D01*
X281833Y294167D01*
X282667D01*
Y293333D02*
Y294167D01*
X281833Y292500D02*
X282667Y293333D01*
X281833Y292500D02*
X282667Y291667D01*
Y290833D02*
Y291667D01*
X281833Y290833D02*
X282667D01*
X281000Y291667D02*
X281833Y290833D01*
X280167D02*
X281000Y291667D01*
X279333Y290833D02*
X280167D01*
X279333Y296833D02*
Y297667D01*
X280167Y298500D01*
X279333Y299333D02*
X280167Y298500D01*
X279333Y299333D02*
Y300167D01*
X280167D01*
X281000Y299333D01*
X281833Y300167D01*
X282667D01*
Y299333D02*
Y300167D01*
X281833Y298500D02*
X282667Y299333D01*
X281833Y298500D02*
X282667Y297667D01*
Y296833D02*
Y297667D01*
X281833Y296833D02*
X282667D01*
X281000Y297667D02*
X281833Y296833D01*
X280167D02*
X281000Y297667D01*
X279333Y296833D02*
X280167D01*
X273833Y287333D02*
Y288167D01*
X274667Y289000D01*
X273833Y289833D02*
X274667Y289000D01*
X273833Y289833D02*
Y290667D01*
X274667D01*
X275500Y289833D01*
X276333Y290667D01*
X277167D01*
Y289833D02*
Y290667D01*
X276333Y289000D02*
X277167Y289833D01*
X276333Y289000D02*
X277167Y288167D01*
Y287333D02*
Y288167D01*
X276333Y287333D02*
X277167D01*
X275500Y288167D02*
X276333Y287333D01*
X274667D02*
X275500Y288167D01*
X273833Y287333D02*
X274667D01*
X355833Y154833D02*
Y155667D01*
X356667Y156500D01*
X355833Y157333D02*
X356667Y156500D01*
X355833Y157333D02*
Y158167D01*
X356667D01*
X357500Y157333D01*
X358333Y158167D01*
X359167D01*
Y157333D02*
Y158167D01*
X358333Y156500D02*
X359167Y157333D01*
X358333Y156500D02*
X359167Y155667D01*
Y154833D02*
Y155667D01*
X358333Y154833D02*
X359167D01*
X357500Y155667D02*
X358333Y154833D01*
X356667D02*
X357500Y155667D01*
X355833Y154833D02*
X356667D01*
X224833Y143333D02*
Y144167D01*
X225667Y145000D01*
X224833Y145833D02*
X225667Y145000D01*
X224833Y145833D02*
Y146667D01*
X225667D01*
X226500Y145833D01*
X227333Y146667D01*
X228167D01*
Y145833D02*
Y146667D01*
X227333Y145000D02*
X228167Y145833D01*
X227333Y145000D02*
X228167Y144167D01*
Y143333D02*
Y144167D01*
X227333Y143333D02*
X228167D01*
X226500Y144167D02*
X227333Y143333D01*
X225667D02*
X226500Y144167D01*
X224833Y143333D02*
X225667D01*
X224833Y137333D02*
Y138167D01*
X225667Y139000D01*
X224833Y139833D02*
X225667Y139000D01*
X224833Y139833D02*
Y140667D01*
X225667D01*
X226500Y139833D01*
X227333Y140667D01*
X228167D01*
Y139833D02*
Y140667D01*
X227333Y139000D02*
X228167Y139833D01*
X227333Y139000D02*
X228167Y138167D01*
Y137333D02*
Y138167D01*
X227333Y137333D02*
X228167D01*
X226500Y138167D02*
X227333Y137333D01*
X225667D02*
X226500Y138167D01*
X224833Y137333D02*
X225667D01*
X263833Y138833D02*
Y139667D01*
X264667Y140500D01*
X263833Y141333D02*
X264667Y140500D01*
X263833Y141333D02*
Y142167D01*
X264667D01*
X265500Y141333D01*
X266333Y142167D01*
X267167D01*
Y141333D02*
Y142167D01*
X266333Y140500D02*
X267167Y141333D01*
X266333Y140500D02*
X267167Y139667D01*
Y138833D02*
Y139667D01*
X266333Y138833D02*
X267167D01*
X265500Y139667D02*
X266333Y138833D01*
X264667D02*
X265500Y139667D01*
X263833Y138833D02*
X264667D01*
X275333Y108833D02*
Y109667D01*
X276167Y110500D01*
X275333Y111333D02*
X276167Y110500D01*
X275333Y111333D02*
Y112167D01*
X276167D01*
X277000Y111333D01*
X277833Y112167D01*
X278667D01*
Y111333D02*
Y112167D01*
X277833Y110500D02*
X278667Y111333D01*
X277833Y110500D02*
X278667Y109667D01*
Y108833D02*
Y109667D01*
X277833Y108833D02*
X278667D01*
X277000Y109667D02*
X277833Y108833D01*
X276167D02*
X277000Y109667D01*
X275333Y108833D02*
X276167D01*
X263833Y132333D02*
Y133167D01*
X264667Y134000D01*
X263833Y134833D02*
X264667Y134000D01*
X263833Y134833D02*
Y135667D01*
X264667D01*
X265500Y134833D01*
X266333Y135667D01*
X267167D01*
Y134833D02*
Y135667D01*
X266333Y134000D02*
X267167Y134833D01*
X266333Y134000D02*
X267167Y133167D01*
Y132333D02*
Y133167D01*
X266333Y132333D02*
X267167D01*
X265500Y133167D02*
X266333Y132333D01*
X264667D02*
X265500Y133167D01*
X263833Y132333D02*
X264667D01*
X333833Y107333D02*
Y108167D01*
X334667Y109000D01*
X333833Y109833D02*
X334667Y109000D01*
X333833Y109833D02*
Y110667D01*
X334667D01*
X335500Y109833D01*
X336333Y110667D01*
X337167D01*
Y109833D02*
Y110667D01*
X336333Y109000D02*
X337167Y109833D01*
X336333Y109000D02*
X337167Y108167D01*
Y107333D02*
Y108167D01*
X336333Y107333D02*
X337167D01*
X335500Y108167D02*
X336333Y107333D01*
X334667D02*
X335500Y108167D01*
X333833Y107333D02*
X334667D01*
X314333Y141333D02*
Y142167D01*
X315167Y143000D01*
X314333Y143833D02*
X315167Y143000D01*
X314333Y143833D02*
Y144667D01*
X315167D01*
X316000Y143833D01*
X316833Y144667D01*
X317667D01*
Y143833D02*
Y144667D01*
X316833Y143000D02*
X317667Y143833D01*
X316833Y143000D02*
X317667Y142167D01*
Y141333D02*
Y142167D01*
X316833Y141333D02*
X317667D01*
X316000Y142167D02*
X316833Y141333D01*
X315167D02*
X316000Y142167D01*
X314333Y141333D02*
X315167D01*
X311833Y152833D02*
Y153667D01*
X312667Y154500D01*
X311833Y155333D02*
X312667Y154500D01*
X311833Y155333D02*
Y156167D01*
X312667D01*
X313500Y155333D01*
X314333Y156167D01*
X315167D01*
Y155333D02*
Y156167D01*
X314333Y154500D02*
X315167Y155333D01*
X314333Y154500D02*
X315167Y153667D01*
Y152833D02*
Y153667D01*
X314333Y152833D02*
X315167D01*
X313500Y153667D02*
X314333Y152833D01*
X312667D02*
X313500Y153667D01*
X311833Y152833D02*
X312667D01*
X263333Y125333D02*
Y126167D01*
X264167Y127000D01*
X263333Y127833D02*
X264167Y127000D01*
X263333Y127833D02*
Y128667D01*
X264167D01*
X265000Y127833D01*
X265833Y128667D01*
X266667D01*
Y127833D02*
Y128667D01*
X265833Y127000D02*
X266667Y127833D01*
X265833Y127000D02*
X266667Y126167D01*
Y125333D02*
Y126167D01*
X265833Y125333D02*
X266667D01*
X265000Y126167D02*
X265833Y125333D01*
X264167D02*
X265000Y126167D01*
X263333Y125333D02*
X264167D01*
X264333Y119333D02*
Y120167D01*
X265167Y121000D01*
X264333Y121833D02*
X265167Y121000D01*
X264333Y121833D02*
Y122667D01*
X265167D01*
X266000Y121833D01*
X266833Y122667D01*
X267667D01*
Y121833D02*
Y122667D01*
X266833Y121000D02*
X267667Y121833D01*
X266833Y121000D02*
X267667Y120167D01*
Y119333D02*
Y120167D01*
X266833Y119333D02*
X267667D01*
X266000Y120167D02*
X266833Y119333D01*
X265167D02*
X266000Y120167D01*
X264333Y119333D02*
X265167D01*
X257333Y190833D02*
Y191667D01*
X258167Y192500D01*
X257333Y193333D02*
X258167Y192500D01*
X257333Y193333D02*
Y194167D01*
X258167D01*
X259000Y193333D01*
X259833Y194167D01*
X260667D01*
Y193333D02*
Y194167D01*
X259833Y192500D02*
X260667Y193333D01*
X259833Y192500D02*
X260667Y191667D01*
Y190833D02*
Y191667D01*
X259833Y190833D02*
X260667D01*
X259000Y191667D02*
X259833Y190833D01*
X258167D02*
X259000Y191667D01*
X257333Y190833D02*
X258167D01*
X236833Y226333D02*
Y227167D01*
X237667Y228000D01*
X236833Y228833D02*
X237667Y228000D01*
X236833Y228833D02*
Y229667D01*
X237667D01*
X238500Y228833D01*
X239333Y229667D01*
X240167D01*
Y228833D02*
Y229667D01*
X239333Y228000D02*
X240167Y228833D01*
X239333Y228000D02*
X240167Y227167D01*
Y226333D02*
Y227167D01*
X239333Y226333D02*
X240167D01*
X238500Y227167D02*
X239333Y226333D01*
X237667D02*
X238500Y227167D01*
X236833Y226333D02*
X237667D01*
X220333Y219333D02*
Y220167D01*
X221167Y221000D01*
X220333Y221833D02*
X221167Y221000D01*
X220333Y221833D02*
Y222667D01*
X221167D01*
X222000Y221833D01*
X222833Y222667D01*
X223667D01*
Y221833D02*
Y222667D01*
X222833Y221000D02*
X223667Y221833D01*
X222833Y221000D02*
X223667Y220167D01*
Y219333D02*
Y220167D01*
X222833Y219333D02*
X223667D01*
X222000Y220167D02*
X222833Y219333D01*
X221167D02*
X222000Y220167D01*
X220333Y219333D02*
X221167D01*
X218333Y211333D02*
Y212167D01*
X219167Y213000D01*
X218333Y213833D02*
X219167Y213000D01*
X218333Y213833D02*
Y214667D01*
X219167D01*
X220000Y213833D01*
X220833Y214667D01*
X221667D01*
Y213833D02*
Y214667D01*
X220833Y213000D02*
X221667Y213833D01*
X220833Y213000D02*
X221667Y212167D01*
Y211333D02*
Y212167D01*
X220833Y211333D02*
X221667D01*
X220000Y212167D02*
X220833Y211333D01*
X219167D02*
X220000Y212167D01*
X218333Y211333D02*
X219167D01*
X455833Y20833D02*
Y21667D01*
X456667Y22500D01*
X455833Y23333D02*
X456667Y22500D01*
X455833Y23333D02*
Y24167D01*
X456667D01*
X457500Y23333D01*
X458333Y24167D01*
X459167D01*
Y23333D02*
Y24167D01*
X458333Y22500D02*
X459167Y23333D01*
X458333Y22500D02*
X459167Y21667D01*
Y20833D02*
Y21667D01*
X458333Y20833D02*
X459167D01*
X457500Y21667D02*
X458333Y20833D01*
X456667D02*
X457500Y21667D01*
X455833Y20833D02*
X456667D01*
X535833Y312833D02*
Y313667D01*
X536667Y314500D01*
X535833Y315333D02*
X536667Y314500D01*
X535833Y315333D02*
Y316167D01*
X536667D01*
X537500Y315333D01*
X538333Y316167D01*
X539167D01*
Y315333D02*
Y316167D01*
X538333Y314500D02*
X539167Y315333D01*
X538333Y314500D02*
X539167Y313667D01*
Y312833D02*
Y313667D01*
X538333Y312833D02*
X539167D01*
X537500Y313667D02*
X538333Y312833D01*
X536667D02*
X537500Y313667D01*
X535833Y312833D02*
X536667D01*
X506510Y322511D02*
Y323344D01*
X507344Y324177D01*
X506510Y325010D02*
X507344Y324177D01*
X506510Y325010D02*
Y325844D01*
X507344D01*
X508177Y325010D01*
X509011Y325844D01*
X509844D01*
Y325010D02*
Y325844D01*
X509011Y324177D02*
X509844Y325010D01*
X509011Y324177D02*
X509844Y323344D01*
Y322511D02*
Y323344D01*
X509011Y322511D02*
X509844D01*
X508177Y323344D02*
X509011Y322511D01*
X507344D02*
X508177Y323344D01*
X506510Y322511D02*
X507344D01*
X481333Y322833D02*
Y323667D01*
X482167Y324500D01*
X481333Y325333D02*
X482167Y324500D01*
X481333Y325333D02*
Y326167D01*
X482167D01*
X483000Y325333D01*
X483833Y326167D01*
X484667D01*
Y325333D02*
Y326167D01*
X483833Y324500D02*
X484667Y325333D01*
X483833Y324500D02*
X484667Y323667D01*
Y322833D02*
Y323667D01*
X483833Y322833D02*
X484667D01*
X483000Y323667D02*
X483833Y322833D01*
X482167D02*
X483000Y323667D01*
X481333Y322833D02*
X482167D01*
X506833Y299833D02*
Y300667D01*
X507667Y301500D01*
X506833Y302333D02*
X507667Y301500D01*
X506833Y302333D02*
Y303167D01*
X507667D01*
X508500Y302333D01*
X509333Y303167D01*
X510167D01*
Y302333D02*
Y303167D01*
X509333Y301500D02*
X510167Y302333D01*
X509333Y301500D02*
X510167Y300667D01*
Y299833D02*
Y300667D01*
X509333Y299833D02*
X510167D01*
X508500Y300667D02*
X509333Y299833D01*
X507667D02*
X508500Y300667D01*
X506833Y299833D02*
X507667D01*
X307833Y45833D02*
Y46667D01*
X308667Y47500D01*
X307833Y48333D02*
X308667Y47500D01*
X307833Y48333D02*
Y49167D01*
X308667D01*
X309500Y48333D01*
X310333Y49167D01*
X311167D01*
Y48333D02*
Y49167D01*
X310333Y47500D02*
X311167Y48333D01*
X310333Y47500D02*
X311167Y46667D01*
Y45833D02*
Y46667D01*
X310333Y45833D02*
X311167D01*
X309500Y46667D02*
X310333Y45833D01*
X308667D02*
X309500Y46667D01*
X307833Y45833D02*
X308667D01*
X528333Y358833D02*
Y359667D01*
X529167Y360500D01*
X528333Y361333D02*
X529167Y360500D01*
X528333Y361333D02*
Y362167D01*
X529167D01*
X530000Y361333D01*
X530833Y362167D01*
X531667D01*
Y361333D02*
Y362167D01*
X530833Y360500D02*
X531667Y361333D01*
X530833Y360500D02*
X531667Y359667D01*
Y358833D02*
Y359667D01*
X530833Y358833D02*
X531667D01*
X530000Y359667D02*
X530833Y358833D01*
X529167D02*
X530000Y359667D01*
X528333Y358833D02*
X529167D01*
X244333Y67833D02*
Y68667D01*
X245167Y69500D01*
X244333Y70333D02*
X245167Y69500D01*
X244333Y70333D02*
Y71167D01*
X245167D01*
X246000Y70333D01*
X246833Y71167D01*
X247667D01*
Y70333D02*
Y71167D01*
X246833Y69500D02*
X247667Y70333D01*
X246833Y69500D02*
X247667Y68667D01*
Y67833D02*
Y68667D01*
X246833Y67833D02*
X247667D01*
X246000Y68667D02*
X246833Y67833D01*
X245167D02*
X246000Y68667D01*
X244333Y67833D02*
X245167D01*
X249833Y63333D02*
Y64167D01*
X250667Y65000D01*
X249833Y65833D02*
X250667Y65000D01*
X249833Y65833D02*
Y66667D01*
X250667D01*
X251500Y65833D01*
X252333Y66667D01*
X253167D01*
Y65833D02*
Y66667D01*
X252333Y65000D02*
X253167Y65833D01*
X252333Y65000D02*
X253167Y64167D01*
Y63333D02*
Y64167D01*
X252333Y63333D02*
X253167D01*
X251500Y64167D02*
X252333Y63333D01*
X250667D02*
X251500Y64167D01*
X249833Y63333D02*
X250667D01*
X340833Y267333D02*
Y268167D01*
X341667Y269000D01*
X340833Y269833D02*
X341667Y269000D01*
X340833Y269833D02*
Y270667D01*
X341667D01*
X342500Y269833D01*
X343333Y270667D01*
X344167D01*
Y269833D02*
Y270667D01*
X343333Y269000D02*
X344167Y269833D01*
X343333Y269000D02*
X344167Y268167D01*
Y267333D02*
Y268167D01*
X343333Y267333D02*
X344167D01*
X342500Y268167D02*
X343333Y267333D01*
X341667D02*
X342500Y268167D01*
X340833Y267333D02*
X341667D01*
X374833Y293333D02*
Y294167D01*
X375667Y295000D01*
X374833Y295833D02*
X375667Y295000D01*
X374833Y295833D02*
Y296667D01*
X375667D01*
X376500Y295833D01*
X377333Y296667D01*
X378167D01*
Y295833D02*
Y296667D01*
X377333Y295000D02*
X378167Y295833D01*
X377333Y295000D02*
X378167Y294167D01*
Y293333D02*
Y294167D01*
X377333Y293333D02*
X378167D01*
X376500Y294167D02*
X377333Y293333D01*
X375667D02*
X376500Y294167D01*
X374833Y293333D02*
X375667D01*
X568333Y230833D02*
Y231667D01*
X569167Y232500D01*
X568333Y233333D02*
X569167Y232500D01*
X568333Y233333D02*
Y234167D01*
X569167D01*
X570000Y233333D01*
X570833Y234167D01*
X571667D01*
Y233333D02*
Y234167D01*
X570833Y232500D02*
X571667Y233333D01*
X570833Y232500D02*
X571667Y231667D01*
Y230833D02*
Y231667D01*
X570833Y230833D02*
X571667D01*
X570000Y231667D02*
X570833Y230833D01*
X569167D02*
X570000Y231667D01*
X568333Y230833D02*
X569167D01*
X559333Y229833D02*
Y230667D01*
X560167Y231500D01*
X559333Y232333D02*
X560167Y231500D01*
X559333Y232333D02*
Y233167D01*
X560167D01*
X561000Y232333D01*
X561833Y233167D01*
X562667D01*
Y232333D02*
Y233167D01*
X561833Y231500D02*
X562667Y232333D01*
X561833Y231500D02*
X562667Y230667D01*
Y229833D02*
Y230667D01*
X561833Y229833D02*
X562667D01*
X561000Y230667D02*
X561833Y229833D01*
X560167D02*
X561000Y230667D01*
X559333Y229833D02*
X560167D01*
X559333Y180833D02*
Y181667D01*
X560167Y182500D01*
X559333Y183333D02*
X560167Y182500D01*
X559333Y183333D02*
Y184167D01*
X560167D01*
X561000Y183333D01*
X561833Y184167D01*
X562667D01*
Y183333D02*
Y184167D01*
X561833Y182500D02*
X562667Y183333D01*
X561833Y182500D02*
X562667Y181667D01*
Y180833D02*
Y181667D01*
X561833Y180833D02*
X562667D01*
X561000Y181667D02*
X561833Y180833D01*
X560167D02*
X561000Y181667D01*
X559333Y180833D02*
X560167D01*
X475833Y219333D02*
Y220167D01*
X476667Y221000D01*
X475833Y221833D02*
X476667Y221000D01*
X475833Y221833D02*
Y222667D01*
X476667D01*
X477500Y221833D01*
X478333Y222667D01*
X479167D01*
Y221833D02*
Y222667D01*
X478333Y221000D02*
X479167Y221833D01*
X478333Y221000D02*
X479167Y220167D01*
Y219333D02*
Y220167D01*
X478333Y219333D02*
X479167D01*
X477500Y220167D02*
X478333Y219333D01*
X476667D02*
X477500Y220167D01*
X475833Y219333D02*
X476667D01*
X475833Y191333D02*
Y192167D01*
X476667Y193000D01*
X475833Y193833D02*
X476667Y193000D01*
X475833Y193833D02*
Y194667D01*
X476667D01*
X477500Y193833D01*
X478333Y194667D01*
X479167D01*
Y193833D02*
Y194667D01*
X478333Y193000D02*
X479167Y193833D01*
X478333Y193000D02*
X479167Y192167D01*
Y191333D02*
Y192167D01*
X478333Y191333D02*
X479167D01*
X477500Y192167D02*
X478333Y191333D01*
X476667D02*
X477500Y192167D01*
X475833Y191333D02*
X476667D01*
X527333Y218833D02*
Y219667D01*
X528167Y220500D01*
X527333Y221333D02*
X528167Y220500D01*
X527333Y221333D02*
Y222167D01*
X528167D01*
X529000Y221333D01*
X529833Y222167D01*
X530667D01*
Y221333D02*
Y222167D01*
X529833Y220500D02*
X530667Y221333D01*
X529833Y220500D02*
X530667Y219667D01*
Y218833D02*
Y219667D01*
X529833Y218833D02*
X530667D01*
X529000Y219667D02*
X529833Y218833D01*
X528167D02*
X529000Y219667D01*
X527333Y218833D02*
X528167D01*
X527833Y190833D02*
Y191667D01*
X528667Y192500D01*
X527833Y193333D02*
X528667Y192500D01*
X527833Y193333D02*
Y194167D01*
X528667D01*
X529500Y193333D01*
X530333Y194167D01*
X531167D01*
Y193333D02*
Y194167D01*
X530333Y192500D02*
X531167Y193333D01*
X530333Y192500D02*
X531167Y191667D01*
Y190833D02*
Y191667D01*
X530333Y190833D02*
X531167D01*
X529500Y191667D02*
X530333Y190833D01*
X528667D02*
X529500Y191667D01*
X527833Y190833D02*
X528667D01*
X515833Y204333D02*
Y205167D01*
X516667Y206000D01*
X515833Y206833D02*
X516667Y206000D01*
X515833Y206833D02*
Y207667D01*
X516667D01*
X517500Y206833D01*
X518333Y207667D01*
X519167D01*
Y206833D02*
Y207667D01*
X518333Y206000D02*
X519167Y206833D01*
X518333Y206000D02*
X519167Y205167D01*
Y204333D02*
Y205167D01*
X518333Y204333D02*
X519167D01*
X517500Y205167D02*
X518333Y204333D01*
X516667D02*
X517500Y205167D01*
X515833Y204333D02*
X516667D01*
X490833D02*
Y205167D01*
X491667Y206000D01*
X490833Y206833D02*
X491667Y206000D01*
X490833Y206833D02*
Y207667D01*
X491667D01*
X492500Y206833D01*
X493333Y207667D01*
X494167D01*
Y206833D02*
Y207667D01*
X493333Y206000D02*
X494167Y206833D01*
X493333Y206000D02*
X494167Y205167D01*
Y204333D02*
Y205167D01*
X493333Y204333D02*
X494167D01*
X492500Y205167D02*
X493333Y204333D01*
X491667D02*
X492500Y205167D01*
X490833Y204333D02*
X491667D01*
X502833Y219333D02*
Y220167D01*
X503667Y221000D01*
X502833Y221833D02*
X503667Y221000D01*
X502833Y221833D02*
Y222667D01*
X503667D01*
X504500Y221833D01*
X505333Y222667D01*
X506167D01*
Y221833D02*
Y222667D01*
X505333Y221000D02*
X506167Y221833D01*
X505333Y221000D02*
X506167Y220167D01*
Y219333D02*
Y220167D01*
X505333Y219333D02*
X506167D01*
X504500Y220167D02*
X505333Y219333D01*
X503667D02*
X504500Y220167D01*
X502833Y219333D02*
X503667D01*
X503833Y190833D02*
Y191667D01*
X504667Y192500D01*
X503833Y193333D02*
X504667Y192500D01*
X503833Y193333D02*
Y194167D01*
X504667D01*
X505500Y193333D01*
X506333Y194167D01*
X507167D01*
Y193333D02*
Y194167D01*
X506333Y192500D02*
X507167Y193333D01*
X506333Y192500D02*
X507167Y191667D01*
Y190833D02*
Y191667D01*
X506333Y190833D02*
X507167D01*
X505500Y191667D02*
X506333Y190833D01*
X504667D02*
X505500Y191667D01*
X503833Y190833D02*
X504667D01*
X475833Y280833D02*
Y281667D01*
X476667Y282500D01*
X475833Y283333D02*
X476667Y282500D01*
X475833Y283333D02*
Y284167D01*
X476667D01*
X477500Y283333D01*
X478333Y284167D01*
X479167D01*
Y283333D02*
Y284167D01*
X478333Y282500D02*
X479167Y283333D01*
X478333Y282500D02*
X479167Y281667D01*
Y280833D02*
Y281667D01*
X478333Y280833D02*
X479167D01*
X477500Y281667D02*
X478333Y280833D01*
X476667D02*
X477500Y281667D01*
X475833Y280833D02*
X476667D01*
X518739Y97932D02*
Y98765D01*
X519572Y99598D01*
X518739Y100432D02*
X519572Y99598D01*
X518739Y100432D02*
Y101265D01*
X519572D01*
X520405Y100432D01*
X521239Y101265D01*
X522072D01*
Y100432D02*
Y101265D01*
X521239Y99598D02*
X522072Y100432D01*
X521239Y99598D02*
X522072Y98765D01*
Y97932D02*
Y98765D01*
X521239Y97932D02*
X522072D01*
X520405Y98765D02*
X521239Y97932D01*
X519572D02*
X520405Y98765D01*
X518739Y97932D02*
X519572D01*
X470333Y50333D02*
Y51167D01*
X471167Y52000D01*
X470333Y52833D02*
X471167Y52000D01*
X470333Y52833D02*
Y53667D01*
X471167D01*
X472000Y52833D01*
X472833Y53667D01*
X473667D01*
Y52833D02*
Y53667D01*
X472833Y52000D02*
X473667Y52833D01*
X472833Y52000D02*
X473667Y51167D01*
Y50333D02*
Y51167D01*
X472833Y50333D02*
X473667D01*
X472000Y51167D02*
X472833Y50333D01*
X471167D02*
X472000Y51167D01*
X470333Y50333D02*
X471167D01*
X270500Y33217D02*
X271500Y35217D01*
X269500D02*
X271500D01*
X269500D02*
X270500Y33217D01*
Y32550D02*
X272167Y35883D01*
X268833D02*
X272167D01*
X268833D02*
X270500Y32550D01*
X585000Y198833D02*
X586667Y202167D01*
X583333D02*
X586667D01*
X583333D02*
X585000Y198833D01*
Y208833D02*
X586667Y212167D01*
X583333D02*
X586667D01*
X583333D02*
X585000Y208833D01*
Y268833D02*
X586667Y272167D01*
X583333D02*
X586667D01*
X583333D02*
X585000Y268833D01*
Y258833D02*
X586667Y262167D01*
X583333D02*
X586667D01*
X583333D02*
X585000Y258833D01*
X268000Y171333D02*
X269667Y174667D01*
X266333D02*
X269667D01*
X266333D02*
X268000Y171333D01*
Y181333D02*
X269667Y184667D01*
X266333D02*
X269667D01*
X266333D02*
X268000Y181333D01*
X161500Y94333D02*
X163167Y97667D01*
X159833D02*
X163167D01*
X159833D02*
X161500Y94333D01*
Y84333D02*
X163167Y87667D01*
X159833D02*
X163167D01*
X159833D02*
X161500Y84333D01*
X287000Y261833D02*
X288667Y265167D01*
X285333D02*
X288667D01*
X285333D02*
X287000Y261833D01*
Y251833D02*
X288667Y255167D01*
X285333D02*
X288667D01*
X285333D02*
X287000Y251833D01*
X275000Y252833D02*
X276667Y256167D01*
X273333D02*
X276667D01*
X273333D02*
X275000Y252833D01*
Y262833D02*
X276667Y266167D01*
X273333D02*
X276667D01*
X273333D02*
X275000Y262833D01*
X121640Y39235D02*
X123307Y40068D01*
X124974Y39235D01*
X124140Y40902D02*
X124974Y39235D01*
X124140Y40902D02*
X124974Y42568D01*
X123307Y41735D02*
X124974Y42568D01*
X121640D02*
X123307Y41735D01*
X121640Y42568D02*
X122474Y40902D01*
X121640Y39235D02*
X122474Y40902D01*
X220026Y39235D02*
X221693Y40068D01*
X223360Y39235D01*
X222526Y40902D02*
X223360Y39235D01*
X222526Y40902D02*
X223360Y42568D01*
X221693Y41735D02*
X223360Y42568D01*
X220026D02*
X221693Y41735D01*
X220026Y42568D02*
X220860Y40902D01*
X220026Y39235D02*
X220860Y40902D01*
X193478Y45659D02*
X194311Y44826D01*
X192644Y45659D02*
X193478D01*
X192644D02*
X193478Y46492D01*
X192644Y47326D02*
X193478Y46492D01*
X192644Y47326D02*
X193478D01*
X194311Y48159D01*
X195144Y47326D01*
X195978D01*
X195144Y46492D02*
X195978Y47326D01*
X195144Y46492D02*
X195978Y45659D01*
X195144D02*
X195978D01*
X194311Y44826D02*
X195144Y45659D01*
X188025Y34478D02*
X188858Y33644D01*
X187192Y34478D02*
X188025D01*
X187192D02*
X188025Y35311D01*
X187192Y36144D02*
X188025Y35311D01*
X187192Y36144D02*
X188025D01*
X188858Y36978D01*
X189692Y36144D01*
X190525D01*
X189692Y35311D02*
X190525Y36144D01*
X189692Y35311D02*
X190525Y34478D01*
X189692D02*
X190525D01*
X188858Y33644D02*
X189692Y34478D01*
X182572Y45659D02*
X183405Y44826D01*
X181739Y45659D02*
X182572D01*
X181739D02*
X182572Y46492D01*
X181739Y47326D02*
X182572Y46492D01*
X181739Y47326D02*
X182572D01*
X183405Y48159D01*
X184239Y47326D01*
X185072D01*
X184239Y46492D02*
X185072Y47326D01*
X184239Y46492D02*
X185072Y45659D01*
X184239D02*
X185072D01*
X183405Y44826D02*
X184239Y45659D01*
X177119Y34478D02*
X177953Y33644D01*
X176286Y34478D02*
X177119D01*
X176286D02*
X177119Y35311D01*
X176286Y36144D02*
X177119Y35311D01*
X176286Y36144D02*
X177119D01*
X177953Y36978D01*
X178786Y36144D01*
X179619D01*
X178786Y35311D02*
X179619Y36144D01*
X178786Y35311D02*
X179619Y34478D01*
X178786D02*
X179619D01*
X177953Y33644D02*
X178786Y34478D01*
X171667Y45659D02*
X172500Y44826D01*
X170833Y45659D02*
X171667D01*
X170833D02*
X171667Y46492D01*
X170833Y47326D02*
X171667Y46492D01*
X170833Y47326D02*
X171667D01*
X172500Y48159D01*
X173333Y47326D01*
X174167D01*
X173333Y46492D02*
X174167Y47326D01*
X173333Y46492D02*
X174167Y45659D01*
X173333D02*
X174167D01*
X172500Y44826D02*
X173333Y45659D01*
X166214Y34478D02*
X167047Y33644D01*
X165381Y34478D02*
X166214D01*
X165381D02*
X166214Y35311D01*
X165381Y36144D02*
X166214Y35311D01*
X165381Y36144D02*
X166214D01*
X167047Y36978D01*
X167881Y36144D01*
X168714D01*
X167881Y35311D02*
X168714Y36144D01*
X167881Y35311D02*
X168714Y34478D01*
X167881D02*
X168714D01*
X167047Y33644D02*
X167881Y34478D01*
X160761Y45659D02*
X161594Y44826D01*
X159928Y45659D02*
X160761D01*
X159928D02*
X160761Y46492D01*
X159928Y47326D02*
X160761Y46492D01*
X159928Y47326D02*
X160761D01*
X161594Y48159D01*
X162428Y47326D01*
X163261D01*
X162428Y46492D02*
X163261Y47326D01*
X162428Y46492D02*
X163261Y45659D01*
X162428D02*
X163261D01*
X161594Y44826D02*
X162428Y45659D01*
X155308Y34478D02*
X156142Y33644D01*
X154475Y34478D02*
X155308D01*
X154475D02*
X155308Y35311D01*
X154475Y36144D02*
X155308Y35311D01*
X154475Y36144D02*
X155308D01*
X156142Y36978D01*
X156975Y36144D01*
X157808D01*
X156975Y35311D02*
X157808Y36144D01*
X156975Y35311D02*
X157808Y34478D01*
X156975D02*
X157808D01*
X156142Y33644D02*
X156975Y34478D01*
X149856Y45659D02*
X150689Y44826D01*
X149022Y45659D02*
X149856D01*
X149022D02*
X149856Y46492D01*
X149022Y47326D02*
X149856Y46492D01*
X149022Y47326D02*
X149856D01*
X150689Y48159D01*
X151522Y47326D01*
X152356D01*
X151522Y46492D02*
X152356Y47326D01*
X151522Y46492D02*
X152356Y45659D01*
X151522D02*
X152356D01*
X150689Y44826D02*
X151522Y45659D01*
X387000Y383833D02*
X388667Y387167D01*
X385333D02*
X388667D01*
X385333D02*
X387000Y383833D01*
X397000D02*
X398667Y387167D01*
X395333D02*
X398667D01*
X395333D02*
X397000Y383833D01*
X309500Y13333D02*
X311167Y16667D01*
X307833D02*
X311167D01*
X307833D02*
X309500Y13333D01*
X319500D02*
X321167Y16667D01*
X317833D02*
X321167D01*
X317833D02*
X319500Y13333D01*
X268000Y148833D02*
X269667Y152167D01*
X266333D02*
X269667D01*
X266333D02*
X268000Y148833D01*
Y158833D02*
X269667Y162167D01*
X266333D02*
X269667D01*
X266333D02*
X268000Y158833D01*
X548333Y349167D02*
X549167D01*
X548333D02*
Y350833D01*
X549167D01*
Y351667D01*
X550833D01*
Y350833D02*
Y351667D01*
Y350833D02*
X551667D01*
Y349167D02*
Y350833D01*
X550833Y349167D02*
X551667D01*
X550833Y348333D02*
Y349167D01*
X549167Y348333D02*
X550833D01*
X549167D02*
Y349167D01*
X548333Y49167D02*
X549167D01*
X548333D02*
Y50833D01*
X549167D01*
Y51667D01*
X550833D01*
Y50833D02*
Y51667D01*
Y50833D02*
X551667D01*
Y49167D02*
Y50833D01*
X550833Y49167D02*
X551667D01*
X550833Y48333D02*
Y49167D01*
X549167Y48333D02*
X550833D01*
X549167D02*
Y49167D01*
X48333Y349167D02*
X49167D01*
X48333D02*
Y350833D01*
X49167D01*
Y351667D01*
X50833D01*
Y350833D02*
Y351667D01*
Y350833D02*
X51667D01*
Y349167D02*
Y350833D01*
X50833Y349167D02*
X51667D01*
X50833Y348333D02*
Y349167D01*
X49167Y348333D02*
X50833D01*
X49167D02*
Y349167D01*
X38333Y49167D02*
X39167D01*
X38333D02*
Y50833D01*
X39167D01*
Y51667D01*
X40833D01*
Y50833D02*
Y51667D01*
Y50833D02*
X41667D01*
Y49167D02*
Y50833D01*
X40833Y49167D02*
X41667D01*
X40833Y48333D02*
Y49167D01*
X39167Y48333D02*
X40833D01*
X39167D02*
Y49167D01*
X83500Y13833D02*
X85167Y17167D01*
X81833D02*
X85167D01*
X81833D02*
X83500Y13833D01*
X73500D02*
X75167Y17167D01*
X71833D02*
X75167D01*
X71833D02*
X73500Y13833D01*
X161500Y59833D02*
X163167Y63167D01*
X159833D02*
X163167D01*
X159833D02*
X161500Y59833D01*
X171500D02*
X173167Y63167D01*
X169833D02*
X173167D01*
X169833D02*
X171500Y59833D01*
X181500D02*
X183167Y63167D01*
X179833D02*
X183167D01*
X179833D02*
X181500Y59833D01*
X191500D02*
X193167Y63167D01*
X189833D02*
X193167D01*
X189833D02*
X191500Y59833D01*
X337500Y13333D02*
X339167Y16667D01*
X335833D02*
X339167D01*
X335833D02*
X337500Y13333D01*
X347500D02*
X349167Y16667D01*
X345833D02*
X349167D01*
X345833D02*
X347500Y13333D01*
X375000D02*
X376667Y16667D01*
X373333D02*
X376667D01*
X373333D02*
X375000Y13333D01*
X365000D02*
X366667Y16667D01*
X363333D02*
X366667D01*
X363333D02*
X365000Y13333D01*
X403000D02*
X404667Y16667D01*
X401333D02*
X404667D01*
X401333D02*
X403000Y13333D01*
X393000D02*
X394667Y16667D01*
X391333D02*
X394667D01*
X391333D02*
X393000Y13333D01*
X436000Y291333D02*
X437667Y294667D01*
X434333D02*
X437667D01*
X434333D02*
X436000Y291333D01*
Y281333D02*
X437667Y284667D01*
X434333D02*
X437667D01*
X434333D02*
X436000Y281333D01*
X426000Y291333D02*
X427667Y294667D01*
X424333D02*
X427667D01*
X424333D02*
X426000Y291333D01*
Y281333D02*
X427667Y284667D01*
X424333D02*
X427667D01*
X424333D02*
X426000Y281333D01*
X416000Y291333D02*
X417667Y294667D01*
X414333D02*
X417667D01*
X414333D02*
X416000Y291333D01*
Y281333D02*
X417667Y284667D01*
X414333D02*
X417667D01*
X414333D02*
X416000Y281333D01*
D151*
X561267Y653948D02*
Y646750D01*
Y650349D01*
X566065D01*
Y653948D01*
Y646750D01*
X569664D02*
X572063D01*
X573263Y647950D01*
Y650349D01*
X572063Y651548D01*
X569664D01*
X568465Y650349D01*
Y647950D01*
X569664Y646750D01*
X575662D02*
X578061D01*
X576862D01*
Y653948D01*
X575662D01*
X585259Y646750D02*
X582860D01*
X581660Y647950D01*
Y650349D01*
X582860Y651548D01*
X585259D01*
X586459Y650349D01*
Y649149D01*
X581660D01*
X596056Y653948D02*
X600854D01*
X598455D01*
Y646750D01*
X603253Y651548D02*
Y647950D01*
X604453Y646750D01*
X608052D01*
Y645550D01*
X606852Y644351D01*
X605653D01*
X608052Y646750D02*
Y651548D01*
X610451Y644351D02*
Y651548D01*
X614050D01*
X615249Y650349D01*
Y647950D01*
X614050Y646750D01*
X610451D01*
X621247D02*
X618848D01*
X617649Y647950D01*
Y650349D01*
X618848Y651548D01*
X621247D01*
X622447Y650349D01*
Y649149D01*
X617649D01*
X510679Y646750D02*
Y653948D01*
X514278D01*
X515478Y652748D01*
Y650349D01*
X514278Y649149D01*
X510679D01*
X517877Y646750D02*
X520276D01*
X519077D01*
Y653948D01*
X517877D01*
X525075Y651548D02*
X527474D01*
X528674Y650349D01*
Y646750D01*
X525075D01*
X523875Y647950D01*
X525075Y649149D01*
X528674D01*
X532272Y652748D02*
Y651548D01*
X531073D01*
X533472D01*
X532272D01*
Y647950D01*
X533472Y646750D01*
X540670D02*
X538270D01*
X537071Y647950D01*
Y650349D01*
X538270Y651548D01*
X540670D01*
X541869Y650349D01*
Y649149D01*
X537071D01*
X549067Y653948D02*
Y646750D01*
X545468D01*
X544269Y647950D01*
Y650349D01*
X545468Y651548D01*
X549067D01*
X380917Y653948D02*
X376119D01*
Y650349D01*
X378518D01*
X376119D01*
Y646750D01*
X383317D02*
X385716D01*
X384516D01*
Y651548D01*
X383317D01*
X389315Y646750D02*
Y651548D01*
X392914D01*
X394113Y650349D01*
Y646750D01*
X396512D02*
X398911D01*
X397712D01*
Y651548D01*
X396512D01*
X402510Y646750D02*
X406109D01*
X407309Y647950D01*
X406109Y649149D01*
X403710D01*
X402510Y650349D01*
X403710Y651548D01*
X407309D01*
X409708Y653948D02*
Y646750D01*
Y650349D01*
X410908Y651548D01*
X413307D01*
X414506Y650349D01*
Y646750D01*
X420505D02*
X418105D01*
X416906Y647950D01*
Y650349D01*
X418105Y651548D01*
X420505D01*
X421704Y650349D01*
Y649149D01*
X416906D01*
X428902Y653948D02*
Y646750D01*
X425303D01*
X424103Y647950D01*
Y650349D01*
X425303Y651548D01*
X428902D01*
X438499Y653948D02*
Y646750D01*
Y650349D01*
X443297D01*
Y653948D01*
Y646750D01*
X446896D02*
X449295D01*
X450495Y647950D01*
Y650349D01*
X449295Y651548D01*
X446896D01*
X445696Y650349D01*
Y647950D01*
X446896Y646750D01*
X452894D02*
X455293D01*
X454094D01*
Y653948D01*
X452894D01*
X462491Y646750D02*
X460092D01*
X458892Y647950D01*
Y650349D01*
X460092Y651548D01*
X462491D01*
X463691Y650349D01*
Y649149D01*
X458892D01*
X478086Y652748D02*
X476886Y653948D01*
X474487D01*
X473287Y652748D01*
Y651548D01*
X474487Y650349D01*
X476886D01*
X478086Y649149D01*
Y647950D01*
X476886Y646750D01*
X474487D01*
X473287Y647950D01*
X480485Y646750D02*
X482884D01*
X481685D01*
Y651548D01*
X480485D01*
X486483D02*
X491282D01*
X486483Y646750D01*
X491282D01*
X497280D02*
X494880D01*
X493681Y647950D01*
Y650349D01*
X494880Y651548D01*
X497280D01*
X498479Y650349D01*
Y649149D01*
X493681D01*
X306338Y653948D02*
Y646750D01*
Y650349D01*
X311136D01*
Y653948D01*
Y646750D01*
X313535D02*
X315934D01*
X314735D01*
Y651548D01*
X313535D01*
X320733Y652748D02*
Y651548D01*
X319533D01*
X321933D01*
X320733D01*
Y647950D01*
X321933Y646750D01*
X337527Y652748D02*
X336328Y653948D01*
X333929D01*
X332729Y652748D01*
Y647950D01*
X333929Y646750D01*
X336328D01*
X337527Y647950D01*
X341126Y646750D02*
X343526D01*
X344725Y647950D01*
Y650349D01*
X343526Y651548D01*
X341126D01*
X339927Y650349D01*
Y647950D01*
X341126Y646750D01*
X347124Y651548D02*
Y647950D01*
X348324Y646750D01*
X351923D01*
Y651548D01*
X354322Y646750D02*
Y651548D01*
X357921D01*
X359120Y650349D01*
Y646750D01*
X362719Y652748D02*
Y651548D01*
X361520D01*
X363919D01*
X362719D01*
Y647950D01*
X363919Y646750D01*
X260548Y652748D02*
X259349Y653948D01*
X256950D01*
X255750Y652748D01*
Y651548D01*
X256950Y650349D01*
X259349D01*
X260548Y649149D01*
Y647950D01*
X259349Y646750D01*
X256950D01*
X255750Y647950D01*
X262948Y651548D02*
Y647950D01*
X264147Y646750D01*
X267746D01*
Y645550D01*
X266547Y644351D01*
X265347D01*
X267746Y646750D02*
Y651548D01*
X270145Y646750D02*
Y651548D01*
X271345D01*
X272545Y650349D01*
Y646750D01*
Y650349D01*
X273744Y651548D01*
X274944Y650349D01*
Y646750D01*
X277343Y653948D02*
Y646750D01*
X280942D01*
X282141Y647950D01*
Y649149D01*
Y650349D01*
X280942Y651548D01*
X277343D01*
X285740Y646750D02*
X288140D01*
X289339Y647950D01*
Y650349D01*
X288140Y651548D01*
X285740D01*
X284541Y650349D01*
Y647950D01*
X285740Y646750D01*
X291738D02*
X294138D01*
X292938D01*
Y653948D01*
X291738D01*
M02*
