M48
;Layer_Color=9474304
;FILE_FORMAT=2:5
INCH,LZ
;TYPE=PLATED
T1F00S00C0.02800
T2F00S00C0.03543
T3F00S00C0.04000
T4F00S00C0.04291
T5F00S00C0.06693
T6F00S00C0.07480
T7F00S00C0.12205
T8F00S00C0.13600
%
T01
X03095Y00475
X0472Y0052
X04575Y00225
X053Y01625
X05295Y01925
X0556Y0196
X0561Y01825
X05155Y0171
X05055Y01925
X05175Y0206
X04925
X04775Y0193
X04855Y0173
X0465Y016
X05035Y01385
X0520405Y0099598
X047Y00705
X03895Y016
X03885Y01975
X0383Y01935
X041Y02045
X04255Y02005
X03585Y0174
Y01635
X03575Y01565
X0354Y0149
X0316Y0143
X03135Y01545
X02655Y01405
Y0134
X0265Y0127
X0266Y0121
X0277Y01105
X03355Y0109
X0353Y0091
X03625
X02515Y0065
X0246Y00695
X0222Y0075
X02265Y0139
Y0145
X0226Y0151
X02125Y01555
X02255Y0181
X024Y01875
X0237Y02025
X0259Y01925
X01925Y0195
X01645Y0182
X0204Y01545
X017Y01175
X0145Y00965
X0096Y0083
X0087Y01095
X01205Y0136
X00795Y02025
X02095Y00755
X0017Y03385
X0032Y03685
X0075276Y0334921
X009Y03195
X00625Y0308
X0058429Y0251571
X0095Y02185
X0151Y0255008
X02035Y0223
X02085Y02275
X01985Y02175
X02025Y03175
X0167Y035
X01305Y0323
X0122Y0328
X0214Y02335
X0222Y0221
X022Y0213
X02385Y0228
X02755Y0289
X0281Y02925
Y02985
X03065Y02965
X03425Y0269
X03575Y0313
X0367453Y0311453
X03695Y02995
X03765Y0295
X0376Y0357
X0434
X043Y03115
X04255Y02585
X04145Y0253
X0402Y02325
X0395Y02345
X03915Y024
X03825Y02265
Y02205
X0376Y02305
X0417Y0216
X04245Y02175
X04775Y0221
X05045
X0515Y02495
X04855Y0244
X04775Y02825
X0483Y03245
X0508177Y0324177
X05085Y03015
X0510177Y0351752
X0480677Y0352252
X053Y03605
X05375Y03145
X05515Y02775
X05635Y02585
X0561Y02315
X057Y02325
X0556Y022
X0529Y02205
X05715Y038
X0508Y0378
X0483Y03785
X0458677Y0377
T02
X0015Y0015
Y0025
Y0035
Y0045
X0373Y01065
X0383
X0393
X0403
Y01305
X0393
X0383
X0373
X0363
X0353
X0333
X0323
X0313
X0303
X0293
X0283
X0297Y01425
X0307
X0302Y01025
X0292
Y00925
X0302
X0312
Y01025
X0363Y01065
X01275Y0205008
X01175
X0015Y02005
Y01905
Y01805
Y01705
Y0139
Y0129
Y0119
Y0109
Y02305
Y02405
Y02505
Y02605
Y028
Y029
Y03
Y031
Y032
X01175Y0245008
Y0235008
Y0225008
Y0215008
X01275
Y0225008
Y0235008
Y0245008
X0247Y03205
X0257
X0267
X0277
X0287
X0297
X0307
X0317
X0333
X0343
X0353
X0363
Y0344
X0353
X0343
X0333
X0323
X0373
X0383
X0393
X0403
X0415
X0425
X0435
X0445
X0455
X0403Y03205
X0393
X0383
X0373
X0375Y03855
X0365
X0355
X0345
X0335
X0325
X0315
X0305
X0295
X0285
X0275
X0265
X0255
X0245
X0235
X0225
T03
X00735Y00155
X00835
X03095Y0015
X03195
X03375
X03475
X0365
X0375
X0393
X0403
X0585Y02005
Y02105
X0268Y0183
Y0173
Y01605
Y01505
X01615Y0096
Y0086
Y00615
X01715
X01815
X01915
X0275Y02545
Y02645
X0287Y02635
Y02535
X0416Y0283
Y0293
X0426
Y0283
X0436
Y0293
X0585Y02705
Y02605
X0397Y03855
X0387
T04
X0156142Y0035311
X0167047
X0177953
X0188858
X0194311Y0046492
X0183405
X01725
X0161594
X0150689
T05
X02705Y00165
T06
X02705Y0034216
T07
X0123307Y0040902
X0221693
T08
X004Y005
X055
X005Y035
X055
M30
